%TF.GenerationSoftware,KiCad,Pcbnew,10.0.1*%
%TF.CreationDate,2026-08-28T14:53:26-05:00*%
%TF.ProjectId,BIOCHEST-ECG-EMG,42494f43-4845-4535-942d-4543472d454d,rev?*%
%TF.SameCoordinates,Original*%
%TF.FileFunction,Copper,L3,Inr*%
%TF.FilePolarity,Positive*%
%FSLAX46Y46*%
G04 Gerber Fmt 4.6, Leading zero omitted, Abs format (unit mm)*
G04 Created by KiCad (PCBNEW 10.0.1) date 2026-08-28 14:53:26*
%MOMM*%
%LPD*%
G01*
G04 APERTURE LIST*
%TA.AperFunction,ComponentPad*%
%ADD10R,5.000000X5.000000*%
%TD*%
%TA.AperFunction,ComponentPad*%
%ADD11R,1.400000X1.400000*%
%TD*%
%TA.AperFunction,ComponentPad*%
%ADD12C,1.400000*%
%TD*%
%TA.AperFunction,ComponentPad*%
%ADD13O,1.000000X1.600000*%
%TD*%
%TA.AperFunction,ViaPad*%
%ADD14C,0.500000*%
%TD*%
G04 APERTURE END LIST*
D10*
%TO.N,ECG_P*%
%TO.C,J1*%
X73000000Y-86000000D03*
%TD*%
D11*
%TO.N,VBAT*%
%TO.C,BT1*%
X125500000Y-114500000D03*
D12*
%TO.N,BAT_PROT_N*%
X127500000Y-114500000D03*
%TD*%
D10*
%TO.N,RLD_DRV*%
%TO.C,J3*%
X72000000Y-100000000D03*
%TD*%
%TO.N,ECG_N*%
%TO.C,J2*%
X83000000Y-86000000D03*
%TD*%
%TO.N,EMG_P*%
%TO.C,J4*%
X73000000Y-114000000D03*
%TD*%
%TO.N,EMG_N*%
%TO.C,J5*%
X83000000Y-114000000D03*
%TD*%
D13*
%TO.N,DGND*%
%TO.C,J6*%
X129500000Y-104300000D03*
X129500000Y-95700000D03*
%TD*%
D11*
%TO.N,DGND*%
%TO.C,U10*%
X94690000Y-115500000D03*
D12*
%TO.N,VSYS*%
X97230000Y-115500000D03*
%TO.N,AGND*%
X99770000Y-115500000D03*
%TO.N,3V3_AFE*%
X102310000Y-115500000D03*
%TD*%
D14*
%TO.N,3V3_AFE*%
X86550000Y-94500000D03*
X86500000Y-103650000D03*
X92300000Y-95555000D03*
X81550000Y-94500000D03*
X88350000Y-84900000D03*
X88350000Y-87100000D03*
X93000000Y-117300000D03*
X84050000Y-94500000D03*
X78000000Y-97700000D03*
X78000000Y-92300000D03*
X78000000Y-107700000D03*
%TO.N,AGND*%
X87300000Y-100800000D03*
X85450000Y-94500000D03*
X92300000Y-96825000D03*
X90500000Y-88300000D03*
X78950000Y-87700000D03*
X87300000Y-99200000D03*
X85700000Y-100800000D03*
X90450000Y-94500000D03*
X78000000Y-102300000D03*
X92300000Y-103175000D03*
X93000000Y-115500000D03*
X92300000Y-104445000D03*
X85700000Y-99200000D03*
X87950000Y-94500000D03*
X78950000Y-112300000D03*
X78950000Y-102300000D03*
%TO.N,VSYS*%
X123400000Y-116200000D03*
X109850000Y-116800000D03*
X97230000Y-117300000D03*
%TO.N,DGND*%
X110550000Y-97500000D03*
X117800000Y-85000000D03*
X125800000Y-103200000D03*
X104700000Y-96825000D03*
X122800000Y-85000000D03*
X117200000Y-102800000D03*
X105000000Y-113250000D03*
X112950000Y-88500000D03*
X117450000Y-114500000D03*
X122450000Y-109000000D03*
X100500000Y-115500000D03*
X110000000Y-112750000D03*
X117200000Y-101200000D03*
X117600000Y-114500000D03*
X109950000Y-88500000D03*
X104700000Y-104445000D03*
X125950000Y-85000000D03*
X110000000Y-112250000D03*
X104700000Y-103175000D03*
X112000000Y-116800000D03*
X128949999Y-85000000D03*
X105000000Y-113750000D03*
X118800000Y-102800000D03*
X125800000Y-97600000D03*
X118800000Y-101200000D03*
X120500000Y-114500000D03*
%TO.N,3V3_DIG*%
X104700000Y-95555000D03*
X109850000Y-113400000D03*
X113550000Y-114500000D03*
X109650000Y-113250000D03*
X106050000Y-88500000D03*
X110550000Y-98350000D03*
X109050000Y-88500000D03*
%TO.N,ECG_N*%
X76500000Y-93000000D03*
X81500000Y-99000000D03*
%TO.N,EMG_P*%
X75500000Y-107000000D03*
X81500000Y-99500000D03*
%TO.N,EMG_N*%
X81500000Y-100000000D03*
X77000000Y-107000000D03*
%TO.N,SPI_SCLK_AFE*%
X92300000Y-97295000D03*
X90150000Y-100700000D03*
%TO.N,SPI_MOSI_AFE*%
X90150000Y-101000000D03*
X92300000Y-99365000D03*
%TO.N,VBUS*%
X117600000Y-113500000D03*
X125800000Y-98400000D03*
X125800000Y-102400000D03*
%TO.N,ESP_IO0*%
X118400000Y-86200000D03*
X110250000Y-100050000D03*
%TO.N,SPI_MOSI_DIG*%
X110550000Y-104300000D03*
X104700000Y-99365000D03*
%TO.N,SPI_SCLK_DIG*%
X104700000Y-98095000D03*
X110550000Y-105150000D03*
%TO.N,I2C_SDA*%
X125750000Y-107000000D03*
X105550000Y-111450000D03*
%TO.N,I2C_SCL*%
X105550000Y-111950000D03*
X125750000Y-106150000D03*
%TO.N,LED_STATUS*%
X125750000Y-105300000D03*
X123250000Y-86200000D03*
%TO.N,LED_ALERT*%
X126250000Y-86200000D03*
X125750000Y-104450000D03*
%TD*%
%TA.AperFunction,Conductor*%
%TO.N,3V3_AFE*%
G36*
X93959191Y-82019407D02*
G01*
X93995155Y-82068907D01*
X94000000Y-82099500D01*
X94000000Y-114461355D01*
X93981093Y-114519546D01*
X93931593Y-114555510D01*
X93920318Y-114558452D01*
X93892261Y-114564033D01*
X93892257Y-114564035D01*
X93809400Y-114619397D01*
X93809397Y-114619400D01*
X93754035Y-114702257D01*
X93754033Y-114702263D01*
X93739501Y-114775315D01*
X93739500Y-114775327D01*
X93739500Y-116224672D01*
X93739501Y-116224684D01*
X93754033Y-116297736D01*
X93754035Y-116297742D01*
X93809397Y-116380599D01*
X93809400Y-116380602D01*
X93892257Y-116435964D01*
X93892260Y-116435966D01*
X93908886Y-116439273D01*
X93920315Y-116441547D01*
X93973699Y-116471444D01*
X93999314Y-116527009D01*
X94000000Y-116538644D01*
X94000000Y-117900500D01*
X93981093Y-117958691D01*
X93931593Y-117994655D01*
X93901000Y-117999500D01*
X73097190Y-117999500D01*
X73091172Y-117999499D01*
X73089660Y-117999222D01*
X72999242Y-117999498D01*
X72998932Y-117999498D01*
X72998911Y-117999491D01*
X72994645Y-117999405D01*
X72632443Y-117983700D01*
X72623301Y-117982878D01*
X72266370Y-117934001D01*
X72257342Y-117932335D01*
X71906474Y-117850608D01*
X71897640Y-117848113D01*
X71555859Y-117734241D01*
X71547294Y-117730939D01*
X71217519Y-117585893D01*
X71209296Y-117581811D01*
X70894384Y-117406850D01*
X70886575Y-117402025D01*
X70794770Y-117339234D01*
X70589204Y-117198634D01*
X70581900Y-117193126D01*
X70304640Y-116963060D01*
X70297865Y-116956886D01*
X70043113Y-116702134D01*
X70036940Y-116695360D01*
X69806871Y-116418095D01*
X69801367Y-116410799D01*
X69597969Y-116113416D01*
X69593154Y-116105623D01*
X69418188Y-115790703D01*
X69414106Y-115782480D01*
X69346901Y-115629683D01*
X69269055Y-115452693D01*
X69265763Y-115444153D01*
X69151884Y-115102353D01*
X69149391Y-115093525D01*
X69075274Y-114775326D01*
X69067661Y-114742644D01*
X69066000Y-114733642D01*
X69017119Y-114376681D01*
X69016300Y-114367573D01*
X69000593Y-114005309D01*
X69000501Y-114001066D01*
X69000778Y-113910340D01*
X69000500Y-113908827D01*
X69000500Y-111475327D01*
X70249500Y-111475327D01*
X70249500Y-116524672D01*
X70249501Y-116524684D01*
X70264033Y-116597736D01*
X70264035Y-116597742D01*
X70319397Y-116680599D01*
X70319399Y-116680601D01*
X70402260Y-116735966D01*
X70457808Y-116747015D01*
X70475315Y-116750498D01*
X70475320Y-116750498D01*
X70475326Y-116750500D01*
X70475327Y-116750500D01*
X75524673Y-116750500D01*
X75524674Y-116750500D01*
X75597740Y-116735966D01*
X75680601Y-116680601D01*
X75735966Y-116597740D01*
X75750500Y-116524674D01*
X75750500Y-112234108D01*
X78449500Y-112234108D01*
X78449500Y-112365892D01*
X78479579Y-112478151D01*
X78483609Y-112493190D01*
X78549496Y-112607309D01*
X78549498Y-112607311D01*
X78549500Y-112607314D01*
X78642686Y-112700500D01*
X78642688Y-112700501D01*
X78642690Y-112700503D01*
X78756810Y-112766390D01*
X78756808Y-112766390D01*
X78756812Y-112766391D01*
X78756814Y-112766392D01*
X78884108Y-112800500D01*
X78884110Y-112800500D01*
X79015890Y-112800500D01*
X79015892Y-112800500D01*
X79143186Y-112766392D01*
X79143188Y-112766390D01*
X79143190Y-112766390D01*
X79257309Y-112700503D01*
X79257309Y-112700502D01*
X79257314Y-112700500D01*
X79350500Y-112607314D01*
X79416392Y-112493186D01*
X79450500Y-112365892D01*
X79450500Y-112234108D01*
X79416392Y-112106814D01*
X79416390Y-112106811D01*
X79416390Y-112106809D01*
X79350503Y-111992690D01*
X79350501Y-111992688D01*
X79350500Y-111992686D01*
X79257314Y-111899500D01*
X79257311Y-111899498D01*
X79257309Y-111899496D01*
X79143189Y-111833609D01*
X79143191Y-111833609D01*
X79093799Y-111820375D01*
X79015892Y-111799500D01*
X78884108Y-111799500D01*
X78806200Y-111820375D01*
X78756809Y-111833609D01*
X78642690Y-111899496D01*
X78549496Y-111992690D01*
X78483609Y-112106809D01*
X78483608Y-112106814D01*
X78449500Y-112234108D01*
X75750500Y-112234108D01*
X75750500Y-111475327D01*
X80249500Y-111475327D01*
X80249500Y-116524672D01*
X80249501Y-116524684D01*
X80264033Y-116597736D01*
X80264035Y-116597742D01*
X80319397Y-116680599D01*
X80319399Y-116680601D01*
X80402260Y-116735966D01*
X80457808Y-116747015D01*
X80475315Y-116750498D01*
X80475320Y-116750498D01*
X80475326Y-116750500D01*
X80475327Y-116750500D01*
X85524673Y-116750500D01*
X85524674Y-116750500D01*
X85597740Y-116735966D01*
X85680601Y-116680601D01*
X85735966Y-116597740D01*
X85750500Y-116524674D01*
X85750500Y-115434108D01*
X92499500Y-115434108D01*
X92499500Y-115565892D01*
X92516593Y-115629683D01*
X92533609Y-115693190D01*
X92599496Y-115807309D01*
X92599498Y-115807311D01*
X92599500Y-115807314D01*
X92692686Y-115900500D01*
X92692688Y-115900501D01*
X92692690Y-115900503D01*
X92806810Y-115966390D01*
X92806808Y-115966390D01*
X92806812Y-115966391D01*
X92806814Y-115966392D01*
X92934108Y-116000500D01*
X92934110Y-116000500D01*
X93065890Y-116000500D01*
X93065892Y-116000500D01*
X93193186Y-115966392D01*
X93193188Y-115966390D01*
X93193190Y-115966390D01*
X93307309Y-115900503D01*
X93307309Y-115900502D01*
X93307314Y-115900500D01*
X93400500Y-115807314D01*
X93400503Y-115807309D01*
X93466390Y-115693190D01*
X93466390Y-115693188D01*
X93466392Y-115693186D01*
X93500500Y-115565892D01*
X93500500Y-115434108D01*
X93466392Y-115306814D01*
X93466390Y-115306811D01*
X93466390Y-115306809D01*
X93400503Y-115192690D01*
X93400501Y-115192688D01*
X93400500Y-115192686D01*
X93307314Y-115099500D01*
X93307311Y-115099498D01*
X93307309Y-115099496D01*
X93193189Y-115033609D01*
X93193191Y-115033609D01*
X93143799Y-115020375D01*
X93065892Y-114999500D01*
X92934108Y-114999500D01*
X92856200Y-115020375D01*
X92806809Y-115033609D01*
X92692690Y-115099496D01*
X92599496Y-115192690D01*
X92533609Y-115306809D01*
X92533608Y-115306814D01*
X92499500Y-115434108D01*
X85750500Y-115434108D01*
X85750500Y-111475326D01*
X85735966Y-111402260D01*
X85680601Y-111319399D01*
X85680599Y-111319397D01*
X85597742Y-111264035D01*
X85597740Y-111264034D01*
X85597737Y-111264033D01*
X85597736Y-111264033D01*
X85524684Y-111249501D01*
X85524674Y-111249500D01*
X80475326Y-111249500D01*
X80475325Y-111249500D01*
X80475315Y-111249501D01*
X80402263Y-111264033D01*
X80402257Y-111264035D01*
X80319400Y-111319397D01*
X80319397Y-111319400D01*
X80264035Y-111402257D01*
X80264033Y-111402263D01*
X80249501Y-111475315D01*
X80249500Y-111475327D01*
X75750500Y-111475327D01*
X75750500Y-111475326D01*
X75735966Y-111402260D01*
X75680601Y-111319399D01*
X75680599Y-111319397D01*
X75597742Y-111264035D01*
X75597740Y-111264034D01*
X75597737Y-111264033D01*
X75597736Y-111264033D01*
X75524684Y-111249501D01*
X75524674Y-111249500D01*
X70475326Y-111249500D01*
X70475325Y-111249500D01*
X70475315Y-111249501D01*
X70402263Y-111264033D01*
X70402257Y-111264035D01*
X70319400Y-111319397D01*
X70319397Y-111319400D01*
X70264035Y-111402257D01*
X70264033Y-111402263D01*
X70249501Y-111475315D01*
X70249500Y-111475327D01*
X69000500Y-111475327D01*
X69000500Y-106934108D01*
X74999500Y-106934108D01*
X74999500Y-107065892D01*
X75029579Y-107178151D01*
X75033609Y-107193190D01*
X75099496Y-107307309D01*
X75099498Y-107307311D01*
X75099500Y-107307314D01*
X75192686Y-107400500D01*
X75192688Y-107400501D01*
X75192690Y-107400503D01*
X75306810Y-107466390D01*
X75306808Y-107466390D01*
X75306812Y-107466391D01*
X75306814Y-107466392D01*
X75434108Y-107500500D01*
X75434110Y-107500500D01*
X75565890Y-107500500D01*
X75565892Y-107500500D01*
X75693186Y-107466392D01*
X75693188Y-107466390D01*
X75693190Y-107466390D01*
X75807309Y-107400503D01*
X75807309Y-107400502D01*
X75807314Y-107400500D01*
X75900500Y-107307314D01*
X75966392Y-107193186D01*
X76000500Y-107065892D01*
X76000500Y-106934108D01*
X76499500Y-106934108D01*
X76499500Y-107065892D01*
X76529579Y-107178151D01*
X76533609Y-107193190D01*
X76599496Y-107307309D01*
X76599498Y-107307311D01*
X76599500Y-107307314D01*
X76692686Y-107400500D01*
X76692688Y-107400501D01*
X76692690Y-107400503D01*
X76806810Y-107466390D01*
X76806808Y-107466390D01*
X76806812Y-107466391D01*
X76806814Y-107466392D01*
X76934108Y-107500500D01*
X76934110Y-107500500D01*
X77065890Y-107500500D01*
X77065892Y-107500500D01*
X77193186Y-107466392D01*
X77193188Y-107466390D01*
X77193190Y-107466390D01*
X77307309Y-107400503D01*
X77307309Y-107400502D01*
X77307314Y-107400500D01*
X77400500Y-107307314D01*
X77466392Y-107193186D01*
X77500500Y-107065892D01*
X77500500Y-106934108D01*
X77466392Y-106806814D01*
X77466390Y-106806811D01*
X77466390Y-106806809D01*
X77400503Y-106692690D01*
X77400501Y-106692688D01*
X77400500Y-106692686D01*
X77307314Y-106599500D01*
X77307311Y-106599498D01*
X77307309Y-106599496D01*
X77193189Y-106533609D01*
X77193191Y-106533609D01*
X77143799Y-106520375D01*
X77065892Y-106499500D01*
X76934108Y-106499500D01*
X76856200Y-106520375D01*
X76806809Y-106533609D01*
X76692690Y-106599496D01*
X76599496Y-106692690D01*
X76533609Y-106806809D01*
X76533608Y-106806814D01*
X76499500Y-106934108D01*
X76000500Y-106934108D01*
X75966392Y-106806814D01*
X75966390Y-106806811D01*
X75966390Y-106806809D01*
X75900503Y-106692690D01*
X75900501Y-106692688D01*
X75900500Y-106692686D01*
X75807314Y-106599500D01*
X75807311Y-106599498D01*
X75807309Y-106599496D01*
X75693189Y-106533609D01*
X75693191Y-106533609D01*
X75643799Y-106520375D01*
X75565892Y-106499500D01*
X75434108Y-106499500D01*
X75356200Y-106520375D01*
X75306809Y-106533609D01*
X75192690Y-106599496D01*
X75099496Y-106692690D01*
X75033609Y-106806809D01*
X75033608Y-106806814D01*
X74999500Y-106934108D01*
X69000500Y-106934108D01*
X69000500Y-104379108D01*
X91799500Y-104379108D01*
X91799500Y-104510892D01*
X91829579Y-104623151D01*
X91833609Y-104638190D01*
X91899496Y-104752309D01*
X91899498Y-104752311D01*
X91899500Y-104752314D01*
X91992686Y-104845500D01*
X91992688Y-104845501D01*
X91992690Y-104845503D01*
X92106810Y-104911390D01*
X92106808Y-104911390D01*
X92106812Y-104911391D01*
X92106814Y-104911392D01*
X92234108Y-104945500D01*
X92234110Y-104945500D01*
X92365890Y-104945500D01*
X92365892Y-104945500D01*
X92493186Y-104911392D01*
X92493188Y-104911390D01*
X92493190Y-104911390D01*
X92607309Y-104845503D01*
X92607309Y-104845502D01*
X92607314Y-104845500D01*
X92700500Y-104752314D01*
X92766392Y-104638186D01*
X92800500Y-104510892D01*
X92800500Y-104379108D01*
X92766392Y-104251814D01*
X92766390Y-104251811D01*
X92766390Y-104251809D01*
X92700503Y-104137690D01*
X92700501Y-104137688D01*
X92700500Y-104137686D01*
X92607314Y-104044500D01*
X92607311Y-104044498D01*
X92607309Y-104044496D01*
X92493189Y-103978609D01*
X92493191Y-103978609D01*
X92443799Y-103965375D01*
X92365892Y-103944500D01*
X92234108Y-103944500D01*
X92156200Y-103965375D01*
X92106809Y-103978609D01*
X91992690Y-104044496D01*
X91899496Y-104137690D01*
X91833609Y-104251809D01*
X91833608Y-104251814D01*
X91799500Y-104379108D01*
X69000500Y-104379108D01*
X69000500Y-103109108D01*
X91799500Y-103109108D01*
X91799500Y-103240892D01*
X91829579Y-103353151D01*
X91833609Y-103368190D01*
X91899496Y-103482309D01*
X91899498Y-103482311D01*
X91899500Y-103482314D01*
X91992686Y-103575500D01*
X91992688Y-103575501D01*
X91992690Y-103575503D01*
X92106810Y-103641390D01*
X92106808Y-103641390D01*
X92106812Y-103641391D01*
X92106814Y-103641392D01*
X92234108Y-103675500D01*
X92234110Y-103675500D01*
X92365890Y-103675500D01*
X92365892Y-103675500D01*
X92493186Y-103641392D01*
X92493188Y-103641390D01*
X92493190Y-103641390D01*
X92607309Y-103575503D01*
X92607309Y-103575502D01*
X92607314Y-103575500D01*
X92700500Y-103482314D01*
X92766392Y-103368186D01*
X92800500Y-103240892D01*
X92800500Y-103109108D01*
X92766392Y-102981814D01*
X92766390Y-102981811D01*
X92766390Y-102981809D01*
X92700503Y-102867690D01*
X92700501Y-102867688D01*
X92700500Y-102867686D01*
X92607314Y-102774500D01*
X92607311Y-102774498D01*
X92607309Y-102774496D01*
X92493189Y-102708609D01*
X92493191Y-102708609D01*
X92443799Y-102695375D01*
X92365892Y-102674500D01*
X92234108Y-102674500D01*
X92156200Y-102695375D01*
X92106809Y-102708609D01*
X91992690Y-102774496D01*
X91899496Y-102867690D01*
X91833609Y-102981809D01*
X91833608Y-102981814D01*
X91799500Y-103109108D01*
X69000500Y-103109108D01*
X69000500Y-97475327D01*
X69249500Y-97475327D01*
X69249500Y-102524672D01*
X69249501Y-102524684D01*
X69264033Y-102597736D01*
X69264035Y-102597742D01*
X69319397Y-102680599D01*
X69319400Y-102680602D01*
X69402257Y-102735964D01*
X69402260Y-102735966D01*
X69457808Y-102747015D01*
X69475315Y-102750498D01*
X69475320Y-102750498D01*
X69475326Y-102750500D01*
X69475327Y-102750500D01*
X74524673Y-102750500D01*
X74524674Y-102750500D01*
X74597740Y-102735966D01*
X74680601Y-102680601D01*
X74735966Y-102597740D01*
X74750500Y-102524674D01*
X74750500Y-102234108D01*
X77499500Y-102234108D01*
X77499500Y-102365892D01*
X77525000Y-102461060D01*
X77533609Y-102493190D01*
X77599496Y-102607309D01*
X77599498Y-102607311D01*
X77599500Y-102607314D01*
X77692686Y-102700500D01*
X77692688Y-102700501D01*
X77692690Y-102700503D01*
X77806810Y-102766390D01*
X77806808Y-102766390D01*
X77806812Y-102766391D01*
X77806814Y-102766392D01*
X77934108Y-102800500D01*
X77934110Y-102800500D01*
X78065890Y-102800500D01*
X78065892Y-102800500D01*
X78193186Y-102766392D01*
X78193188Y-102766390D01*
X78193190Y-102766390D01*
X78307309Y-102700503D01*
X78307309Y-102700502D01*
X78307314Y-102700500D01*
X78400500Y-102607314D01*
X78400501Y-102607311D01*
X78404996Y-102602817D01*
X78459513Y-102575040D01*
X78519945Y-102584611D01*
X78545004Y-102602817D01*
X78549498Y-102607311D01*
X78549500Y-102607314D01*
X78642686Y-102700500D01*
X78642688Y-102700501D01*
X78642690Y-102700503D01*
X78756810Y-102766390D01*
X78756808Y-102766390D01*
X78756812Y-102766391D01*
X78756814Y-102766392D01*
X78884108Y-102800500D01*
X78884110Y-102800500D01*
X79015890Y-102800500D01*
X79015892Y-102800500D01*
X79143186Y-102766392D01*
X79143188Y-102766390D01*
X79143190Y-102766390D01*
X79257309Y-102700503D01*
X79257309Y-102700502D01*
X79257314Y-102700500D01*
X79350500Y-102607314D01*
X79353096Y-102602817D01*
X79416390Y-102493190D01*
X79416390Y-102493188D01*
X79416392Y-102493186D01*
X79450500Y-102365892D01*
X79450500Y-102234108D01*
X79416392Y-102106814D01*
X79416390Y-102106811D01*
X79416390Y-102106809D01*
X79350503Y-101992690D01*
X79350501Y-101992688D01*
X79350500Y-101992686D01*
X79257314Y-101899500D01*
X79257311Y-101899498D01*
X79257309Y-101899496D01*
X79143189Y-101833609D01*
X79143191Y-101833609D01*
X79093799Y-101820375D01*
X79015892Y-101799500D01*
X78884108Y-101799500D01*
X78806200Y-101820375D01*
X78756809Y-101833609D01*
X78642690Y-101899496D01*
X78642689Y-101899497D01*
X78642686Y-101899499D01*
X78642686Y-101899500D01*
X78549500Y-101992686D01*
X78549498Y-101992688D01*
X78545004Y-101997183D01*
X78490487Y-102024960D01*
X78430055Y-102015389D01*
X78404996Y-101997183D01*
X78400501Y-101992688D01*
X78400500Y-101992686D01*
X78307314Y-101899500D01*
X78307311Y-101899498D01*
X78307309Y-101899496D01*
X78193189Y-101833609D01*
X78193191Y-101833609D01*
X78143799Y-101820375D01*
X78065892Y-101799500D01*
X77934108Y-101799500D01*
X77856200Y-101820375D01*
X77806809Y-101833609D01*
X77692690Y-101899496D01*
X77599496Y-101992690D01*
X77533609Y-102106809D01*
X77533608Y-102106814D01*
X77499500Y-102234108D01*
X74750500Y-102234108D01*
X74750500Y-100734108D01*
X85199500Y-100734108D01*
X85199500Y-100865892D01*
X85217778Y-100934107D01*
X85233609Y-100993190D01*
X85299496Y-101107309D01*
X85299498Y-101107311D01*
X85299500Y-101107314D01*
X85392686Y-101200500D01*
X85392688Y-101200501D01*
X85392690Y-101200503D01*
X85506810Y-101266390D01*
X85506808Y-101266390D01*
X85506812Y-101266391D01*
X85506814Y-101266392D01*
X85634108Y-101300500D01*
X85634110Y-101300500D01*
X85765890Y-101300500D01*
X85765892Y-101300500D01*
X85893186Y-101266392D01*
X85893188Y-101266390D01*
X85893190Y-101266390D01*
X86007309Y-101200503D01*
X86007309Y-101200502D01*
X86007314Y-101200500D01*
X86100500Y-101107314D01*
X86166392Y-100993186D01*
X86200500Y-100865892D01*
X86200500Y-100734108D01*
X86799500Y-100734108D01*
X86799500Y-100865892D01*
X86817778Y-100934107D01*
X86833609Y-100993190D01*
X86899496Y-101107309D01*
X86899498Y-101107311D01*
X86899500Y-101107314D01*
X86992686Y-101200500D01*
X86992688Y-101200501D01*
X86992690Y-101200503D01*
X87106810Y-101266390D01*
X87106808Y-101266390D01*
X87106812Y-101266391D01*
X87106814Y-101266392D01*
X87234108Y-101300500D01*
X87234110Y-101300500D01*
X87365890Y-101300500D01*
X87365892Y-101300500D01*
X87493186Y-101266392D01*
X87493188Y-101266390D01*
X87493190Y-101266390D01*
X87607309Y-101200503D01*
X87607309Y-101200502D01*
X87607314Y-101200500D01*
X87700500Y-101107314D01*
X87766392Y-100993186D01*
X87800500Y-100865892D01*
X87800500Y-100734108D01*
X87773706Y-100634109D01*
X89649500Y-100634109D01*
X89649500Y-100765894D01*
X89665170Y-100824379D01*
X89665170Y-100875621D01*
X89649500Y-100934105D01*
X89649500Y-100934107D01*
X89649500Y-100934108D01*
X89649500Y-101065892D01*
X89660598Y-101107309D01*
X89683609Y-101193190D01*
X89749496Y-101307309D01*
X89749498Y-101307311D01*
X89749500Y-101307314D01*
X89842686Y-101400500D01*
X89842688Y-101400501D01*
X89842690Y-101400503D01*
X89956810Y-101466390D01*
X89956808Y-101466390D01*
X89956812Y-101466391D01*
X89956814Y-101466392D01*
X90084108Y-101500500D01*
X90084110Y-101500500D01*
X90215890Y-101500500D01*
X90215892Y-101500500D01*
X90343186Y-101466392D01*
X90343188Y-101466390D01*
X90343190Y-101466390D01*
X90457309Y-101400503D01*
X90457309Y-101400502D01*
X90457314Y-101400500D01*
X90550500Y-101307314D01*
X90554434Y-101300500D01*
X90616390Y-101193190D01*
X90616390Y-101193188D01*
X90616392Y-101193186D01*
X90650500Y-101065892D01*
X90650500Y-100934108D01*
X90634829Y-100875623D01*
X90634829Y-100824376D01*
X90650499Y-100765894D01*
X90650500Y-100765892D01*
X90650500Y-100634109D01*
X90650500Y-100634108D01*
X90616392Y-100506814D01*
X90616390Y-100506811D01*
X90616390Y-100506809D01*
X90550503Y-100392690D01*
X90550501Y-100392688D01*
X90550500Y-100392686D01*
X90457314Y-100299500D01*
X90457311Y-100299498D01*
X90457309Y-100299496D01*
X90343189Y-100233609D01*
X90343191Y-100233609D01*
X90293799Y-100220375D01*
X90215892Y-100199500D01*
X90084108Y-100199500D01*
X90006200Y-100220375D01*
X89956809Y-100233609D01*
X89842690Y-100299496D01*
X89749496Y-100392690D01*
X89683609Y-100506809D01*
X89649500Y-100634109D01*
X87773706Y-100634109D01*
X87766392Y-100606814D01*
X87766390Y-100606811D01*
X87766390Y-100606809D01*
X87700503Y-100492690D01*
X87700501Y-100492688D01*
X87700500Y-100492686D01*
X87607314Y-100399500D01*
X87607311Y-100399498D01*
X87607309Y-100399496D01*
X87493189Y-100333609D01*
X87493191Y-100333609D01*
X87443799Y-100320375D01*
X87365892Y-100299500D01*
X87234108Y-100299500D01*
X87156200Y-100320375D01*
X87106809Y-100333609D01*
X86992690Y-100399496D01*
X86899496Y-100492690D01*
X86833609Y-100606809D01*
X86826294Y-100634109D01*
X86799500Y-100734108D01*
X86200500Y-100734108D01*
X86166392Y-100606814D01*
X86166390Y-100606811D01*
X86166390Y-100606809D01*
X86100503Y-100492690D01*
X86100501Y-100492688D01*
X86100500Y-100492686D01*
X86007314Y-100399500D01*
X86007311Y-100399498D01*
X86007309Y-100399496D01*
X85893189Y-100333609D01*
X85893191Y-100333609D01*
X85843799Y-100320375D01*
X85765892Y-100299500D01*
X85634108Y-100299500D01*
X85556200Y-100320375D01*
X85506809Y-100333609D01*
X85392690Y-100399496D01*
X85299496Y-100492690D01*
X85233609Y-100606809D01*
X85226294Y-100634109D01*
X85199500Y-100734108D01*
X74750500Y-100734108D01*
X74750500Y-98934108D01*
X80999500Y-98934108D01*
X80999500Y-99065892D01*
X81033608Y-99193186D01*
X81033609Y-99193187D01*
X81037832Y-99200502D01*
X81050551Y-99260351D01*
X81037832Y-99299497D01*
X81033608Y-99306814D01*
X80999500Y-99434108D01*
X80999500Y-99565892D01*
X81033608Y-99693186D01*
X81033609Y-99693187D01*
X81037832Y-99700502D01*
X81050551Y-99760351D01*
X81037832Y-99799497D01*
X81033608Y-99806814D01*
X80999500Y-99934108D01*
X80999500Y-100065892D01*
X81029579Y-100178151D01*
X81033609Y-100193190D01*
X81099496Y-100307309D01*
X81099498Y-100307311D01*
X81099500Y-100307314D01*
X81192686Y-100400500D01*
X81192688Y-100400501D01*
X81192690Y-100400503D01*
X81306810Y-100466390D01*
X81306808Y-100466390D01*
X81306812Y-100466391D01*
X81306814Y-100466392D01*
X81434108Y-100500500D01*
X81434110Y-100500500D01*
X81565890Y-100500500D01*
X81565892Y-100500500D01*
X81693186Y-100466392D01*
X81693188Y-100466390D01*
X81693190Y-100466390D01*
X81807309Y-100400503D01*
X81807309Y-100400502D01*
X81807314Y-100400500D01*
X81900500Y-100307314D01*
X81900503Y-100307309D01*
X81966390Y-100193190D01*
X81966390Y-100193188D01*
X81966392Y-100193186D01*
X82000500Y-100065892D01*
X82000500Y-99934108D01*
X81966392Y-99806814D01*
X81962171Y-99799504D01*
X81949447Y-99739658D01*
X81962171Y-99700496D01*
X81966392Y-99693186D01*
X82000500Y-99565892D01*
X82000500Y-99434108D01*
X81966392Y-99306814D01*
X81962171Y-99299504D01*
X81949447Y-99239658D01*
X81953478Y-99220257D01*
X81956738Y-99209906D01*
X81966392Y-99193186D01*
X81982222Y-99134108D01*
X85199500Y-99134108D01*
X85199500Y-99265892D01*
X85210465Y-99306814D01*
X85233609Y-99393190D01*
X85299496Y-99507309D01*
X85299498Y-99507311D01*
X85299500Y-99507314D01*
X85392686Y-99600500D01*
X85392688Y-99600501D01*
X85392690Y-99600503D01*
X85506810Y-99666390D01*
X85506808Y-99666390D01*
X85506812Y-99666391D01*
X85506814Y-99666392D01*
X85634108Y-99700500D01*
X85634110Y-99700500D01*
X85765890Y-99700500D01*
X85765892Y-99700500D01*
X85893186Y-99666392D01*
X85893188Y-99666390D01*
X85893190Y-99666390D01*
X86007309Y-99600503D01*
X86007309Y-99600502D01*
X86007314Y-99600500D01*
X86100500Y-99507314D01*
X86142766Y-99434108D01*
X86166390Y-99393190D01*
X86166390Y-99393188D01*
X86166392Y-99393186D01*
X86200500Y-99265892D01*
X86200500Y-99134108D01*
X86799500Y-99134108D01*
X86799500Y-99265892D01*
X86810465Y-99306814D01*
X86833609Y-99393190D01*
X86899496Y-99507309D01*
X86899498Y-99507311D01*
X86899500Y-99507314D01*
X86992686Y-99600500D01*
X86992688Y-99600501D01*
X86992690Y-99600503D01*
X87106810Y-99666390D01*
X87106808Y-99666390D01*
X87106812Y-99666391D01*
X87106814Y-99666392D01*
X87234108Y-99700500D01*
X87234110Y-99700500D01*
X87365890Y-99700500D01*
X87365892Y-99700500D01*
X87493186Y-99666392D01*
X87493188Y-99666390D01*
X87493190Y-99666390D01*
X87607309Y-99600503D01*
X87607309Y-99600502D01*
X87607314Y-99600500D01*
X87700500Y-99507314D01*
X87742766Y-99434108D01*
X87766390Y-99393190D01*
X87766390Y-99393188D01*
X87766392Y-99393186D01*
X87791600Y-99299108D01*
X91799500Y-99299108D01*
X91799500Y-99430892D01*
X91819976Y-99507309D01*
X91833609Y-99558190D01*
X91899496Y-99672309D01*
X91899498Y-99672311D01*
X91899500Y-99672314D01*
X91992686Y-99765500D01*
X91992688Y-99765501D01*
X91992690Y-99765503D01*
X92106810Y-99831390D01*
X92106808Y-99831390D01*
X92106812Y-99831391D01*
X92106814Y-99831392D01*
X92234108Y-99865500D01*
X92234110Y-99865500D01*
X92365890Y-99865500D01*
X92365892Y-99865500D01*
X92493186Y-99831392D01*
X92493188Y-99831390D01*
X92493190Y-99831390D01*
X92607309Y-99765503D01*
X92607309Y-99765502D01*
X92607314Y-99765500D01*
X92700500Y-99672314D01*
X92766392Y-99558186D01*
X92800500Y-99430892D01*
X92800500Y-99299108D01*
X92766392Y-99171814D01*
X92766390Y-99171811D01*
X92766390Y-99171809D01*
X92700503Y-99057690D01*
X92700501Y-99057688D01*
X92700500Y-99057686D01*
X92607314Y-98964500D01*
X92607311Y-98964498D01*
X92607309Y-98964496D01*
X92493189Y-98898609D01*
X92493191Y-98898609D01*
X92443799Y-98885375D01*
X92365892Y-98864500D01*
X92234108Y-98864500D01*
X92156200Y-98885375D01*
X92106809Y-98898609D01*
X91992690Y-98964496D01*
X91899496Y-99057690D01*
X91833609Y-99171809D01*
X91833608Y-99171814D01*
X91799500Y-99299108D01*
X87791600Y-99299108D01*
X87800500Y-99265892D01*
X87800500Y-99134108D01*
X87766392Y-99006814D01*
X87766390Y-99006811D01*
X87766390Y-99006809D01*
X87700503Y-98892690D01*
X87700501Y-98892688D01*
X87700500Y-98892686D01*
X87607314Y-98799500D01*
X87607311Y-98799498D01*
X87607309Y-98799496D01*
X87493189Y-98733609D01*
X87493191Y-98733609D01*
X87443799Y-98720375D01*
X87365892Y-98699500D01*
X87234108Y-98699500D01*
X87156200Y-98720375D01*
X87106809Y-98733609D01*
X86992690Y-98799496D01*
X86899496Y-98892690D01*
X86833609Y-99006809D01*
X86817778Y-99065892D01*
X86799500Y-99134108D01*
X86200500Y-99134108D01*
X86166392Y-99006814D01*
X86166390Y-99006811D01*
X86166390Y-99006809D01*
X86100503Y-98892690D01*
X86100501Y-98892688D01*
X86100500Y-98892686D01*
X86007314Y-98799500D01*
X86007311Y-98799498D01*
X86007309Y-98799496D01*
X85893189Y-98733609D01*
X85893191Y-98733609D01*
X85843799Y-98720375D01*
X85765892Y-98699500D01*
X85634108Y-98699500D01*
X85556200Y-98720375D01*
X85506809Y-98733609D01*
X85392690Y-98799496D01*
X85299496Y-98892690D01*
X85233609Y-99006809D01*
X85217778Y-99065892D01*
X85199500Y-99134108D01*
X81982222Y-99134108D01*
X82000500Y-99065892D01*
X82000500Y-98934108D01*
X81966392Y-98806814D01*
X81966390Y-98806811D01*
X81966390Y-98806809D01*
X81900503Y-98692690D01*
X81900501Y-98692688D01*
X81900500Y-98692686D01*
X81807314Y-98599500D01*
X81807311Y-98599498D01*
X81807309Y-98599496D01*
X81693189Y-98533609D01*
X81693191Y-98533609D01*
X81643799Y-98520375D01*
X81565892Y-98499500D01*
X81434108Y-98499500D01*
X81356200Y-98520375D01*
X81306809Y-98533609D01*
X81192690Y-98599496D01*
X81099496Y-98692690D01*
X81033609Y-98806809D01*
X81033608Y-98806814D01*
X80999500Y-98934108D01*
X74750500Y-98934108D01*
X74750500Y-97475326D01*
X74735966Y-97402260D01*
X74680601Y-97319399D01*
X74680599Y-97319397D01*
X74597742Y-97264035D01*
X74597740Y-97264034D01*
X74597737Y-97264033D01*
X74597736Y-97264033D01*
X74524684Y-97249501D01*
X74524674Y-97249500D01*
X69475326Y-97249500D01*
X69475325Y-97249500D01*
X69475315Y-97249501D01*
X69402263Y-97264033D01*
X69402257Y-97264035D01*
X69319400Y-97319397D01*
X69319397Y-97319400D01*
X69264035Y-97402257D01*
X69264033Y-97402263D01*
X69249501Y-97475315D01*
X69249500Y-97475327D01*
X69000500Y-97475327D01*
X69000500Y-96759108D01*
X91799500Y-96759108D01*
X91799500Y-96890892D01*
X91829579Y-97003151D01*
X91833609Y-97018190D01*
X91835237Y-97022119D01*
X91840034Y-97083117D01*
X91835237Y-97097881D01*
X91833609Y-97101809D01*
X91833608Y-97101814D01*
X91799500Y-97229108D01*
X91799500Y-97360892D01*
X91829579Y-97473151D01*
X91833609Y-97488190D01*
X91899496Y-97602309D01*
X91899498Y-97602311D01*
X91899500Y-97602314D01*
X91992686Y-97695500D01*
X91992688Y-97695501D01*
X91992690Y-97695503D01*
X92106810Y-97761390D01*
X92106808Y-97761390D01*
X92106812Y-97761391D01*
X92106814Y-97761392D01*
X92234108Y-97795500D01*
X92234110Y-97795500D01*
X92365890Y-97795500D01*
X92365892Y-97795500D01*
X92493186Y-97761392D01*
X92493188Y-97761390D01*
X92493190Y-97761390D01*
X92607309Y-97695503D01*
X92607309Y-97695502D01*
X92607314Y-97695500D01*
X92700500Y-97602314D01*
X92766392Y-97488186D01*
X92800500Y-97360892D01*
X92800500Y-97229108D01*
X92766392Y-97101814D01*
X92766387Y-97101806D01*
X92764764Y-97097884D01*
X92759965Y-97036887D01*
X92764764Y-97022116D01*
X92766386Y-97018195D01*
X92766392Y-97018186D01*
X92800500Y-96890892D01*
X92800500Y-96759108D01*
X92766392Y-96631814D01*
X92766390Y-96631811D01*
X92766390Y-96631809D01*
X92700503Y-96517690D01*
X92700501Y-96517688D01*
X92700500Y-96517686D01*
X92607314Y-96424500D01*
X92607311Y-96424498D01*
X92607309Y-96424496D01*
X92493189Y-96358609D01*
X92493191Y-96358609D01*
X92443799Y-96345375D01*
X92365892Y-96324500D01*
X92234108Y-96324500D01*
X92156200Y-96345375D01*
X92106809Y-96358609D01*
X91992690Y-96424496D01*
X91899496Y-96517690D01*
X91833609Y-96631809D01*
X91833608Y-96631814D01*
X91799500Y-96759108D01*
X69000500Y-96759108D01*
X69000500Y-94434108D01*
X84949500Y-94434108D01*
X84949500Y-94565892D01*
X84979579Y-94678151D01*
X84983609Y-94693190D01*
X85049496Y-94807309D01*
X85049498Y-94807311D01*
X85049500Y-94807314D01*
X85142686Y-94900500D01*
X85142688Y-94900501D01*
X85142690Y-94900503D01*
X85256810Y-94966390D01*
X85256808Y-94966390D01*
X85256812Y-94966391D01*
X85256814Y-94966392D01*
X85384108Y-95000500D01*
X85384110Y-95000500D01*
X85515890Y-95000500D01*
X85515892Y-95000500D01*
X85643186Y-94966392D01*
X85643188Y-94966390D01*
X85643190Y-94966390D01*
X85757309Y-94900503D01*
X85757309Y-94900502D01*
X85757314Y-94900500D01*
X85850500Y-94807314D01*
X85916392Y-94693186D01*
X85950500Y-94565892D01*
X85950500Y-94434108D01*
X87449500Y-94434108D01*
X87449500Y-94565892D01*
X87479579Y-94678151D01*
X87483609Y-94693190D01*
X87549496Y-94807309D01*
X87549498Y-94807311D01*
X87549500Y-94807314D01*
X87642686Y-94900500D01*
X87642688Y-94900501D01*
X87642690Y-94900503D01*
X87756810Y-94966390D01*
X87756808Y-94966390D01*
X87756812Y-94966391D01*
X87756814Y-94966392D01*
X87884108Y-95000500D01*
X87884110Y-95000500D01*
X88015890Y-95000500D01*
X88015892Y-95000500D01*
X88143186Y-94966392D01*
X88143188Y-94966390D01*
X88143190Y-94966390D01*
X88257309Y-94900503D01*
X88257309Y-94900502D01*
X88257314Y-94900500D01*
X88350500Y-94807314D01*
X88416392Y-94693186D01*
X88450500Y-94565892D01*
X88450500Y-94434108D01*
X89949500Y-94434108D01*
X89949500Y-94565892D01*
X89979579Y-94678151D01*
X89983609Y-94693190D01*
X90049496Y-94807309D01*
X90049498Y-94807311D01*
X90049500Y-94807314D01*
X90142686Y-94900500D01*
X90142688Y-94900501D01*
X90142690Y-94900503D01*
X90256810Y-94966390D01*
X90256808Y-94966390D01*
X90256812Y-94966391D01*
X90256814Y-94966392D01*
X90384108Y-95000500D01*
X90384110Y-95000500D01*
X90515890Y-95000500D01*
X90515892Y-95000500D01*
X90643186Y-94966392D01*
X90643188Y-94966390D01*
X90643190Y-94966390D01*
X90757309Y-94900503D01*
X90757309Y-94900502D01*
X90757314Y-94900500D01*
X90850500Y-94807314D01*
X90916392Y-94693186D01*
X90950500Y-94565892D01*
X90950500Y-94434108D01*
X90916392Y-94306814D01*
X90916390Y-94306811D01*
X90916390Y-94306809D01*
X90850503Y-94192690D01*
X90850501Y-94192688D01*
X90850500Y-94192686D01*
X90757314Y-94099500D01*
X90757311Y-94099498D01*
X90757309Y-94099496D01*
X90643189Y-94033609D01*
X90643191Y-94033609D01*
X90593799Y-94020375D01*
X90515892Y-93999500D01*
X90384108Y-93999500D01*
X90306200Y-94020375D01*
X90256809Y-94033609D01*
X90142690Y-94099496D01*
X90049496Y-94192690D01*
X89983609Y-94306809D01*
X89983608Y-94306814D01*
X89949500Y-94434108D01*
X88450500Y-94434108D01*
X88416392Y-94306814D01*
X88416390Y-94306811D01*
X88416390Y-94306809D01*
X88350503Y-94192690D01*
X88350501Y-94192688D01*
X88350500Y-94192686D01*
X88257314Y-94099500D01*
X88257311Y-94099498D01*
X88257309Y-94099496D01*
X88143189Y-94033609D01*
X88143191Y-94033609D01*
X88093799Y-94020375D01*
X88015892Y-93999500D01*
X87884108Y-93999500D01*
X87806200Y-94020375D01*
X87756809Y-94033609D01*
X87642690Y-94099496D01*
X87549496Y-94192690D01*
X87483609Y-94306809D01*
X87483608Y-94306814D01*
X87449500Y-94434108D01*
X85950500Y-94434108D01*
X85916392Y-94306814D01*
X85916390Y-94306811D01*
X85916390Y-94306809D01*
X85850503Y-94192690D01*
X85850501Y-94192688D01*
X85850500Y-94192686D01*
X85757314Y-94099500D01*
X85757311Y-94099498D01*
X85757309Y-94099496D01*
X85643189Y-94033609D01*
X85643191Y-94033609D01*
X85593799Y-94020375D01*
X85515892Y-93999500D01*
X85384108Y-93999500D01*
X85306200Y-94020375D01*
X85256809Y-94033609D01*
X85142690Y-94099496D01*
X85049496Y-94192690D01*
X84983609Y-94306809D01*
X84983608Y-94306814D01*
X84949500Y-94434108D01*
X69000500Y-94434108D01*
X69000500Y-92934108D01*
X75999500Y-92934108D01*
X75999500Y-93065892D01*
X76029579Y-93178151D01*
X76033609Y-93193190D01*
X76099496Y-93307309D01*
X76099498Y-93307311D01*
X76099500Y-93307314D01*
X76192686Y-93400500D01*
X76192688Y-93400501D01*
X76192690Y-93400503D01*
X76306810Y-93466390D01*
X76306808Y-93466390D01*
X76306812Y-93466391D01*
X76306814Y-93466392D01*
X76434108Y-93500500D01*
X76434110Y-93500500D01*
X76565890Y-93500500D01*
X76565892Y-93500500D01*
X76693186Y-93466392D01*
X76693188Y-93466390D01*
X76693190Y-93466390D01*
X76807309Y-93400503D01*
X76807309Y-93400502D01*
X76807314Y-93400500D01*
X76900500Y-93307314D01*
X76966392Y-93193186D01*
X77000500Y-93065892D01*
X77000500Y-92934108D01*
X76966392Y-92806814D01*
X76966390Y-92806811D01*
X76966390Y-92806809D01*
X76900503Y-92692690D01*
X76900501Y-92692688D01*
X76900500Y-92692686D01*
X76807314Y-92599500D01*
X76807311Y-92599498D01*
X76807309Y-92599496D01*
X76693189Y-92533609D01*
X76693191Y-92533609D01*
X76643799Y-92520375D01*
X76565892Y-92499500D01*
X76434108Y-92499500D01*
X76356200Y-92520375D01*
X76306809Y-92533609D01*
X76192690Y-92599496D01*
X76099496Y-92692690D01*
X76033609Y-92806809D01*
X76033608Y-92806814D01*
X75999500Y-92934108D01*
X69000500Y-92934108D01*
X69000500Y-86091172D01*
X69000778Y-86089660D01*
X69000501Y-85998931D01*
X69000507Y-85998911D01*
X69000593Y-85994687D01*
X69016300Y-85632424D01*
X69017119Y-85623320D01*
X69066001Y-85266353D01*
X69067660Y-85257358D01*
X69149394Y-84906462D01*
X69151882Y-84897652D01*
X69265765Y-84555839D01*
X69269052Y-84547313D01*
X69414109Y-84217512D01*
X69418188Y-84209296D01*
X69593159Y-83894366D01*
X69597962Y-83886593D01*
X69801374Y-83589190D01*
X69806862Y-83581914D01*
X69895306Y-83475327D01*
X70249500Y-83475327D01*
X70249500Y-88524672D01*
X70249501Y-88524684D01*
X70264033Y-88597736D01*
X70264035Y-88597742D01*
X70319397Y-88680599D01*
X70319399Y-88680601D01*
X70402260Y-88735966D01*
X70457808Y-88747015D01*
X70475315Y-88750498D01*
X70475320Y-88750498D01*
X70475326Y-88750500D01*
X70475327Y-88750500D01*
X75524673Y-88750500D01*
X75524674Y-88750500D01*
X75597740Y-88735966D01*
X75680601Y-88680601D01*
X75735966Y-88597740D01*
X75750500Y-88524674D01*
X75750500Y-87634108D01*
X78449500Y-87634108D01*
X78449500Y-87765892D01*
X78467644Y-87833608D01*
X78483609Y-87893190D01*
X78549496Y-88007309D01*
X78549498Y-88007311D01*
X78549500Y-88007314D01*
X78642686Y-88100500D01*
X78642688Y-88100501D01*
X78642690Y-88100503D01*
X78756810Y-88166390D01*
X78756808Y-88166390D01*
X78756812Y-88166391D01*
X78756814Y-88166392D01*
X78884108Y-88200500D01*
X78884110Y-88200500D01*
X79015890Y-88200500D01*
X79015892Y-88200500D01*
X79143186Y-88166392D01*
X79143188Y-88166390D01*
X79143190Y-88166390D01*
X79257309Y-88100503D01*
X79257309Y-88100502D01*
X79257314Y-88100500D01*
X79350500Y-88007314D01*
X79416392Y-87893186D01*
X79450500Y-87765892D01*
X79450500Y-87634108D01*
X79416392Y-87506814D01*
X79416390Y-87506811D01*
X79416390Y-87506809D01*
X79350503Y-87392690D01*
X79350501Y-87392688D01*
X79350500Y-87392686D01*
X79257314Y-87299500D01*
X79257311Y-87299498D01*
X79257309Y-87299496D01*
X79143189Y-87233609D01*
X79143191Y-87233609D01*
X79093799Y-87220375D01*
X79015892Y-87199500D01*
X78884108Y-87199500D01*
X78806200Y-87220375D01*
X78756809Y-87233609D01*
X78642690Y-87299496D01*
X78549496Y-87392690D01*
X78483609Y-87506809D01*
X78483608Y-87506814D01*
X78449500Y-87634108D01*
X75750500Y-87634108D01*
X75750500Y-83475327D01*
X80249500Y-83475327D01*
X80249500Y-88524672D01*
X80249501Y-88524684D01*
X80264033Y-88597736D01*
X80264035Y-88597742D01*
X80319397Y-88680599D01*
X80319399Y-88680601D01*
X80402260Y-88735966D01*
X80457808Y-88747015D01*
X80475315Y-88750498D01*
X80475320Y-88750498D01*
X80475326Y-88750500D01*
X80475327Y-88750500D01*
X85524673Y-88750500D01*
X85524674Y-88750500D01*
X85597740Y-88735966D01*
X85680601Y-88680601D01*
X85735966Y-88597740D01*
X85750500Y-88524674D01*
X85750500Y-88234108D01*
X89999500Y-88234108D01*
X89999500Y-88365892D01*
X90029579Y-88478151D01*
X90033609Y-88493190D01*
X90099496Y-88607309D01*
X90099498Y-88607311D01*
X90099500Y-88607314D01*
X90192686Y-88700500D01*
X90192688Y-88700501D01*
X90192690Y-88700503D01*
X90306810Y-88766390D01*
X90306808Y-88766390D01*
X90306812Y-88766391D01*
X90306814Y-88766392D01*
X90434108Y-88800500D01*
X90434110Y-88800500D01*
X90565890Y-88800500D01*
X90565892Y-88800500D01*
X90693186Y-88766392D01*
X90693188Y-88766390D01*
X90693190Y-88766390D01*
X90807309Y-88700503D01*
X90807309Y-88700502D01*
X90807314Y-88700500D01*
X90900500Y-88607314D01*
X90900503Y-88607309D01*
X90966390Y-88493190D01*
X90966390Y-88493188D01*
X90966392Y-88493186D01*
X91000500Y-88365892D01*
X91000500Y-88234108D01*
X90966392Y-88106814D01*
X90966390Y-88106811D01*
X90966390Y-88106809D01*
X90900503Y-87992690D01*
X90900501Y-87992688D01*
X90900500Y-87992686D01*
X90807314Y-87899500D01*
X90807311Y-87899498D01*
X90807309Y-87899496D01*
X90693189Y-87833609D01*
X90693191Y-87833609D01*
X90643799Y-87820375D01*
X90565892Y-87799500D01*
X90434108Y-87799500D01*
X90356200Y-87820375D01*
X90306809Y-87833609D01*
X90192690Y-87899496D01*
X90099496Y-87992690D01*
X90033609Y-88106809D01*
X90033608Y-88106814D01*
X89999500Y-88234108D01*
X85750500Y-88234108D01*
X85750500Y-83475326D01*
X85735966Y-83402260D01*
X85680601Y-83319399D01*
X85680599Y-83319397D01*
X85597742Y-83264035D01*
X85597740Y-83264034D01*
X85597737Y-83264033D01*
X85597736Y-83264033D01*
X85524684Y-83249501D01*
X85524674Y-83249500D01*
X80475326Y-83249500D01*
X80475325Y-83249500D01*
X80475315Y-83249501D01*
X80402263Y-83264033D01*
X80402257Y-83264035D01*
X80319400Y-83319397D01*
X80319397Y-83319400D01*
X80264035Y-83402257D01*
X80264033Y-83402263D01*
X80249501Y-83475315D01*
X80249500Y-83475327D01*
X75750500Y-83475327D01*
X75750500Y-83475326D01*
X75735966Y-83402260D01*
X75680601Y-83319399D01*
X75680599Y-83319397D01*
X75597742Y-83264035D01*
X75597740Y-83264034D01*
X75597737Y-83264033D01*
X75597736Y-83264033D01*
X75524684Y-83249501D01*
X75524674Y-83249500D01*
X70475326Y-83249500D01*
X70475325Y-83249500D01*
X70475315Y-83249501D01*
X70402263Y-83264033D01*
X70402257Y-83264035D01*
X70319400Y-83319397D01*
X70319397Y-83319400D01*
X70264035Y-83402257D01*
X70264033Y-83402263D01*
X70249501Y-83475315D01*
X70249500Y-83475327D01*
X69895306Y-83475327D01*
X70036949Y-83304628D01*
X70043102Y-83297876D01*
X70297876Y-83043102D01*
X70304628Y-83036949D01*
X70581914Y-82806862D01*
X70589190Y-82801374D01*
X70886593Y-82597962D01*
X70894366Y-82593159D01*
X71209303Y-82418184D01*
X71217512Y-82414109D01*
X71547313Y-82269052D01*
X71555839Y-82265765D01*
X71897652Y-82151882D01*
X71906462Y-82149394D01*
X72257358Y-82067660D01*
X72266353Y-82066001D01*
X72623320Y-82017119D01*
X72632424Y-82016300D01*
X72994691Y-82000592D01*
X72998930Y-82000501D01*
X73089660Y-82000778D01*
X73091172Y-82000500D01*
X73097191Y-82000500D01*
X93901000Y-82000500D01*
X93959191Y-82019407D01*
G37*
%TD.AperFunction*%
%TD*%
%TA.AperFunction,Conductor*%
%TO.N,3V3_DIG*%
G36*
X126910340Y-82000778D02*
G01*
X127001068Y-82000501D01*
X127005309Y-82000593D01*
X127367573Y-82016300D01*
X127376681Y-82017119D01*
X127733642Y-82066000D01*
X127742644Y-82067661D01*
X128093532Y-82149392D01*
X128102353Y-82151884D01*
X128444153Y-82265763D01*
X128452693Y-82269055D01*
X128757322Y-82403040D01*
X128782480Y-82414106D01*
X128790704Y-82418188D01*
X129105623Y-82593154D01*
X129113416Y-82597969D01*
X129410799Y-82801367D01*
X129418095Y-82806871D01*
X129695360Y-83036940D01*
X129702134Y-83043113D01*
X129956886Y-83297865D01*
X129963060Y-83304640D01*
X130193126Y-83581900D01*
X130198640Y-83589211D01*
X130402025Y-83886575D01*
X130406850Y-83894384D01*
X130581811Y-84209296D01*
X130585893Y-84217519D01*
X130730939Y-84547294D01*
X130734241Y-84555859D01*
X130848113Y-84897640D01*
X130850608Y-84906474D01*
X130932335Y-85257342D01*
X130934001Y-85266370D01*
X130982878Y-85623301D01*
X130983700Y-85632443D01*
X130999405Y-85994644D01*
X130999498Y-85998931D01*
X130999498Y-85999241D01*
X130999222Y-86089660D01*
X130999499Y-86091171D01*
X130999500Y-86097191D01*
X130999500Y-113902807D01*
X130999218Y-113909109D01*
X130999498Y-114000763D01*
X130999405Y-114005354D01*
X130983700Y-114367556D01*
X130982878Y-114376698D01*
X130934001Y-114733629D01*
X130932335Y-114742657D01*
X130850608Y-115093525D01*
X130848113Y-115102359D01*
X130734241Y-115444140D01*
X130730939Y-115452705D01*
X130585893Y-115782480D01*
X130581811Y-115790703D01*
X130406850Y-116105615D01*
X130402025Y-116113424D01*
X130198640Y-116410788D01*
X130193118Y-116418109D01*
X130041773Y-116600500D01*
X129963069Y-116695349D01*
X129956886Y-116702134D01*
X129702134Y-116956886D01*
X129695349Y-116963069D01*
X129418109Y-117193118D01*
X129410788Y-117198640D01*
X129113424Y-117402025D01*
X129105615Y-117406850D01*
X128790703Y-117581811D01*
X128782480Y-117585893D01*
X128452705Y-117730939D01*
X128444140Y-117734241D01*
X128102359Y-117848113D01*
X128093525Y-117850608D01*
X127742657Y-117932335D01*
X127733629Y-117934001D01*
X127376698Y-117982878D01*
X127367556Y-117983700D01*
X127005354Y-117999405D01*
X127001067Y-117999498D01*
X127000757Y-117999498D01*
X126910340Y-117999222D01*
X126908827Y-117999499D01*
X126902810Y-117999500D01*
X126902809Y-117999499D01*
X126902808Y-117999500D01*
X99099000Y-117999500D01*
X99040809Y-117980593D01*
X99004845Y-117931093D01*
X99000000Y-117900500D01*
X99000000Y-116734108D01*
X109349500Y-116734108D01*
X109349500Y-116865892D01*
X109368401Y-116936432D01*
X109383609Y-116993190D01*
X109449496Y-117107309D01*
X109449498Y-117107311D01*
X109449500Y-117107314D01*
X109542686Y-117200500D01*
X109542688Y-117200501D01*
X109542690Y-117200503D01*
X109656810Y-117266390D01*
X109656808Y-117266390D01*
X109656812Y-117266391D01*
X109656814Y-117266392D01*
X109784108Y-117300500D01*
X109784110Y-117300500D01*
X109915890Y-117300500D01*
X109915892Y-117300500D01*
X110043186Y-117266392D01*
X110043188Y-117266390D01*
X110043190Y-117266390D01*
X110157309Y-117200503D01*
X110157309Y-117200502D01*
X110157314Y-117200500D01*
X110250500Y-117107314D01*
X110316392Y-116993186D01*
X110350500Y-116865892D01*
X110350500Y-116734108D01*
X111499500Y-116734108D01*
X111499500Y-116865892D01*
X111518401Y-116936432D01*
X111533609Y-116993190D01*
X111599496Y-117107309D01*
X111599498Y-117107311D01*
X111599500Y-117107314D01*
X111692686Y-117200500D01*
X111692688Y-117200501D01*
X111692690Y-117200503D01*
X111806810Y-117266390D01*
X111806808Y-117266390D01*
X111806812Y-117266391D01*
X111806814Y-117266392D01*
X111934108Y-117300500D01*
X111934110Y-117300500D01*
X112065890Y-117300500D01*
X112065892Y-117300500D01*
X112193186Y-117266392D01*
X112193188Y-117266390D01*
X112193190Y-117266390D01*
X112307309Y-117200503D01*
X112307309Y-117200502D01*
X112307314Y-117200500D01*
X112400500Y-117107314D01*
X112466392Y-116993186D01*
X112500500Y-116865892D01*
X112500500Y-116734108D01*
X112466392Y-116606814D01*
X112466390Y-116606811D01*
X112466390Y-116606809D01*
X112400503Y-116492690D01*
X112400501Y-116492688D01*
X112400500Y-116492686D01*
X112307314Y-116399500D01*
X112307311Y-116399498D01*
X112307309Y-116399496D01*
X112193189Y-116333609D01*
X112193191Y-116333609D01*
X112143799Y-116320375D01*
X112065892Y-116299500D01*
X111934108Y-116299500D01*
X111856200Y-116320375D01*
X111806809Y-116333609D01*
X111692690Y-116399496D01*
X111599496Y-116492690D01*
X111533609Y-116606809D01*
X111533608Y-116606814D01*
X111499500Y-116734108D01*
X110350500Y-116734108D01*
X110316392Y-116606814D01*
X110316390Y-116606811D01*
X110316390Y-116606809D01*
X110250503Y-116492690D01*
X110250501Y-116492688D01*
X110250500Y-116492686D01*
X110157314Y-116399500D01*
X110157311Y-116399498D01*
X110157309Y-116399496D01*
X110043189Y-116333609D01*
X110043191Y-116333609D01*
X109993799Y-116320375D01*
X109915892Y-116299500D01*
X109784108Y-116299500D01*
X109706200Y-116320375D01*
X109656809Y-116333609D01*
X109542690Y-116399496D01*
X109449496Y-116492690D01*
X109383609Y-116606809D01*
X109383608Y-116606814D01*
X109349500Y-116734108D01*
X99000000Y-116734108D01*
X99000000Y-116312953D01*
X99018907Y-116254762D01*
X99068407Y-116218798D01*
X99129593Y-116218798D01*
X99161800Y-116236421D01*
X99164088Y-116238298D01*
X99164092Y-116238302D01*
X99215511Y-116272659D01*
X99319761Y-116342318D01*
X99319767Y-116342320D01*
X99319769Y-116342322D01*
X99492749Y-116413973D01*
X99676384Y-116450500D01*
X99676385Y-116450500D01*
X99863615Y-116450500D01*
X99863616Y-116450500D01*
X100047251Y-116413973D01*
X100220231Y-116342322D01*
X100220234Y-116342319D01*
X100220238Y-116342318D01*
X100265187Y-116312282D01*
X100375908Y-116238302D01*
X100508302Y-116105908D01*
X100508303Y-116105907D01*
X100508304Y-116105906D01*
X100560831Y-116027291D01*
X100608880Y-115989411D01*
X100617526Y-115986664D01*
X100693180Y-115966394D01*
X100693182Y-115966393D01*
X100693181Y-115966393D01*
X100693186Y-115966392D01*
X100807314Y-115900500D01*
X100900500Y-115807314D01*
X100900503Y-115807309D01*
X100966390Y-115693190D01*
X100966390Y-115693188D01*
X100966392Y-115693186D01*
X101000500Y-115565892D01*
X101000500Y-115434108D01*
X100993071Y-115406381D01*
X101359500Y-115406381D01*
X101359500Y-115593618D01*
X101396026Y-115777249D01*
X101467677Y-115950229D01*
X101467681Y-115950238D01*
X101542065Y-116061559D01*
X101571698Y-116105908D01*
X101704092Y-116238302D01*
X101770463Y-116282649D01*
X101859761Y-116342318D01*
X101859767Y-116342320D01*
X101859769Y-116342322D01*
X102032749Y-116413973D01*
X102216384Y-116450500D01*
X102216385Y-116450500D01*
X102403615Y-116450500D01*
X102403616Y-116450500D01*
X102587251Y-116413973D01*
X102760231Y-116342322D01*
X102760234Y-116342319D01*
X102760238Y-116342318D01*
X102805187Y-116312282D01*
X102915908Y-116238302D01*
X103020102Y-116134108D01*
X122899500Y-116134108D01*
X122899500Y-116265892D01*
X122912110Y-116312953D01*
X122933609Y-116393190D01*
X122999496Y-116507309D01*
X122999498Y-116507311D01*
X122999500Y-116507314D01*
X123092686Y-116600500D01*
X123092688Y-116600501D01*
X123092690Y-116600503D01*
X123206810Y-116666390D01*
X123206808Y-116666390D01*
X123206812Y-116666391D01*
X123206814Y-116666392D01*
X123334108Y-116700500D01*
X123334110Y-116700500D01*
X123465890Y-116700500D01*
X123465892Y-116700500D01*
X123593186Y-116666392D01*
X123593188Y-116666390D01*
X123593190Y-116666390D01*
X123707309Y-116600503D01*
X123707309Y-116600502D01*
X123707314Y-116600500D01*
X123800500Y-116507314D01*
X123851998Y-116418117D01*
X123866390Y-116393190D01*
X123866390Y-116393188D01*
X123866392Y-116393186D01*
X123900500Y-116265892D01*
X123900500Y-116134108D01*
X123866392Y-116006814D01*
X123866390Y-116006811D01*
X123866390Y-116006809D01*
X123800503Y-115892690D01*
X123800501Y-115892688D01*
X123800500Y-115892686D01*
X123707314Y-115799500D01*
X123707311Y-115799498D01*
X123707309Y-115799496D01*
X123593189Y-115733609D01*
X123593191Y-115733609D01*
X123543799Y-115720375D01*
X123465892Y-115699500D01*
X123334108Y-115699500D01*
X123256200Y-115720375D01*
X123206809Y-115733609D01*
X123092690Y-115799496D01*
X122999496Y-115892690D01*
X122933609Y-116006809D01*
X122933608Y-116006814D01*
X122899500Y-116134108D01*
X103020102Y-116134108D01*
X103048302Y-116105908D01*
X103100832Y-116027291D01*
X103152318Y-115950238D01*
X103152319Y-115950234D01*
X103152322Y-115950231D01*
X103223973Y-115777251D01*
X103260500Y-115593616D01*
X103260500Y-115406384D01*
X103223973Y-115222749D01*
X103152322Y-115049769D01*
X103152320Y-115049767D01*
X103152318Y-115049761D01*
X103092649Y-114960463D01*
X103048302Y-114894092D01*
X102915908Y-114761698D01*
X102858163Y-114723114D01*
X102760238Y-114657681D01*
X102760229Y-114657677D01*
X102587249Y-114586026D01*
X102403618Y-114549500D01*
X102403616Y-114549500D01*
X102216384Y-114549500D01*
X102216381Y-114549500D01*
X102032750Y-114586026D01*
X101859770Y-114657677D01*
X101859761Y-114657681D01*
X101704092Y-114761698D01*
X101704088Y-114761701D01*
X101571701Y-114894088D01*
X101571698Y-114894092D01*
X101467681Y-115049761D01*
X101467677Y-115049770D01*
X101396026Y-115222750D01*
X101359500Y-115406381D01*
X100993071Y-115406381D01*
X100966392Y-115306814D01*
X100966390Y-115306811D01*
X100966390Y-115306809D01*
X100900503Y-115192690D01*
X100900501Y-115192688D01*
X100900500Y-115192686D01*
X100807314Y-115099500D01*
X100807311Y-115099498D01*
X100807309Y-115099496D01*
X100693189Y-115033609D01*
X100693191Y-115033609D01*
X100655778Y-115023584D01*
X100617523Y-115013334D01*
X100566210Y-114980011D01*
X100560838Y-114972719D01*
X100508302Y-114894092D01*
X100467820Y-114853610D01*
X100375916Y-114761705D01*
X100375911Y-114761701D01*
X100375908Y-114761698D01*
X100318163Y-114723114D01*
X100220238Y-114657681D01*
X100220229Y-114657677D01*
X100047249Y-114586026D01*
X99863618Y-114549500D01*
X99863616Y-114549500D01*
X99676384Y-114549500D01*
X99676381Y-114549500D01*
X99492750Y-114586026D01*
X99319770Y-114657677D01*
X99319761Y-114657681D01*
X99164082Y-114761704D01*
X99161792Y-114763584D01*
X99160533Y-114764076D01*
X99160049Y-114764400D01*
X99159977Y-114764293D01*
X99104812Y-114785875D01*
X99045612Y-114770417D01*
X99006804Y-114723114D01*
X99000000Y-114687046D01*
X99000000Y-114434108D01*
X116949500Y-114434108D01*
X116949500Y-114565892D01*
X116974094Y-114657678D01*
X116983609Y-114693190D01*
X117049496Y-114807309D01*
X117049498Y-114807311D01*
X117049500Y-114807314D01*
X117142686Y-114900500D01*
X117142688Y-114900501D01*
X117142690Y-114900503D01*
X117256810Y-114966390D01*
X117256808Y-114966390D01*
X117256812Y-114966391D01*
X117256814Y-114966392D01*
X117384108Y-115000500D01*
X117384110Y-115000500D01*
X117522382Y-115000500D01*
X117522382Y-115001004D01*
X117527618Y-115001004D01*
X117527618Y-115000500D01*
X117665890Y-115000500D01*
X117665892Y-115000500D01*
X117793186Y-114966392D01*
X117793188Y-114966390D01*
X117793190Y-114966390D01*
X117907309Y-114900503D01*
X117907309Y-114900502D01*
X117907314Y-114900500D01*
X118000500Y-114807314D01*
X118021803Y-114770417D01*
X118066390Y-114693190D01*
X118066390Y-114693188D01*
X118066392Y-114693186D01*
X118100500Y-114565892D01*
X118100500Y-114434108D01*
X119999500Y-114434108D01*
X119999500Y-114565892D01*
X120024094Y-114657678D01*
X120033609Y-114693190D01*
X120099496Y-114807309D01*
X120099498Y-114807311D01*
X120099500Y-114807314D01*
X120192686Y-114900500D01*
X120192688Y-114900501D01*
X120192690Y-114900503D01*
X120306810Y-114966390D01*
X120306808Y-114966390D01*
X120306812Y-114966391D01*
X120306814Y-114966392D01*
X120434108Y-115000500D01*
X120434110Y-115000500D01*
X120565890Y-115000500D01*
X120565892Y-115000500D01*
X120693186Y-114966392D01*
X120693188Y-114966390D01*
X120693190Y-114966390D01*
X120807309Y-114900503D01*
X120807309Y-114900502D01*
X120807314Y-114900500D01*
X120900500Y-114807314D01*
X120921803Y-114770417D01*
X120966390Y-114693190D01*
X120966390Y-114693188D01*
X120966392Y-114693186D01*
X121000500Y-114565892D01*
X121000500Y-114434108D01*
X120966392Y-114306814D01*
X120966390Y-114306811D01*
X120966390Y-114306809D01*
X120900503Y-114192690D01*
X120900501Y-114192688D01*
X120900500Y-114192686D01*
X120807314Y-114099500D01*
X120807311Y-114099498D01*
X120807309Y-114099496D01*
X120693189Y-114033609D01*
X120693191Y-114033609D01*
X120643799Y-114020375D01*
X120565892Y-113999500D01*
X120434108Y-113999500D01*
X120356200Y-114020375D01*
X120306809Y-114033609D01*
X120192690Y-114099496D01*
X120099496Y-114192690D01*
X120033609Y-114306809D01*
X120033608Y-114306814D01*
X119999500Y-114434108D01*
X118100500Y-114434108D01*
X118066392Y-114306814D01*
X118066390Y-114306811D01*
X118066390Y-114306809D01*
X118000503Y-114192690D01*
X118000501Y-114192688D01*
X118000500Y-114192686D01*
X117907314Y-114099500D01*
X117883474Y-114085735D01*
X117842534Y-114040267D01*
X117836138Y-113979417D01*
X117866731Y-113926429D01*
X117883471Y-113914265D01*
X117907314Y-113900500D01*
X118000500Y-113807314D01*
X118018968Y-113775327D01*
X124549500Y-113775327D01*
X124549500Y-115224672D01*
X124549501Y-115224684D01*
X124564033Y-115297736D01*
X124564035Y-115297742D01*
X124619397Y-115380599D01*
X124619400Y-115380602D01*
X124689055Y-115427143D01*
X124702260Y-115435966D01*
X124743353Y-115444140D01*
X124775315Y-115450498D01*
X124775320Y-115450498D01*
X124775326Y-115450500D01*
X124775327Y-115450500D01*
X126224673Y-115450500D01*
X126224674Y-115450500D01*
X126297740Y-115435966D01*
X126380601Y-115380601D01*
X126435966Y-115297740D01*
X126450500Y-115224674D01*
X126450500Y-114947765D01*
X126469407Y-114889574D01*
X126518907Y-114853610D01*
X126580093Y-114853610D01*
X126629593Y-114889574D01*
X126640964Y-114909880D01*
X126657675Y-114950226D01*
X126657681Y-114950238D01*
X126713389Y-115033609D01*
X126761698Y-115105908D01*
X126894092Y-115238302D01*
X126960463Y-115282649D01*
X127049761Y-115342318D01*
X127049767Y-115342320D01*
X127049769Y-115342322D01*
X127222749Y-115413973D01*
X127406384Y-115450500D01*
X127406385Y-115450500D01*
X127593615Y-115450500D01*
X127593616Y-115450500D01*
X127777251Y-115413973D01*
X127950231Y-115342322D01*
X127950234Y-115342319D01*
X127950238Y-115342318D01*
X127995187Y-115312282D01*
X128105908Y-115238302D01*
X128238302Y-115105908D01*
X128331525Y-114966390D01*
X128342318Y-114950238D01*
X128342319Y-114950234D01*
X128342322Y-114950231D01*
X128413973Y-114777251D01*
X128450500Y-114593616D01*
X128450500Y-114406384D01*
X128413973Y-114222749D01*
X128342322Y-114049769D01*
X128342320Y-114049767D01*
X128342318Y-114049761D01*
X128271108Y-113943190D01*
X128238302Y-113894092D01*
X128105908Y-113761698D01*
X128061559Y-113732065D01*
X127950238Y-113657681D01*
X127950229Y-113657677D01*
X127777249Y-113586026D01*
X127593618Y-113549500D01*
X127593616Y-113549500D01*
X127406384Y-113549500D01*
X127406381Y-113549500D01*
X127222750Y-113586026D01*
X127049770Y-113657677D01*
X127049761Y-113657681D01*
X126894092Y-113761698D01*
X126894088Y-113761701D01*
X126761701Y-113894088D01*
X126761698Y-113894092D01*
X126657681Y-114049761D01*
X126657677Y-114049770D01*
X126640964Y-114090120D01*
X126601227Y-114136645D01*
X126541733Y-114150929D01*
X126485205Y-114127514D01*
X126453235Y-114075345D01*
X126450500Y-114052234D01*
X126450500Y-113775327D01*
X126450498Y-113775315D01*
X126439686Y-113720961D01*
X126435966Y-113702260D01*
X126423838Y-113684109D01*
X126380602Y-113619400D01*
X126380599Y-113619397D01*
X126297742Y-113564035D01*
X126297740Y-113564034D01*
X126297737Y-113564033D01*
X126297736Y-113564033D01*
X126224684Y-113549501D01*
X126224674Y-113549500D01*
X124775326Y-113549500D01*
X124775325Y-113549500D01*
X124775315Y-113549501D01*
X124702263Y-113564033D01*
X124702257Y-113564035D01*
X124619400Y-113619397D01*
X124619397Y-113619400D01*
X124564035Y-113702257D01*
X124564033Y-113702263D01*
X124549501Y-113775315D01*
X124549500Y-113775327D01*
X118018968Y-113775327D01*
X118066392Y-113693186D01*
X118100500Y-113565892D01*
X118100500Y-113434108D01*
X118066392Y-113306814D01*
X118066390Y-113306811D01*
X118066390Y-113306809D01*
X118000503Y-113192690D01*
X118000501Y-113192688D01*
X118000500Y-113192686D01*
X117907314Y-113099500D01*
X117907311Y-113099498D01*
X117907309Y-113099496D01*
X117793189Y-113033609D01*
X117793191Y-113033609D01*
X117743799Y-113020375D01*
X117665892Y-112999500D01*
X117534108Y-112999500D01*
X117456200Y-113020375D01*
X117406809Y-113033609D01*
X117292690Y-113099496D01*
X117199496Y-113192690D01*
X117133609Y-113306809D01*
X117114539Y-113377978D01*
X117099500Y-113434108D01*
X117099500Y-113565892D01*
X117124094Y-113657678D01*
X117133609Y-113693190D01*
X117199496Y-113807309D01*
X117199498Y-113807311D01*
X117199500Y-113807314D01*
X117272713Y-113880527D01*
X117300489Y-113935042D01*
X117290918Y-113995474D01*
X117252209Y-114036265D01*
X117142688Y-114099498D01*
X117049496Y-114192690D01*
X116983609Y-114306809D01*
X116983608Y-114306814D01*
X116949500Y-114434108D01*
X99000000Y-114434108D01*
X99000000Y-113184108D01*
X104499500Y-113184108D01*
X104499500Y-113315892D01*
X104533608Y-113443186D01*
X104533609Y-113443187D01*
X104537832Y-113450502D01*
X104550551Y-113510351D01*
X104537832Y-113549497D01*
X104533608Y-113556814D01*
X104499500Y-113684108D01*
X104499500Y-113815892D01*
X104522789Y-113902807D01*
X104533609Y-113943190D01*
X104599496Y-114057309D01*
X104599498Y-114057311D01*
X104599500Y-114057314D01*
X104692686Y-114150500D01*
X104692688Y-114150501D01*
X104692690Y-114150503D01*
X104806810Y-114216390D01*
X104806808Y-114216390D01*
X104806812Y-114216391D01*
X104806814Y-114216392D01*
X104934108Y-114250500D01*
X104934110Y-114250500D01*
X105065890Y-114250500D01*
X105065892Y-114250500D01*
X105193186Y-114216392D01*
X105193188Y-114216390D01*
X105193190Y-114216390D01*
X105307309Y-114150503D01*
X105307309Y-114150502D01*
X105307314Y-114150500D01*
X105400500Y-114057314D01*
X105433150Y-114000763D01*
X105466390Y-113943190D01*
X105466390Y-113943188D01*
X105466392Y-113943186D01*
X105500500Y-113815892D01*
X105500500Y-113684108D01*
X105466392Y-113556814D01*
X105462171Y-113549504D01*
X105449447Y-113489658D01*
X105462171Y-113450496D01*
X105466392Y-113443186D01*
X105500500Y-113315892D01*
X105500500Y-113184108D01*
X105466392Y-113056814D01*
X105466390Y-113056811D01*
X105466390Y-113056809D01*
X105400503Y-112942690D01*
X105400501Y-112942688D01*
X105400500Y-112942686D01*
X105307314Y-112849500D01*
X105307311Y-112849498D01*
X105307309Y-112849496D01*
X105193189Y-112783609D01*
X105193191Y-112783609D01*
X105143799Y-112770375D01*
X105065892Y-112749500D01*
X104934108Y-112749500D01*
X104856200Y-112770375D01*
X104806809Y-112783609D01*
X104692690Y-112849496D01*
X104599496Y-112942690D01*
X104533609Y-113056809D01*
X104522170Y-113099500D01*
X104499500Y-113184108D01*
X99000000Y-113184108D01*
X99000000Y-111384108D01*
X105049500Y-111384108D01*
X105049500Y-111515892D01*
X105083608Y-111643186D01*
X105083609Y-111643187D01*
X105087832Y-111650502D01*
X105100551Y-111710351D01*
X105087832Y-111749497D01*
X105083608Y-111756814D01*
X105049500Y-111884108D01*
X105049500Y-112015892D01*
X105060464Y-112056809D01*
X105083609Y-112143190D01*
X105149496Y-112257309D01*
X105149498Y-112257311D01*
X105149500Y-112257314D01*
X105242686Y-112350500D01*
X105242688Y-112350501D01*
X105242690Y-112350503D01*
X105356810Y-112416390D01*
X105356808Y-112416390D01*
X105356812Y-112416391D01*
X105356814Y-112416392D01*
X105484108Y-112450500D01*
X105484110Y-112450500D01*
X105615890Y-112450500D01*
X105615892Y-112450500D01*
X105743186Y-112416392D01*
X105743188Y-112416390D01*
X105743190Y-112416390D01*
X105857309Y-112350503D01*
X105857309Y-112350502D01*
X105857314Y-112350500D01*
X105950500Y-112257314D01*
X105992766Y-112184108D01*
X109499500Y-112184108D01*
X109499500Y-112315892D01*
X109533608Y-112443186D01*
X109533609Y-112443187D01*
X109537832Y-112450502D01*
X109550551Y-112510351D01*
X109537832Y-112549497D01*
X109533608Y-112556814D01*
X109499500Y-112684108D01*
X109499500Y-112815892D01*
X109529579Y-112928151D01*
X109533609Y-112943190D01*
X109599496Y-113057309D01*
X109599498Y-113057311D01*
X109599500Y-113057314D01*
X109692686Y-113150500D01*
X109692688Y-113150501D01*
X109692690Y-113150503D01*
X109806810Y-113216390D01*
X109806808Y-113216390D01*
X109806812Y-113216391D01*
X109806814Y-113216392D01*
X109934108Y-113250500D01*
X109934110Y-113250500D01*
X110065890Y-113250500D01*
X110065892Y-113250500D01*
X110193186Y-113216392D01*
X110193188Y-113216390D01*
X110193190Y-113216390D01*
X110307309Y-113150503D01*
X110307309Y-113150502D01*
X110307314Y-113150500D01*
X110400500Y-113057314D01*
X110466392Y-112943186D01*
X110500500Y-112815892D01*
X110500500Y-112684108D01*
X110466392Y-112556814D01*
X110462171Y-112549504D01*
X110449447Y-112489658D01*
X110462171Y-112450496D01*
X110466392Y-112443186D01*
X110500500Y-112315892D01*
X110500500Y-112184108D01*
X110466392Y-112056814D01*
X110466390Y-112056811D01*
X110466390Y-112056809D01*
X110400503Y-111942690D01*
X110400501Y-111942688D01*
X110400500Y-111942686D01*
X110307314Y-111849500D01*
X110307311Y-111849498D01*
X110307309Y-111849496D01*
X110193189Y-111783609D01*
X110193191Y-111783609D01*
X110143799Y-111770375D01*
X110065892Y-111749500D01*
X109934108Y-111749500D01*
X109856200Y-111770375D01*
X109806809Y-111783609D01*
X109692690Y-111849496D01*
X109599496Y-111942690D01*
X109533609Y-112056809D01*
X109533608Y-112056814D01*
X109499500Y-112184108D01*
X105992766Y-112184108D01*
X106016392Y-112143186D01*
X106050500Y-112015892D01*
X106050500Y-111884108D01*
X106016392Y-111756814D01*
X106012171Y-111749504D01*
X105999447Y-111689658D01*
X106012171Y-111650496D01*
X106016392Y-111643186D01*
X106050500Y-111515892D01*
X106050500Y-111384108D01*
X106016392Y-111256814D01*
X106016390Y-111256811D01*
X106016390Y-111256809D01*
X105950503Y-111142690D01*
X105950501Y-111142688D01*
X105950500Y-111142686D01*
X105857314Y-111049500D01*
X105857311Y-111049498D01*
X105857309Y-111049496D01*
X105743189Y-110983609D01*
X105743191Y-110983609D01*
X105693799Y-110970375D01*
X105615892Y-110949500D01*
X105484108Y-110949500D01*
X105406200Y-110970375D01*
X105356809Y-110983609D01*
X105242690Y-111049496D01*
X105149496Y-111142690D01*
X105083609Y-111256809D01*
X105083608Y-111256814D01*
X105049500Y-111384108D01*
X99000000Y-111384108D01*
X99000000Y-108934108D01*
X121949500Y-108934108D01*
X121949500Y-109065892D01*
X121979579Y-109178151D01*
X121983609Y-109193190D01*
X122049496Y-109307309D01*
X122049498Y-109307311D01*
X122049500Y-109307314D01*
X122142686Y-109400500D01*
X122142688Y-109400501D01*
X122142690Y-109400503D01*
X122256810Y-109466390D01*
X122256808Y-109466390D01*
X122256812Y-109466391D01*
X122256814Y-109466392D01*
X122384108Y-109500500D01*
X122384110Y-109500500D01*
X122515890Y-109500500D01*
X122515892Y-109500500D01*
X122643186Y-109466392D01*
X122643188Y-109466390D01*
X122643190Y-109466390D01*
X122757309Y-109400503D01*
X122757309Y-109400502D01*
X122757314Y-109400500D01*
X122850500Y-109307314D01*
X122916392Y-109193186D01*
X122950500Y-109065892D01*
X122950500Y-108934108D01*
X122916392Y-108806814D01*
X122916390Y-108806811D01*
X122916390Y-108806809D01*
X122850503Y-108692690D01*
X122850501Y-108692688D01*
X122850500Y-108692686D01*
X122757314Y-108599500D01*
X122757311Y-108599498D01*
X122757309Y-108599496D01*
X122643189Y-108533609D01*
X122643191Y-108533609D01*
X122593799Y-108520375D01*
X122515892Y-108499500D01*
X122384108Y-108499500D01*
X122306200Y-108520375D01*
X122256809Y-108533609D01*
X122142690Y-108599496D01*
X122049496Y-108692690D01*
X121983609Y-108806809D01*
X121983608Y-108806814D01*
X121949500Y-108934108D01*
X99000000Y-108934108D01*
X99000000Y-104379108D01*
X104199500Y-104379108D01*
X104199500Y-104510892D01*
X104200840Y-104515892D01*
X104233609Y-104638190D01*
X104299496Y-104752309D01*
X104299498Y-104752311D01*
X104299500Y-104752314D01*
X104392686Y-104845500D01*
X104392688Y-104845501D01*
X104392690Y-104845503D01*
X104506810Y-104911390D01*
X104506808Y-104911390D01*
X104506812Y-104911391D01*
X104506814Y-104911392D01*
X104634108Y-104945500D01*
X104634110Y-104945500D01*
X104765890Y-104945500D01*
X104765892Y-104945500D01*
X104893186Y-104911392D01*
X104893188Y-104911390D01*
X104893190Y-104911390D01*
X105007309Y-104845503D01*
X105007309Y-104845502D01*
X105007314Y-104845500D01*
X105100500Y-104752314D01*
X105163503Y-104643190D01*
X105166390Y-104638190D01*
X105166390Y-104638188D01*
X105166392Y-104638186D01*
X105200500Y-104510892D01*
X105200500Y-104379108D01*
X105166392Y-104251814D01*
X105166391Y-104251813D01*
X105166391Y-104251811D01*
X105166390Y-104251810D01*
X105156170Y-104234108D01*
X110049500Y-104234108D01*
X110049500Y-104365892D01*
X110079579Y-104478151D01*
X110083609Y-104493190D01*
X110149496Y-104607309D01*
X110149498Y-104607311D01*
X110149500Y-104607314D01*
X110197184Y-104654998D01*
X110224960Y-104709513D01*
X110215389Y-104769945D01*
X110197185Y-104795000D01*
X110173273Y-104818913D01*
X110149497Y-104842689D01*
X110149496Y-104842690D01*
X110083609Y-104956809D01*
X110083608Y-104956814D01*
X110049500Y-105084108D01*
X110049500Y-105215892D01*
X110062681Y-105265084D01*
X110083609Y-105343190D01*
X110149496Y-105457309D01*
X110149498Y-105457311D01*
X110149500Y-105457314D01*
X110242686Y-105550500D01*
X110242688Y-105550501D01*
X110242690Y-105550503D01*
X110356810Y-105616390D01*
X110356808Y-105616390D01*
X110356812Y-105616391D01*
X110356814Y-105616392D01*
X110484108Y-105650500D01*
X110484110Y-105650500D01*
X110615890Y-105650500D01*
X110615892Y-105650500D01*
X110743186Y-105616392D01*
X110743188Y-105616390D01*
X110743190Y-105616390D01*
X110857309Y-105550503D01*
X110857309Y-105550502D01*
X110857314Y-105550500D01*
X110950500Y-105457314D01*
X111003284Y-105365890D01*
X111016390Y-105343190D01*
X111016390Y-105343188D01*
X111016392Y-105343186D01*
X111050500Y-105215892D01*
X111050500Y-105084108D01*
X111016392Y-104956814D01*
X111016390Y-104956811D01*
X111016390Y-104956809D01*
X110950503Y-104842690D01*
X110950501Y-104842688D01*
X110950500Y-104842686D01*
X110902815Y-104795001D01*
X110875040Y-104740487D01*
X110884611Y-104680055D01*
X110902814Y-104654999D01*
X110950500Y-104607314D01*
X111003284Y-104515890D01*
X111016390Y-104493190D01*
X111016390Y-104493188D01*
X111016392Y-104493186D01*
X111045619Y-104384108D01*
X125249500Y-104384108D01*
X125249500Y-104515892D01*
X125273995Y-104607309D01*
X125283609Y-104643190D01*
X125349496Y-104757309D01*
X125349498Y-104757311D01*
X125349500Y-104757314D01*
X125397184Y-104804998D01*
X125424960Y-104859513D01*
X125415389Y-104919945D01*
X125397185Y-104945000D01*
X125349500Y-104992686D01*
X125349497Y-104992689D01*
X125349496Y-104992690D01*
X125283609Y-105106809D01*
X125283608Y-105106814D01*
X125249500Y-105234108D01*
X125249500Y-105365892D01*
X125273995Y-105457309D01*
X125283609Y-105493190D01*
X125349496Y-105607309D01*
X125349498Y-105607311D01*
X125349500Y-105607314D01*
X125397184Y-105654998D01*
X125424960Y-105709513D01*
X125415389Y-105769945D01*
X125397185Y-105795000D01*
X125349500Y-105842686D01*
X125349497Y-105842689D01*
X125349496Y-105842690D01*
X125283609Y-105956809D01*
X125283608Y-105956814D01*
X125249500Y-106084108D01*
X125249500Y-106215892D01*
X125279579Y-106328151D01*
X125283609Y-106343190D01*
X125349496Y-106457309D01*
X125349498Y-106457311D01*
X125349500Y-106457314D01*
X125397184Y-106504998D01*
X125424960Y-106559513D01*
X125415389Y-106619945D01*
X125397185Y-106645000D01*
X125349500Y-106692686D01*
X125349497Y-106692689D01*
X125349496Y-106692690D01*
X125283609Y-106806809D01*
X125283608Y-106806814D01*
X125249500Y-106934108D01*
X125249500Y-107065892D01*
X125279579Y-107178151D01*
X125283609Y-107193190D01*
X125349496Y-107307309D01*
X125349498Y-107307311D01*
X125349500Y-107307314D01*
X125442686Y-107400500D01*
X125442688Y-107400501D01*
X125442690Y-107400503D01*
X125556810Y-107466390D01*
X125556808Y-107466390D01*
X125556812Y-107466391D01*
X125556814Y-107466392D01*
X125684108Y-107500500D01*
X125684110Y-107500500D01*
X125815890Y-107500500D01*
X125815892Y-107500500D01*
X125943186Y-107466392D01*
X125943188Y-107466390D01*
X125943190Y-107466390D01*
X126057309Y-107400503D01*
X126057309Y-107400502D01*
X126057314Y-107400500D01*
X126150500Y-107307314D01*
X126216392Y-107193186D01*
X126250500Y-107065892D01*
X126250500Y-106934108D01*
X126216392Y-106806814D01*
X126216390Y-106806811D01*
X126216390Y-106806809D01*
X126150503Y-106692690D01*
X126150501Y-106692688D01*
X126150500Y-106692686D01*
X126102815Y-106645001D01*
X126075040Y-106590487D01*
X126084611Y-106530055D01*
X126102814Y-106504999D01*
X126150500Y-106457314D01*
X126216392Y-106343186D01*
X126250500Y-106215892D01*
X126250500Y-106084108D01*
X126216392Y-105956814D01*
X126216390Y-105956811D01*
X126216390Y-105956809D01*
X126150503Y-105842690D01*
X126150501Y-105842688D01*
X126150500Y-105842686D01*
X126102815Y-105795001D01*
X126075040Y-105740487D01*
X126084611Y-105680055D01*
X126102814Y-105654999D01*
X126150500Y-105607314D01*
X126216392Y-105493186D01*
X126250500Y-105365892D01*
X126250500Y-105234108D01*
X126216392Y-105106814D01*
X126216390Y-105106811D01*
X126216390Y-105106809D01*
X126150503Y-104992690D01*
X126150501Y-104992688D01*
X126150500Y-104992686D01*
X126102815Y-104945001D01*
X126075040Y-104890487D01*
X126084611Y-104830055D01*
X126102814Y-104804999D01*
X126150500Y-104757314D01*
X126153390Y-104752309D01*
X126216390Y-104643190D01*
X126216390Y-104643188D01*
X126216392Y-104643186D01*
X126250500Y-104515892D01*
X126250500Y-104384108D01*
X126216392Y-104256814D01*
X126216390Y-104256811D01*
X126216390Y-104256809D01*
X126150503Y-104142690D01*
X126150501Y-104142688D01*
X126150500Y-104142686D01*
X126057314Y-104049500D01*
X126057311Y-104049498D01*
X126057309Y-104049496D01*
X125983627Y-104006955D01*
X125983624Y-104006955D01*
X125943187Y-103983608D01*
X125900754Y-103972238D01*
X125815892Y-103949500D01*
X125684108Y-103949500D01*
X125606200Y-103970375D01*
X125556809Y-103983609D01*
X125442690Y-104049496D01*
X125349496Y-104142690D01*
X125283609Y-104256809D01*
X125283608Y-104256814D01*
X125249500Y-104384108D01*
X111045619Y-104384108D01*
X111050500Y-104365892D01*
X111050500Y-104234108D01*
X111016392Y-104106814D01*
X111016390Y-104106811D01*
X111016390Y-104106809D01*
X110950503Y-103992690D01*
X110950501Y-103992688D01*
X110950500Y-103992686D01*
X110883895Y-103926081D01*
X128749500Y-103926081D01*
X128749500Y-104673918D01*
X128778342Y-104818914D01*
X128795159Y-104859513D01*
X128834916Y-104955495D01*
X128917049Y-105078416D01*
X129021584Y-105182951D01*
X129144505Y-105265084D01*
X129281087Y-105321658D01*
X129426082Y-105350500D01*
X129426083Y-105350500D01*
X129573917Y-105350500D01*
X129573918Y-105350500D01*
X129718913Y-105321658D01*
X129855495Y-105265084D01*
X129978416Y-105182951D01*
X130082951Y-105078416D01*
X130165084Y-104955495D01*
X130221658Y-104818913D01*
X130250500Y-104673918D01*
X130250500Y-103926082D01*
X130221658Y-103781087D01*
X130165084Y-103644505D01*
X130082951Y-103521584D01*
X129978416Y-103417049D01*
X129855495Y-103334916D01*
X129855493Y-103334915D01*
X129718914Y-103278342D01*
X129573918Y-103249500D01*
X129426082Y-103249500D01*
X129426081Y-103249500D01*
X129281085Y-103278342D01*
X129144506Y-103334915D01*
X129021585Y-103417048D01*
X128917048Y-103521585D01*
X128834915Y-103644506D01*
X128778342Y-103781085D01*
X128749500Y-103926081D01*
X110883895Y-103926081D01*
X110857314Y-103899500D01*
X110857311Y-103899498D01*
X110857309Y-103899496D01*
X110743189Y-103833609D01*
X110743191Y-103833609D01*
X110693799Y-103820375D01*
X110615892Y-103799500D01*
X110484108Y-103799500D01*
X110406200Y-103820375D01*
X110356809Y-103833609D01*
X110242690Y-103899496D01*
X110149496Y-103992690D01*
X110083609Y-104106809D01*
X110083608Y-104106814D01*
X110049500Y-104234108D01*
X105156170Y-104234108D01*
X105100503Y-104137690D01*
X105100501Y-104137688D01*
X105100500Y-104137686D01*
X105007314Y-104044500D01*
X105007311Y-104044498D01*
X105007309Y-104044496D01*
X104893189Y-103978609D01*
X104893191Y-103978609D01*
X104843799Y-103965375D01*
X104765892Y-103944500D01*
X104634108Y-103944500D01*
X104556200Y-103965375D01*
X104506809Y-103978609D01*
X104392690Y-104044496D01*
X104299496Y-104137690D01*
X104233609Y-104251809D01*
X104232268Y-104256814D01*
X104199500Y-104379108D01*
X99000000Y-104379108D01*
X99000000Y-103109108D01*
X104199500Y-103109108D01*
X104199500Y-103240892D01*
X104229579Y-103353151D01*
X104233609Y-103368190D01*
X104299496Y-103482309D01*
X104299498Y-103482311D01*
X104299500Y-103482314D01*
X104392686Y-103575500D01*
X104392688Y-103575501D01*
X104392690Y-103575503D01*
X104506810Y-103641390D01*
X104506808Y-103641390D01*
X104506812Y-103641391D01*
X104506814Y-103641392D01*
X104634108Y-103675500D01*
X104634110Y-103675500D01*
X104765890Y-103675500D01*
X104765892Y-103675500D01*
X104893186Y-103641392D01*
X104893188Y-103641390D01*
X104893190Y-103641390D01*
X105007309Y-103575503D01*
X105007309Y-103575502D01*
X105007314Y-103575500D01*
X105100500Y-103482314D01*
X105138181Y-103417049D01*
X105166390Y-103368190D01*
X105166390Y-103368188D01*
X105166392Y-103368186D01*
X105200500Y-103240892D01*
X105200500Y-103109108D01*
X105166392Y-102981814D01*
X105166390Y-102981811D01*
X105166390Y-102981809D01*
X105100503Y-102867690D01*
X105100501Y-102867688D01*
X105100500Y-102867686D01*
X105007314Y-102774500D01*
X105007311Y-102774498D01*
X105007309Y-102774496D01*
X104937355Y-102734108D01*
X116699500Y-102734108D01*
X116699500Y-102865892D01*
X116729579Y-102978151D01*
X116733609Y-102993190D01*
X116799496Y-103107309D01*
X116799498Y-103107311D01*
X116799500Y-103107314D01*
X116892686Y-103200500D01*
X116892688Y-103200501D01*
X116892690Y-103200503D01*
X117006810Y-103266390D01*
X117006808Y-103266390D01*
X117006812Y-103266391D01*
X117006814Y-103266392D01*
X117134108Y-103300500D01*
X117134110Y-103300500D01*
X117265890Y-103300500D01*
X117265892Y-103300500D01*
X117393186Y-103266392D01*
X117393188Y-103266390D01*
X117393190Y-103266390D01*
X117507309Y-103200503D01*
X117507309Y-103200502D01*
X117507314Y-103200500D01*
X117600500Y-103107314D01*
X117666392Y-102993186D01*
X117700500Y-102865892D01*
X117700500Y-102734108D01*
X118299500Y-102734108D01*
X118299500Y-102865892D01*
X118329579Y-102978151D01*
X118333609Y-102993190D01*
X118399496Y-103107309D01*
X118399498Y-103107311D01*
X118399500Y-103107314D01*
X118492686Y-103200500D01*
X118492688Y-103200501D01*
X118492690Y-103200503D01*
X118606810Y-103266390D01*
X118606808Y-103266390D01*
X118606812Y-103266391D01*
X118606814Y-103266392D01*
X118734108Y-103300500D01*
X118734110Y-103300500D01*
X118865890Y-103300500D01*
X118865892Y-103300500D01*
X118993186Y-103266392D01*
X118993188Y-103266390D01*
X118993190Y-103266390D01*
X119107309Y-103200503D01*
X119107309Y-103200502D01*
X119107314Y-103200500D01*
X119200500Y-103107314D01*
X119266392Y-102993186D01*
X119300500Y-102865892D01*
X119300500Y-102734108D01*
X119266392Y-102606814D01*
X119266390Y-102606811D01*
X119266390Y-102606809D01*
X119200503Y-102492690D01*
X119200501Y-102492688D01*
X119200500Y-102492686D01*
X119107314Y-102399500D01*
X119107311Y-102399498D01*
X119107309Y-102399496D01*
X118994053Y-102334108D01*
X125299500Y-102334108D01*
X125299500Y-102465892D01*
X125329579Y-102578151D01*
X125333609Y-102593190D01*
X125399496Y-102707309D01*
X125399501Y-102707315D01*
X125422183Y-102729998D01*
X125449959Y-102784515D01*
X125440387Y-102844947D01*
X125422183Y-102870002D01*
X125399501Y-102892684D01*
X125399496Y-102892690D01*
X125333609Y-103006809D01*
X125333608Y-103006814D01*
X125299500Y-103134108D01*
X125299500Y-103265892D01*
X125317995Y-103334916D01*
X125333609Y-103393190D01*
X125399496Y-103507309D01*
X125399498Y-103507311D01*
X125399500Y-103507314D01*
X125492686Y-103600500D01*
X125492688Y-103600501D01*
X125492690Y-103600503D01*
X125606810Y-103666390D01*
X125606808Y-103666390D01*
X125606812Y-103666391D01*
X125606814Y-103666392D01*
X125734108Y-103700500D01*
X125734110Y-103700500D01*
X125865890Y-103700500D01*
X125865892Y-103700500D01*
X125993186Y-103666392D01*
X125993188Y-103666390D01*
X125993190Y-103666390D01*
X126107309Y-103600503D01*
X126107309Y-103600502D01*
X126107314Y-103600500D01*
X126200500Y-103507314D01*
X126252615Y-103417049D01*
X126266390Y-103393190D01*
X126266390Y-103393188D01*
X126266392Y-103393186D01*
X126300500Y-103265892D01*
X126300500Y-103134108D01*
X126266392Y-103006814D01*
X126266390Y-103006811D01*
X126266390Y-103006809D01*
X126200503Y-102892690D01*
X126200501Y-102892688D01*
X126200500Y-102892686D01*
X126177815Y-102870001D01*
X126150040Y-102815487D01*
X126159611Y-102755055D01*
X126177816Y-102729998D01*
X126200500Y-102707314D01*
X126266392Y-102593186D01*
X126300500Y-102465892D01*
X126300500Y-102334108D01*
X126266392Y-102206814D01*
X126266390Y-102206811D01*
X126266390Y-102206809D01*
X126200503Y-102092690D01*
X126200501Y-102092688D01*
X126200500Y-102092686D01*
X126107314Y-101999500D01*
X126107311Y-101999498D01*
X126107309Y-101999496D01*
X125993189Y-101933609D01*
X125993191Y-101933609D01*
X125943799Y-101920375D01*
X125865892Y-101899500D01*
X125734108Y-101899500D01*
X125656200Y-101920375D01*
X125606809Y-101933609D01*
X125492690Y-101999496D01*
X125399496Y-102092690D01*
X125333609Y-102206809D01*
X125333608Y-102206814D01*
X125299500Y-102334108D01*
X118994053Y-102334108D01*
X118993189Y-102333609D01*
X118993191Y-102333609D01*
X118943799Y-102320375D01*
X118865892Y-102299500D01*
X118734108Y-102299500D01*
X118656200Y-102320375D01*
X118606809Y-102333609D01*
X118492690Y-102399496D01*
X118399496Y-102492690D01*
X118333609Y-102606809D01*
X118333608Y-102606814D01*
X118299500Y-102734108D01*
X117700500Y-102734108D01*
X117666392Y-102606814D01*
X117666390Y-102606811D01*
X117666390Y-102606809D01*
X117600503Y-102492690D01*
X117600501Y-102492688D01*
X117600500Y-102492686D01*
X117507314Y-102399500D01*
X117507311Y-102399498D01*
X117507309Y-102399496D01*
X117393189Y-102333609D01*
X117393191Y-102333609D01*
X117343799Y-102320375D01*
X117265892Y-102299500D01*
X117134108Y-102299500D01*
X117056200Y-102320375D01*
X117006809Y-102333609D01*
X116892690Y-102399496D01*
X116799496Y-102492690D01*
X116733609Y-102606809D01*
X116733608Y-102606814D01*
X116699500Y-102734108D01*
X104937355Y-102734108D01*
X104893189Y-102708609D01*
X104893191Y-102708609D01*
X104843799Y-102695375D01*
X104765892Y-102674500D01*
X104634108Y-102674500D01*
X104556200Y-102695375D01*
X104506809Y-102708609D01*
X104392690Y-102774496D01*
X104299496Y-102867690D01*
X104233609Y-102981809D01*
X104226909Y-103006814D01*
X104199500Y-103109108D01*
X99000000Y-103109108D01*
X99000000Y-101134108D01*
X116699500Y-101134108D01*
X116699500Y-101265892D01*
X116729579Y-101378151D01*
X116733609Y-101393190D01*
X116799496Y-101507309D01*
X116799498Y-101507311D01*
X116799500Y-101507314D01*
X116892686Y-101600500D01*
X116892688Y-101600501D01*
X116892690Y-101600503D01*
X117006810Y-101666390D01*
X117006808Y-101666390D01*
X117006812Y-101666391D01*
X117006814Y-101666392D01*
X117134108Y-101700500D01*
X117134110Y-101700500D01*
X117265890Y-101700500D01*
X117265892Y-101700500D01*
X117393186Y-101666392D01*
X117393188Y-101666390D01*
X117393190Y-101666390D01*
X117507309Y-101600503D01*
X117507309Y-101600502D01*
X117507314Y-101600500D01*
X117600500Y-101507314D01*
X117666392Y-101393186D01*
X117700500Y-101265892D01*
X117700500Y-101134108D01*
X118299500Y-101134108D01*
X118299500Y-101265892D01*
X118329579Y-101378151D01*
X118333609Y-101393190D01*
X118399496Y-101507309D01*
X118399498Y-101507311D01*
X118399500Y-101507314D01*
X118492686Y-101600500D01*
X118492688Y-101600501D01*
X118492690Y-101600503D01*
X118606810Y-101666390D01*
X118606808Y-101666390D01*
X118606812Y-101666391D01*
X118606814Y-101666392D01*
X118734108Y-101700500D01*
X118734110Y-101700500D01*
X118865890Y-101700500D01*
X118865892Y-101700500D01*
X118993186Y-101666392D01*
X118993188Y-101666390D01*
X118993190Y-101666390D01*
X119107309Y-101600503D01*
X119107309Y-101600502D01*
X119107314Y-101600500D01*
X119200500Y-101507314D01*
X119266392Y-101393186D01*
X119300500Y-101265892D01*
X119300500Y-101134108D01*
X119266392Y-101006814D01*
X119266390Y-101006811D01*
X119266390Y-101006809D01*
X119200503Y-100892690D01*
X119200501Y-100892688D01*
X119200500Y-100892686D01*
X119107314Y-100799500D01*
X119107311Y-100799498D01*
X119107309Y-100799496D01*
X118993189Y-100733609D01*
X118993191Y-100733609D01*
X118943799Y-100720375D01*
X118865892Y-100699500D01*
X118734108Y-100699500D01*
X118656200Y-100720375D01*
X118606809Y-100733609D01*
X118492690Y-100799496D01*
X118399496Y-100892690D01*
X118333609Y-101006809D01*
X118333608Y-101006814D01*
X118299500Y-101134108D01*
X117700500Y-101134108D01*
X117666392Y-101006814D01*
X117666390Y-101006811D01*
X117666390Y-101006809D01*
X117600503Y-100892690D01*
X117600501Y-100892688D01*
X117600500Y-100892686D01*
X117507314Y-100799500D01*
X117507311Y-100799498D01*
X117507309Y-100799496D01*
X117393189Y-100733609D01*
X117393191Y-100733609D01*
X117343799Y-100720375D01*
X117265892Y-100699500D01*
X117134108Y-100699500D01*
X117056200Y-100720375D01*
X117006809Y-100733609D01*
X116892690Y-100799496D01*
X116799496Y-100892690D01*
X116733609Y-101006809D01*
X116733608Y-101006814D01*
X116699500Y-101134108D01*
X99000000Y-101134108D01*
X99000000Y-99984108D01*
X109749500Y-99984108D01*
X109749500Y-100115892D01*
X109779579Y-100228151D01*
X109783609Y-100243190D01*
X109849496Y-100357309D01*
X109849498Y-100357311D01*
X109849500Y-100357314D01*
X109942686Y-100450500D01*
X109942688Y-100450501D01*
X109942690Y-100450503D01*
X110056810Y-100516390D01*
X110056808Y-100516390D01*
X110056812Y-100516391D01*
X110056814Y-100516392D01*
X110184108Y-100550500D01*
X110184110Y-100550500D01*
X110315890Y-100550500D01*
X110315892Y-100550500D01*
X110443186Y-100516392D01*
X110443188Y-100516390D01*
X110443190Y-100516390D01*
X110557309Y-100450503D01*
X110557309Y-100450502D01*
X110557314Y-100450500D01*
X110650500Y-100357314D01*
X110716392Y-100243186D01*
X110750500Y-100115892D01*
X110750500Y-99984108D01*
X110716392Y-99856814D01*
X110716390Y-99856811D01*
X110716390Y-99856809D01*
X110650503Y-99742690D01*
X110650501Y-99742688D01*
X110650500Y-99742686D01*
X110557314Y-99649500D01*
X110557311Y-99649498D01*
X110557309Y-99649496D01*
X110443189Y-99583609D01*
X110443191Y-99583609D01*
X110393799Y-99570375D01*
X110315892Y-99549500D01*
X110184108Y-99549500D01*
X110106200Y-99570375D01*
X110056809Y-99583609D01*
X109942690Y-99649496D01*
X109849496Y-99742690D01*
X109783609Y-99856809D01*
X109764539Y-99927978D01*
X109749500Y-99984108D01*
X99000000Y-99984108D01*
X99000000Y-99299108D01*
X104199500Y-99299108D01*
X104199500Y-99430892D01*
X104229579Y-99543151D01*
X104233609Y-99558190D01*
X104299496Y-99672309D01*
X104299498Y-99672311D01*
X104299500Y-99672314D01*
X104392686Y-99765500D01*
X104392688Y-99765501D01*
X104392690Y-99765503D01*
X104506810Y-99831390D01*
X104506808Y-99831390D01*
X104506812Y-99831391D01*
X104506814Y-99831392D01*
X104634108Y-99865500D01*
X104634110Y-99865500D01*
X104765890Y-99865500D01*
X104765892Y-99865500D01*
X104893186Y-99831392D01*
X104893188Y-99831390D01*
X104893190Y-99831390D01*
X105007309Y-99765503D01*
X105007309Y-99765502D01*
X105007314Y-99765500D01*
X105100500Y-99672314D01*
X105166392Y-99558186D01*
X105200500Y-99430892D01*
X105200500Y-99299108D01*
X105166392Y-99171814D01*
X105166390Y-99171811D01*
X105166390Y-99171809D01*
X105100503Y-99057690D01*
X105100501Y-99057688D01*
X105100500Y-99057686D01*
X105007314Y-98964500D01*
X105007311Y-98964498D01*
X105007309Y-98964496D01*
X104893189Y-98898609D01*
X104893191Y-98898609D01*
X104843799Y-98885375D01*
X104765892Y-98864500D01*
X104634108Y-98864500D01*
X104556200Y-98885375D01*
X104506809Y-98898609D01*
X104392690Y-98964496D01*
X104299496Y-99057690D01*
X104233609Y-99171809D01*
X104233608Y-99171814D01*
X104199500Y-99299108D01*
X99000000Y-99299108D01*
X99000000Y-98029108D01*
X104199500Y-98029108D01*
X104199500Y-98160892D01*
X104211805Y-98206814D01*
X104233609Y-98288190D01*
X104299496Y-98402309D01*
X104299498Y-98402311D01*
X104299500Y-98402314D01*
X104392686Y-98495500D01*
X104392688Y-98495501D01*
X104392690Y-98495503D01*
X104506810Y-98561390D01*
X104506808Y-98561390D01*
X104506812Y-98561391D01*
X104506814Y-98561392D01*
X104634108Y-98595500D01*
X104634110Y-98595500D01*
X104765890Y-98595500D01*
X104765892Y-98595500D01*
X104893186Y-98561392D01*
X104893188Y-98561390D01*
X104893190Y-98561390D01*
X105007309Y-98495503D01*
X105007309Y-98495502D01*
X105007314Y-98495500D01*
X105100500Y-98402314D01*
X105100503Y-98402309D01*
X105166390Y-98288190D01*
X105166390Y-98288188D01*
X105166392Y-98288186D01*
X105200500Y-98160892D01*
X105200500Y-98029108D01*
X105166392Y-97901814D01*
X105166390Y-97901811D01*
X105166390Y-97901809D01*
X105100503Y-97787690D01*
X105100501Y-97787688D01*
X105100500Y-97787686D01*
X105007314Y-97694500D01*
X105007311Y-97694498D01*
X105007309Y-97694496D01*
X104893189Y-97628609D01*
X104893191Y-97628609D01*
X104843799Y-97615375D01*
X104765892Y-97594500D01*
X104634108Y-97594500D01*
X104556200Y-97615375D01*
X104506809Y-97628609D01*
X104392690Y-97694496D01*
X104299496Y-97787690D01*
X104233609Y-97901809D01*
X104232135Y-97907310D01*
X104199500Y-98029108D01*
X99000000Y-98029108D01*
X99000000Y-97434108D01*
X110049500Y-97434108D01*
X110049500Y-97565892D01*
X110066305Y-97628608D01*
X110083609Y-97693190D01*
X110149496Y-97807309D01*
X110149498Y-97807311D01*
X110149500Y-97807314D01*
X110242686Y-97900500D01*
X110242688Y-97900501D01*
X110242690Y-97900503D01*
X110356810Y-97966390D01*
X110356808Y-97966390D01*
X110356812Y-97966391D01*
X110356814Y-97966392D01*
X110484108Y-98000500D01*
X110484110Y-98000500D01*
X110615890Y-98000500D01*
X110615892Y-98000500D01*
X110743186Y-97966392D01*
X110743188Y-97966390D01*
X110743190Y-97966390D01*
X110857309Y-97900503D01*
X110857309Y-97900502D01*
X110857314Y-97900500D01*
X110950500Y-97807314D01*
X110961832Y-97787686D01*
X111016390Y-97693190D01*
X111016390Y-97693188D01*
X111016392Y-97693186D01*
X111050500Y-97565892D01*
X111050500Y-97534108D01*
X125299500Y-97534108D01*
X125299500Y-97665892D01*
X125329579Y-97778151D01*
X125333609Y-97793190D01*
X125399496Y-97907309D01*
X125399501Y-97907315D01*
X125422183Y-97929998D01*
X125449959Y-97984515D01*
X125440387Y-98044947D01*
X125422183Y-98070002D01*
X125399501Y-98092684D01*
X125399496Y-98092690D01*
X125333609Y-98206809D01*
X125333608Y-98206814D01*
X125299500Y-98334108D01*
X125299500Y-98465892D01*
X125325088Y-98561390D01*
X125333609Y-98593190D01*
X125399496Y-98707309D01*
X125399498Y-98707311D01*
X125399500Y-98707314D01*
X125492686Y-98800500D01*
X125492688Y-98800501D01*
X125492690Y-98800503D01*
X125606810Y-98866390D01*
X125606808Y-98866390D01*
X125606812Y-98866391D01*
X125606814Y-98866392D01*
X125734108Y-98900500D01*
X125734110Y-98900500D01*
X125865890Y-98900500D01*
X125865892Y-98900500D01*
X125993186Y-98866392D01*
X125993188Y-98866390D01*
X125993190Y-98866390D01*
X126107309Y-98800503D01*
X126107309Y-98800502D01*
X126107314Y-98800500D01*
X126200500Y-98707314D01*
X126266392Y-98593186D01*
X126300500Y-98465892D01*
X126300500Y-98334108D01*
X126266392Y-98206814D01*
X126266390Y-98206811D01*
X126266390Y-98206809D01*
X126200503Y-98092690D01*
X126200501Y-98092688D01*
X126200500Y-98092686D01*
X126177815Y-98070001D01*
X126150040Y-98015487D01*
X126159611Y-97955055D01*
X126177816Y-97929998D01*
X126200500Y-97907314D01*
X126200503Y-97907309D01*
X126266390Y-97793190D01*
X126266390Y-97793188D01*
X126266392Y-97793186D01*
X126300500Y-97665892D01*
X126300500Y-97534108D01*
X126266392Y-97406814D01*
X126266390Y-97406811D01*
X126266390Y-97406809D01*
X126200503Y-97292690D01*
X126200501Y-97292688D01*
X126200500Y-97292686D01*
X126107314Y-97199500D01*
X126107311Y-97199498D01*
X126107309Y-97199496D01*
X125993189Y-97133609D01*
X125993191Y-97133609D01*
X125943799Y-97120375D01*
X125865892Y-97099500D01*
X125734108Y-97099500D01*
X125656200Y-97120375D01*
X125606809Y-97133609D01*
X125492690Y-97199496D01*
X125399496Y-97292690D01*
X125333609Y-97406809D01*
X125326294Y-97434109D01*
X125299500Y-97534108D01*
X111050500Y-97534108D01*
X111050500Y-97434108D01*
X111016392Y-97306814D01*
X111016390Y-97306811D01*
X111016390Y-97306809D01*
X110950503Y-97192690D01*
X110950501Y-97192688D01*
X110950500Y-97192686D01*
X110857314Y-97099500D01*
X110857311Y-97099498D01*
X110857309Y-97099496D01*
X110743189Y-97033609D01*
X110743191Y-97033609D01*
X110693799Y-97020375D01*
X110615892Y-96999500D01*
X110484108Y-96999500D01*
X110406200Y-97020375D01*
X110356809Y-97033609D01*
X110242690Y-97099496D01*
X110149496Y-97192690D01*
X110083609Y-97306809D01*
X110083608Y-97306814D01*
X110049500Y-97434108D01*
X99000000Y-97434108D01*
X99000000Y-96759108D01*
X104199500Y-96759108D01*
X104199500Y-96890892D01*
X104228601Y-96999500D01*
X104233609Y-97018190D01*
X104299496Y-97132309D01*
X104299498Y-97132311D01*
X104299500Y-97132314D01*
X104392686Y-97225500D01*
X104392688Y-97225501D01*
X104392690Y-97225503D01*
X104506810Y-97291390D01*
X104506808Y-97291390D01*
X104506812Y-97291391D01*
X104506814Y-97291392D01*
X104634108Y-97325500D01*
X104634110Y-97325500D01*
X104765890Y-97325500D01*
X104765892Y-97325500D01*
X104893186Y-97291392D01*
X104893188Y-97291390D01*
X104893190Y-97291390D01*
X105007309Y-97225503D01*
X105007309Y-97225502D01*
X105007314Y-97225500D01*
X105100500Y-97132314D01*
X105166392Y-97018186D01*
X105200500Y-96890892D01*
X105200500Y-96759108D01*
X105166392Y-96631814D01*
X105166390Y-96631811D01*
X105166390Y-96631809D01*
X105100503Y-96517690D01*
X105100501Y-96517688D01*
X105100500Y-96517686D01*
X105007314Y-96424500D01*
X105007311Y-96424498D01*
X105007309Y-96424496D01*
X104893189Y-96358609D01*
X104893191Y-96358609D01*
X104843799Y-96345375D01*
X104765892Y-96324500D01*
X104634108Y-96324500D01*
X104556200Y-96345375D01*
X104506809Y-96358609D01*
X104392690Y-96424496D01*
X104299496Y-96517690D01*
X104233609Y-96631809D01*
X104233608Y-96631814D01*
X104199500Y-96759108D01*
X99000000Y-96759108D01*
X99000000Y-95326082D01*
X128749500Y-95326082D01*
X128749500Y-96073918D01*
X128778342Y-96218913D01*
X128834916Y-96355495D01*
X128917049Y-96478416D01*
X129021584Y-96582951D01*
X129144505Y-96665084D01*
X129281087Y-96721658D01*
X129426082Y-96750500D01*
X129426083Y-96750500D01*
X129573917Y-96750500D01*
X129573918Y-96750500D01*
X129718913Y-96721658D01*
X129855495Y-96665084D01*
X129978416Y-96582951D01*
X130082951Y-96478416D01*
X130165084Y-96355495D01*
X130221658Y-96218913D01*
X130250500Y-96073918D01*
X130250500Y-95326082D01*
X130221658Y-95181087D01*
X130165084Y-95044505D01*
X130082951Y-94921584D01*
X129978416Y-94817049D01*
X129855495Y-94734916D01*
X129855493Y-94734915D01*
X129718914Y-94678342D01*
X129573918Y-94649500D01*
X129426082Y-94649500D01*
X129426081Y-94649500D01*
X129281085Y-94678342D01*
X129144506Y-94734915D01*
X129021585Y-94817048D01*
X128917048Y-94921585D01*
X128834915Y-95044506D01*
X128778342Y-95181085D01*
X128778342Y-95181087D01*
X128749500Y-95326082D01*
X99000000Y-95326082D01*
X99000000Y-88434108D01*
X109449500Y-88434108D01*
X109449500Y-88565892D01*
X109479579Y-88678151D01*
X109483609Y-88693190D01*
X109549496Y-88807309D01*
X109549498Y-88807311D01*
X109549500Y-88807314D01*
X109642686Y-88900500D01*
X109642688Y-88900501D01*
X109642690Y-88900503D01*
X109756810Y-88966390D01*
X109756808Y-88966390D01*
X109756812Y-88966391D01*
X109756814Y-88966392D01*
X109884108Y-89000500D01*
X109884110Y-89000500D01*
X110015890Y-89000500D01*
X110015892Y-89000500D01*
X110143186Y-88966392D01*
X110143188Y-88966390D01*
X110143190Y-88966390D01*
X110257309Y-88900503D01*
X110257309Y-88900502D01*
X110257314Y-88900500D01*
X110350500Y-88807314D01*
X110416392Y-88693186D01*
X110450500Y-88565892D01*
X110450500Y-88434108D01*
X112449500Y-88434108D01*
X112449500Y-88565892D01*
X112479579Y-88678151D01*
X112483609Y-88693190D01*
X112549496Y-88807309D01*
X112549498Y-88807311D01*
X112549500Y-88807314D01*
X112642686Y-88900500D01*
X112642688Y-88900501D01*
X112642690Y-88900503D01*
X112756810Y-88966390D01*
X112756808Y-88966390D01*
X112756812Y-88966391D01*
X112756814Y-88966392D01*
X112884108Y-89000500D01*
X112884110Y-89000500D01*
X113015890Y-89000500D01*
X113015892Y-89000500D01*
X113143186Y-88966392D01*
X113143188Y-88966390D01*
X113143190Y-88966390D01*
X113257309Y-88900503D01*
X113257309Y-88900502D01*
X113257314Y-88900500D01*
X113350500Y-88807314D01*
X113416392Y-88693186D01*
X113450500Y-88565892D01*
X113450500Y-88434108D01*
X113416392Y-88306814D01*
X113416390Y-88306811D01*
X113416390Y-88306809D01*
X113350503Y-88192690D01*
X113350501Y-88192688D01*
X113350500Y-88192686D01*
X113257314Y-88099500D01*
X113257311Y-88099498D01*
X113257309Y-88099496D01*
X113143189Y-88033609D01*
X113143191Y-88033609D01*
X113093799Y-88020375D01*
X113015892Y-87999500D01*
X112884108Y-87999500D01*
X112806200Y-88020375D01*
X112756809Y-88033609D01*
X112642690Y-88099496D01*
X112549496Y-88192690D01*
X112483609Y-88306809D01*
X112483608Y-88306814D01*
X112449500Y-88434108D01*
X110450500Y-88434108D01*
X110416392Y-88306814D01*
X110416390Y-88306811D01*
X110416390Y-88306809D01*
X110350503Y-88192690D01*
X110350501Y-88192688D01*
X110350500Y-88192686D01*
X110257314Y-88099500D01*
X110257311Y-88099498D01*
X110257309Y-88099496D01*
X110143189Y-88033609D01*
X110143191Y-88033609D01*
X110093799Y-88020375D01*
X110015892Y-87999500D01*
X109884108Y-87999500D01*
X109806200Y-88020375D01*
X109756809Y-88033609D01*
X109642690Y-88099496D01*
X109549496Y-88192690D01*
X109483609Y-88306809D01*
X109483608Y-88306814D01*
X109449500Y-88434108D01*
X99000000Y-88434108D01*
X99000000Y-86134108D01*
X117899500Y-86134108D01*
X117899500Y-86265892D01*
X117929579Y-86378151D01*
X117933609Y-86393190D01*
X117999496Y-86507309D01*
X117999498Y-86507311D01*
X117999500Y-86507314D01*
X118092686Y-86600500D01*
X118092688Y-86600501D01*
X118092690Y-86600503D01*
X118206810Y-86666390D01*
X118206808Y-86666390D01*
X118206812Y-86666391D01*
X118206814Y-86666392D01*
X118334108Y-86700500D01*
X118334110Y-86700500D01*
X118465890Y-86700500D01*
X118465892Y-86700500D01*
X118593186Y-86666392D01*
X118593188Y-86666390D01*
X118593190Y-86666390D01*
X118707309Y-86600503D01*
X118707309Y-86600502D01*
X118707314Y-86600500D01*
X118800500Y-86507314D01*
X118866392Y-86393186D01*
X118900500Y-86265892D01*
X118900500Y-86134108D01*
X122749500Y-86134108D01*
X122749500Y-86265892D01*
X122779579Y-86378151D01*
X122783609Y-86393190D01*
X122849496Y-86507309D01*
X122849498Y-86507311D01*
X122849500Y-86507314D01*
X122942686Y-86600500D01*
X122942688Y-86600501D01*
X122942690Y-86600503D01*
X123056810Y-86666390D01*
X123056808Y-86666390D01*
X123056812Y-86666391D01*
X123056814Y-86666392D01*
X123184108Y-86700500D01*
X123184110Y-86700500D01*
X123315890Y-86700500D01*
X123315892Y-86700500D01*
X123443186Y-86666392D01*
X123443188Y-86666390D01*
X123443190Y-86666390D01*
X123557309Y-86600503D01*
X123557309Y-86600502D01*
X123557314Y-86600500D01*
X123650500Y-86507314D01*
X123716392Y-86393186D01*
X123750500Y-86265892D01*
X123750500Y-86134108D01*
X125749500Y-86134108D01*
X125749500Y-86265892D01*
X125779579Y-86378151D01*
X125783609Y-86393190D01*
X125849496Y-86507309D01*
X125849498Y-86507311D01*
X125849500Y-86507314D01*
X125942686Y-86600500D01*
X125942688Y-86600501D01*
X125942690Y-86600503D01*
X126056810Y-86666390D01*
X126056808Y-86666390D01*
X126056812Y-86666391D01*
X126056814Y-86666392D01*
X126184108Y-86700500D01*
X126184110Y-86700500D01*
X126315890Y-86700500D01*
X126315892Y-86700500D01*
X126443186Y-86666392D01*
X126443188Y-86666390D01*
X126443190Y-86666390D01*
X126557309Y-86600503D01*
X126557309Y-86600502D01*
X126557314Y-86600500D01*
X126650500Y-86507314D01*
X126716392Y-86393186D01*
X126750500Y-86265892D01*
X126750500Y-86134108D01*
X126716392Y-86006814D01*
X126716390Y-86006811D01*
X126716390Y-86006809D01*
X126650503Y-85892690D01*
X126650501Y-85892688D01*
X126650500Y-85892686D01*
X126557314Y-85799500D01*
X126557311Y-85799498D01*
X126557309Y-85799496D01*
X126443189Y-85733609D01*
X126443191Y-85733609D01*
X126393799Y-85720375D01*
X126315892Y-85699500D01*
X126184108Y-85699500D01*
X126106200Y-85720375D01*
X126056809Y-85733609D01*
X125942690Y-85799496D01*
X125849496Y-85892690D01*
X125783609Y-86006809D01*
X125783608Y-86006814D01*
X125749500Y-86134108D01*
X123750500Y-86134108D01*
X123716392Y-86006814D01*
X123716390Y-86006811D01*
X123716390Y-86006809D01*
X123650503Y-85892690D01*
X123650501Y-85892688D01*
X123650500Y-85892686D01*
X123557314Y-85799500D01*
X123557311Y-85799498D01*
X123557309Y-85799496D01*
X123443189Y-85733609D01*
X123443191Y-85733609D01*
X123393799Y-85720375D01*
X123315892Y-85699500D01*
X123184108Y-85699500D01*
X123106200Y-85720375D01*
X123056809Y-85733609D01*
X122942690Y-85799496D01*
X122849496Y-85892690D01*
X122783609Y-86006809D01*
X122783608Y-86006814D01*
X122749500Y-86134108D01*
X118900500Y-86134108D01*
X118866392Y-86006814D01*
X118866390Y-86006811D01*
X118866390Y-86006809D01*
X118800503Y-85892690D01*
X118800501Y-85892688D01*
X118800500Y-85892686D01*
X118707314Y-85799500D01*
X118707311Y-85799498D01*
X118707309Y-85799496D01*
X118593189Y-85733609D01*
X118593191Y-85733609D01*
X118543799Y-85720375D01*
X118465892Y-85699500D01*
X118334108Y-85699500D01*
X118256200Y-85720375D01*
X118206809Y-85733609D01*
X118092690Y-85799496D01*
X117999496Y-85892690D01*
X117933609Y-86006809D01*
X117933608Y-86006814D01*
X117899500Y-86134108D01*
X99000000Y-86134108D01*
X99000000Y-84934108D01*
X117299500Y-84934108D01*
X117299500Y-85065892D01*
X117329579Y-85178151D01*
X117333609Y-85193190D01*
X117399496Y-85307309D01*
X117399498Y-85307311D01*
X117399500Y-85307314D01*
X117492686Y-85400500D01*
X117492688Y-85400501D01*
X117492690Y-85400503D01*
X117606810Y-85466390D01*
X117606808Y-85466390D01*
X117606812Y-85466391D01*
X117606814Y-85466392D01*
X117734108Y-85500500D01*
X117734110Y-85500500D01*
X117865890Y-85500500D01*
X117865892Y-85500500D01*
X117993186Y-85466392D01*
X117993188Y-85466390D01*
X117993190Y-85466390D01*
X118107309Y-85400503D01*
X118107309Y-85400502D01*
X118107314Y-85400500D01*
X118200500Y-85307314D01*
X118226767Y-85261819D01*
X118266390Y-85193190D01*
X118266390Y-85193188D01*
X118266392Y-85193186D01*
X118300500Y-85065892D01*
X118300500Y-84934108D01*
X122299500Y-84934108D01*
X122299500Y-85065892D01*
X122329579Y-85178151D01*
X122333609Y-85193190D01*
X122399496Y-85307309D01*
X122399498Y-85307311D01*
X122399500Y-85307314D01*
X122492686Y-85400500D01*
X122492688Y-85400501D01*
X122492690Y-85400503D01*
X122606810Y-85466390D01*
X122606808Y-85466390D01*
X122606812Y-85466391D01*
X122606814Y-85466392D01*
X122734108Y-85500500D01*
X122734110Y-85500500D01*
X122865890Y-85500500D01*
X122865892Y-85500500D01*
X122993186Y-85466392D01*
X122993188Y-85466390D01*
X122993190Y-85466390D01*
X123107309Y-85400503D01*
X123107309Y-85400502D01*
X123107314Y-85400500D01*
X123200500Y-85307314D01*
X123226767Y-85261819D01*
X123266390Y-85193190D01*
X123266390Y-85193188D01*
X123266392Y-85193186D01*
X123300500Y-85065892D01*
X123300500Y-84934108D01*
X125449500Y-84934108D01*
X125449500Y-85065892D01*
X125479579Y-85178151D01*
X125483609Y-85193190D01*
X125549496Y-85307309D01*
X125549498Y-85307311D01*
X125549500Y-85307314D01*
X125642686Y-85400500D01*
X125642688Y-85400501D01*
X125642690Y-85400503D01*
X125756810Y-85466390D01*
X125756808Y-85466390D01*
X125756812Y-85466391D01*
X125756814Y-85466392D01*
X125884108Y-85500500D01*
X125884110Y-85500500D01*
X126015890Y-85500500D01*
X126015892Y-85500500D01*
X126143186Y-85466392D01*
X126143188Y-85466390D01*
X126143190Y-85466390D01*
X126257309Y-85400503D01*
X126257309Y-85400502D01*
X126257314Y-85400500D01*
X126350500Y-85307314D01*
X126376767Y-85261819D01*
X126416390Y-85193190D01*
X126416390Y-85193188D01*
X126416392Y-85193186D01*
X126450500Y-85065892D01*
X126450500Y-84934108D01*
X128449499Y-84934108D01*
X128449499Y-85065892D01*
X128479578Y-85178151D01*
X128483608Y-85193190D01*
X128549495Y-85307309D01*
X128549497Y-85307311D01*
X128549499Y-85307314D01*
X128642685Y-85400500D01*
X128642687Y-85400501D01*
X128642689Y-85400503D01*
X128756809Y-85466390D01*
X128756807Y-85466390D01*
X128756811Y-85466391D01*
X128756813Y-85466392D01*
X128884107Y-85500500D01*
X128884109Y-85500500D01*
X129015889Y-85500500D01*
X129015891Y-85500500D01*
X129143185Y-85466392D01*
X129143187Y-85466390D01*
X129143189Y-85466390D01*
X129257308Y-85400503D01*
X129257308Y-85400502D01*
X129257313Y-85400500D01*
X129350499Y-85307314D01*
X129376766Y-85261819D01*
X129416389Y-85193190D01*
X129416389Y-85193188D01*
X129416391Y-85193186D01*
X129450499Y-85065892D01*
X129450499Y-84934108D01*
X129416391Y-84806814D01*
X129416389Y-84806811D01*
X129416389Y-84806809D01*
X129350502Y-84692690D01*
X129350500Y-84692688D01*
X129350499Y-84692686D01*
X129257313Y-84599500D01*
X129257310Y-84599498D01*
X129257308Y-84599496D01*
X129143188Y-84533609D01*
X129143190Y-84533609D01*
X129093798Y-84520375D01*
X129015891Y-84499500D01*
X128884107Y-84499500D01*
X128806199Y-84520375D01*
X128756808Y-84533609D01*
X128642689Y-84599496D01*
X128549495Y-84692690D01*
X128483608Y-84806809D01*
X128483607Y-84806814D01*
X128449499Y-84934108D01*
X126450500Y-84934108D01*
X126416392Y-84806814D01*
X126416390Y-84806811D01*
X126416390Y-84806809D01*
X126350503Y-84692690D01*
X126350501Y-84692688D01*
X126350500Y-84692686D01*
X126257314Y-84599500D01*
X126257311Y-84599498D01*
X126257309Y-84599496D01*
X126143189Y-84533609D01*
X126143191Y-84533609D01*
X126093799Y-84520375D01*
X126015892Y-84499500D01*
X125884108Y-84499500D01*
X125806200Y-84520375D01*
X125756809Y-84533609D01*
X125642690Y-84599496D01*
X125549496Y-84692690D01*
X125483609Y-84806809D01*
X125483608Y-84806814D01*
X125449500Y-84934108D01*
X123300500Y-84934108D01*
X123266392Y-84806814D01*
X123266390Y-84806811D01*
X123266390Y-84806809D01*
X123200503Y-84692690D01*
X123200501Y-84692688D01*
X123200500Y-84692686D01*
X123107314Y-84599500D01*
X123107311Y-84599498D01*
X123107309Y-84599496D01*
X122993189Y-84533609D01*
X122993191Y-84533609D01*
X122943799Y-84520375D01*
X122865892Y-84499500D01*
X122734108Y-84499500D01*
X122656200Y-84520375D01*
X122606809Y-84533609D01*
X122492690Y-84599496D01*
X122399496Y-84692690D01*
X122333609Y-84806809D01*
X122333608Y-84806814D01*
X122299500Y-84934108D01*
X118300500Y-84934108D01*
X118266392Y-84806814D01*
X118266390Y-84806811D01*
X118266390Y-84806809D01*
X118200503Y-84692690D01*
X118200501Y-84692688D01*
X118200500Y-84692686D01*
X118107314Y-84599500D01*
X118107311Y-84599498D01*
X118107309Y-84599496D01*
X117993189Y-84533609D01*
X117993191Y-84533609D01*
X117943799Y-84520375D01*
X117865892Y-84499500D01*
X117734108Y-84499500D01*
X117656200Y-84520375D01*
X117606809Y-84533609D01*
X117492690Y-84599496D01*
X117399496Y-84692690D01*
X117333609Y-84806809D01*
X117333608Y-84806814D01*
X117299500Y-84934108D01*
X99000000Y-84934108D01*
X99000000Y-82099500D01*
X99018907Y-82041309D01*
X99068407Y-82005345D01*
X99099000Y-82000500D01*
X126902809Y-82000500D01*
X126908827Y-82000500D01*
X126910340Y-82000778D01*
G37*
%TD.AperFunction*%
%TD*%
M02*
