%TF.GenerationSoftware,KiCad,Pcbnew,10.0.1*%
%TF.CreationDate,2026-08-28T14:49:27-05:00*%
%TF.ProjectId,BIOCHEST-ECG-EMG,42494f43-4845-4535-942d-4543472d454d,rev?*%
%TF.SameCoordinates,Original*%
%TF.FileFunction,Copper,L4,Bot*%
%TF.FilePolarity,Positive*%
%FSLAX46Y46*%
G04 Gerber Fmt 4.6, Leading zero omitted, Abs format (unit mm)*
G04 Created by KiCad (PCBNEW 10.0.1) date 2026-08-28 14:49:27*
%MOMM*%
%LPD*%
G01*
G04 APERTURE LIST*
%TA.AperFunction,ComponentPad*%
%ADD10R,5.000000X5.000000*%
%TD*%
%TA.AperFunction,ComponentPad*%
%ADD11R,1.400000X1.400000*%
%TD*%
%TA.AperFunction,ComponentPad*%
%ADD12C,1.400000*%
%TD*%
%TA.AperFunction,ComponentPad*%
%ADD13O,1.000000X1.600000*%
%TD*%
%TA.AperFunction,ViaPad*%
%ADD14C,0.500000*%
%TD*%
%TA.AperFunction,Conductor*%
%ADD15C,0.600000*%
%TD*%
%TA.AperFunction,Conductor*%
%ADD16C,0.250000*%
%TD*%
%TA.AperFunction,Conductor*%
%ADD17C,0.500000*%
%TD*%
%TA.AperFunction,Conductor*%
%ADD18C,0.300000*%
%TD*%
G04 APERTURE END LIST*
D10*
%TO.P,J3,1*%
%TO.N,RLD_DRV*%
X72000000Y-100000000D03*
%TD*%
%TO.P,J5,1*%
%TO.N,EMG_N*%
X83000000Y-114000000D03*
%TD*%
D11*
%TO.P,BT1,1*%
%TO.N,VBAT*%
X125500000Y-114500000D03*
D12*
%TO.P,BT1,2*%
%TO.N,BAT_PROT_N*%
X127500000Y-114500000D03*
%TD*%
D10*
%TO.P,J2,1*%
%TO.N,ECG_N*%
X83000000Y-86000000D03*
%TD*%
D13*
%TO.P,J6,SH*%
%TO.N,DGND*%
X129500000Y-104300000D03*
%TO.P,J6,SH2*%
X129500000Y-95700000D03*
%TD*%
D10*
%TO.P,J4,1*%
%TO.N,EMG_P*%
X73000000Y-114000000D03*
%TD*%
%TO.P,J1,1*%
%TO.N,ECG_P*%
X73000000Y-86000000D03*
%TD*%
D11*
%TO.P,U10,1*%
%TO.N,DGND*%
X94690000Y-115500000D03*
D12*
%TO.P,U10,2*%
%TO.N,VSYS*%
X97230000Y-115500000D03*
%TO.P,U10,3*%
%TO.N,AGND*%
X99770000Y-115500000D03*
%TO.P,U10,4*%
%TO.N,3V3_AFE*%
X102310000Y-115500000D03*
%TD*%
D14*
%TO.N,VSYS*%
X109850000Y-115600000D03*
X122500000Y-117200000D03*
X97230000Y-117300000D03*
%TO.N,DGND*%
X105350000Y-113250000D03*
X117200000Y-101200000D03*
X120500000Y-114500000D03*
X112950000Y-88500000D03*
X109950000Y-88500000D03*
X110550000Y-97500000D03*
X117200000Y-102800000D03*
X118800000Y-102800000D03*
X125800000Y-97600000D03*
X117450000Y-114500000D03*
X117800000Y-85000000D03*
X100500000Y-115500000D03*
X125950000Y-85000000D03*
X109650000Y-112750000D03*
X122800000Y-85000000D03*
X104700000Y-103175000D03*
X104700000Y-96825000D03*
X104700000Y-104445000D03*
X112000000Y-116800000D03*
X118800000Y-101200000D03*
X128949999Y-85000000D03*
X117600000Y-114500000D03*
X122450000Y-109000000D03*
X125800000Y-103200000D03*
%TO.N,3V3_DIG*%
X109050000Y-88500000D03*
X113550000Y-114500000D03*
X106050000Y-88500000D03*
X109650000Y-113250000D03*
X110550000Y-98350000D03*
X104700000Y-95555000D03*
X109850000Y-113400000D03*
%TO.N,ESP_IO0*%
X110250000Y-100050000D03*
X118400000Y-86500000D03*
%TO.N,3V3_AFE*%
X93000000Y-117300000D03*
X78000000Y-92300000D03*
X86550000Y-94500000D03*
X86500000Y-103650000D03*
X81550000Y-94500000D03*
X78000000Y-107700000D03*
X78000000Y-97700000D03*
X88350000Y-84900000D03*
X88350000Y-87100000D03*
X84050000Y-94500000D03*
X92300000Y-95555000D03*
%TO.N,AGND*%
X78950000Y-102300000D03*
X85450000Y-94500000D03*
X78000000Y-102300000D03*
X78950000Y-87700000D03*
X90500000Y-88300000D03*
X87950000Y-94500000D03*
X78950000Y-112300000D03*
X85700000Y-100800000D03*
X93000000Y-115500000D03*
X92300000Y-96825000D03*
X85700000Y-99200000D03*
X92300000Y-103175000D03*
X87300000Y-100800000D03*
X90450000Y-94500000D03*
X87300000Y-99200000D03*
X92300000Y-104445000D03*
%TO.N,LED_ALERT*%
X123500000Y-104450000D03*
X126250000Y-87000000D03*
%TO.N,VBUS*%
X117600000Y-113500000D03*
X125800000Y-102400000D03*
X125800000Y-98400000D03*
%TO.N,EMG_N*%
X78000000Y-112000000D03*
X79500000Y-100000000D03*
%TO.N,LED_STATUS*%
X123250000Y-87000000D03*
X122500000Y-105300000D03*
%TO.N,SPI_MOSI_DIG*%
X104700000Y-99365000D03*
X110550000Y-104300000D03*
%TO.N,SPI_SCLK_DIG*%
X110550000Y-105150000D03*
X104700000Y-98095000D03*
%TO.N,I2C_SDA*%
X122000000Y-107000000D03*
X105550000Y-111000000D03*
%TO.N,I2C_SCL*%
X105550000Y-110000000D03*
X121000000Y-106150000D03*
%TO.N,ECG_N*%
X81000000Y-99000000D03*
X78000000Y-88000000D03*
%TO.N,EMG_P*%
X77050000Y-112000000D03*
X76000000Y-99500000D03*
%TO.N,SPI_SCLK_AFE*%
X90150000Y-97500000D03*
X92300000Y-97500000D03*
%TO.N,SPI_MOSI_AFE*%
X90150000Y-101000000D03*
X92300000Y-99365000D03*
%TD*%
%TO.N,VSYS*%
D15*
X97230000Y-117135000D02*
X97230000Y-117300000D01*
X122500000Y-117200000D02*
X120000000Y-117000000D01*
X109850000Y-116370000D02*
X109850000Y-115600000D01*
X120000000Y-117000000D02*
X110479999Y-117000000D01*
X110479999Y-117000000D02*
X109850000Y-116370000D01*
X109850000Y-117000000D02*
X97365000Y-117000000D01*
X97365000Y-117000000D02*
X97230000Y-117135000D01*
%TO.N,ESP_IO0*%
D16*
X118400000Y-86500000D02*
X110250000Y-100050000D01*
%TO.N,3V3_AFE*%
D17*
X102310000Y-115500000D02*
X93000000Y-117300000D01*
%TO.N,LED_ALERT*%
D16*
X126250000Y-87000000D02*
X124737500Y-87000000D01*
X123500000Y-88237500D02*
X123500000Y-104450000D01*
X124737500Y-87000000D02*
X123500000Y-88237500D01*
%TO.N,VBUS*%
D17*
X125112886Y-111504253D02*
X123503412Y-113101120D01*
X123503412Y-113101120D02*
X117600000Y-113500000D01*
X125800000Y-102400000D02*
X125112886Y-111504253D01*
X125800000Y-98400000D02*
X125000000Y-113000000D01*
%TO.N,EMG_N*%
D18*
X78825000Y-112000000D02*
X79500000Y-111325000D01*
X78000000Y-112000000D02*
X78825000Y-112000000D01*
X83000000Y-114000000D02*
X78000000Y-112000000D01*
X79500000Y-111325000D02*
X79500000Y-100000000D01*
%TO.N,LED_STATUS*%
D16*
X122500000Y-87337500D02*
X122500000Y-105300000D01*
X123250000Y-87000000D02*
X122837500Y-87000000D01*
X122837500Y-87000000D02*
X122500000Y-87337500D01*
%TO.N,SPI_MOSI_DIG*%
X104700000Y-99365000D02*
X110550000Y-104300000D01*
%TO.N,SPI_SCLK_DIG*%
X104700000Y-98095000D02*
X110550000Y-105150000D01*
%TO.N,I2C_SDA*%
X120500000Y-111000000D02*
X122000000Y-109500000D01*
X122000000Y-109500000D02*
X122000000Y-107000000D01*
X105550000Y-111000000D02*
X120500000Y-111000000D01*
%TO.N,I2C_SCL*%
X119500000Y-110000000D02*
X121000000Y-108500000D01*
X105550000Y-110000000D02*
X119500000Y-110000000D01*
X121000000Y-108500000D02*
X121000000Y-106150000D01*
%TO.N,ECG_N*%
D18*
X83000000Y-86000000D02*
X78000000Y-88000000D01*
X81000000Y-89350000D02*
X81000000Y-99000000D01*
X78000000Y-88000000D02*
X79650000Y-88000000D01*
X79650000Y-88000000D02*
X81000000Y-89350000D01*
%TO.N,EMG_P*%
X76472500Y-112000000D02*
X76000000Y-111527500D01*
X73000000Y-114000000D02*
X77050000Y-112000000D01*
X76000000Y-111527500D02*
X76000000Y-99500000D01*
X77050000Y-112000000D02*
X76472500Y-112000000D01*
%TO.N,SPI_SCLK_AFE*%
D16*
X90150000Y-97500000D02*
X92300000Y-97500000D01*
%TO.N,SPI_MOSI_AFE*%
X90150000Y-101000000D02*
X92300000Y-99365000D01*
%TD*%
%TA.AperFunction,Conductor*%
%TO.N,DGND*%
G36*
X126909111Y-82000781D02*
G01*
X126910335Y-82000777D01*
X126910340Y-82000778D01*
X127000804Y-82000501D01*
X127005312Y-82000593D01*
X127367573Y-82016300D01*
X127376681Y-82017119D01*
X127733642Y-82066000D01*
X127742644Y-82067661D01*
X128093532Y-82149392D01*
X128102353Y-82151884D01*
X128444153Y-82265763D01*
X128452693Y-82269055D01*
X128757322Y-82403040D01*
X128782480Y-82414106D01*
X128790704Y-82418188D01*
X129105623Y-82593154D01*
X129113416Y-82597969D01*
X129410799Y-82801367D01*
X129418095Y-82806871D01*
X129695360Y-83036940D01*
X129702134Y-83043113D01*
X129956886Y-83297865D01*
X129963060Y-83304640D01*
X130193126Y-83581900D01*
X130198640Y-83589211D01*
X130402025Y-83886575D01*
X130406850Y-83894384D01*
X130581811Y-84209296D01*
X130585893Y-84217519D01*
X130730939Y-84547294D01*
X130734241Y-84555859D01*
X130848113Y-84897640D01*
X130850608Y-84906474D01*
X130932335Y-85257342D01*
X130934001Y-85266370D01*
X130982878Y-85623301D01*
X130983700Y-85632443D01*
X130999405Y-85994644D01*
X130999498Y-85998931D01*
X130999498Y-85999241D01*
X130999222Y-86089660D01*
X130999499Y-86091171D01*
X130999500Y-86097191D01*
X130999500Y-113902807D01*
X130999218Y-113909109D01*
X130999498Y-114000763D01*
X130999405Y-114005354D01*
X130983700Y-114367556D01*
X130982878Y-114376698D01*
X130934001Y-114733629D01*
X130932335Y-114742657D01*
X130850608Y-115093525D01*
X130848113Y-115102359D01*
X130734241Y-115444140D01*
X130730939Y-115452705D01*
X130585893Y-115782480D01*
X130581811Y-115790703D01*
X130406850Y-116105615D01*
X130402025Y-116113424D01*
X130198640Y-116410788D01*
X130193118Y-116418109D01*
X129994863Y-116657033D01*
X129963069Y-116695349D01*
X129956886Y-116702134D01*
X129702134Y-116956886D01*
X129695349Y-116963069D01*
X129418109Y-117193118D01*
X129410788Y-117198640D01*
X129113424Y-117402025D01*
X129105615Y-117406850D01*
X128790703Y-117581811D01*
X128782480Y-117585893D01*
X128452705Y-117730939D01*
X128444140Y-117734241D01*
X128102359Y-117848113D01*
X128093525Y-117850608D01*
X127742657Y-117932335D01*
X127733629Y-117934001D01*
X127376698Y-117982878D01*
X127367556Y-117983700D01*
X127005354Y-117999405D01*
X127001067Y-117999498D01*
X127000757Y-117999498D01*
X126910340Y-117999222D01*
X126908827Y-117999499D01*
X126902810Y-117999500D01*
X126902809Y-117999499D01*
X126902808Y-117999500D01*
X99099000Y-117999500D01*
X99040809Y-117980593D01*
X99004845Y-117931093D01*
X99000000Y-117900500D01*
X99000000Y-117649500D01*
X99018907Y-117591309D01*
X99068407Y-117555345D01*
X99099000Y-117550500D01*
X109922474Y-117550500D01*
X109922475Y-117550500D01*
X110062485Y-117512984D01*
X110115497Y-117482376D01*
X110175344Y-117469654D01*
X110214497Y-117482375D01*
X110219917Y-117485504D01*
X110267514Y-117512984D01*
X110407524Y-117550500D01*
X110552473Y-117550500D01*
X119974062Y-117550500D01*
X119981956Y-117550814D01*
X122528344Y-117754526D01*
X122670900Y-117728295D01*
X122801810Y-117666061D01*
X122912151Y-117572067D01*
X122994405Y-117452716D01*
X123042967Y-117316144D01*
X123054526Y-117171656D01*
X123028295Y-117029100D01*
X122966061Y-116898190D01*
X122966061Y-116898189D01*
X122966060Y-116898188D01*
X122872068Y-116787850D01*
X122752715Y-116705593D01*
X122616146Y-116657033D01*
X120102969Y-116455978D01*
X120102969Y-116455977D01*
X120093961Y-116455256D01*
X120072475Y-116449500D01*
X120021983Y-116449500D01*
X120018044Y-116449185D01*
X120001543Y-116447865D01*
X119971656Y-116445474D01*
X119971655Y-116445474D01*
X119971654Y-116445474D01*
X119963797Y-116446920D01*
X119958660Y-116447865D01*
X119940745Y-116449500D01*
X110749031Y-116449500D01*
X110690840Y-116430593D01*
X110679027Y-116420503D01*
X110429496Y-116170971D01*
X110401719Y-116116455D01*
X110400500Y-116100968D01*
X110400500Y-115527525D01*
X110362984Y-115387515D01*
X110362982Y-115387512D01*
X110362982Y-115387510D01*
X110290512Y-115261989D01*
X110290510Y-115261987D01*
X110290509Y-115261985D01*
X110188015Y-115159491D01*
X110188012Y-115159489D01*
X110188010Y-115159487D01*
X110062488Y-115087017D01*
X110062489Y-115087017D01*
X110032896Y-115079087D01*
X109922475Y-115049500D01*
X109777525Y-115049500D01*
X109715790Y-115066041D01*
X109637510Y-115087017D01*
X109511989Y-115159487D01*
X109409487Y-115261989D01*
X109337017Y-115387510D01*
X109299500Y-115527525D01*
X109299500Y-116350500D01*
X109280593Y-116408691D01*
X109231093Y-116444655D01*
X109200500Y-116449500D01*
X102926187Y-116449500D01*
X102867996Y-116430593D01*
X102832032Y-116381093D01*
X102832032Y-116319907D01*
X102867996Y-116270407D01*
X102871185Y-116268185D01*
X102872736Y-116267148D01*
X102915908Y-116238302D01*
X103048302Y-116105908D01*
X103122282Y-115995187D01*
X103152318Y-115950238D01*
X103152319Y-115950234D01*
X103152322Y-115950231D01*
X103223973Y-115777251D01*
X103260500Y-115593616D01*
X103260500Y-115406384D01*
X103223973Y-115222749D01*
X103152322Y-115049769D01*
X103152320Y-115049767D01*
X103152318Y-115049761D01*
X103092649Y-114960463D01*
X103048302Y-114894092D01*
X102915908Y-114761698D01*
X102858163Y-114723114D01*
X102760238Y-114657681D01*
X102760229Y-114657677D01*
X102587249Y-114586026D01*
X102403618Y-114549500D01*
X102403616Y-114549500D01*
X102216384Y-114549500D01*
X102216381Y-114549500D01*
X102032750Y-114586026D01*
X101859770Y-114657677D01*
X101859761Y-114657681D01*
X101704092Y-114761698D01*
X101704088Y-114761701D01*
X101571701Y-114894088D01*
X101571698Y-114894092D01*
X101467677Y-115049770D01*
X101441537Y-115112876D01*
X101401799Y-115159401D01*
X101368866Y-115172189D01*
X100794700Y-115283199D01*
X100733978Y-115275682D01*
X100689272Y-115233908D01*
X100684443Y-115223885D01*
X100683973Y-115222750D01*
X100683973Y-115222749D01*
X100612322Y-115049769D01*
X100612320Y-115049767D01*
X100612318Y-115049761D01*
X100552649Y-114960463D01*
X100508302Y-114894092D01*
X100375908Y-114761698D01*
X100318163Y-114723114D01*
X100220238Y-114657681D01*
X100220229Y-114657677D01*
X100047249Y-114586026D01*
X99863618Y-114549500D01*
X99863616Y-114549500D01*
X99676384Y-114549500D01*
X99676381Y-114549500D01*
X99492750Y-114586026D01*
X99319770Y-114657677D01*
X99319761Y-114657681D01*
X99164082Y-114761704D01*
X99161792Y-114763584D01*
X99160533Y-114764076D01*
X99160049Y-114764400D01*
X99159977Y-114764293D01*
X99104812Y-114785875D01*
X99045612Y-114770417D01*
X99006804Y-114723114D01*
X99000000Y-114687046D01*
X99000000Y-114434108D01*
X113049500Y-114434108D01*
X113049500Y-114565892D01*
X113074094Y-114657678D01*
X113083609Y-114693190D01*
X113149496Y-114807309D01*
X113149498Y-114807311D01*
X113149500Y-114807314D01*
X113242686Y-114900500D01*
X113242688Y-114900501D01*
X113242690Y-114900503D01*
X113356810Y-114966390D01*
X113356808Y-114966390D01*
X113356812Y-114966391D01*
X113356814Y-114966392D01*
X113484108Y-115000500D01*
X113484110Y-115000500D01*
X113615890Y-115000500D01*
X113615892Y-115000500D01*
X113743186Y-114966392D01*
X113743188Y-114966390D01*
X113743190Y-114966390D01*
X113857309Y-114900503D01*
X113857309Y-114900502D01*
X113857314Y-114900500D01*
X113950500Y-114807314D01*
X113971803Y-114770417D01*
X114016390Y-114693190D01*
X114016390Y-114693188D01*
X114016392Y-114693186D01*
X114050500Y-114565892D01*
X114050500Y-114434108D01*
X114016392Y-114306814D01*
X114016390Y-114306811D01*
X114016390Y-114306809D01*
X113950503Y-114192690D01*
X113950501Y-114192688D01*
X113950500Y-114192686D01*
X113857314Y-114099500D01*
X113857311Y-114099498D01*
X113857309Y-114099496D01*
X113743189Y-114033609D01*
X113743191Y-114033609D01*
X113693799Y-114020375D01*
X113615892Y-113999500D01*
X113484108Y-113999500D01*
X113406200Y-114020375D01*
X113356809Y-114033609D01*
X113242690Y-114099496D01*
X113149496Y-114192690D01*
X113083609Y-114306809D01*
X113083608Y-114306814D01*
X113049500Y-114434108D01*
X99000000Y-114434108D01*
X99000000Y-113184108D01*
X109149500Y-113184108D01*
X109149500Y-113315892D01*
X109179579Y-113428151D01*
X109183609Y-113443190D01*
X109249496Y-113557309D01*
X109249498Y-113557311D01*
X109249500Y-113557314D01*
X109342686Y-113650500D01*
X109449700Y-113712285D01*
X109470201Y-113728016D01*
X109542685Y-113800499D01*
X109542690Y-113800503D01*
X109656810Y-113866390D01*
X109656808Y-113866390D01*
X109656812Y-113866391D01*
X109656814Y-113866392D01*
X109784108Y-113900500D01*
X109784110Y-113900500D01*
X109915890Y-113900500D01*
X109915892Y-113900500D01*
X110043186Y-113866392D01*
X110043188Y-113866390D01*
X110043190Y-113866390D01*
X110157309Y-113800503D01*
X110157309Y-113800502D01*
X110157314Y-113800500D01*
X110250500Y-113707314D01*
X110279156Y-113657681D01*
X110316390Y-113593190D01*
X110316390Y-113593188D01*
X110316392Y-113593186D01*
X110349935Y-113467999D01*
X117096197Y-113467999D01*
X117097082Y-113481093D01*
X117099275Y-113513553D01*
X117099500Y-113520226D01*
X117099500Y-113565890D01*
X117099501Y-113565898D01*
X117101429Y-113573097D01*
X117101430Y-113573097D01*
X117103927Y-113582417D01*
X117105081Y-113599483D01*
X117120924Y-113645851D01*
X117121788Y-113649075D01*
X117121787Y-113649077D01*
X117133605Y-113693179D01*
X117133608Y-113693186D01*
X117137336Y-113699643D01*
X117145279Y-113717128D01*
X117147690Y-113724185D01*
X117147692Y-113724188D01*
X117175001Y-113764881D01*
X117199500Y-113807314D01*
X117211593Y-113819407D01*
X117216970Y-113827419D01*
X117221126Y-113833611D01*
X117221127Y-113833613D01*
X117255516Y-113863649D01*
X117260394Y-113868208D01*
X117292686Y-113900500D01*
X117307500Y-113909052D01*
X117320384Y-113920306D01*
X117364374Y-113941889D01*
X117406814Y-113966392D01*
X117414019Y-113968322D01*
X117432004Y-113975071D01*
X117438695Y-113978354D01*
X117483497Y-113987171D01*
X117483501Y-113987172D01*
X117486771Y-113987815D01*
X117534108Y-114000500D01*
X117551217Y-114000500D01*
X117567999Y-114003803D01*
X117612991Y-114000763D01*
X117613554Y-114000725D01*
X117620227Y-114000500D01*
X117665892Y-114000500D01*
X117673089Y-113998570D01*
X117692042Y-113995420D01*
X123519314Y-113601686D01*
X123567336Y-113601875D01*
X123584838Y-113597258D01*
X123602894Y-113596039D01*
X123644993Y-113581653D01*
X123651743Y-113579613D01*
X123694763Y-113568268D01*
X123702266Y-113563974D01*
X123719414Y-113556224D01*
X123727600Y-113553428D01*
X123767476Y-113526667D01*
X123809149Y-113502825D01*
X123821995Y-113490078D01*
X123837026Y-113479992D01*
X123866295Y-113446480D01*
X123871113Y-113441345D01*
X124329604Y-112986445D01*
X124384229Y-112958883D01*
X124444623Y-112968692D01*
X124487717Y-113012126D01*
X124496216Y-113036371D01*
X124523736Y-113167376D01*
X124523737Y-113167379D01*
X124583282Y-113284934D01*
X124583289Y-113284945D01*
X124671230Y-113383083D01*
X124671233Y-113383085D01*
X124671234Y-113383086D01*
X124676876Y-113386769D01*
X124698390Y-113400814D01*
X124736781Y-113448456D01*
X124739837Y-113509565D01*
X124706390Y-113560799D01*
X124699273Y-113566029D01*
X124619400Y-113619397D01*
X124619397Y-113619400D01*
X124564035Y-113702257D01*
X124564033Y-113702263D01*
X124549501Y-113775315D01*
X124549500Y-113775327D01*
X124549500Y-115224672D01*
X124549501Y-115224684D01*
X124564033Y-115297736D01*
X124564035Y-115297742D01*
X124619397Y-115380599D01*
X124619400Y-115380602D01*
X124702257Y-115435964D01*
X124702260Y-115435966D01*
X124743353Y-115444140D01*
X124775315Y-115450498D01*
X124775320Y-115450498D01*
X124775326Y-115450500D01*
X124775327Y-115450500D01*
X126224673Y-115450500D01*
X126224674Y-115450500D01*
X126297740Y-115435966D01*
X126380601Y-115380601D01*
X126435966Y-115297740D01*
X126450500Y-115224674D01*
X126450500Y-114947765D01*
X126469407Y-114889574D01*
X126518907Y-114853610D01*
X126580093Y-114853610D01*
X126629593Y-114889574D01*
X126640964Y-114909880D01*
X126657675Y-114950226D01*
X126657681Y-114950238D01*
X126724007Y-115049500D01*
X126761698Y-115105908D01*
X126894092Y-115238302D01*
X126950035Y-115275682D01*
X127049761Y-115342318D01*
X127049767Y-115342320D01*
X127049769Y-115342322D01*
X127222749Y-115413973D01*
X127406384Y-115450500D01*
X127406385Y-115450500D01*
X127593615Y-115450500D01*
X127593616Y-115450500D01*
X127777251Y-115413973D01*
X127950231Y-115342322D01*
X127950234Y-115342319D01*
X127950238Y-115342318D01*
X127995187Y-115312282D01*
X128105908Y-115238302D01*
X128238302Y-115105908D01*
X128331525Y-114966390D01*
X128342318Y-114950238D01*
X128342319Y-114950234D01*
X128342322Y-114950231D01*
X128413973Y-114777251D01*
X128450500Y-114593616D01*
X128450500Y-114406384D01*
X128413973Y-114222749D01*
X128342322Y-114049769D01*
X128342320Y-114049767D01*
X128342318Y-114049761D01*
X128270239Y-113941889D01*
X128238302Y-113894092D01*
X128105908Y-113761698D01*
X128055499Y-113728016D01*
X127950238Y-113657681D01*
X127950229Y-113657677D01*
X127777249Y-113586026D01*
X127593618Y-113549500D01*
X127593616Y-113549500D01*
X127406384Y-113549500D01*
X127406381Y-113549500D01*
X127222750Y-113586026D01*
X127049770Y-113657677D01*
X127049761Y-113657681D01*
X126894092Y-113761698D01*
X126894088Y-113761701D01*
X126761701Y-113894088D01*
X126761698Y-113894092D01*
X126657681Y-114049761D01*
X126657677Y-114049770D01*
X126640964Y-114090120D01*
X126601227Y-114136645D01*
X126541733Y-114150929D01*
X126485205Y-114127514D01*
X126453235Y-114075345D01*
X126450500Y-114052234D01*
X126450500Y-113775327D01*
X126450498Y-113775315D01*
X126441089Y-113728016D01*
X126435966Y-113702260D01*
X126400430Y-113649075D01*
X126380602Y-113619400D01*
X126380599Y-113619397D01*
X126297742Y-113564035D01*
X126297740Y-113564034D01*
X126297737Y-113564033D01*
X126297736Y-113564033D01*
X126224684Y-113549501D01*
X126224674Y-113549500D01*
X125395584Y-113549500D01*
X125337393Y-113530593D01*
X125301429Y-113481093D01*
X125301429Y-113419907D01*
X125329515Y-113376771D01*
X125383086Y-113328766D01*
X125455124Y-113218414D01*
X125496145Y-113093177D01*
X125570686Y-111732794D01*
X125574448Y-111710664D01*
X125576990Y-111701887D01*
X125578515Y-111699271D01*
X125590414Y-111655548D01*
X125590628Y-111654811D01*
X125590713Y-111654685D01*
X125592286Y-111649624D01*
X125607008Y-111607625D01*
X125608370Y-111589575D01*
X125613123Y-111572113D01*
X125613311Y-111524100D01*
X126187116Y-103921204D01*
X128700000Y-103921204D01*
X128700000Y-104099999D01*
X128700001Y-104100000D01*
X129200000Y-104100000D01*
X129200000Y-104500000D01*
X128700001Y-104500000D01*
X128700000Y-104500001D01*
X128700000Y-104678795D01*
X128730742Y-104833349D01*
X128791048Y-104978940D01*
X128791052Y-104978949D01*
X128878599Y-105109969D01*
X128878602Y-105109973D01*
X128990026Y-105221397D01*
X128990030Y-105221400D01*
X129121050Y-105308947D01*
X129121059Y-105308951D01*
X129266644Y-105369254D01*
X129266655Y-105369258D01*
X129300000Y-105375890D01*
X129300000Y-104824265D01*
X129315795Y-104840060D01*
X129384204Y-104879556D01*
X129460504Y-104900000D01*
X129539496Y-104900000D01*
X129615796Y-104879556D01*
X129684205Y-104840060D01*
X129700000Y-104824265D01*
X129700000Y-105375889D01*
X129733344Y-105369258D01*
X129733355Y-105369254D01*
X129878940Y-105308951D01*
X129878949Y-105308947D01*
X130009969Y-105221400D01*
X130009973Y-105221397D01*
X130121397Y-105109973D01*
X130121400Y-105109969D01*
X130208947Y-104978949D01*
X130208951Y-104978940D01*
X130269257Y-104833349D01*
X130299999Y-104678795D01*
X130300000Y-104678792D01*
X130300000Y-104500001D01*
X130299999Y-104500000D01*
X129800000Y-104500000D01*
X129800000Y-104100000D01*
X130299999Y-104100000D01*
X130300000Y-104099999D01*
X130300000Y-103921207D01*
X130299999Y-103921204D01*
X130269257Y-103766650D01*
X130208951Y-103621059D01*
X130208947Y-103621050D01*
X130121400Y-103490030D01*
X130121397Y-103490026D01*
X130009973Y-103378602D01*
X130009969Y-103378599D01*
X129878949Y-103291052D01*
X129878940Y-103291048D01*
X129733349Y-103230742D01*
X129700000Y-103224109D01*
X129700000Y-103775735D01*
X129684205Y-103759940D01*
X129615796Y-103720444D01*
X129539496Y-103700000D01*
X129460504Y-103700000D01*
X129384204Y-103720444D01*
X129315795Y-103759940D01*
X129300000Y-103775735D01*
X129300000Y-103224109D01*
X129266650Y-103230742D01*
X129121059Y-103291048D01*
X129121050Y-103291052D01*
X128990030Y-103378599D01*
X128990026Y-103378602D01*
X128878602Y-103490026D01*
X128878599Y-103490030D01*
X128791052Y-103621050D01*
X128791048Y-103621059D01*
X128730742Y-103766650D01*
X128700000Y-103921204D01*
X126187116Y-103921204D01*
X126295559Y-102484331D01*
X126300500Y-102465892D01*
X126300500Y-102418865D01*
X126304040Y-102371961D01*
X126300500Y-102353197D01*
X126300500Y-102334108D01*
X126288328Y-102288681D01*
X126279608Y-102242461D01*
X126275345Y-102233597D01*
X126268938Y-102216319D01*
X126266392Y-102206814D01*
X126242876Y-102166083D01*
X126222492Y-102123698D01*
X126210046Y-102109220D01*
X126200500Y-102092686D01*
X126169870Y-102062056D01*
X126165173Y-102057019D01*
X126164982Y-102056800D01*
X126136583Y-102023764D01*
X126135769Y-102023208D01*
X126131023Y-102017751D01*
X126121369Y-101995021D01*
X126108953Y-101973670D01*
X126108187Y-101963985D01*
X126107104Y-101961435D01*
X126107760Y-101958588D01*
X126106873Y-101947368D01*
X126188894Y-100450500D01*
X126296341Y-98489574D01*
X126299567Y-98469371D01*
X126300500Y-98465892D01*
X126300500Y-98413694D01*
X126303355Y-98361591D01*
X126300500Y-98347999D01*
X126300500Y-98334108D01*
X126286991Y-98283691D01*
X126276263Y-98232621D01*
X126269987Y-98220230D01*
X126267324Y-98210292D01*
X126266392Y-98206813D01*
X126266391Y-98206812D01*
X126262309Y-98199742D01*
X126240295Y-98161613D01*
X126216714Y-98115059D01*
X126207445Y-98104715D01*
X126200500Y-98092686D01*
X126188753Y-98080939D01*
X126165507Y-98057692D01*
X126163584Y-98055769D01*
X126128766Y-98016914D01*
X126117136Y-98009322D01*
X126107314Y-97999500D01*
X126068383Y-97977023D01*
X126064453Y-97974754D01*
X126064453Y-97974753D01*
X126062092Y-97973389D01*
X126018414Y-97944877D01*
X126005217Y-97940554D01*
X125996309Y-97935411D01*
X125993187Y-97933608D01*
X125993183Y-97933607D01*
X125945388Y-97920799D01*
X125945388Y-97920800D01*
X125942756Y-97920094D01*
X125893177Y-97903855D01*
X125879311Y-97903095D01*
X125869372Y-97900432D01*
X125869370Y-97900431D01*
X125865896Y-97899500D01*
X125865892Y-97899500D01*
X125813696Y-97899500D01*
X125761590Y-97896645D01*
X125747999Y-97899500D01*
X125734108Y-97899500D01*
X125734106Y-97899500D01*
X125686304Y-97912307D01*
X125686305Y-97912308D01*
X125683690Y-97913008D01*
X125632621Y-97923737D01*
X125620229Y-97930012D01*
X125610295Y-97932674D01*
X125610293Y-97932673D01*
X125606820Y-97933605D01*
X125606814Y-97933608D01*
X125563963Y-97958345D01*
X125563964Y-97958346D01*
X125561604Y-97959708D01*
X125515059Y-97983286D01*
X125504715Y-97992553D01*
X125495807Y-97997697D01*
X125495806Y-97997697D01*
X125492689Y-97999497D01*
X125492684Y-97999501D01*
X125457689Y-98034494D01*
X125455759Y-98036423D01*
X125416914Y-98071234D01*
X125409324Y-98082858D01*
X125402057Y-98090126D01*
X125402057Y-98090127D01*
X125399502Y-98092681D01*
X125399500Y-98092685D01*
X125374757Y-98135537D01*
X125371925Y-98140147D01*
X125344875Y-98181587D01*
X125344874Y-98181587D01*
X125343750Y-98185021D01*
X125335415Y-98203682D01*
X125333610Y-98206808D01*
X125333607Y-98206815D01*
X125320798Y-98254616D01*
X125320095Y-98257236D01*
X125303855Y-98306823D01*
X125303095Y-98320685D01*
X125300434Y-98330618D01*
X125300434Y-98330620D01*
X125299500Y-98334104D01*
X125299500Y-98383584D01*
X125299352Y-98389001D01*
X124593049Y-111279003D01*
X124570986Y-111336072D01*
X124563925Y-111343864D01*
X123309630Y-112588335D01*
X123255004Y-112615898D01*
X123246576Y-112616832D01*
X117586446Y-112999275D01*
X117586445Y-112999275D01*
X117583115Y-112999500D01*
X117534108Y-112999500D01*
X117517582Y-113003927D01*
X117510334Y-113004417D01*
X117507953Y-113004578D01*
X117507951Y-113004577D01*
X117500520Y-113005080D01*
X117457297Y-113019847D01*
X117457296Y-113019846D01*
X117454117Y-113020932D01*
X117406814Y-113033608D01*
X117392006Y-113042157D01*
X117382876Y-113045277D01*
X117382873Y-113045279D01*
X117375812Y-113047692D01*
X117375805Y-113047695D01*
X117337894Y-113073137D01*
X117335106Y-113075007D01*
X117292686Y-113099500D01*
X117280597Y-113111587D01*
X117272595Y-113116958D01*
X117272589Y-113116964D01*
X117266388Y-113121126D01*
X117266383Y-113121130D01*
X117236347Y-113155518D01*
X117231792Y-113160391D01*
X117199501Y-113192683D01*
X117199498Y-113192688D01*
X117195769Y-113199147D01*
X117190944Y-113207502D01*
X117179694Y-113220384D01*
X117158116Y-113264361D01*
X117156438Y-113267268D01*
X117133609Y-113306811D01*
X117133607Y-113306814D01*
X117131677Y-113314020D01*
X117131676Y-113314019D01*
X117129177Y-113323344D01*
X117121646Y-113338695D01*
X117112188Y-113386748D01*
X117111320Y-113389988D01*
X117099500Y-113434103D01*
X117099500Y-113441564D01*
X117098379Y-113453060D01*
X117098649Y-113454517D01*
X117098239Y-113457622D01*
X117096197Y-113467999D01*
X110349935Y-113467999D01*
X110350500Y-113465892D01*
X110350500Y-113334108D01*
X110316392Y-113206814D01*
X110316390Y-113206811D01*
X110316390Y-113206809D01*
X110250503Y-113092690D01*
X110250501Y-113092688D01*
X110250500Y-113092686D01*
X110157314Y-112999500D01*
X110157311Y-112999498D01*
X110157309Y-112999496D01*
X110050300Y-112937714D01*
X110029797Y-112921982D01*
X109957314Y-112849500D01*
X109957309Y-112849496D01*
X109843189Y-112783609D01*
X109843191Y-112783609D01*
X109793799Y-112770375D01*
X109715892Y-112749500D01*
X109584108Y-112749500D01*
X109506200Y-112770375D01*
X109456809Y-112783609D01*
X109342690Y-112849496D01*
X109249496Y-112942690D01*
X109183609Y-113056809D01*
X109172170Y-113099500D01*
X109149500Y-113184108D01*
X99000000Y-113184108D01*
X99000000Y-109934108D01*
X105049500Y-109934108D01*
X105049500Y-110065892D01*
X105079579Y-110178151D01*
X105083609Y-110193190D01*
X105149496Y-110307309D01*
X105149498Y-110307311D01*
X105149500Y-110307314D01*
X105242686Y-110400500D01*
X105242688Y-110400501D01*
X105266525Y-110414264D01*
X105307465Y-110459734D01*
X105313860Y-110520584D01*
X105283267Y-110573572D01*
X105266525Y-110585736D01*
X105242688Y-110599498D01*
X105149496Y-110692690D01*
X105083609Y-110806809D01*
X105083608Y-110806814D01*
X105049500Y-110934108D01*
X105049500Y-111065892D01*
X105079579Y-111178151D01*
X105083609Y-111193190D01*
X105149496Y-111307309D01*
X105149498Y-111307311D01*
X105149500Y-111307314D01*
X105242686Y-111400500D01*
X105242688Y-111400501D01*
X105242690Y-111400503D01*
X105356810Y-111466390D01*
X105356808Y-111466390D01*
X105356812Y-111466391D01*
X105356814Y-111466392D01*
X105484108Y-111500500D01*
X105484110Y-111500500D01*
X105615890Y-111500500D01*
X105615892Y-111500500D01*
X105743186Y-111466392D01*
X105743188Y-111466390D01*
X105743190Y-111466390D01*
X105857309Y-111400503D01*
X105857309Y-111400502D01*
X105857314Y-111400500D01*
X105857317Y-111400496D01*
X105862460Y-111396551D01*
X105864273Y-111398913D01*
X105907834Y-111376719D01*
X105923321Y-111375500D01*
X120549436Y-111375500D01*
X120597186Y-111362705D01*
X120597187Y-111362705D01*
X120644934Y-111349911D01*
X120644933Y-111349911D01*
X120644938Y-111349910D01*
X120730562Y-111300475D01*
X120800475Y-111230562D01*
X122300474Y-109730563D01*
X122318394Y-109699525D01*
X122349910Y-109644938D01*
X122375500Y-109549435D01*
X122375500Y-107373321D01*
X122394407Y-107315130D01*
X122396633Y-107312523D01*
X122396551Y-107312460D01*
X122400496Y-107307317D01*
X122400500Y-107307314D01*
X122400503Y-107307309D01*
X122466390Y-107193190D01*
X122466390Y-107193188D01*
X122466392Y-107193186D01*
X122500500Y-107065892D01*
X122500500Y-106934108D01*
X122466392Y-106806814D01*
X122466390Y-106806811D01*
X122466390Y-106806809D01*
X122400503Y-106692690D01*
X122400501Y-106692688D01*
X122400500Y-106692686D01*
X122307314Y-106599500D01*
X122307311Y-106599498D01*
X122307309Y-106599496D01*
X122193189Y-106533609D01*
X122193191Y-106533609D01*
X122143799Y-106520375D01*
X122065892Y-106499500D01*
X121934108Y-106499500D01*
X121856200Y-106520375D01*
X121806809Y-106533609D01*
X121692690Y-106599496D01*
X121599498Y-106692688D01*
X121560236Y-106760692D01*
X121556250Y-106764280D01*
X121554593Y-106769382D01*
X121533830Y-106784467D01*
X121514766Y-106801632D01*
X121509433Y-106802192D01*
X121505093Y-106805346D01*
X121479426Y-106805346D01*
X121453916Y-106808027D01*
X121449272Y-106805346D01*
X121443907Y-106805346D01*
X121423142Y-106790259D01*
X121400928Y-106777434D01*
X121398746Y-106772535D01*
X121394407Y-106769382D01*
X121386478Y-106744979D01*
X121376042Y-106721539D01*
X121375500Y-106711191D01*
X121375500Y-106523321D01*
X121394407Y-106465130D01*
X121396633Y-106462523D01*
X121396551Y-106462460D01*
X121400496Y-106457317D01*
X121400500Y-106457314D01*
X121466392Y-106343186D01*
X121500500Y-106215892D01*
X121500500Y-106084108D01*
X121466392Y-105956814D01*
X121466390Y-105956811D01*
X121466390Y-105956809D01*
X121400503Y-105842690D01*
X121400501Y-105842688D01*
X121400500Y-105842686D01*
X121307314Y-105749500D01*
X121307311Y-105749498D01*
X121307309Y-105749496D01*
X121193189Y-105683609D01*
X121193191Y-105683609D01*
X121143799Y-105670375D01*
X121065892Y-105649500D01*
X120934108Y-105649500D01*
X120856200Y-105670375D01*
X120806809Y-105683609D01*
X120692690Y-105749496D01*
X120599496Y-105842690D01*
X120533609Y-105956809D01*
X120533608Y-105956814D01*
X120499500Y-106084108D01*
X120499500Y-106215892D01*
X120529579Y-106328151D01*
X120533609Y-106343190D01*
X120599496Y-106457309D01*
X120603449Y-106462460D01*
X120601086Y-106464273D01*
X120623281Y-106507834D01*
X120624500Y-106523321D01*
X120624500Y-108303455D01*
X120605593Y-108361646D01*
X120595504Y-108373459D01*
X119373459Y-109595504D01*
X119318942Y-109623281D01*
X119303455Y-109624500D01*
X105923321Y-109624500D01*
X105865130Y-109605593D01*
X105862523Y-109603366D01*
X105862460Y-109603449D01*
X105857309Y-109599496D01*
X105743189Y-109533609D01*
X105743191Y-109533609D01*
X105693799Y-109520375D01*
X105615892Y-109499500D01*
X105484108Y-109499500D01*
X105406200Y-109520375D01*
X105356809Y-109533609D01*
X105242690Y-109599496D01*
X105149496Y-109692690D01*
X105083609Y-109806809D01*
X105083608Y-109806814D01*
X105049500Y-109934108D01*
X99000000Y-109934108D01*
X99000000Y-98029108D01*
X104199500Y-98029108D01*
X104199500Y-98160892D01*
X104218720Y-98232621D01*
X104233609Y-98288190D01*
X104299496Y-98402309D01*
X104299498Y-98402311D01*
X104299500Y-98402314D01*
X104392686Y-98495500D01*
X104392688Y-98495501D01*
X104392690Y-98495503D01*
X104506810Y-98561390D01*
X104506808Y-98561390D01*
X104506812Y-98561391D01*
X104506814Y-98561392D01*
X104594787Y-98584964D01*
X104645371Y-98617397D01*
X104715779Y-98702307D01*
X104738368Y-98759170D01*
X104723220Y-98818451D01*
X104676121Y-98857506D01*
X104639571Y-98864500D01*
X104634108Y-98864500D01*
X104556200Y-98885375D01*
X104506809Y-98898609D01*
X104392690Y-98964496D01*
X104299496Y-99057690D01*
X104233609Y-99171809D01*
X104233608Y-99171814D01*
X104199500Y-99299108D01*
X104199500Y-99430892D01*
X104228201Y-99538008D01*
X104233609Y-99558190D01*
X104299496Y-99672309D01*
X104299498Y-99672311D01*
X104299500Y-99672314D01*
X104392686Y-99765500D01*
X104392688Y-99765501D01*
X104392690Y-99765503D01*
X104506810Y-99831390D01*
X104506808Y-99831390D01*
X104506812Y-99831391D01*
X104506814Y-99831392D01*
X104634108Y-99865500D01*
X104674766Y-99865500D01*
X104732957Y-99884407D01*
X104738601Y-99888829D01*
X107930040Y-102581094D01*
X107942414Y-102593573D01*
X110007563Y-105084108D01*
X110026709Y-105107197D01*
X110049297Y-105164060D01*
X110049500Y-105170389D01*
X110049500Y-105215892D01*
X110074434Y-105308947D01*
X110083609Y-105343190D01*
X110149496Y-105457309D01*
X110149498Y-105457311D01*
X110149500Y-105457314D01*
X110242686Y-105550500D01*
X110242688Y-105550501D01*
X110242690Y-105550503D01*
X110356810Y-105616390D01*
X110356808Y-105616390D01*
X110356812Y-105616391D01*
X110356814Y-105616392D01*
X110484108Y-105650500D01*
X110484110Y-105650500D01*
X110615890Y-105650500D01*
X110615892Y-105650500D01*
X110743186Y-105616392D01*
X110743188Y-105616390D01*
X110743190Y-105616390D01*
X110857309Y-105550503D01*
X110857309Y-105550502D01*
X110857314Y-105550500D01*
X110950500Y-105457314D01*
X110950503Y-105457309D01*
X111016390Y-105343190D01*
X111016390Y-105343188D01*
X111016392Y-105343186D01*
X111045619Y-105234108D01*
X121999500Y-105234108D01*
X121999500Y-105365892D01*
X122000401Y-105369254D01*
X122033609Y-105493190D01*
X122099496Y-105607309D01*
X122099498Y-105607311D01*
X122099500Y-105607314D01*
X122192686Y-105700500D01*
X122192688Y-105700501D01*
X122192690Y-105700503D01*
X122306810Y-105766390D01*
X122306808Y-105766390D01*
X122306812Y-105766391D01*
X122306814Y-105766392D01*
X122434108Y-105800500D01*
X122434110Y-105800500D01*
X122565890Y-105800500D01*
X122565892Y-105800500D01*
X122693186Y-105766392D01*
X122693188Y-105766390D01*
X122693190Y-105766390D01*
X122807309Y-105700503D01*
X122807309Y-105700502D01*
X122807314Y-105700500D01*
X122900500Y-105607314D01*
X122966392Y-105493186D01*
X123000500Y-105365892D01*
X123000500Y-105234108D01*
X122966392Y-105106814D01*
X122966390Y-105106811D01*
X122966390Y-105106809D01*
X122900503Y-104992690D01*
X122896551Y-104987540D01*
X122897296Y-104986968D01*
X122894407Y-104984869D01*
X122887230Y-104962780D01*
X122876706Y-104942082D01*
X122875500Y-104926678D01*
X122875500Y-104738808D01*
X122894407Y-104680617D01*
X122943907Y-104644653D01*
X123005093Y-104644653D01*
X123054593Y-104680617D01*
X123060233Y-104689302D01*
X123099500Y-104757314D01*
X123192686Y-104850500D01*
X123192688Y-104850501D01*
X123192690Y-104850503D01*
X123306810Y-104916390D01*
X123306808Y-104916390D01*
X123306812Y-104916391D01*
X123306814Y-104916392D01*
X123434108Y-104950500D01*
X123434110Y-104950500D01*
X123565890Y-104950500D01*
X123565892Y-104950500D01*
X123693186Y-104916392D01*
X123693188Y-104916390D01*
X123693190Y-104916390D01*
X123807309Y-104850503D01*
X123807309Y-104850502D01*
X123807314Y-104850500D01*
X123900500Y-104757314D01*
X123900503Y-104757309D01*
X123966390Y-104643190D01*
X123966390Y-104643188D01*
X123966392Y-104643186D01*
X124000500Y-104515892D01*
X124000500Y-104384108D01*
X123966392Y-104256814D01*
X123966390Y-104256811D01*
X123966390Y-104256809D01*
X123900503Y-104142690D01*
X123896551Y-104137540D01*
X123898901Y-104135735D01*
X123876706Y-104092082D01*
X123875500Y-104076678D01*
X123875500Y-95321204D01*
X128700000Y-95321204D01*
X128700000Y-95499999D01*
X128700001Y-95500000D01*
X129200000Y-95500000D01*
X129200000Y-95900000D01*
X128700001Y-95900000D01*
X128700000Y-95900001D01*
X128700000Y-96078795D01*
X128730742Y-96233349D01*
X128791048Y-96378940D01*
X128791052Y-96378949D01*
X128878599Y-96509969D01*
X128878602Y-96509973D01*
X128990026Y-96621397D01*
X128990030Y-96621400D01*
X129121050Y-96708947D01*
X129121059Y-96708951D01*
X129266644Y-96769254D01*
X129266655Y-96769258D01*
X129300000Y-96775890D01*
X129300000Y-96224265D01*
X129315795Y-96240060D01*
X129384204Y-96279556D01*
X129460504Y-96300000D01*
X129539496Y-96300000D01*
X129615796Y-96279556D01*
X129684205Y-96240060D01*
X129700000Y-96224265D01*
X129700000Y-96775889D01*
X129733344Y-96769258D01*
X129733355Y-96769254D01*
X129878940Y-96708951D01*
X129878949Y-96708947D01*
X130009969Y-96621400D01*
X130009973Y-96621397D01*
X130121397Y-96509973D01*
X130121400Y-96509969D01*
X130208947Y-96378949D01*
X130208951Y-96378940D01*
X130269257Y-96233349D01*
X130299999Y-96078795D01*
X130300000Y-96078792D01*
X130300000Y-95900001D01*
X130299999Y-95900000D01*
X129800000Y-95900000D01*
X129800000Y-95500000D01*
X130299999Y-95500000D01*
X130300000Y-95499999D01*
X130300000Y-95321207D01*
X130299999Y-95321204D01*
X130269257Y-95166650D01*
X130208951Y-95021059D01*
X130208947Y-95021050D01*
X130121400Y-94890030D01*
X130121397Y-94890026D01*
X130009973Y-94778602D01*
X130009969Y-94778599D01*
X129878949Y-94691052D01*
X129878940Y-94691048D01*
X129733349Y-94630742D01*
X129700000Y-94624109D01*
X129700000Y-95175735D01*
X129684205Y-95159940D01*
X129615796Y-95120444D01*
X129539496Y-95100000D01*
X129460504Y-95100000D01*
X129384204Y-95120444D01*
X129315795Y-95159940D01*
X129300000Y-95175735D01*
X129300000Y-94624109D01*
X129266650Y-94630742D01*
X129121059Y-94691048D01*
X129121050Y-94691052D01*
X128990030Y-94778599D01*
X128990026Y-94778602D01*
X128878602Y-94890026D01*
X128878599Y-94890030D01*
X128791052Y-95021050D01*
X128791048Y-95021059D01*
X128730742Y-95166650D01*
X128700000Y-95321204D01*
X123875500Y-95321204D01*
X123875500Y-88434045D01*
X123894407Y-88375854D01*
X123904496Y-88364041D01*
X124864041Y-87404496D01*
X124918558Y-87376719D01*
X124934045Y-87375500D01*
X125876679Y-87375500D01*
X125934870Y-87394407D01*
X125937476Y-87396633D01*
X125937540Y-87396551D01*
X125942690Y-87400503D01*
X126056810Y-87466390D01*
X126056808Y-87466390D01*
X126056812Y-87466391D01*
X126056814Y-87466392D01*
X126184108Y-87500500D01*
X126184110Y-87500500D01*
X126315890Y-87500500D01*
X126315892Y-87500500D01*
X126443186Y-87466392D01*
X126443188Y-87466390D01*
X126443190Y-87466390D01*
X126557309Y-87400503D01*
X126557309Y-87400502D01*
X126557314Y-87400500D01*
X126650500Y-87307314D01*
X126661613Y-87288066D01*
X126716390Y-87193190D01*
X126716390Y-87193188D01*
X126716392Y-87193186D01*
X126750500Y-87065892D01*
X126750500Y-86934108D01*
X126716392Y-86806814D01*
X126716390Y-86806811D01*
X126716390Y-86806809D01*
X126650503Y-86692690D01*
X126650501Y-86692688D01*
X126650500Y-86692686D01*
X126557314Y-86599500D01*
X126557311Y-86599498D01*
X126557309Y-86599496D01*
X126443189Y-86533609D01*
X126443191Y-86533609D01*
X126393799Y-86520375D01*
X126315892Y-86499500D01*
X126184108Y-86499500D01*
X126106200Y-86520375D01*
X126056809Y-86533609D01*
X125942690Y-86599496D01*
X125937540Y-86603449D01*
X125935726Y-86601086D01*
X125892166Y-86623281D01*
X125876679Y-86624500D01*
X124786936Y-86624500D01*
X124688064Y-86624500D01*
X124640313Y-86637295D01*
X124640312Y-86637294D01*
X124592562Y-86650089D01*
X124592558Y-86650091D01*
X124506936Y-86699525D01*
X124506937Y-86699526D01*
X123842571Y-87363891D01*
X123788054Y-87391668D01*
X123727622Y-87382097D01*
X123684357Y-87338832D01*
X123674786Y-87278400D01*
X123686830Y-87244388D01*
X123716392Y-87193186D01*
X123750500Y-87065892D01*
X123750500Y-86934108D01*
X123716392Y-86806814D01*
X123716390Y-86806811D01*
X123716390Y-86806809D01*
X123650503Y-86692690D01*
X123650501Y-86692688D01*
X123650500Y-86692686D01*
X123557314Y-86599500D01*
X123557311Y-86599498D01*
X123557309Y-86599496D01*
X123443189Y-86533609D01*
X123443191Y-86533609D01*
X123393799Y-86520375D01*
X123315892Y-86499500D01*
X123184108Y-86499500D01*
X123106200Y-86520375D01*
X123056809Y-86533609D01*
X122942690Y-86599496D01*
X122937540Y-86603449D01*
X122935726Y-86601086D01*
X122892166Y-86623281D01*
X122876679Y-86624500D01*
X122788064Y-86624500D01*
X122740313Y-86637295D01*
X122740312Y-86637294D01*
X122692562Y-86650089D01*
X122692558Y-86650091D01*
X122606936Y-86699525D01*
X122606937Y-86699526D01*
X122269438Y-87037025D01*
X122269437Y-87037024D01*
X122199524Y-87106938D01*
X122150091Y-87192557D01*
X122124500Y-87288066D01*
X122124500Y-104926678D01*
X122105593Y-104984869D01*
X122103367Y-104987477D01*
X122103449Y-104987540D01*
X122099496Y-104992690D01*
X122033609Y-105106809D01*
X122018269Y-105164060D01*
X121999500Y-105234108D01*
X111045619Y-105234108D01*
X111050500Y-105215892D01*
X111050500Y-105084108D01*
X111016392Y-104956814D01*
X111016390Y-104956811D01*
X111016390Y-104956809D01*
X110950503Y-104842690D01*
X110950501Y-104842688D01*
X110950500Y-104842686D01*
X110902815Y-104795001D01*
X110875040Y-104740487D01*
X110884611Y-104680055D01*
X110902814Y-104654999D01*
X110950500Y-104607314D01*
X111003284Y-104515890D01*
X111016390Y-104493190D01*
X111016390Y-104493188D01*
X111016392Y-104493186D01*
X111050500Y-104365892D01*
X111050500Y-104234108D01*
X111016392Y-104106814D01*
X111016390Y-104106811D01*
X111016390Y-104106809D01*
X110950503Y-103992690D01*
X110950501Y-103992688D01*
X110950500Y-103992686D01*
X110857314Y-103899500D01*
X110857311Y-103899498D01*
X110857309Y-103899496D01*
X110743189Y-103833609D01*
X110743191Y-103833609D01*
X110676706Y-103815795D01*
X110615892Y-103799500D01*
X110615890Y-103799500D01*
X110575235Y-103799500D01*
X110517044Y-103780593D01*
X110511400Y-103776171D01*
X108478919Y-102061590D01*
X108466545Y-102049111D01*
X107223898Y-100550500D01*
X106754246Y-99984108D01*
X109749500Y-99984108D01*
X109749500Y-100115892D01*
X109779579Y-100228151D01*
X109783609Y-100243190D01*
X109849496Y-100357309D01*
X109849498Y-100357311D01*
X109849500Y-100357314D01*
X109942686Y-100450500D01*
X109942688Y-100450501D01*
X109942690Y-100450503D01*
X110056810Y-100516390D01*
X110056808Y-100516390D01*
X110056812Y-100516391D01*
X110056814Y-100516392D01*
X110184108Y-100550500D01*
X110184110Y-100550500D01*
X110315890Y-100550500D01*
X110315892Y-100550500D01*
X110443186Y-100516392D01*
X110443188Y-100516390D01*
X110443190Y-100516390D01*
X110557309Y-100450503D01*
X110557309Y-100450502D01*
X110557314Y-100450500D01*
X110650500Y-100357314D01*
X110716392Y-100243186D01*
X110750500Y-100115892D01*
X110750500Y-99984108D01*
X110750500Y-99977619D01*
X110752773Y-99977619D01*
X110762086Y-99927329D01*
X110764237Y-99923564D01*
X118530238Y-87011991D01*
X118576434Y-86971872D01*
X118589451Y-86967392D01*
X118593186Y-86966392D01*
X118707314Y-86900500D01*
X118800500Y-86807314D01*
X118866392Y-86693186D01*
X118900500Y-86565892D01*
X118900500Y-86434108D01*
X118866392Y-86306814D01*
X118866390Y-86306811D01*
X118866390Y-86306809D01*
X118800503Y-86192690D01*
X118800501Y-86192688D01*
X118800500Y-86192686D01*
X118707314Y-86099500D01*
X118707311Y-86099498D01*
X118707309Y-86099496D01*
X118593189Y-86033609D01*
X118593191Y-86033609D01*
X118543799Y-86020375D01*
X118465892Y-85999500D01*
X118334108Y-85999500D01*
X118256200Y-86020375D01*
X118206809Y-86033609D01*
X118092690Y-86099496D01*
X117999496Y-86192690D01*
X117933609Y-86306809D01*
X117899500Y-86434109D01*
X117899500Y-86572380D01*
X117897230Y-86572380D01*
X117887902Y-86622689D01*
X117885740Y-86626470D01*
X111058654Y-97977023D01*
X111012458Y-98017143D01*
X110951503Y-98022449D01*
X110903815Y-97996001D01*
X110857314Y-97949500D01*
X110857311Y-97949498D01*
X110857309Y-97949496D01*
X110743189Y-97883609D01*
X110743191Y-97883609D01*
X110693799Y-97870375D01*
X110615892Y-97849500D01*
X110484108Y-97849500D01*
X110406200Y-97870375D01*
X110356809Y-97883609D01*
X110242690Y-97949496D01*
X110149496Y-98042690D01*
X110083609Y-98156809D01*
X110071050Y-98203682D01*
X110049500Y-98284108D01*
X110049500Y-98415892D01*
X110063827Y-98469362D01*
X110083609Y-98543190D01*
X110149496Y-98657309D01*
X110149498Y-98657311D01*
X110149500Y-98657314D01*
X110242686Y-98750500D01*
X110242688Y-98750501D01*
X110242690Y-98750503D01*
X110356810Y-98816390D01*
X110356811Y-98816390D01*
X110356814Y-98816392D01*
X110399494Y-98827828D01*
X110450808Y-98861150D01*
X110472735Y-98918272D01*
X110458708Y-98974481D01*
X110119760Y-99538008D01*
X110073564Y-99578128D01*
X110060551Y-99582606D01*
X110056815Y-99583607D01*
X110056810Y-99583609D01*
X109942690Y-99649496D01*
X109849496Y-99742690D01*
X109783609Y-99856809D01*
X109775030Y-99888829D01*
X109749500Y-99984108D01*
X106754246Y-99984108D01*
X106201150Y-99317084D01*
X105223291Y-98137802D01*
X105200703Y-98080939D01*
X105200500Y-98074610D01*
X105200500Y-98029109D01*
X105200500Y-98029108D01*
X105166392Y-97901814D01*
X105166390Y-97901811D01*
X105166390Y-97901809D01*
X105100503Y-97787690D01*
X105100501Y-97787688D01*
X105100500Y-97787686D01*
X105007314Y-97694500D01*
X105007311Y-97694498D01*
X105007309Y-97694496D01*
X104893189Y-97628609D01*
X104893191Y-97628609D01*
X104843799Y-97615375D01*
X104765892Y-97594500D01*
X104634108Y-97594500D01*
X104556200Y-97615375D01*
X104506809Y-97628609D01*
X104392690Y-97694496D01*
X104299496Y-97787690D01*
X104233609Y-97901809D01*
X104228709Y-97920098D01*
X104199500Y-98029108D01*
X99000000Y-98029108D01*
X99000000Y-95489108D01*
X104199500Y-95489108D01*
X104199500Y-95620892D01*
X104229579Y-95733151D01*
X104233609Y-95748190D01*
X104299496Y-95862309D01*
X104299498Y-95862311D01*
X104299500Y-95862314D01*
X104392686Y-95955500D01*
X104392688Y-95955501D01*
X104392690Y-95955503D01*
X104506810Y-96021390D01*
X104506808Y-96021390D01*
X104506812Y-96021391D01*
X104506814Y-96021392D01*
X104634108Y-96055500D01*
X104634110Y-96055500D01*
X104765890Y-96055500D01*
X104765892Y-96055500D01*
X104893186Y-96021392D01*
X104893188Y-96021390D01*
X104893190Y-96021390D01*
X105007309Y-95955503D01*
X105007309Y-95955502D01*
X105007314Y-95955500D01*
X105100500Y-95862314D01*
X105166392Y-95748186D01*
X105200500Y-95620892D01*
X105200500Y-95489108D01*
X105166392Y-95361814D01*
X105166390Y-95361811D01*
X105166390Y-95361809D01*
X105100503Y-95247690D01*
X105100501Y-95247688D01*
X105100500Y-95247686D01*
X105007314Y-95154500D01*
X105007311Y-95154498D01*
X105007309Y-95154496D01*
X104893189Y-95088609D01*
X104893191Y-95088609D01*
X104843799Y-95075375D01*
X104765892Y-95054500D01*
X104634108Y-95054500D01*
X104556200Y-95075375D01*
X104506809Y-95088609D01*
X104392690Y-95154496D01*
X104299496Y-95247690D01*
X104233609Y-95361809D01*
X104233608Y-95361814D01*
X104199500Y-95489108D01*
X99000000Y-95489108D01*
X99000000Y-88434108D01*
X105549500Y-88434108D01*
X105549500Y-88565892D01*
X105579579Y-88678151D01*
X105583609Y-88693190D01*
X105649496Y-88807309D01*
X105649498Y-88807311D01*
X105649500Y-88807314D01*
X105742686Y-88900500D01*
X105742688Y-88900501D01*
X105742690Y-88900503D01*
X105856810Y-88966390D01*
X105856808Y-88966390D01*
X105856812Y-88966391D01*
X105856814Y-88966392D01*
X105984108Y-89000500D01*
X105984110Y-89000500D01*
X106115890Y-89000500D01*
X106115892Y-89000500D01*
X106243186Y-88966392D01*
X106243188Y-88966390D01*
X106243190Y-88966390D01*
X106357309Y-88900503D01*
X106357309Y-88900502D01*
X106357314Y-88900500D01*
X106450500Y-88807314D01*
X106516392Y-88693186D01*
X106550500Y-88565892D01*
X106550500Y-88434108D01*
X108549500Y-88434108D01*
X108549500Y-88565892D01*
X108579579Y-88678151D01*
X108583609Y-88693190D01*
X108649496Y-88807309D01*
X108649498Y-88807311D01*
X108649500Y-88807314D01*
X108742686Y-88900500D01*
X108742688Y-88900501D01*
X108742690Y-88900503D01*
X108856810Y-88966390D01*
X108856808Y-88966390D01*
X108856812Y-88966391D01*
X108856814Y-88966392D01*
X108984108Y-89000500D01*
X108984110Y-89000500D01*
X109115890Y-89000500D01*
X109115892Y-89000500D01*
X109243186Y-88966392D01*
X109243188Y-88966390D01*
X109243190Y-88966390D01*
X109357309Y-88900503D01*
X109357309Y-88900502D01*
X109357314Y-88900500D01*
X109450500Y-88807314D01*
X109516392Y-88693186D01*
X109550500Y-88565892D01*
X109550500Y-88434108D01*
X109516392Y-88306814D01*
X109516390Y-88306811D01*
X109516390Y-88306809D01*
X109450503Y-88192690D01*
X109450501Y-88192688D01*
X109450500Y-88192686D01*
X109357314Y-88099500D01*
X109357311Y-88099498D01*
X109357309Y-88099496D01*
X109243189Y-88033609D01*
X109243191Y-88033609D01*
X109193799Y-88020375D01*
X109115892Y-87999500D01*
X108984108Y-87999500D01*
X108906200Y-88020375D01*
X108856809Y-88033609D01*
X108742690Y-88099496D01*
X108649496Y-88192690D01*
X108583609Y-88306809D01*
X108583608Y-88306814D01*
X108549500Y-88434108D01*
X106550500Y-88434108D01*
X106516392Y-88306814D01*
X106516390Y-88306811D01*
X106516390Y-88306809D01*
X106450503Y-88192690D01*
X106450501Y-88192688D01*
X106450500Y-88192686D01*
X106357314Y-88099500D01*
X106357311Y-88099498D01*
X106357309Y-88099496D01*
X106243189Y-88033609D01*
X106243191Y-88033609D01*
X106193799Y-88020375D01*
X106115892Y-87999500D01*
X105984108Y-87999500D01*
X105906200Y-88020375D01*
X105856809Y-88033609D01*
X105742690Y-88099496D01*
X105649496Y-88192690D01*
X105583609Y-88306809D01*
X105583608Y-88306814D01*
X105549500Y-88434108D01*
X99000000Y-88434108D01*
X99000000Y-82099500D01*
X99018907Y-82041309D01*
X99068407Y-82005345D01*
X99099000Y-82000500D01*
X126902808Y-82000500D01*
X126909111Y-82000781D01*
G37*
%TD.AperFunction*%
%TD*%
%TA.AperFunction,Conductor*%
%TO.N,AGND*%
G36*
X93959191Y-82019407D02*
G01*
X93995155Y-82068907D01*
X94000000Y-82099500D01*
X94000000Y-114461355D01*
X93981093Y-114519546D01*
X93931593Y-114555510D01*
X93920318Y-114558452D01*
X93892261Y-114564033D01*
X93892257Y-114564035D01*
X93809400Y-114619397D01*
X93809397Y-114619400D01*
X93754035Y-114702257D01*
X93754033Y-114702263D01*
X93739501Y-114775315D01*
X93739500Y-114775327D01*
X93739500Y-116224672D01*
X93739501Y-116224684D01*
X93754033Y-116297736D01*
X93754035Y-116297742D01*
X93809397Y-116380599D01*
X93809400Y-116380602D01*
X93900367Y-116441383D01*
X93898734Y-116443826D01*
X93933487Y-116473506D01*
X93947772Y-116533000D01*
X93924359Y-116589529D01*
X93872191Y-116621500D01*
X93867870Y-116622436D01*
X92961370Y-116797700D01*
X92961368Y-116797700D01*
X92952057Y-116799500D01*
X92934108Y-116799500D01*
X92887595Y-116811961D01*
X92884145Y-116812629D01*
X92840301Y-116821107D01*
X92840297Y-116821108D01*
X92832675Y-116824816D01*
X92814998Y-116831415D01*
X92806814Y-116833607D01*
X92806811Y-116833609D01*
X92768130Y-116855939D01*
X92768131Y-116855940D01*
X92765082Y-116857700D01*
X92721794Y-116878760D01*
X92708238Y-116890519D01*
X92700027Y-116895260D01*
X92700028Y-116895260D01*
X92692685Y-116899499D01*
X92661094Y-116931089D01*
X92658611Y-116933571D01*
X92622249Y-116965118D01*
X92612197Y-116979986D01*
X92605495Y-116986689D01*
X92605495Y-116986690D01*
X92599502Y-116992683D01*
X92599496Y-116992690D01*
X92577165Y-117031368D01*
X92575407Y-117034412D01*
X92548446Y-117074299D01*
X92542585Y-117091262D01*
X92537846Y-117099471D01*
X92537845Y-117099474D01*
X92533609Y-117106810D01*
X92533607Y-117106817D01*
X92522051Y-117149940D01*
X92520000Y-117156636D01*
X92505418Y-117198852D01*
X92505415Y-117198865D01*
X92504815Y-117207308D01*
X92504816Y-117207309D01*
X92504145Y-117216770D01*
X92499500Y-117234108D01*
X92499500Y-117282265D01*
X92499252Y-117285762D01*
X92496092Y-117330312D01*
X92496092Y-117330322D01*
X92497699Y-117338629D01*
X92497700Y-117338633D01*
X92499500Y-117347943D01*
X92499500Y-117365892D01*
X92511960Y-117412397D01*
X92512628Y-117415850D01*
X92521106Y-117459695D01*
X92521109Y-117459705D01*
X92524813Y-117467318D01*
X92531413Y-117484998D01*
X92533606Y-117493183D01*
X92533607Y-117493185D01*
X92533608Y-117493186D01*
X92557693Y-117534902D01*
X92578760Y-117578206D01*
X92590522Y-117591764D01*
X92599500Y-117607314D01*
X92633559Y-117641373D01*
X92665118Y-117677751D01*
X92679990Y-117687804D01*
X92686692Y-117694506D01*
X92686693Y-117694508D01*
X92692684Y-117700498D01*
X92692686Y-117700500D01*
X92718926Y-117715649D01*
X92731364Y-117722831D01*
X92731365Y-117722831D01*
X92734401Y-117724584D01*
X92774299Y-117751554D01*
X92791266Y-117757415D01*
X92806814Y-117766392D01*
X92849960Y-117777953D01*
X92856634Y-117779997D01*
X92898859Y-117794584D01*
X92916770Y-117795854D01*
X92934108Y-117800500D01*
X92982266Y-117800500D01*
X92998854Y-117801676D01*
X92999861Y-117801748D01*
X93019089Y-117809539D01*
X93033459Y-117803300D01*
X93038631Y-117802300D01*
X93057424Y-117800500D01*
X93065891Y-117800500D01*
X93065892Y-117800500D01*
X93109030Y-117788941D01*
X93115855Y-117787369D01*
X93882207Y-117639202D01*
X93942929Y-117646719D01*
X93987635Y-117688493D01*
X94000000Y-117736402D01*
X94000000Y-117900500D01*
X93981093Y-117958691D01*
X93931593Y-117994655D01*
X93901000Y-117999500D01*
X93052252Y-117999500D01*
X93031734Y-117992833D01*
X93020855Y-117991486D01*
X92992857Y-117999500D01*
X73097192Y-117999500D01*
X73090887Y-117999218D01*
X72999236Y-117999498D01*
X72994645Y-117999405D01*
X72632443Y-117983700D01*
X72623301Y-117982878D01*
X72266370Y-117934001D01*
X72257342Y-117932335D01*
X71906474Y-117850608D01*
X71897640Y-117848113D01*
X71555859Y-117734241D01*
X71547294Y-117730939D01*
X71217519Y-117585893D01*
X71209296Y-117581811D01*
X70894384Y-117406850D01*
X70886575Y-117402025D01*
X70794770Y-117339234D01*
X70589204Y-117198634D01*
X70581900Y-117193126D01*
X70304640Y-116963060D01*
X70297865Y-116956886D01*
X70043113Y-116702134D01*
X70036940Y-116695360D01*
X69806871Y-116418095D01*
X69801367Y-116410799D01*
X69597969Y-116113416D01*
X69593154Y-116105623D01*
X69418188Y-115790703D01*
X69414106Y-115782480D01*
X69276529Y-115469686D01*
X69269055Y-115452693D01*
X69265763Y-115444153D01*
X69151884Y-115102353D01*
X69149391Y-115093525D01*
X69128868Y-115005416D01*
X69067661Y-114742644D01*
X69066000Y-114733642D01*
X69017119Y-114376681D01*
X69016300Y-114367573D01*
X69000593Y-114005309D01*
X69000501Y-114001066D01*
X69000778Y-113910340D01*
X69000500Y-113908827D01*
X69000500Y-111475327D01*
X70249500Y-111475327D01*
X70249500Y-116524672D01*
X70249501Y-116524684D01*
X70264033Y-116597736D01*
X70264035Y-116597742D01*
X70319397Y-116680599D01*
X70319399Y-116680601D01*
X70402260Y-116735966D01*
X70457808Y-116747015D01*
X70475315Y-116750498D01*
X70475320Y-116750498D01*
X70475326Y-116750500D01*
X70475327Y-116750500D01*
X75524673Y-116750500D01*
X75524674Y-116750500D01*
X75597740Y-116735966D01*
X75680601Y-116680601D01*
X75735966Y-116597740D01*
X75750500Y-116524674D01*
X75750500Y-113149924D01*
X75769407Y-113091733D01*
X75805665Y-113061158D01*
X76923121Y-112509328D01*
X76979882Y-112499943D01*
X76984106Y-112500499D01*
X76984108Y-112500500D01*
X76984110Y-112500500D01*
X77115890Y-112500500D01*
X77115892Y-112500500D01*
X77243186Y-112466392D01*
X77243188Y-112466390D01*
X77243190Y-112466390D01*
X77357309Y-112400503D01*
X77357309Y-112400502D01*
X77357314Y-112400500D01*
X77450500Y-112307314D01*
X77450501Y-112307311D01*
X77454996Y-112302817D01*
X77509513Y-112275040D01*
X77569945Y-112284611D01*
X77595004Y-112302817D01*
X77599498Y-112307311D01*
X77599500Y-112307314D01*
X77692686Y-112400500D01*
X77692688Y-112400501D01*
X77692690Y-112400503D01*
X77806810Y-112466390D01*
X77806808Y-112466390D01*
X77806812Y-112466391D01*
X77806814Y-112466392D01*
X77934108Y-112500500D01*
X77934110Y-112500500D01*
X78065891Y-112500500D01*
X78065892Y-112500500D01*
X78098143Y-112491858D01*
X78159242Y-112495059D01*
X78160463Y-112495537D01*
X80187268Y-113306258D01*
X80234274Y-113345424D01*
X80249500Y-113398177D01*
X80249500Y-116524672D01*
X80249501Y-116524684D01*
X80264033Y-116597736D01*
X80264035Y-116597742D01*
X80319397Y-116680599D01*
X80319399Y-116680601D01*
X80402260Y-116735966D01*
X80457808Y-116747015D01*
X80475315Y-116750498D01*
X80475320Y-116750498D01*
X80475326Y-116750500D01*
X80475327Y-116750500D01*
X85524673Y-116750500D01*
X85524674Y-116750500D01*
X85597740Y-116735966D01*
X85680601Y-116680601D01*
X85735966Y-116597740D01*
X85750500Y-116524674D01*
X85750500Y-111475326D01*
X85735966Y-111402260D01*
X85680601Y-111319399D01*
X85680599Y-111319397D01*
X85597742Y-111264035D01*
X85597740Y-111264034D01*
X85597737Y-111264033D01*
X85597736Y-111264033D01*
X85524684Y-111249501D01*
X85524674Y-111249500D01*
X80475326Y-111249500D01*
X80475325Y-111249500D01*
X80475315Y-111249501D01*
X80402263Y-111264033D01*
X80402257Y-111264035D01*
X80319400Y-111319397D01*
X80319397Y-111319400D01*
X80264035Y-111402257D01*
X80264033Y-111402263D01*
X80249501Y-111475315D01*
X80249500Y-111475327D01*
X80249500Y-112322221D01*
X80230593Y-112380412D01*
X80181093Y-112416376D01*
X80119907Y-112416376D01*
X80113732Y-112414140D01*
X79441359Y-112145191D01*
X79394353Y-112106025D01*
X79379345Y-112046708D01*
X79402068Y-111989899D01*
X79408124Y-111983268D01*
X79552453Y-111838939D01*
X79820480Y-111570913D01*
X79873207Y-111479588D01*
X79900500Y-111377727D01*
X79900500Y-111272273D01*
X79900500Y-103584108D01*
X85999500Y-103584108D01*
X85999500Y-103715892D01*
X86029579Y-103828151D01*
X86033609Y-103843190D01*
X86099496Y-103957309D01*
X86099498Y-103957311D01*
X86099500Y-103957314D01*
X86192686Y-104050500D01*
X86192688Y-104050501D01*
X86192690Y-104050503D01*
X86306810Y-104116390D01*
X86306808Y-104116390D01*
X86306812Y-104116391D01*
X86306814Y-104116392D01*
X86434108Y-104150500D01*
X86434110Y-104150500D01*
X86565890Y-104150500D01*
X86565892Y-104150500D01*
X86693186Y-104116392D01*
X86693188Y-104116390D01*
X86693190Y-104116390D01*
X86807309Y-104050503D01*
X86807309Y-104050502D01*
X86807314Y-104050500D01*
X86900500Y-103957314D01*
X86966392Y-103843186D01*
X87000500Y-103715892D01*
X87000500Y-103584108D01*
X86966392Y-103456814D01*
X86966390Y-103456811D01*
X86966390Y-103456809D01*
X86900503Y-103342690D01*
X86900501Y-103342688D01*
X86900500Y-103342686D01*
X86807314Y-103249500D01*
X86807311Y-103249498D01*
X86807309Y-103249496D01*
X86693189Y-103183609D01*
X86693191Y-103183609D01*
X86643799Y-103170375D01*
X86565892Y-103149500D01*
X86434108Y-103149500D01*
X86356200Y-103170375D01*
X86306809Y-103183609D01*
X86192690Y-103249496D01*
X86099496Y-103342690D01*
X86033609Y-103456809D01*
X86033608Y-103456814D01*
X85999500Y-103584108D01*
X79900500Y-103584108D01*
X79900500Y-100934108D01*
X89649500Y-100934108D01*
X89649500Y-101065892D01*
X89657993Y-101097589D01*
X89683609Y-101193190D01*
X89749496Y-101307309D01*
X89749498Y-101307311D01*
X89749500Y-101307314D01*
X89842686Y-101400500D01*
X89842688Y-101400501D01*
X89842690Y-101400503D01*
X89956810Y-101466390D01*
X89956808Y-101466390D01*
X89956812Y-101466391D01*
X89956814Y-101466392D01*
X90084108Y-101500500D01*
X90084110Y-101500500D01*
X90215890Y-101500500D01*
X90215892Y-101500500D01*
X90343186Y-101466392D01*
X90343188Y-101466390D01*
X90343190Y-101466390D01*
X90457309Y-101400503D01*
X90457309Y-101400502D01*
X90457314Y-101400500D01*
X90550500Y-101307314D01*
X90616392Y-101193186D01*
X90633246Y-101130281D01*
X90666568Y-101078966D01*
X90668891Y-101077143D01*
X92235625Y-99885698D01*
X92293388Y-99865524D01*
X92295551Y-99865500D01*
X92365890Y-99865500D01*
X92365892Y-99865500D01*
X92493186Y-99831392D01*
X92493188Y-99831390D01*
X92493190Y-99831390D01*
X92607309Y-99765503D01*
X92607309Y-99765502D01*
X92607314Y-99765500D01*
X92700500Y-99672314D01*
X92700503Y-99672309D01*
X92766390Y-99558190D01*
X92766390Y-99558188D01*
X92766392Y-99558186D01*
X92800500Y-99430892D01*
X92800500Y-99299108D01*
X92766392Y-99171814D01*
X92766390Y-99171810D01*
X92766390Y-99171809D01*
X92700503Y-99057690D01*
X92700501Y-99057688D01*
X92700500Y-99057686D01*
X92607314Y-98964500D01*
X92607311Y-98964498D01*
X92607309Y-98964496D01*
X92493189Y-98898609D01*
X92493191Y-98898609D01*
X92443799Y-98885375D01*
X92365892Y-98864500D01*
X92234108Y-98864500D01*
X92156200Y-98885375D01*
X92106809Y-98898609D01*
X91992690Y-98964496D01*
X91899496Y-99057690D01*
X91833609Y-99171810D01*
X91833607Y-99171814D01*
X91816752Y-99234718D01*
X91783428Y-99286032D01*
X91781053Y-99287896D01*
X90214375Y-100479302D01*
X90156611Y-100499476D01*
X90154448Y-100499500D01*
X90084108Y-100499500D01*
X90006200Y-100520375D01*
X89956809Y-100533609D01*
X89842690Y-100599496D01*
X89749496Y-100692690D01*
X89683609Y-100806809D01*
X89683608Y-100806814D01*
X89649500Y-100934108D01*
X79900500Y-100934108D01*
X79900500Y-100333840D01*
X79913763Y-100284341D01*
X79966392Y-100193186D01*
X80000500Y-100065892D01*
X80000500Y-99934108D01*
X79966392Y-99806814D01*
X79966390Y-99806811D01*
X79966390Y-99806809D01*
X79900503Y-99692690D01*
X79900501Y-99692688D01*
X79900500Y-99692686D01*
X79807314Y-99599500D01*
X79807311Y-99599498D01*
X79807309Y-99599496D01*
X79693189Y-99533609D01*
X79693191Y-99533609D01*
X79643799Y-99520375D01*
X79565892Y-99499500D01*
X79434108Y-99499500D01*
X79356200Y-99520375D01*
X79306809Y-99533609D01*
X79192690Y-99599496D01*
X79099496Y-99692690D01*
X79033609Y-99806809D01*
X79033608Y-99806814D01*
X78999500Y-99934108D01*
X78999500Y-100065892D01*
X79033608Y-100193186D01*
X79086236Y-100284341D01*
X79099500Y-100333840D01*
X79099500Y-111118099D01*
X79080593Y-111176290D01*
X79070504Y-111188103D01*
X78688103Y-111570504D01*
X78633586Y-111598281D01*
X78618099Y-111599500D01*
X78333840Y-111599500D01*
X78284341Y-111586236D01*
X78193186Y-111533608D01*
X78065892Y-111499500D01*
X77934108Y-111499500D01*
X77856200Y-111520375D01*
X77806809Y-111533609D01*
X77692690Y-111599496D01*
X77692689Y-111599497D01*
X77692686Y-111599499D01*
X77692686Y-111599500D01*
X77599500Y-111692686D01*
X77599498Y-111692688D01*
X77595004Y-111697183D01*
X77540487Y-111724960D01*
X77480055Y-111715389D01*
X77454996Y-111697183D01*
X77450501Y-111692688D01*
X77450500Y-111692686D01*
X77357314Y-111599500D01*
X77357311Y-111599498D01*
X77357309Y-111599496D01*
X77243189Y-111533609D01*
X77243191Y-111533609D01*
X77193799Y-111520375D01*
X77115892Y-111499500D01*
X76984108Y-111499500D01*
X76856814Y-111533608D01*
X76856813Y-111533608D01*
X76856811Y-111533609D01*
X76808750Y-111561357D01*
X76765658Y-111586236D01*
X76716160Y-111599500D01*
X76679401Y-111599500D01*
X76621210Y-111580593D01*
X76609397Y-111570504D01*
X76429496Y-111390603D01*
X76401719Y-111336086D01*
X76400500Y-111320599D01*
X76400500Y-107634108D01*
X77499500Y-107634108D01*
X77499500Y-107765892D01*
X77529579Y-107878151D01*
X77533609Y-107893190D01*
X77599496Y-108007309D01*
X77599498Y-108007311D01*
X77599500Y-108007314D01*
X77692686Y-108100500D01*
X77692688Y-108100501D01*
X77692690Y-108100503D01*
X77806810Y-108166390D01*
X77806808Y-108166390D01*
X77806812Y-108166391D01*
X77806814Y-108166392D01*
X77934108Y-108200500D01*
X77934110Y-108200500D01*
X78065890Y-108200500D01*
X78065892Y-108200500D01*
X78193186Y-108166392D01*
X78193188Y-108166390D01*
X78193190Y-108166390D01*
X78307309Y-108100503D01*
X78307309Y-108100502D01*
X78307314Y-108100500D01*
X78400500Y-108007314D01*
X78466392Y-107893186D01*
X78500500Y-107765892D01*
X78500500Y-107634108D01*
X78466392Y-107506814D01*
X78466390Y-107506811D01*
X78466390Y-107506809D01*
X78400503Y-107392690D01*
X78400501Y-107392688D01*
X78400500Y-107392686D01*
X78307314Y-107299500D01*
X78307311Y-107299498D01*
X78307309Y-107299496D01*
X78193189Y-107233609D01*
X78193191Y-107233609D01*
X78143799Y-107220375D01*
X78065892Y-107199500D01*
X77934108Y-107199500D01*
X77856200Y-107220375D01*
X77806809Y-107233609D01*
X77692690Y-107299496D01*
X77599496Y-107392690D01*
X77533609Y-107506809D01*
X77533608Y-107506814D01*
X77499500Y-107634108D01*
X76400500Y-107634108D01*
X76400500Y-99833840D01*
X76413763Y-99784341D01*
X76466392Y-99693186D01*
X76500500Y-99565892D01*
X76500500Y-99434108D01*
X76466392Y-99306814D01*
X76466390Y-99306811D01*
X76466390Y-99306809D01*
X76400503Y-99192690D01*
X76400501Y-99192688D01*
X76400500Y-99192686D01*
X76307314Y-99099500D01*
X76307311Y-99099498D01*
X76307309Y-99099496D01*
X76193189Y-99033609D01*
X76193191Y-99033609D01*
X76143799Y-99020375D01*
X76065892Y-98999500D01*
X75934108Y-98999500D01*
X75856200Y-99020375D01*
X75806809Y-99033609D01*
X75692690Y-99099496D01*
X75599496Y-99192690D01*
X75533609Y-99306809D01*
X75533608Y-99306814D01*
X75499500Y-99434108D01*
X75499500Y-99565892D01*
X75533608Y-99693186D01*
X75586236Y-99784341D01*
X75599500Y-99833840D01*
X75599500Y-111150500D01*
X75580593Y-111208691D01*
X75531093Y-111244655D01*
X75500500Y-111249500D01*
X70475326Y-111249500D01*
X70475325Y-111249500D01*
X70475315Y-111249501D01*
X70402263Y-111264033D01*
X70402257Y-111264035D01*
X70319400Y-111319397D01*
X70319397Y-111319400D01*
X70264035Y-111402257D01*
X70264033Y-111402263D01*
X70249501Y-111475315D01*
X70249500Y-111475327D01*
X69000500Y-111475327D01*
X69000500Y-97475327D01*
X69249500Y-97475327D01*
X69249500Y-102524672D01*
X69249501Y-102524684D01*
X69264033Y-102597736D01*
X69264035Y-102597742D01*
X69319397Y-102680599D01*
X69319399Y-102680601D01*
X69402260Y-102735966D01*
X69457808Y-102747015D01*
X69475315Y-102750498D01*
X69475320Y-102750498D01*
X69475326Y-102750500D01*
X69475327Y-102750500D01*
X74524673Y-102750500D01*
X74524674Y-102750500D01*
X74597740Y-102735966D01*
X74680601Y-102680601D01*
X74735966Y-102597740D01*
X74750500Y-102524674D01*
X74750500Y-97634108D01*
X77499500Y-97634108D01*
X77499500Y-97765892D01*
X77510598Y-97807309D01*
X77533609Y-97893190D01*
X77599496Y-98007309D01*
X77599498Y-98007311D01*
X77599500Y-98007314D01*
X77692686Y-98100500D01*
X77692688Y-98100501D01*
X77692690Y-98100503D01*
X77806810Y-98166390D01*
X77806808Y-98166390D01*
X77806812Y-98166391D01*
X77806814Y-98166392D01*
X77934108Y-98200500D01*
X77934110Y-98200500D01*
X78065890Y-98200500D01*
X78065892Y-98200500D01*
X78193186Y-98166392D01*
X78193188Y-98166390D01*
X78193190Y-98166390D01*
X78307309Y-98100503D01*
X78307309Y-98100502D01*
X78307314Y-98100500D01*
X78400500Y-98007314D01*
X78404434Y-98000500D01*
X78466390Y-97893190D01*
X78466390Y-97893188D01*
X78466392Y-97893186D01*
X78500500Y-97765892D01*
X78500500Y-97634108D01*
X78466392Y-97506814D01*
X78466390Y-97506811D01*
X78466390Y-97506809D01*
X78400503Y-97392690D01*
X78400501Y-97392688D01*
X78400500Y-97392686D01*
X78307314Y-97299500D01*
X78307311Y-97299498D01*
X78307309Y-97299496D01*
X78193189Y-97233609D01*
X78193191Y-97233609D01*
X78143799Y-97220375D01*
X78065892Y-97199500D01*
X77934108Y-97199500D01*
X77856200Y-97220375D01*
X77806809Y-97233609D01*
X77692690Y-97299496D01*
X77599496Y-97392690D01*
X77533609Y-97506809D01*
X77533608Y-97506814D01*
X77499500Y-97634108D01*
X74750500Y-97634108D01*
X74750500Y-97475326D01*
X74735966Y-97402260D01*
X74680601Y-97319399D01*
X74680599Y-97319397D01*
X74597742Y-97264035D01*
X74597740Y-97264034D01*
X74597737Y-97264033D01*
X74597736Y-97264033D01*
X74524684Y-97249501D01*
X74524674Y-97249500D01*
X69475326Y-97249500D01*
X69475325Y-97249500D01*
X69475315Y-97249501D01*
X69402263Y-97264033D01*
X69402257Y-97264035D01*
X69319400Y-97319397D01*
X69319397Y-97319400D01*
X69264035Y-97402257D01*
X69264033Y-97402263D01*
X69249501Y-97475315D01*
X69249500Y-97475327D01*
X69000500Y-97475327D01*
X69000500Y-92234108D01*
X77499500Y-92234108D01*
X77499500Y-92365892D01*
X77529579Y-92478151D01*
X77533609Y-92493190D01*
X77599496Y-92607309D01*
X77599498Y-92607311D01*
X77599500Y-92607314D01*
X77692686Y-92700500D01*
X77692688Y-92700501D01*
X77692690Y-92700503D01*
X77806810Y-92766390D01*
X77806808Y-92766390D01*
X77806812Y-92766391D01*
X77806814Y-92766392D01*
X77934108Y-92800500D01*
X77934110Y-92800500D01*
X78065890Y-92800500D01*
X78065892Y-92800500D01*
X78193186Y-92766392D01*
X78193188Y-92766390D01*
X78193190Y-92766390D01*
X78307309Y-92700503D01*
X78307309Y-92700502D01*
X78307314Y-92700500D01*
X78400500Y-92607314D01*
X78466392Y-92493186D01*
X78500500Y-92365892D01*
X78500500Y-92234108D01*
X78466392Y-92106814D01*
X78466390Y-92106811D01*
X78466390Y-92106809D01*
X78400503Y-91992690D01*
X78400501Y-91992688D01*
X78400500Y-91992686D01*
X78307314Y-91899500D01*
X78307311Y-91899498D01*
X78307309Y-91899496D01*
X78193189Y-91833609D01*
X78193191Y-91833609D01*
X78143799Y-91820375D01*
X78065892Y-91799500D01*
X77934108Y-91799500D01*
X77856200Y-91820375D01*
X77806809Y-91833609D01*
X77692690Y-91899496D01*
X77599496Y-91992690D01*
X77533609Y-92106809D01*
X77533608Y-92106814D01*
X77499500Y-92234108D01*
X69000500Y-92234108D01*
X69000500Y-86091172D01*
X69000778Y-86089660D01*
X69000501Y-85998931D01*
X69000507Y-85998911D01*
X69000593Y-85994687D01*
X69016300Y-85632424D01*
X69017119Y-85623320D01*
X69066001Y-85266353D01*
X69067660Y-85257358D01*
X69149394Y-84906462D01*
X69151882Y-84897652D01*
X69265765Y-84555839D01*
X69269052Y-84547313D01*
X69414109Y-84217512D01*
X69418188Y-84209296D01*
X69593159Y-83894366D01*
X69597962Y-83886593D01*
X69801374Y-83589190D01*
X69806862Y-83581914D01*
X69895306Y-83475327D01*
X70249500Y-83475327D01*
X70249500Y-88524672D01*
X70249501Y-88524684D01*
X70264033Y-88597736D01*
X70264035Y-88597742D01*
X70319397Y-88680599D01*
X70319399Y-88680601D01*
X70402260Y-88735966D01*
X70457808Y-88747015D01*
X70475315Y-88750498D01*
X70475320Y-88750498D01*
X70475326Y-88750500D01*
X70475327Y-88750500D01*
X75524673Y-88750500D01*
X75524674Y-88750500D01*
X75597740Y-88735966D01*
X75680601Y-88680601D01*
X75735966Y-88597740D01*
X75750500Y-88524674D01*
X75750500Y-87934108D01*
X77499500Y-87934108D01*
X77499500Y-88065892D01*
X77529579Y-88178151D01*
X77533609Y-88193190D01*
X77599496Y-88307309D01*
X77599498Y-88307311D01*
X77599500Y-88307314D01*
X77692686Y-88400500D01*
X77692688Y-88400501D01*
X77692690Y-88400503D01*
X77806810Y-88466390D01*
X77806808Y-88466390D01*
X77806812Y-88466391D01*
X77806814Y-88466392D01*
X77934108Y-88500500D01*
X77934110Y-88500500D01*
X78065890Y-88500500D01*
X78065892Y-88500500D01*
X78193186Y-88466392D01*
X78284341Y-88413763D01*
X78333840Y-88400500D01*
X79443099Y-88400500D01*
X79501290Y-88419407D01*
X79513103Y-88429496D01*
X80570504Y-89486897D01*
X80598281Y-89541414D01*
X80599500Y-89556901D01*
X80599500Y-98666159D01*
X80586236Y-98715659D01*
X80533609Y-98806809D01*
X80533608Y-98806814D01*
X80499500Y-98934108D01*
X80499500Y-99065892D01*
X80527880Y-99171809D01*
X80533609Y-99193190D01*
X80599496Y-99307309D01*
X80599498Y-99307311D01*
X80599500Y-99307314D01*
X80692686Y-99400500D01*
X80692688Y-99400501D01*
X80692690Y-99400503D01*
X80806810Y-99466390D01*
X80806808Y-99466390D01*
X80806812Y-99466391D01*
X80806814Y-99466392D01*
X80934108Y-99500500D01*
X80934110Y-99500500D01*
X81065890Y-99500500D01*
X81065892Y-99500500D01*
X81193186Y-99466392D01*
X81193188Y-99466390D01*
X81193190Y-99466390D01*
X81307309Y-99400503D01*
X81307309Y-99400502D01*
X81307314Y-99400500D01*
X81400500Y-99307314D01*
X81423539Y-99267410D01*
X81466390Y-99193190D01*
X81466390Y-99193188D01*
X81466392Y-99193186D01*
X81500500Y-99065892D01*
X81500500Y-98934108D01*
X81466392Y-98806814D01*
X81466390Y-98806811D01*
X81466390Y-98806809D01*
X81413764Y-98715659D01*
X81400500Y-98666159D01*
X81400500Y-97434108D01*
X89649500Y-97434108D01*
X89649500Y-97565892D01*
X89667778Y-97634108D01*
X89683609Y-97693190D01*
X89749496Y-97807309D01*
X89749498Y-97807311D01*
X89749500Y-97807314D01*
X89842686Y-97900500D01*
X89842688Y-97900501D01*
X89842690Y-97900503D01*
X89956810Y-97966390D01*
X89956808Y-97966390D01*
X89956812Y-97966391D01*
X89956814Y-97966392D01*
X90084108Y-98000500D01*
X90084110Y-98000500D01*
X90215890Y-98000500D01*
X90215892Y-98000500D01*
X90343186Y-97966392D01*
X90343188Y-97966390D01*
X90343190Y-97966390D01*
X90457309Y-97900503D01*
X90457309Y-97900502D01*
X90457314Y-97900500D01*
X90457317Y-97900496D01*
X90462460Y-97896551D01*
X90464273Y-97898913D01*
X90507834Y-97876719D01*
X90523321Y-97875500D01*
X91926679Y-97875500D01*
X91984870Y-97894407D01*
X91987476Y-97896633D01*
X91987540Y-97896551D01*
X91992690Y-97900503D01*
X92106810Y-97966390D01*
X92106808Y-97966390D01*
X92106812Y-97966391D01*
X92106814Y-97966392D01*
X92234108Y-98000500D01*
X92234110Y-98000500D01*
X92365890Y-98000500D01*
X92365892Y-98000500D01*
X92493186Y-97966392D01*
X92493188Y-97966390D01*
X92493190Y-97966390D01*
X92607309Y-97900503D01*
X92607309Y-97900502D01*
X92607314Y-97900500D01*
X92700500Y-97807314D01*
X92766392Y-97693186D01*
X92800500Y-97565892D01*
X92800500Y-97434108D01*
X92766392Y-97306814D01*
X92766390Y-97306811D01*
X92766390Y-97306809D01*
X92700503Y-97192690D01*
X92700501Y-97192688D01*
X92700500Y-97192686D01*
X92607314Y-97099500D01*
X92607311Y-97099498D01*
X92607309Y-97099496D01*
X92493189Y-97033609D01*
X92493191Y-97033609D01*
X92443799Y-97020375D01*
X92365892Y-96999500D01*
X92234108Y-96999500D01*
X92156200Y-97020375D01*
X92106809Y-97033609D01*
X91992690Y-97099496D01*
X91987540Y-97103449D01*
X91985726Y-97101086D01*
X91942166Y-97123281D01*
X91926679Y-97124500D01*
X90523321Y-97124500D01*
X90465130Y-97105593D01*
X90462523Y-97103366D01*
X90462460Y-97103449D01*
X90457309Y-97099496D01*
X90343189Y-97033609D01*
X90343191Y-97033609D01*
X90293799Y-97020375D01*
X90215892Y-96999500D01*
X90084108Y-96999500D01*
X90006200Y-97020375D01*
X89956809Y-97033609D01*
X89842690Y-97099496D01*
X89749496Y-97192690D01*
X89683609Y-97306809D01*
X89664539Y-97377978D01*
X89649500Y-97434108D01*
X81400500Y-97434108D01*
X81400500Y-95489108D01*
X91799500Y-95489108D01*
X91799500Y-95620892D01*
X91829579Y-95733151D01*
X91833609Y-95748190D01*
X91899496Y-95862309D01*
X91899498Y-95862311D01*
X91899500Y-95862314D01*
X91992686Y-95955500D01*
X91992688Y-95955501D01*
X91992690Y-95955503D01*
X92106810Y-96021390D01*
X92106808Y-96021390D01*
X92106812Y-96021391D01*
X92106814Y-96021392D01*
X92234108Y-96055500D01*
X92234110Y-96055500D01*
X92365890Y-96055500D01*
X92365892Y-96055500D01*
X92493186Y-96021392D01*
X92493188Y-96021390D01*
X92493190Y-96021390D01*
X92607309Y-95955503D01*
X92607309Y-95955502D01*
X92607314Y-95955500D01*
X92700500Y-95862314D01*
X92766392Y-95748186D01*
X92800500Y-95620892D01*
X92800500Y-95489108D01*
X92766392Y-95361814D01*
X92766390Y-95361811D01*
X92766390Y-95361809D01*
X92700503Y-95247690D01*
X92700501Y-95247688D01*
X92700500Y-95247686D01*
X92607314Y-95154500D01*
X92607311Y-95154498D01*
X92607309Y-95154496D01*
X92493189Y-95088609D01*
X92493191Y-95088609D01*
X92443799Y-95075375D01*
X92365892Y-95054500D01*
X92234108Y-95054500D01*
X92156200Y-95075375D01*
X92106809Y-95088609D01*
X91992690Y-95154496D01*
X91899496Y-95247690D01*
X91833609Y-95361809D01*
X91833608Y-95361814D01*
X91799500Y-95489108D01*
X81400500Y-95489108D01*
X81400500Y-95099500D01*
X81419407Y-95041309D01*
X81468907Y-95005345D01*
X81499500Y-95000500D01*
X81615890Y-95000500D01*
X81615892Y-95000500D01*
X81743186Y-94966392D01*
X81743188Y-94966390D01*
X81743190Y-94966390D01*
X81857309Y-94900503D01*
X81857309Y-94900502D01*
X81857314Y-94900500D01*
X81950500Y-94807314D01*
X82016392Y-94693186D01*
X82050500Y-94565892D01*
X82050500Y-94434108D01*
X83549500Y-94434108D01*
X83549500Y-94565892D01*
X83579579Y-94678151D01*
X83583609Y-94693190D01*
X83649496Y-94807309D01*
X83649498Y-94807311D01*
X83649500Y-94807314D01*
X83742686Y-94900500D01*
X83742688Y-94900501D01*
X83742690Y-94900503D01*
X83856810Y-94966390D01*
X83856808Y-94966390D01*
X83856812Y-94966391D01*
X83856814Y-94966392D01*
X83984108Y-95000500D01*
X83984110Y-95000500D01*
X84115890Y-95000500D01*
X84115892Y-95000500D01*
X84243186Y-94966392D01*
X84243188Y-94966390D01*
X84243190Y-94966390D01*
X84357309Y-94900503D01*
X84357309Y-94900502D01*
X84357314Y-94900500D01*
X84450500Y-94807314D01*
X84516392Y-94693186D01*
X84550500Y-94565892D01*
X84550500Y-94434108D01*
X86049500Y-94434108D01*
X86049500Y-94565892D01*
X86079579Y-94678151D01*
X86083609Y-94693190D01*
X86149496Y-94807309D01*
X86149498Y-94807311D01*
X86149500Y-94807314D01*
X86242686Y-94900500D01*
X86242688Y-94900501D01*
X86242690Y-94900503D01*
X86356810Y-94966390D01*
X86356808Y-94966390D01*
X86356812Y-94966391D01*
X86356814Y-94966392D01*
X86484108Y-95000500D01*
X86484110Y-95000500D01*
X86615890Y-95000500D01*
X86615892Y-95000500D01*
X86743186Y-94966392D01*
X86743188Y-94966390D01*
X86743190Y-94966390D01*
X86857309Y-94900503D01*
X86857309Y-94900502D01*
X86857314Y-94900500D01*
X86950500Y-94807314D01*
X87016392Y-94693186D01*
X87050500Y-94565892D01*
X87050500Y-94434108D01*
X87016392Y-94306814D01*
X87016390Y-94306811D01*
X87016390Y-94306809D01*
X86950503Y-94192690D01*
X86950501Y-94192688D01*
X86950500Y-94192686D01*
X86857314Y-94099500D01*
X86857311Y-94099498D01*
X86857309Y-94099496D01*
X86743189Y-94033609D01*
X86743191Y-94033609D01*
X86693799Y-94020375D01*
X86615892Y-93999500D01*
X86484108Y-93999500D01*
X86406200Y-94020375D01*
X86356809Y-94033609D01*
X86242690Y-94099496D01*
X86149496Y-94192690D01*
X86083609Y-94306809D01*
X86083608Y-94306814D01*
X86049500Y-94434108D01*
X84550500Y-94434108D01*
X84516392Y-94306814D01*
X84516390Y-94306811D01*
X84516390Y-94306809D01*
X84450503Y-94192690D01*
X84450501Y-94192688D01*
X84450500Y-94192686D01*
X84357314Y-94099500D01*
X84357311Y-94099498D01*
X84357309Y-94099496D01*
X84243189Y-94033609D01*
X84243191Y-94033609D01*
X84193799Y-94020375D01*
X84115892Y-93999500D01*
X83984108Y-93999500D01*
X83906200Y-94020375D01*
X83856809Y-94033609D01*
X83742690Y-94099496D01*
X83649496Y-94192690D01*
X83583609Y-94306809D01*
X83583608Y-94306814D01*
X83549500Y-94434108D01*
X82050500Y-94434108D01*
X82016392Y-94306814D01*
X82016390Y-94306811D01*
X82016390Y-94306809D01*
X81950503Y-94192690D01*
X81950501Y-94192688D01*
X81950500Y-94192686D01*
X81857314Y-94099500D01*
X81857311Y-94099498D01*
X81857309Y-94099496D01*
X81743189Y-94033609D01*
X81743191Y-94033609D01*
X81693799Y-94020375D01*
X81615892Y-93999500D01*
X81499500Y-93999500D01*
X81441309Y-93980593D01*
X81405345Y-93931093D01*
X81400500Y-93900500D01*
X81400500Y-89297274D01*
X81400500Y-89297273D01*
X81373207Y-89195413D01*
X81320480Y-89104087D01*
X81245913Y-89029519D01*
X81245913Y-89029520D01*
X81135897Y-88919504D01*
X81108120Y-88864987D01*
X81117691Y-88804555D01*
X81160956Y-88761290D01*
X81205901Y-88750500D01*
X85524673Y-88750500D01*
X85524674Y-88750500D01*
X85597740Y-88735966D01*
X85680601Y-88680601D01*
X85735966Y-88597740D01*
X85750500Y-88524674D01*
X85750500Y-87034108D01*
X87849500Y-87034108D01*
X87849500Y-87165892D01*
X87879579Y-87278151D01*
X87883609Y-87293190D01*
X87949496Y-87407309D01*
X87949498Y-87407311D01*
X87949500Y-87407314D01*
X88042686Y-87500500D01*
X88042688Y-87500501D01*
X88042690Y-87500503D01*
X88156810Y-87566390D01*
X88156808Y-87566390D01*
X88156812Y-87566391D01*
X88156814Y-87566392D01*
X88284108Y-87600500D01*
X88284110Y-87600500D01*
X88415890Y-87600500D01*
X88415892Y-87600500D01*
X88543186Y-87566392D01*
X88543188Y-87566390D01*
X88543190Y-87566390D01*
X88657309Y-87500503D01*
X88657309Y-87500502D01*
X88657314Y-87500500D01*
X88750500Y-87407314D01*
X88816392Y-87293186D01*
X88850500Y-87165892D01*
X88850500Y-87034108D01*
X88816392Y-86906814D01*
X88816390Y-86906811D01*
X88816390Y-86906809D01*
X88750503Y-86792690D01*
X88750501Y-86792688D01*
X88750500Y-86792686D01*
X88657314Y-86699500D01*
X88657311Y-86699498D01*
X88657309Y-86699496D01*
X88543189Y-86633609D01*
X88543191Y-86633609D01*
X88493799Y-86620375D01*
X88415892Y-86599500D01*
X88284108Y-86599500D01*
X88206200Y-86620375D01*
X88156809Y-86633609D01*
X88042690Y-86699496D01*
X87949496Y-86792690D01*
X87883609Y-86906809D01*
X87883608Y-86906814D01*
X87849500Y-87034108D01*
X85750500Y-87034108D01*
X85750500Y-84834108D01*
X87849500Y-84834108D01*
X87849500Y-84965892D01*
X87879579Y-85078151D01*
X87883609Y-85093190D01*
X87949496Y-85207309D01*
X87949498Y-85207311D01*
X87949500Y-85207314D01*
X88042686Y-85300500D01*
X88042688Y-85300501D01*
X88042690Y-85300503D01*
X88156810Y-85366390D01*
X88156808Y-85366390D01*
X88156812Y-85366391D01*
X88156814Y-85366392D01*
X88284108Y-85400500D01*
X88284110Y-85400500D01*
X88415890Y-85400500D01*
X88415892Y-85400500D01*
X88543186Y-85366392D01*
X88543188Y-85366390D01*
X88543190Y-85366390D01*
X88657309Y-85300503D01*
X88657309Y-85300502D01*
X88657314Y-85300500D01*
X88750500Y-85207314D01*
X88816392Y-85093186D01*
X88850500Y-84965892D01*
X88850500Y-84834108D01*
X88816392Y-84706814D01*
X88816390Y-84706811D01*
X88816390Y-84706809D01*
X88750503Y-84592690D01*
X88750501Y-84592688D01*
X88750500Y-84592686D01*
X88657314Y-84499500D01*
X88657311Y-84499498D01*
X88657309Y-84499496D01*
X88543189Y-84433609D01*
X88543191Y-84433609D01*
X88493799Y-84420375D01*
X88415892Y-84399500D01*
X88284108Y-84399500D01*
X88206200Y-84420375D01*
X88156809Y-84433609D01*
X88042690Y-84499496D01*
X87949496Y-84592690D01*
X87883609Y-84706809D01*
X87883608Y-84706814D01*
X87849500Y-84834108D01*
X85750500Y-84834108D01*
X85750500Y-83475326D01*
X85735966Y-83402260D01*
X85680601Y-83319399D01*
X85680599Y-83319397D01*
X85597742Y-83264035D01*
X85597740Y-83264034D01*
X85597737Y-83264033D01*
X85597736Y-83264033D01*
X85524684Y-83249501D01*
X85524674Y-83249500D01*
X80475326Y-83249500D01*
X80475325Y-83249500D01*
X80475315Y-83249501D01*
X80402263Y-83264033D01*
X80402257Y-83264035D01*
X80319400Y-83319397D01*
X80319397Y-83319400D01*
X80264035Y-83402257D01*
X80264033Y-83402263D01*
X80249501Y-83475315D01*
X80249500Y-83475327D01*
X80249500Y-86601821D01*
X80230593Y-86660012D01*
X80187268Y-86693740D01*
X78160533Y-87504433D01*
X78099482Y-87508490D01*
X78098144Y-87508141D01*
X78065894Y-87499500D01*
X78065892Y-87499500D01*
X77934108Y-87499500D01*
X77870047Y-87516665D01*
X77806809Y-87533609D01*
X77692690Y-87599496D01*
X77599496Y-87692690D01*
X77533609Y-87806809D01*
X77533608Y-87806814D01*
X77499500Y-87934108D01*
X75750500Y-87934108D01*
X75750500Y-83475326D01*
X75735966Y-83402260D01*
X75680601Y-83319399D01*
X75680599Y-83319397D01*
X75597742Y-83264035D01*
X75597740Y-83264034D01*
X75597737Y-83264033D01*
X75597736Y-83264033D01*
X75524684Y-83249501D01*
X75524674Y-83249500D01*
X70475326Y-83249500D01*
X70475325Y-83249500D01*
X70475315Y-83249501D01*
X70402263Y-83264033D01*
X70402257Y-83264035D01*
X70319400Y-83319397D01*
X70319397Y-83319400D01*
X70264035Y-83402257D01*
X70264033Y-83402263D01*
X70249501Y-83475315D01*
X70249500Y-83475327D01*
X69895306Y-83475327D01*
X70036949Y-83304628D01*
X70043102Y-83297876D01*
X70297876Y-83043102D01*
X70304628Y-83036949D01*
X70581914Y-82806862D01*
X70589190Y-82801374D01*
X70886593Y-82597962D01*
X70894366Y-82593159D01*
X71209303Y-82418184D01*
X71217512Y-82414109D01*
X71547313Y-82269052D01*
X71555839Y-82265765D01*
X71897652Y-82151882D01*
X71906462Y-82149394D01*
X72257358Y-82067660D01*
X72266353Y-82066001D01*
X72623320Y-82017119D01*
X72632424Y-82016300D01*
X72994691Y-82000592D01*
X72998930Y-82000501D01*
X73089660Y-82000778D01*
X73091172Y-82000500D01*
X73097191Y-82000500D01*
X93901000Y-82000500D01*
X93959191Y-82019407D01*
G37*
%TD.AperFunction*%
%TD*%
M02*
