%TF.GenerationSoftware,KiCad,Pcbnew,10.0.1*%
%TF.CreationDate,2026-08-30T09:44:30-05:00*%
%TF.ProjectId,BIOCHEST-ECG-EMG,42494f43-4845-4535-942d-4543472d454d,rev?*%
%TF.SameCoordinates,Original*%
%TF.FileFunction,Copper,L2,Inr*%
%TF.FilePolarity,Positive*%
%FSLAX46Y46*%
G04 Gerber Fmt 4.6, Leading zero omitted, Abs format (unit mm)*
G04 Created by KiCad (PCBNEW 10.0.1) date 2026-08-30 09:44:30*
%MOMM*%
%LPD*%
G01*
G04 APERTURE LIST*
%TA.AperFunction,ComponentPad*%
%ADD10C,4.500000*%
%TD*%
%TA.AperFunction,ComponentPad*%
%ADD11R,1.500000X1.500000*%
%TD*%
%TA.AperFunction,ComponentPad*%
%ADD12C,1.500000*%
%TD*%
%TA.AperFunction,ComponentPad*%
%ADD13O,2.200000X1.200000*%
%TD*%
%TA.AperFunction,ViaPad*%
%ADD14C,0.600000*%
%TD*%
%TA.AperFunction,ViaPad*%
%ADD15C,0.800000*%
%TD*%
%TA.AperFunction,Conductor*%
%ADD16C,0.250000*%
%TD*%
%TA.AperFunction,Conductor*%
%ADD17C,0.600000*%
%TD*%
%TA.AperFunction,Conductor*%
%ADD18C,0.300000*%
%TD*%
%TA.AperFunction,Conductor*%
%ADD19C,0.350000*%
%TD*%
%TA.AperFunction,Conductor*%
%ADD20C,0.200000*%
%TD*%
G04 APERTURE END LIST*
D10*
%TO.N,EMG_N*%
%TO.C,J5*%
X70000000Y-110000000D03*
%TD*%
D11*
%TO.N,VBAT*%
%TO.C,BT1*%
X127000000Y-108000000D03*
D12*
%TO.N,DGND*%
X129000000Y-108000000D03*
%TD*%
D11*
%TO.N,DGND*%
%TO.C,U10*%
X92810000Y-115000000D03*
D12*
%TO.N,VSYS*%
X90270000Y-115000000D03*
%TO.N,AGND*%
X87730000Y-115000000D03*
%TO.N,3V3_AFE*%
X85190000Y-115000000D03*
%TD*%
D13*
%TO.N,DGND*%
%TO.C,J6*%
X130000000Y-99300000D03*
X130000000Y-90700000D03*
%TD*%
D10*
%TO.N,EMG_P*%
%TO.C,J4*%
X54500000Y-109500000D03*
%TD*%
%TO.N,RLD_DRV*%
%TO.C,J3*%
X54000000Y-95000000D03*
%TD*%
%TO.N,ECG_N*%
%TO.C,J2*%
X70000000Y-78000000D03*
%TD*%
%TO.N,ECG_P*%
%TO.C,J1*%
X54000000Y-78000000D03*
%TD*%
D14*
%TO.N,EMG_N*%
X70577500Y-95130400D03*
D15*
%TO.N,VBAT*%
X105881700Y-109005000D03*
X122104400Y-117256100D03*
D14*
%TO.N,DGND*%
X111831200Y-114229500D03*
X97166600Y-99445000D03*
X101491100Y-88635000D03*
X120000000Y-73255900D03*
X120538100Y-114761900D03*
X114734200Y-97000000D03*
X105592500Y-106839400D03*
%TO.N,3V3_AFE*%
X80815400Y-90397100D03*
X74000000Y-98279700D03*
X62138000Y-102764700D03*
%TO.N,AGND*%
X63709800Y-96258100D03*
X80842700Y-99445000D03*
X77845000Y-77956700D03*
X63654200Y-104739200D03*
X76012100Y-86340200D03*
X71482500Y-89317500D03*
X62950000Y-88979900D03*
%TO.N,RLD_DRV*%
X70684100Y-96689200D03*
%TO.N,ECG_P*%
X70681900Y-93308600D03*
X60221200Y-87897900D03*
%TO.N,ECG_N*%
X68463300Y-93041800D03*
X63673400Y-87373300D03*
%TO.N,LED_ALERT*%
X123519100Y-74680900D03*
X109814200Y-101934100D03*
D15*
%TO.N,VSYS*%
X110092100Y-114893800D03*
X124663000Y-116363000D03*
D14*
%TO.N,3V3_DIG*%
X97184400Y-90756500D03*
X102907500Y-93075200D03*
X107337800Y-106585800D03*
%TO.N,EMG_P*%
X60358700Y-104826700D03*
%TO.N,SPI_SCLK_AFE*%
X80825900Y-93095000D03*
X77258600Y-96390200D03*
%TO.N,SPI_MOSI_AFE*%
X77684700Y-95471200D03*
X80842300Y-94571000D03*
%TO.N,SPI_MISO_DIG*%
X97152900Y-97106200D03*
X104682800Y-100759500D03*
%TO.N,SPI_CS_DIG*%
X103230000Y-98100200D03*
X97174100Y-95882400D03*
%TO.N,SPI_MOSI_DIG*%
X97155900Y-94455000D03*
X103112900Y-99300000D03*
%TO.N,SPI_SCLK_DIG*%
X97169400Y-93095000D03*
X104689800Y-99941500D03*
%TO.N,ESP_EN*%
X103133500Y-94549800D03*
X105230000Y-74085000D03*
%TO.N,ESP_IO0*%
X106830100Y-95050000D03*
X108905000Y-73249800D03*
%TO.N,I2C_SCL*%
X108200000Y-104058400D03*
X102331400Y-107625200D03*
%TO.N,LED_STATUS*%
X108900000Y-101943500D03*
X118521400Y-74678600D03*
%TO.N,USB_DN*%
X125923400Y-94750100D03*
X110676600Y-101929100D03*
%TO.N,USB_DP*%
X111428400Y-101849900D03*
X125923400Y-96049900D03*
D15*
%TO.N,VBUS*%
X125790000Y-97400000D03*
X120498300Y-112438000D03*
%TD*%
%TO.N,EMG_N*%
D16*
X70000000Y-110000000D02*
X70000000Y-95707900D01*
X70000000Y-95707900D02*
X70577500Y-95130400D01*
%TO.N,VBAT*%
D17*
X127000000Y-108000000D02*
X127000000Y-109251700D01*
X122104400Y-114147300D02*
X127000000Y-109251700D01*
X122104400Y-117256100D02*
X122104400Y-114147300D01*
%TO.N,DGND*%
D18*
X101491100Y-88635000D02*
X101491100Y-96152000D01*
X130000000Y-99300000D02*
X129299200Y-99300000D01*
X98198100Y-99445000D02*
X97166600Y-99445000D01*
X120000000Y-82101700D02*
X128598300Y-90700000D01*
X129299200Y-99300000D02*
X129000000Y-99599200D01*
X120538100Y-114761900D02*
X124316000Y-110984000D01*
X105592500Y-106839400D02*
X106766100Y-108013000D01*
X124316000Y-110984000D02*
X124316000Y-108652300D01*
X101491100Y-96152000D02*
X98198100Y-99445000D01*
X129000000Y-99599200D02*
X129000000Y-106898300D01*
X129000000Y-106898300D02*
X129000000Y-108000000D01*
X128598300Y-90700000D02*
X128598300Y-99300000D01*
X92810000Y-103801600D02*
X92810000Y-115000000D01*
X106766100Y-108013000D02*
X114734200Y-100044900D01*
X129299200Y-99300000D02*
X128598300Y-99300000D01*
X126070000Y-106898300D02*
X129000000Y-106898300D01*
X120000000Y-73255900D02*
X120000000Y-82101700D01*
X111831200Y-113078100D02*
X111831200Y-114229500D01*
X105592500Y-106839400D02*
X98198100Y-99445000D01*
X130000000Y-90700000D02*
X128598300Y-90700000D01*
X114734200Y-100044900D02*
X114734200Y-97000000D01*
X124316000Y-108652300D02*
X126070000Y-106898300D01*
X106766100Y-108013000D02*
X111831200Y-113078100D01*
X97166600Y-99445000D02*
X92810000Y-103801600D01*
%TO.N,3V3_AFE*%
D19*
X75577300Y-105387300D02*
X75577300Y-98279700D01*
X75577300Y-98279700D02*
X74000000Y-98279700D01*
X75577300Y-95635200D02*
X80815400Y-90397100D01*
X75577300Y-98279700D02*
X75577300Y-95635200D01*
X85190000Y-115000000D02*
X75577300Y-105387300D01*
%TO.N,AGND*%
D18*
X77845000Y-77956700D02*
X77845000Y-84507300D01*
X63654200Y-104739200D02*
X63654200Y-96313700D01*
X62950000Y-88979900D02*
X63709800Y-89739700D01*
X63709800Y-89739700D02*
X63709800Y-96258100D01*
X80842700Y-108112700D02*
X80842700Y-99445000D01*
X77845000Y-84507300D02*
X76012100Y-86340200D01*
X87730000Y-115000000D02*
X80842700Y-108112700D01*
X63654200Y-96313700D02*
X63709800Y-96258100D01*
%TO.N,ECG_P*%
D16*
X54000000Y-81676700D02*
X54000000Y-78000000D01*
X60221200Y-87897900D02*
X54000000Y-81676700D01*
%TO.N,ECG_N*%
X68463300Y-93041800D02*
X68463300Y-92163200D01*
X70000000Y-81046700D02*
X70000000Y-78000000D01*
X68463300Y-92163200D02*
X63673400Y-87373300D01*
X63673400Y-87373300D02*
X70000000Y-81046700D01*
%TO.N,LED_ALERT*%
D20*
X109814200Y-82571200D02*
X109814200Y-101934100D01*
X121530000Y-72691800D02*
X119693600Y-72691800D01*
X119693600Y-72691800D02*
X109814200Y-82571200D01*
X123519100Y-74680900D02*
X121530000Y-72691800D01*
%TO.N,3V3_DIG*%
D19*
X107337800Y-106585800D02*
X102482800Y-101730800D01*
X102482800Y-101730800D02*
X102482800Y-93499900D01*
X102482800Y-93499900D02*
X102907500Y-93075200D01*
%TO.N,EMG_P*%
D16*
X59173300Y-104826700D02*
X54500000Y-109500000D01*
X60358700Y-104826700D02*
X59173300Y-104826700D01*
%TO.N,SPI_SCLK_AFE*%
D20*
X80825900Y-93442300D02*
X80825900Y-93095000D01*
X77878000Y-96390200D02*
X80825900Y-93442300D01*
X77258600Y-96390200D02*
X77878000Y-96390200D01*
%TO.N,ESP_EN*%
X105230000Y-74085000D02*
X105230000Y-92453300D01*
X105230000Y-92453300D02*
X103133500Y-94549800D01*
%TO.N,ESP_IO0*%
X108905000Y-73249800D02*
X108905000Y-92975100D01*
X108905000Y-92975100D02*
X106830100Y-95050000D01*
%TO.N,LED_STATUS*%
X108900000Y-101943500D02*
X109468000Y-102511500D01*
X113080900Y-80119100D02*
X118521400Y-74678600D01*
X109468000Y-102511500D02*
X111547200Y-102511500D01*
X113080900Y-100977800D02*
X113080900Y-80119100D01*
X111547200Y-102511500D02*
X113080900Y-100977800D01*
%TO.N,VBUS*%
D17*
X120498300Y-112438000D02*
X120498300Y-102691700D01*
X120498300Y-102691700D02*
X125790000Y-97400000D01*
%TD*%
%TA.AperFunction,Conductor*%
%TO.N,DGND*%
G36*
X131691977Y-64939085D02*
G01*
X131940049Y-65087773D01*
X131948127Y-65093171D01*
X132216150Y-65291951D01*
X132223660Y-65298114D01*
X132470921Y-65522218D01*
X132477781Y-65529078D01*
X132603484Y-65667770D01*
X132701885Y-65776339D01*
X132708048Y-65783849D01*
X132906828Y-66051872D01*
X132912226Y-66059950D01*
X133060914Y-66308022D01*
X133074999Y-66358916D01*
X133074999Y-119641082D01*
X133060914Y-119691978D01*
X132912226Y-119940049D01*
X132906828Y-119948127D01*
X132708048Y-120216150D01*
X132701885Y-120223660D01*
X132477786Y-120470916D01*
X132470916Y-120477786D01*
X132223660Y-120701885D01*
X132216150Y-120708048D01*
X131948127Y-120906828D01*
X131940049Y-120912226D01*
X131691977Y-121060915D01*
X131641081Y-121075000D01*
X90099000Y-121075000D01*
X90040809Y-121056093D01*
X90004845Y-121006593D01*
X90000000Y-120976000D01*
X90000000Y-117167406D01*
X121203900Y-117167406D01*
X121203900Y-117344793D01*
X121238506Y-117518765D01*
X121238506Y-117518767D01*
X121306385Y-117682644D01*
X121306385Y-117682645D01*
X121404935Y-117830134D01*
X121404936Y-117830135D01*
X121530365Y-117955564D01*
X121677853Y-118054113D01*
X121841734Y-118121994D01*
X122015709Y-118156600D01*
X122015710Y-118156600D01*
X122193090Y-118156600D01*
X122193091Y-118156600D01*
X122367066Y-118121994D01*
X122530947Y-118054113D01*
X122678435Y-117955564D01*
X122803864Y-117830135D01*
X122902413Y-117682647D01*
X122970294Y-117518766D01*
X123004900Y-117344791D01*
X123004900Y-117167409D01*
X122970294Y-116993434D01*
X122912436Y-116853750D01*
X122904900Y-116815865D01*
X122904900Y-116274306D01*
X123762500Y-116274306D01*
X123762500Y-116451693D01*
X123797106Y-116625665D01*
X123797106Y-116625667D01*
X123864985Y-116789544D01*
X123864985Y-116789545D01*
X123882572Y-116815865D01*
X123963536Y-116937035D01*
X124088965Y-117062464D01*
X124236453Y-117161013D01*
X124400334Y-117228894D01*
X124574309Y-117263500D01*
X124574310Y-117263500D01*
X124751690Y-117263500D01*
X124751691Y-117263500D01*
X124925666Y-117228894D01*
X125089547Y-117161013D01*
X125237035Y-117062464D01*
X125362464Y-116937035D01*
X125461013Y-116789547D01*
X125528894Y-116625666D01*
X125563500Y-116451691D01*
X125563500Y-116274309D01*
X125528894Y-116100334D01*
X125461014Y-115936455D01*
X125461014Y-115936454D01*
X125362464Y-115788965D01*
X125237034Y-115663535D01*
X125089544Y-115564985D01*
X124925666Y-115497106D01*
X124751693Y-115462500D01*
X124751691Y-115462500D01*
X124574309Y-115462500D01*
X124574306Y-115462500D01*
X124400334Y-115497106D01*
X124400332Y-115497106D01*
X124236455Y-115564985D01*
X124236454Y-115564985D01*
X124088965Y-115663535D01*
X123963535Y-115788965D01*
X123864985Y-115936454D01*
X123864985Y-115936455D01*
X123797106Y-116100332D01*
X123797106Y-116100334D01*
X123762500Y-116274306D01*
X122904900Y-116274306D01*
X122904900Y-114519886D01*
X122923807Y-114461695D01*
X122933896Y-114449882D01*
X125208446Y-112175332D01*
X127621789Y-109761989D01*
X127709394Y-109630879D01*
X127769737Y-109485197D01*
X127800500Y-109330542D01*
X127800500Y-109330533D01*
X127800976Y-109325706D01*
X127803151Y-109325920D01*
X127819407Y-109275891D01*
X127864903Y-109241324D01*
X127936492Y-109214622D01*
X127992331Y-109193796D01*
X128107546Y-109107546D01*
X128193796Y-108992331D01*
X128230145Y-108894873D01*
X128268195Y-108846959D01*
X128327142Y-108830561D01*
X128377904Y-108847154D01*
X128502633Y-108930495D01*
X128502639Y-108930498D01*
X128693727Y-109009650D01*
X128896581Y-109049999D01*
X128896586Y-109050000D01*
X129103414Y-109050000D01*
X129103418Y-109049999D01*
X129306272Y-109009650D01*
X129497360Y-108930498D01*
X129587456Y-108870298D01*
X129103528Y-108386370D01*
X129154394Y-108372741D01*
X129245606Y-108320080D01*
X129320080Y-108245606D01*
X129372741Y-108154394D01*
X129386370Y-108103526D01*
X129870299Y-108587455D01*
X129930498Y-108497360D01*
X130009650Y-108306272D01*
X130049999Y-108103418D01*
X130050000Y-108103413D01*
X130050000Y-107896586D01*
X130049999Y-107896581D01*
X130009650Y-107693727D01*
X129930498Y-107502638D01*
X129870299Y-107412543D01*
X129386370Y-107896471D01*
X129372741Y-107845606D01*
X129320080Y-107754394D01*
X129245606Y-107679920D01*
X129154394Y-107627259D01*
X129103526Y-107613629D01*
X129587455Y-107129699D01*
X129497361Y-107069501D01*
X129306272Y-106990349D01*
X129103418Y-106950000D01*
X128896581Y-106950000D01*
X128693727Y-106990349D01*
X128502639Y-107069501D01*
X128502632Y-107069504D01*
X128377904Y-107152845D01*
X128319016Y-107169453D01*
X128261612Y-107148275D01*
X128230145Y-107105125D01*
X128193797Y-107007670D01*
X128107549Y-106892458D01*
X128107548Y-106892457D01*
X128107546Y-106892454D01*
X128107541Y-106892450D01*
X127992329Y-106806202D01*
X127857488Y-106755910D01*
X127857483Y-106755909D01*
X127857481Y-106755908D01*
X127857477Y-106755908D01*
X127826249Y-106752550D01*
X127797873Y-106749500D01*
X127797870Y-106749500D01*
X126202133Y-106749500D01*
X126202129Y-106749500D01*
X126202128Y-106749501D01*
X126194949Y-106750272D01*
X126142519Y-106755908D01*
X126142514Y-106755909D01*
X126007670Y-106806202D01*
X125892458Y-106892450D01*
X125892450Y-106892458D01*
X125806202Y-107007670D01*
X125755910Y-107142511D01*
X125755908Y-107142522D01*
X125749500Y-107202129D01*
X125749500Y-108797866D01*
X125749501Y-108797870D01*
X125755908Y-108857480D01*
X125755909Y-108857485D01*
X125806202Y-108992329D01*
X125892255Y-109107281D01*
X125911992Y-109165196D01*
X125893918Y-109223651D01*
X125883006Y-109236614D01*
X121594111Y-113525511D01*
X121482614Y-113637007D01*
X121482611Y-113637011D01*
X121395009Y-113768114D01*
X121395003Y-113768125D01*
X121334663Y-113913801D01*
X121334663Y-113913803D01*
X121303900Y-114068455D01*
X121303900Y-116815865D01*
X121296364Y-116853750D01*
X121238506Y-116993432D01*
X121238506Y-116993434D01*
X121203900Y-117167406D01*
X90000000Y-117167406D01*
X90000000Y-116339238D01*
X90018907Y-116281047D01*
X90068407Y-116245083D01*
X90114487Y-116241457D01*
X90132525Y-116244314D01*
X90171581Y-116250500D01*
X90171583Y-116250500D01*
X90368420Y-116250500D01*
X90562821Y-116219710D01*
X90562822Y-116219709D01*
X90562826Y-116219709D01*
X90750025Y-116158884D01*
X90925405Y-116069524D01*
X91084646Y-115953828D01*
X91223828Y-115814646D01*
X91339524Y-115655405D01*
X91428884Y-115480025D01*
X91489709Y-115292826D01*
X91511306Y-115156466D01*
X91513359Y-115143506D01*
X91520500Y-115098420D01*
X91520500Y-114901579D01*
X91489710Y-114707178D01*
X91489709Y-114707174D01*
X91428884Y-114519975D01*
X91339524Y-114344595D01*
X91278452Y-114260537D01*
X91278452Y-114260536D01*
X91238249Y-114205202D01*
X91760000Y-114205202D01*
X91760000Y-114799999D01*
X91760001Y-114800000D01*
X92463589Y-114800000D01*
X92437259Y-114845606D01*
X92410000Y-114947339D01*
X92410000Y-115052661D01*
X92437259Y-115154394D01*
X92463590Y-115200000D01*
X91760002Y-115200000D01*
X91760001Y-115200001D01*
X91760001Y-115794791D01*
X91762909Y-115819874D01*
X91808213Y-115922477D01*
X91887522Y-116001786D01*
X91990127Y-116047090D01*
X92015203Y-116049999D01*
X92609998Y-116049999D01*
X92610000Y-116049998D01*
X92610000Y-115346410D01*
X92655606Y-115372741D01*
X92757339Y-115400000D01*
X92862661Y-115400000D01*
X92964394Y-115372741D01*
X93010000Y-115346410D01*
X93010000Y-116049998D01*
X93010001Y-116049999D01*
X93604790Y-116049999D01*
X93604791Y-116049998D01*
X93629874Y-116047090D01*
X93732477Y-116001786D01*
X93811786Y-115922477D01*
X93857090Y-115819872D01*
X93859999Y-115794797D01*
X93860000Y-115794795D01*
X93860000Y-115200001D01*
X93859999Y-115200000D01*
X93156410Y-115200000D01*
X93182741Y-115154394D01*
X93210000Y-115052661D01*
X93210000Y-114947339D01*
X93182741Y-114845606D01*
X93159359Y-114805106D01*
X109191600Y-114805106D01*
X109191600Y-114982493D01*
X109226206Y-115156465D01*
X109226206Y-115156467D01*
X109294085Y-115320344D01*
X109294085Y-115320345D01*
X109389071Y-115462500D01*
X109392636Y-115467835D01*
X109518065Y-115593264D01*
X109665553Y-115691813D01*
X109829434Y-115759694D01*
X110003409Y-115794300D01*
X110003410Y-115794300D01*
X110180790Y-115794300D01*
X110180791Y-115794300D01*
X110354766Y-115759694D01*
X110518647Y-115691813D01*
X110666135Y-115593264D01*
X110791564Y-115467835D01*
X110890113Y-115320347D01*
X110957994Y-115156466D01*
X110992600Y-114982491D01*
X110992600Y-114805109D01*
X110957994Y-114631134D01*
X110890114Y-114467255D01*
X110890114Y-114467254D01*
X110791564Y-114319765D01*
X110666134Y-114194335D01*
X110518644Y-114095785D01*
X110354766Y-114027906D01*
X110180793Y-113993300D01*
X110180791Y-113993300D01*
X110003409Y-113993300D01*
X110003406Y-113993300D01*
X109829434Y-114027906D01*
X109829432Y-114027906D01*
X109665555Y-114095785D01*
X109665554Y-114095785D01*
X109518065Y-114194335D01*
X109392635Y-114319765D01*
X109294085Y-114467254D01*
X109294085Y-114467255D01*
X109226206Y-114631132D01*
X109226206Y-114631134D01*
X109191600Y-114805106D01*
X93159359Y-114805106D01*
X93156411Y-114800000D01*
X93859998Y-114800000D01*
X93859999Y-114799999D01*
X93859999Y-114205210D01*
X93859998Y-114205208D01*
X93857090Y-114180125D01*
X93811786Y-114077522D01*
X93732477Y-113998213D01*
X93629872Y-113952909D01*
X93604797Y-113950000D01*
X93010001Y-113950000D01*
X93010000Y-113950001D01*
X93010000Y-114653589D01*
X92964394Y-114627259D01*
X92862661Y-114600000D01*
X92757339Y-114600000D01*
X92655606Y-114627259D01*
X92610000Y-114653589D01*
X92610000Y-113950001D01*
X92609999Y-113950000D01*
X92015210Y-113950000D01*
X92015207Y-113950001D01*
X91990125Y-113952909D01*
X91887522Y-113998213D01*
X91808213Y-114077522D01*
X91762909Y-114180127D01*
X91760000Y-114205202D01*
X91238249Y-114205202D01*
X91223832Y-114185359D01*
X91223830Y-114185357D01*
X91223828Y-114185354D01*
X91084646Y-114046172D01*
X90925405Y-113930476D01*
X90925404Y-113930475D01*
X90925402Y-113930474D01*
X90750025Y-113841116D01*
X90562821Y-113780289D01*
X90368420Y-113749500D01*
X90368417Y-113749500D01*
X90171583Y-113749500D01*
X90171579Y-113749500D01*
X90114486Y-113758542D01*
X90054054Y-113748970D01*
X90010790Y-113705705D01*
X90000000Y-113660761D01*
X90000000Y-112349306D01*
X119597800Y-112349306D01*
X119597800Y-112526693D01*
X119632406Y-112700665D01*
X119632406Y-112700667D01*
X119700285Y-112864544D01*
X119700285Y-112864545D01*
X119798835Y-113012034D01*
X119798836Y-113012035D01*
X119924265Y-113137464D01*
X120071753Y-113236013D01*
X120235634Y-113303894D01*
X120409609Y-113338500D01*
X120409610Y-113338500D01*
X120586990Y-113338500D01*
X120586991Y-113338500D01*
X120760966Y-113303894D01*
X120924847Y-113236013D01*
X121072335Y-113137464D01*
X121197764Y-113012035D01*
X121296313Y-112864547D01*
X121364194Y-112700666D01*
X121398800Y-112526691D01*
X121398800Y-112349309D01*
X121364194Y-112175334D01*
X121306336Y-112035650D01*
X121298800Y-111997765D01*
X121298800Y-103064285D01*
X121317707Y-103006094D01*
X121327790Y-102994287D01*
X125222076Y-99100000D01*
X128622149Y-99100000D01*
X129711325Y-99100000D01*
X129673852Y-99164905D01*
X129650000Y-99253922D01*
X129650000Y-99346078D01*
X129673852Y-99435095D01*
X129711325Y-99500000D01*
X128622150Y-99500000D01*
X128634586Y-99562519D01*
X128634586Y-99562521D01*
X128702429Y-99726308D01*
X128800923Y-99873715D01*
X128926284Y-99999076D01*
X129073691Y-100097570D01*
X129237479Y-100165413D01*
X129411355Y-100199999D01*
X129411359Y-100200000D01*
X129799999Y-100200000D01*
X129800000Y-100199999D01*
X129800000Y-99588675D01*
X129864905Y-99626148D01*
X129953922Y-99650000D01*
X130046078Y-99650000D01*
X130135095Y-99626148D01*
X130200000Y-99588675D01*
X130200000Y-100199999D01*
X130200001Y-100200000D01*
X130588641Y-100200000D01*
X130588644Y-100199999D01*
X130762519Y-100165413D01*
X130762521Y-100165413D01*
X130926308Y-100097570D01*
X131073715Y-99999076D01*
X131199076Y-99873715D01*
X131297570Y-99726308D01*
X131365413Y-99562521D01*
X131365413Y-99562519D01*
X131377850Y-99500000D01*
X130288675Y-99500000D01*
X130326148Y-99435095D01*
X130350000Y-99346078D01*
X130350000Y-99253922D01*
X130326148Y-99164905D01*
X130288675Y-99100000D01*
X131377850Y-99100000D01*
X131365413Y-99037480D01*
X131365413Y-99037478D01*
X131297570Y-98873691D01*
X131199076Y-98726284D01*
X131073715Y-98600923D01*
X130926308Y-98502429D01*
X130762520Y-98434586D01*
X130588644Y-98400000D01*
X130200001Y-98400000D01*
X130200000Y-98400001D01*
X130200000Y-99011324D01*
X130135095Y-98973852D01*
X130046078Y-98950000D01*
X129953922Y-98950000D01*
X129864905Y-98973852D01*
X129800000Y-99011324D01*
X129800000Y-98400001D01*
X129799999Y-98400000D01*
X129411355Y-98400000D01*
X129237480Y-98434586D01*
X129237478Y-98434586D01*
X129073691Y-98502429D01*
X128926284Y-98600923D01*
X128800923Y-98726284D01*
X128702429Y-98873691D01*
X128634586Y-99037478D01*
X128634586Y-99037480D01*
X128622149Y-99100000D01*
X125222076Y-99100000D01*
X126044750Y-98277326D01*
X126076862Y-98255870D01*
X126216547Y-98198013D01*
X126216551Y-98198010D01*
X126216554Y-98198009D01*
X126290792Y-98148403D01*
X126364035Y-98099464D01*
X126489464Y-97974035D01*
X126588013Y-97826547D01*
X126655894Y-97662666D01*
X126690500Y-97488691D01*
X126690500Y-97311309D01*
X126655894Y-97137334D01*
X126588014Y-96973455D01*
X126588014Y-96973454D01*
X126489464Y-96825965D01*
X126454442Y-96790943D01*
X126426665Y-96736426D01*
X126436236Y-96675994D01*
X126454443Y-96650935D01*
X126545181Y-96560197D01*
X126545189Y-96560189D01*
X126632794Y-96429079D01*
X126693137Y-96283397D01*
X126723900Y-96128742D01*
X126723900Y-95971058D01*
X126693137Y-95816403D01*
X126669522Y-95759390D01*
X126632796Y-95670725D01*
X126632790Y-95670714D01*
X126597417Y-95617776D01*
X126545189Y-95539611D01*
X126545184Y-95539606D01*
X126545181Y-95539602D01*
X126475582Y-95470004D01*
X126447804Y-95415488D01*
X126457375Y-95355056D01*
X126475582Y-95329996D01*
X126545181Y-95260397D01*
X126545189Y-95260389D01*
X126632794Y-95129279D01*
X126693137Y-94983597D01*
X126723900Y-94828942D01*
X126723900Y-94671258D01*
X126693137Y-94516603D01*
X126634964Y-94376159D01*
X126632796Y-94370925D01*
X126632790Y-94370914D01*
X126572218Y-94280263D01*
X126545189Y-94239811D01*
X126433689Y-94128311D01*
X126381459Y-94093412D01*
X126302585Y-94040709D01*
X126302574Y-94040703D01*
X126156897Y-93980363D01*
X126002244Y-93949600D01*
X126002242Y-93949600D01*
X125844558Y-93949600D01*
X125844555Y-93949600D01*
X125689903Y-93980363D01*
X125689901Y-93980363D01*
X125544225Y-94040703D01*
X125544214Y-94040709D01*
X125413111Y-94128311D01*
X125413107Y-94128314D01*
X125301614Y-94239807D01*
X125301611Y-94239811D01*
X125214009Y-94370914D01*
X125214003Y-94370925D01*
X125153663Y-94516601D01*
X125153663Y-94516603D01*
X125122900Y-94671255D01*
X125122900Y-94828944D01*
X125153663Y-94983596D01*
X125153663Y-94983598D01*
X125214003Y-95129274D01*
X125214009Y-95129285D01*
X125243223Y-95173006D01*
X125301611Y-95260389D01*
X125301614Y-95260392D01*
X125371218Y-95329996D01*
X125398995Y-95384513D01*
X125389424Y-95444945D01*
X125371218Y-95470004D01*
X125301614Y-95539607D01*
X125301611Y-95539611D01*
X125214009Y-95670714D01*
X125214003Y-95670725D01*
X125153663Y-95816401D01*
X125153663Y-95816403D01*
X125122900Y-95971055D01*
X125122900Y-96128744D01*
X125153663Y-96283396D01*
X125153663Y-96283398D01*
X125214003Y-96429074D01*
X125214009Y-96429085D01*
X125264193Y-96504189D01*
X125275015Y-96520386D01*
X125285005Y-96535336D01*
X125301614Y-96594224D01*
X125280437Y-96651628D01*
X125257694Y-96672652D01*
X125215964Y-96700536D01*
X125090537Y-96825962D01*
X124991986Y-96973453D01*
X124934129Y-97113133D01*
X124912669Y-97145251D01*
X119988011Y-102069911D01*
X119876514Y-102181407D01*
X119876511Y-102181411D01*
X119788909Y-102312514D01*
X119788903Y-102312525D01*
X119728563Y-102458201D01*
X119728563Y-102458203D01*
X119697800Y-102612855D01*
X119697800Y-111997765D01*
X119690264Y-112035650D01*
X119632406Y-112175332D01*
X119632406Y-112175334D01*
X119597800Y-112349306D01*
X90000000Y-112349306D01*
X90000000Y-110076178D01*
X90000500Y-110068548D01*
X90000500Y-108916306D01*
X104981200Y-108916306D01*
X104981200Y-109093693D01*
X105015806Y-109267665D01*
X105015806Y-109267667D01*
X105083685Y-109431544D01*
X105083685Y-109431545D01*
X105129092Y-109499500D01*
X105182236Y-109579035D01*
X105307665Y-109704464D01*
X105455153Y-109803013D01*
X105455154Y-109803013D01*
X105455155Y-109803014D01*
X105492281Y-109818391D01*
X105619034Y-109870894D01*
X105793009Y-109905500D01*
X105793010Y-109905500D01*
X105970390Y-109905500D01*
X105970391Y-109905500D01*
X106144366Y-109870894D01*
X106308247Y-109803013D01*
X106455735Y-109704464D01*
X106581164Y-109579035D01*
X106679713Y-109431547D01*
X106747594Y-109267666D01*
X106782200Y-109093691D01*
X106782200Y-108916309D01*
X106747594Y-108742334D01*
X106679714Y-108578455D01*
X106679714Y-108578454D01*
X106581164Y-108430965D01*
X106455734Y-108305535D01*
X106308244Y-108206985D01*
X106144366Y-108139106D01*
X105970393Y-108104500D01*
X105970391Y-108104500D01*
X105793009Y-108104500D01*
X105793006Y-108104500D01*
X105619034Y-108139106D01*
X105619032Y-108139106D01*
X105455155Y-108206985D01*
X105455154Y-108206985D01*
X105307665Y-108305535D01*
X105182235Y-108430965D01*
X105083685Y-108578454D01*
X105083685Y-108578455D01*
X105015806Y-108742332D01*
X105015806Y-108742334D01*
X104981200Y-108916306D01*
X90000500Y-108916306D01*
X90000500Y-107546355D01*
X101530900Y-107546355D01*
X101530900Y-107704044D01*
X101561663Y-107858696D01*
X101561663Y-107858698D01*
X101622003Y-108004374D01*
X101622009Y-108004385D01*
X101654267Y-108052661D01*
X101709611Y-108135489D01*
X101821111Y-108246989D01*
X101899276Y-108299217D01*
X101952214Y-108334590D01*
X101952225Y-108334596D01*
X102006038Y-108356885D01*
X102097903Y-108394937D01*
X102252558Y-108425700D01*
X102252559Y-108425700D01*
X102410241Y-108425700D01*
X102410242Y-108425700D01*
X102564897Y-108394937D01*
X102710579Y-108334594D01*
X102841689Y-108246989D01*
X102953189Y-108135489D01*
X103040794Y-108004379D01*
X103101137Y-107858697D01*
X103131900Y-107704042D01*
X103131900Y-107546358D01*
X103101137Y-107391703D01*
X103040794Y-107246021D01*
X103040793Y-107246019D01*
X103040790Y-107246014D01*
X102989633Y-107169453D01*
X102953189Y-107114911D01*
X102841689Y-107003411D01*
X102789459Y-106968512D01*
X102710585Y-106915809D01*
X102710574Y-106915803D01*
X102564897Y-106855463D01*
X102410244Y-106824700D01*
X102410242Y-106824700D01*
X102252558Y-106824700D01*
X102252555Y-106824700D01*
X102097903Y-106855463D01*
X102097901Y-106855463D01*
X101952225Y-106915803D01*
X101952214Y-106915809D01*
X101821111Y-107003411D01*
X101821107Y-107003414D01*
X101709614Y-107114907D01*
X101709611Y-107114911D01*
X101622009Y-107246014D01*
X101622003Y-107246025D01*
X101561663Y-107391701D01*
X101561663Y-107391703D01*
X101530900Y-107546355D01*
X90000500Y-107546355D01*
X90000500Y-97027355D01*
X96352400Y-97027355D01*
X96352400Y-97185044D01*
X96361600Y-97231293D01*
X96377516Y-97311310D01*
X96383163Y-97339696D01*
X96383163Y-97339698D01*
X96443503Y-97485374D01*
X96443509Y-97485385D01*
X96496212Y-97564259D01*
X96531111Y-97616489D01*
X96642611Y-97727989D01*
X96720776Y-97780217D01*
X96773714Y-97815590D01*
X96773725Y-97815596D01*
X96800159Y-97826545D01*
X96919403Y-97875937D01*
X97074058Y-97906700D01*
X97074059Y-97906700D01*
X97231741Y-97906700D01*
X97231742Y-97906700D01*
X97386397Y-97875937D01*
X97532079Y-97815594D01*
X97663189Y-97727989D01*
X97774689Y-97616489D01*
X97862294Y-97485379D01*
X97922637Y-97339697D01*
X97953400Y-97185042D01*
X97953400Y-97027358D01*
X97922637Y-96872703D01*
X97862294Y-96727021D01*
X97862293Y-96727019D01*
X97862290Y-96727014D01*
X97811455Y-96650935D01*
X97774689Y-96595911D01*
X97753681Y-96574903D01*
X97725904Y-96520386D01*
X97735475Y-96459954D01*
X97753680Y-96434897D01*
X97795889Y-96392689D01*
X97883494Y-96261579D01*
X97943837Y-96115897D01*
X97974600Y-95961242D01*
X97974600Y-95803558D01*
X97943837Y-95648903D01*
X97923722Y-95600342D01*
X97883496Y-95503225D01*
X97883490Y-95503214D01*
X97842786Y-95442297D01*
X97795889Y-95372111D01*
X97684389Y-95260611D01*
X97660925Y-95244932D01*
X97623047Y-95196884D01*
X97620645Y-95135746D01*
X97654638Y-95084873D01*
X97660899Y-95080323D01*
X97666189Y-95076789D01*
X97777689Y-94965289D01*
X97865294Y-94834179D01*
X97925637Y-94688497D01*
X97956400Y-94533842D01*
X97956400Y-94376158D01*
X97925637Y-94221503D01*
X97865294Y-94075821D01*
X97865293Y-94075819D01*
X97865290Y-94075814D01*
X97829917Y-94022876D01*
X97777689Y-93944711D01*
X97684731Y-93851753D01*
X97656954Y-93797236D01*
X97666525Y-93736804D01*
X97684729Y-93711748D01*
X97791189Y-93605289D01*
X97878794Y-93474179D01*
X97895699Y-93433366D01*
X101807300Y-93433366D01*
X101807300Y-101797333D01*
X101833258Y-101927833D01*
X101833260Y-101927839D01*
X101884179Y-102050767D01*
X101884183Y-102050776D01*
X101958101Y-102161401D01*
X101958102Y-102161402D01*
X101958105Y-102161406D01*
X104365387Y-104568688D01*
X106534925Y-106738226D01*
X106562018Y-106788914D01*
X106568060Y-106819290D01*
X106568062Y-106819296D01*
X106628403Y-106964974D01*
X106628409Y-106964985D01*
X106656931Y-107007670D01*
X106716011Y-107096089D01*
X106827511Y-107207589D01*
X106905676Y-107259817D01*
X106958614Y-107295190D01*
X106958625Y-107295196D01*
X107012438Y-107317485D01*
X107104303Y-107355537D01*
X107258958Y-107386300D01*
X107258959Y-107386300D01*
X107416641Y-107386300D01*
X107416642Y-107386300D01*
X107571297Y-107355537D01*
X107716979Y-107295194D01*
X107848089Y-107207589D01*
X107959589Y-107096089D01*
X108047194Y-106964979D01*
X108107537Y-106819297D01*
X108138300Y-106664642D01*
X108138300Y-106506958D01*
X108107537Y-106352303D01*
X108047194Y-106206621D01*
X108047193Y-106206619D01*
X108047190Y-106206614D01*
X108011817Y-106153676D01*
X107959589Y-106075511D01*
X107848089Y-105964011D01*
X107795859Y-105929112D01*
X107716985Y-105876409D01*
X107716974Y-105876403D01*
X107571296Y-105816062D01*
X107571290Y-105816060D01*
X107540914Y-105810018D01*
X107490226Y-105782925D01*
X105686856Y-103979555D01*
X107399500Y-103979555D01*
X107399500Y-104137244D01*
X107430263Y-104291896D01*
X107430263Y-104291898D01*
X107490603Y-104437574D01*
X107490609Y-104437585D01*
X107543312Y-104516459D01*
X107578211Y-104568689D01*
X107689711Y-104680189D01*
X107767876Y-104732417D01*
X107820814Y-104767790D01*
X107820825Y-104767796D01*
X107874638Y-104790085D01*
X107966503Y-104828137D01*
X108121158Y-104858900D01*
X108121159Y-104858900D01*
X108278841Y-104858900D01*
X108278842Y-104858900D01*
X108433497Y-104828137D01*
X108579179Y-104767794D01*
X108710289Y-104680189D01*
X108821789Y-104568689D01*
X108909394Y-104437579D01*
X108969737Y-104291897D01*
X109000500Y-104137242D01*
X109000500Y-103979558D01*
X108969737Y-103824903D01*
X108909394Y-103679221D01*
X108909393Y-103679219D01*
X108909390Y-103679214D01*
X108874017Y-103626276D01*
X108821789Y-103548111D01*
X108710289Y-103436611D01*
X108658059Y-103401712D01*
X108579185Y-103349009D01*
X108579174Y-103349003D01*
X108433497Y-103288663D01*
X108278844Y-103257900D01*
X108278842Y-103257900D01*
X108121158Y-103257900D01*
X108121155Y-103257900D01*
X107966503Y-103288663D01*
X107966501Y-103288663D01*
X107820825Y-103349003D01*
X107820814Y-103349009D01*
X107689711Y-103436611D01*
X107689707Y-103436614D01*
X107578214Y-103548107D01*
X107578211Y-103548111D01*
X107490609Y-103679214D01*
X107490603Y-103679225D01*
X107430263Y-103824901D01*
X107430263Y-103824903D01*
X107399500Y-103979555D01*
X105686856Y-103979555D01*
X103187296Y-101479995D01*
X103159519Y-101425478D01*
X103158300Y-101409991D01*
X103158300Y-100188399D01*
X103177207Y-100130208D01*
X103226707Y-100094244D01*
X103237978Y-100091302D01*
X103346397Y-100069737D01*
X103492079Y-100009394D01*
X103623189Y-99921789D01*
X103720296Y-99824682D01*
X103774813Y-99796905D01*
X103835245Y-99806476D01*
X103878510Y-99849741D01*
X103889300Y-99894686D01*
X103889300Y-100020344D01*
X103920063Y-100174996D01*
X103920063Y-100174998D01*
X103973565Y-100304165D01*
X103978365Y-100365162D01*
X103973565Y-100379935D01*
X103913063Y-100526001D01*
X103913063Y-100526003D01*
X103882300Y-100680655D01*
X103882300Y-100838344D01*
X103913063Y-100992996D01*
X103913063Y-100992998D01*
X103973403Y-101138674D01*
X103973409Y-101138685D01*
X104020783Y-101209584D01*
X104061011Y-101269789D01*
X104172511Y-101381289D01*
X104250212Y-101433207D01*
X104303614Y-101468890D01*
X104303625Y-101468896D01*
X104330421Y-101479995D01*
X104449303Y-101529237D01*
X104603958Y-101560000D01*
X104603959Y-101560000D01*
X104761641Y-101560000D01*
X104761642Y-101560000D01*
X104916297Y-101529237D01*
X105061979Y-101468894D01*
X105193089Y-101381289D01*
X105304589Y-101269789D01*
X105392194Y-101138679D01*
X105452537Y-100992997D01*
X105483300Y-100838342D01*
X105483300Y-100680658D01*
X105452537Y-100526003D01*
X105399034Y-100396834D01*
X105394233Y-100335838D01*
X105399034Y-100321063D01*
X105399191Y-100320682D01*
X105399194Y-100320679D01*
X105459537Y-100174997D01*
X105490300Y-100020342D01*
X105490300Y-99862658D01*
X105459537Y-99708003D01*
X105399194Y-99562321D01*
X105399193Y-99562319D01*
X105399190Y-99562314D01*
X105357552Y-99500000D01*
X105311589Y-99431211D01*
X105200089Y-99319711D01*
X105147859Y-99284812D01*
X105068985Y-99232109D01*
X105068974Y-99232103D01*
X104923297Y-99171763D01*
X104768644Y-99141000D01*
X104768642Y-99141000D01*
X104610958Y-99141000D01*
X104610955Y-99141000D01*
X104456303Y-99171763D01*
X104456301Y-99171763D01*
X104310625Y-99232103D01*
X104310614Y-99232109D01*
X104179511Y-99319711D01*
X104179507Y-99319714D01*
X104082404Y-99416818D01*
X104027887Y-99444595D01*
X103967455Y-99435024D01*
X103924190Y-99391759D01*
X103913400Y-99346814D01*
X103913400Y-99221159D01*
X103913399Y-99221155D01*
X103882637Y-99066503D01*
X103822294Y-98920821D01*
X103822290Y-98920813D01*
X103754945Y-98820026D01*
X103738336Y-98761138D01*
X103759513Y-98703734D01*
X103767249Y-98695028D01*
X103851789Y-98610489D01*
X103939394Y-98479379D01*
X103999737Y-98333697D01*
X104030500Y-98179042D01*
X104030500Y-98021358D01*
X103999737Y-97866703D01*
X103978565Y-97815590D01*
X103939396Y-97721025D01*
X103939390Y-97721014D01*
X103900402Y-97662665D01*
X103851789Y-97589911D01*
X103740289Y-97478411D01*
X103688059Y-97443512D01*
X103609185Y-97390809D01*
X103609174Y-97390803D01*
X103463497Y-97330463D01*
X103308844Y-97299700D01*
X103308842Y-97299700D01*
X103257300Y-97299700D01*
X103199109Y-97280793D01*
X103163145Y-97231293D01*
X103158300Y-97200700D01*
X103158300Y-95442297D01*
X103177207Y-95384106D01*
X103226707Y-95348142D01*
X103237986Y-95345199D01*
X103366997Y-95319537D01*
X103512679Y-95259194D01*
X103643789Y-95171589D01*
X103755289Y-95060089D01*
X103814713Y-94971155D01*
X106029600Y-94971155D01*
X106029600Y-95128844D01*
X106060363Y-95283496D01*
X106060363Y-95283498D01*
X106120703Y-95429174D01*
X106120709Y-95429185D01*
X106147984Y-95470004D01*
X106208311Y-95560289D01*
X106319811Y-95671789D01*
X106397976Y-95724017D01*
X106450914Y-95759390D01*
X106450925Y-95759396D01*
X106504738Y-95781685D01*
X106596603Y-95819737D01*
X106751258Y-95850500D01*
X106751259Y-95850500D01*
X106908941Y-95850500D01*
X106908942Y-95850500D01*
X107063597Y-95819737D01*
X107209279Y-95759394D01*
X107340389Y-95671789D01*
X107451889Y-95560289D01*
X107539494Y-95429179D01*
X107599837Y-95283497D01*
X107630600Y-95128842D01*
X107631549Y-95124072D01*
X107633181Y-95124396D01*
X107654917Y-95074663D01*
X107658919Y-95070415D01*
X109044696Y-93684639D01*
X109099213Y-93656862D01*
X109159645Y-93666433D01*
X109202910Y-93709698D01*
X109213700Y-93754643D01*
X109213700Y-101069084D01*
X109194793Y-101127275D01*
X109145293Y-101163239D01*
X109095386Y-101166182D01*
X108978844Y-101143000D01*
X108978842Y-101143000D01*
X108821158Y-101143000D01*
X108821155Y-101143000D01*
X108666503Y-101173763D01*
X108666501Y-101173763D01*
X108520825Y-101234103D01*
X108520814Y-101234109D01*
X108389711Y-101321711D01*
X108389707Y-101321714D01*
X108278214Y-101433207D01*
X108278211Y-101433211D01*
X108190609Y-101564314D01*
X108190603Y-101564325D01*
X108130263Y-101710001D01*
X108130263Y-101710003D01*
X108099500Y-101864655D01*
X108099500Y-102022344D01*
X108130263Y-102176996D01*
X108130263Y-102176998D01*
X108190603Y-102322674D01*
X108190609Y-102322685D01*
X108243312Y-102401559D01*
X108278211Y-102453789D01*
X108389711Y-102565289D01*
X108460903Y-102612858D01*
X108520814Y-102652890D01*
X108520825Y-102652896D01*
X108574638Y-102675185D01*
X108666503Y-102713237D01*
X108796466Y-102739088D01*
X108825928Y-102744949D01*
X108825603Y-102746580D01*
X108875338Y-102768319D01*
X108879601Y-102772336D01*
X108987478Y-102880213D01*
X108987480Y-102880216D01*
X109099284Y-102992020D01*
X109099286Y-102992021D01*
X109099289Y-102992024D01*
X109099288Y-102992024D01*
X109186091Y-103042137D01*
X109186093Y-103042139D01*
X109186094Y-103042139D01*
X109208916Y-103055315D01*
X109236215Y-103071077D01*
X109388942Y-103112000D01*
X109388943Y-103112000D01*
X111462064Y-103112000D01*
X111462080Y-103112001D01*
X111468143Y-103112001D01*
X111626256Y-103112001D01*
X111626257Y-103112001D01*
X111778985Y-103071077D01*
X111829104Y-103042139D01*
X111915916Y-102992020D01*
X112027720Y-102880216D01*
X112027721Y-102880213D01*
X113449613Y-101458321D01*
X113449616Y-101458320D01*
X113561420Y-101346516D01*
X113640477Y-101209584D01*
X113681400Y-101056857D01*
X113681400Y-90500000D01*
X128622149Y-90500000D01*
X129711325Y-90500000D01*
X129673852Y-90564905D01*
X129650000Y-90653922D01*
X129650000Y-90746078D01*
X129673852Y-90835095D01*
X129711325Y-90900000D01*
X128622150Y-90900000D01*
X128634586Y-90962519D01*
X128634586Y-90962521D01*
X128702429Y-91126308D01*
X128800923Y-91273715D01*
X128926284Y-91399076D01*
X129073691Y-91497570D01*
X129237479Y-91565413D01*
X129411355Y-91599999D01*
X129411359Y-91600000D01*
X129799999Y-91600000D01*
X129800000Y-91599999D01*
X129800000Y-90988675D01*
X129864905Y-91026148D01*
X129953922Y-91050000D01*
X130046078Y-91050000D01*
X130135095Y-91026148D01*
X130200000Y-90988675D01*
X130200000Y-91599999D01*
X130200001Y-91600000D01*
X130588641Y-91600000D01*
X130588644Y-91599999D01*
X130762519Y-91565413D01*
X130762521Y-91565413D01*
X130926308Y-91497570D01*
X131073715Y-91399076D01*
X131199076Y-91273715D01*
X131297570Y-91126308D01*
X131365413Y-90962521D01*
X131365413Y-90962519D01*
X131377850Y-90900000D01*
X130288675Y-90900000D01*
X130326148Y-90835095D01*
X130350000Y-90746078D01*
X130350000Y-90653922D01*
X130326148Y-90564905D01*
X130288675Y-90500000D01*
X131377850Y-90500000D01*
X131365413Y-90437480D01*
X131365413Y-90437478D01*
X131297570Y-90273691D01*
X131199076Y-90126284D01*
X131073715Y-90000923D01*
X130926308Y-89902429D01*
X130762520Y-89834586D01*
X130588644Y-89800000D01*
X130200001Y-89800000D01*
X130200000Y-89800001D01*
X130200000Y-90411324D01*
X130135095Y-90373852D01*
X130046078Y-90350000D01*
X129953922Y-90350000D01*
X129864905Y-90373852D01*
X129800000Y-90411324D01*
X129800000Y-89800001D01*
X129799999Y-89800000D01*
X129411355Y-89800000D01*
X129237480Y-89834586D01*
X129237478Y-89834586D01*
X129073691Y-89902429D01*
X128926284Y-90000923D01*
X128800923Y-90126284D01*
X128702429Y-90273691D01*
X128634586Y-90437478D01*
X128634586Y-90437480D01*
X128622149Y-90500000D01*
X113681400Y-90500000D01*
X113681400Y-80408843D01*
X113700307Y-80350652D01*
X113710396Y-80338839D01*
X118541800Y-75507434D01*
X118595479Y-75480084D01*
X118595472Y-75480049D01*
X118595599Y-75480023D01*
X118596315Y-75479659D01*
X118599457Y-75479256D01*
X118600241Y-75479100D01*
X118600242Y-75479100D01*
X118754897Y-75448337D01*
X118900579Y-75387994D01*
X119031689Y-75300389D01*
X119143189Y-75188889D01*
X119230794Y-75057779D01*
X119291137Y-74912097D01*
X119321900Y-74757442D01*
X119321900Y-74599758D01*
X119291137Y-74445103D01*
X119238696Y-74318498D01*
X119230796Y-74299425D01*
X119230795Y-74299423D01*
X119230794Y-74299421D01*
X119157537Y-74189785D01*
X119140930Y-74130902D01*
X119162107Y-74073498D01*
X119169851Y-74064783D01*
X119913340Y-73321296D01*
X119967856Y-73293519D01*
X119983343Y-73292300D01*
X121240257Y-73292300D01*
X121298448Y-73311207D01*
X121310261Y-73321296D01*
X122690263Y-74701298D01*
X122717614Y-74754979D01*
X122717651Y-74754972D01*
X122717676Y-74755102D01*
X122718040Y-74755815D01*
X122718442Y-74758952D01*
X122718600Y-74759744D01*
X122748905Y-74912097D01*
X122749363Y-74914396D01*
X122749363Y-74914398D01*
X122809703Y-75060074D01*
X122809709Y-75060085D01*
X122862412Y-75138959D01*
X122897311Y-75191189D01*
X123008811Y-75302689D01*
X123086976Y-75354917D01*
X123139914Y-75390290D01*
X123139925Y-75390296D01*
X123193738Y-75412585D01*
X123285603Y-75450637D01*
X123440258Y-75481400D01*
X123440259Y-75481400D01*
X123597941Y-75481400D01*
X123597942Y-75481400D01*
X123752597Y-75450637D01*
X123898279Y-75390294D01*
X124029389Y-75302689D01*
X124140889Y-75191189D01*
X124228494Y-75060079D01*
X124288837Y-74914397D01*
X124319600Y-74759742D01*
X124319600Y-74602058D01*
X124288837Y-74447403D01*
X124235443Y-74318497D01*
X124228496Y-74301725D01*
X124228490Y-74301714D01*
X124193117Y-74248776D01*
X124140889Y-74170611D01*
X124029389Y-74059111D01*
X123950141Y-74006159D01*
X123898285Y-73971509D01*
X123898274Y-73971503D01*
X123752597Y-73911163D01*
X123593172Y-73879451D01*
X123593495Y-73877826D01*
X123543739Y-73856060D01*
X123539498Y-73852063D01*
X122010521Y-72323086D01*
X122010520Y-72323084D01*
X121898716Y-72211280D01*
X121811904Y-72161160D01*
X121811903Y-72161159D01*
X121761788Y-72132225D01*
X121761785Y-72132223D01*
X121609057Y-72091299D01*
X121450943Y-72091299D01*
X121444880Y-72091299D01*
X121444864Y-72091300D01*
X119614542Y-72091300D01*
X119573618Y-72102265D01*
X119573617Y-72102264D01*
X119461819Y-72132221D01*
X119461818Y-72132221D01*
X119324881Y-72211282D01*
X119213079Y-72323083D01*
X119213080Y-72323084D01*
X109674504Y-81861660D01*
X109619987Y-81889437D01*
X109559555Y-81879866D01*
X109516290Y-81836601D01*
X109505500Y-81791656D01*
X109505500Y-73821452D01*
X109524117Y-73764152D01*
X109524087Y-73764132D01*
X109524159Y-73764024D01*
X109524407Y-73763261D01*
X109526343Y-73760755D01*
X109526786Y-73760091D01*
X109526789Y-73760089D01*
X109614394Y-73628979D01*
X109674737Y-73483297D01*
X109705500Y-73328642D01*
X109705500Y-73170958D01*
X109674737Y-73016303D01*
X109614394Y-72870621D01*
X109614393Y-72870619D01*
X109614390Y-72870614D01*
X109579017Y-72817676D01*
X109526789Y-72739511D01*
X109415289Y-72628011D01*
X109363059Y-72593112D01*
X109284185Y-72540409D01*
X109284174Y-72540403D01*
X109138497Y-72480063D01*
X108983844Y-72449300D01*
X108983842Y-72449300D01*
X108826158Y-72449300D01*
X108826155Y-72449300D01*
X108671503Y-72480063D01*
X108671501Y-72480063D01*
X108525825Y-72540403D01*
X108525814Y-72540409D01*
X108394711Y-72628011D01*
X108394707Y-72628014D01*
X108283214Y-72739507D01*
X108283211Y-72739511D01*
X108195609Y-72870614D01*
X108195603Y-72870625D01*
X108135263Y-73016301D01*
X108135263Y-73016303D01*
X108104500Y-73170955D01*
X108104500Y-73328644D01*
X108135263Y-73483296D01*
X108135263Y-73483298D01*
X108195603Y-73628974D01*
X108195609Y-73628985D01*
X108246950Y-73705821D01*
X108283211Y-73760089D01*
X108283212Y-73760090D01*
X108285913Y-73764132D01*
X108284536Y-73765051D01*
X108304329Y-73815632D01*
X108304500Y-73821452D01*
X108304500Y-92685356D01*
X108285593Y-92743547D01*
X108275504Y-92755360D01*
X106809701Y-94221163D01*
X106756020Y-94248513D01*
X106756028Y-94248551D01*
X106755895Y-94248577D01*
X106755184Y-94248940D01*
X106752046Y-94249342D01*
X106596603Y-94280263D01*
X106596601Y-94280263D01*
X106450925Y-94340603D01*
X106450914Y-94340609D01*
X106319811Y-94428211D01*
X106319807Y-94428214D01*
X106208314Y-94539707D01*
X106208311Y-94539711D01*
X106120709Y-94670814D01*
X106120703Y-94670825D01*
X106060363Y-94816501D01*
X106060363Y-94816503D01*
X106029600Y-94971155D01*
X103814713Y-94971155D01*
X103842894Y-94928979D01*
X103842898Y-94928970D01*
X103843134Y-94928402D01*
X103882163Y-94834174D01*
X103903237Y-94783297D01*
X103934000Y-94628642D01*
X103934949Y-94623872D01*
X103936581Y-94624196D01*
X103958317Y-94574463D01*
X103962319Y-94570215D01*
X105710520Y-92822016D01*
X105789577Y-92685084D01*
X105830501Y-92532357D01*
X105830501Y-92374242D01*
X105830501Y-92368180D01*
X105830500Y-92368162D01*
X105830500Y-74656652D01*
X105849117Y-74599352D01*
X105849087Y-74599332D01*
X105849159Y-74599224D01*
X105849407Y-74598461D01*
X105851343Y-74595955D01*
X105851786Y-74595291D01*
X105851789Y-74595289D01*
X105939394Y-74464179D01*
X105999737Y-74318497D01*
X106030500Y-74163842D01*
X106030500Y-74006158D01*
X105999737Y-73851503D01*
X105979622Y-73802942D01*
X105939396Y-73705825D01*
X105939390Y-73705814D01*
X105904017Y-73652876D01*
X105851789Y-73574711D01*
X105740289Y-73463211D01*
X105688059Y-73428312D01*
X105609185Y-73375609D01*
X105609174Y-73375603D01*
X105463497Y-73315263D01*
X105308844Y-73284500D01*
X105308842Y-73284500D01*
X105151158Y-73284500D01*
X105151155Y-73284500D01*
X104996503Y-73315263D01*
X104996501Y-73315263D01*
X104850825Y-73375603D01*
X104850814Y-73375609D01*
X104719711Y-73463211D01*
X104719707Y-73463214D01*
X104608214Y-73574707D01*
X104608211Y-73574711D01*
X104520609Y-73705814D01*
X104520603Y-73705825D01*
X104460263Y-73851501D01*
X104460263Y-73851503D01*
X104429500Y-74006155D01*
X104429500Y-74163844D01*
X104460263Y-74318496D01*
X104460263Y-74318498D01*
X104520603Y-74464174D01*
X104520609Y-74464185D01*
X104579029Y-74551615D01*
X104608211Y-74595289D01*
X104608212Y-74595290D01*
X104610913Y-74599332D01*
X104609536Y-74600251D01*
X104629329Y-74650832D01*
X104629500Y-74656652D01*
X104629500Y-92163556D01*
X104610593Y-92221747D01*
X104600504Y-92233560D01*
X103860487Y-92973576D01*
X103805970Y-93001353D01*
X103745538Y-92991782D01*
X103702273Y-92948517D01*
X103693385Y-92922886D01*
X103677237Y-92841703D01*
X103636580Y-92743547D01*
X103616896Y-92696025D01*
X103616890Y-92696014D01*
X103581517Y-92643076D01*
X103529289Y-92564911D01*
X103417789Y-92453411D01*
X103365559Y-92418512D01*
X103286685Y-92365809D01*
X103286674Y-92365803D01*
X103140997Y-92305463D01*
X102986344Y-92274700D01*
X102986342Y-92274700D01*
X102828658Y-92274700D01*
X102828655Y-92274700D01*
X102674003Y-92305463D01*
X102674001Y-92305463D01*
X102528325Y-92365803D01*
X102528314Y-92365809D01*
X102397211Y-92453411D01*
X102397207Y-92453414D01*
X102285714Y-92564907D01*
X102285711Y-92564911D01*
X102198109Y-92696014D01*
X102198103Y-92696025D01*
X102137763Y-92841700D01*
X102137761Y-92841707D01*
X102131718Y-92872086D01*
X102104625Y-92922772D01*
X101958103Y-93069295D01*
X101884183Y-93179923D01*
X101884179Y-93179932D01*
X101833260Y-93302860D01*
X101833258Y-93302866D01*
X101807300Y-93433366D01*
X97895699Y-93433366D01*
X97939137Y-93328497D01*
X97969900Y-93173842D01*
X97969900Y-93016158D01*
X97939137Y-92861503D01*
X97919022Y-92812942D01*
X97878796Y-92715825D01*
X97878790Y-92715814D01*
X97843417Y-92662876D01*
X97791189Y-92584711D01*
X97679689Y-92473211D01*
X97627459Y-92438312D01*
X97548585Y-92385609D01*
X97548574Y-92385603D01*
X97402897Y-92325263D01*
X97248244Y-92294500D01*
X97248242Y-92294500D01*
X97090558Y-92294500D01*
X97090555Y-92294500D01*
X96935903Y-92325263D01*
X96935901Y-92325263D01*
X96790225Y-92385603D01*
X96790214Y-92385609D01*
X96659111Y-92473211D01*
X96659107Y-92473214D01*
X96547614Y-92584707D01*
X96547611Y-92584711D01*
X96460009Y-92715814D01*
X96460003Y-92715825D01*
X96399663Y-92861501D01*
X96399663Y-92861503D01*
X96368900Y-93016155D01*
X96368900Y-93173844D01*
X96370111Y-93179931D01*
X96394563Y-93302860D01*
X96399663Y-93328496D01*
X96399663Y-93328498D01*
X96460003Y-93474174D01*
X96460009Y-93474185D01*
X96487706Y-93515635D01*
X96547611Y-93605289D01*
X96547614Y-93605292D01*
X96640568Y-93698246D01*
X96668345Y-93752763D01*
X96658774Y-93813195D01*
X96640568Y-93838254D01*
X96534114Y-93944707D01*
X96534111Y-93944711D01*
X96446509Y-94075814D01*
X96446503Y-94075825D01*
X96386163Y-94221501D01*
X96386163Y-94221503D01*
X96355400Y-94376155D01*
X96355400Y-94533844D01*
X96386163Y-94688496D01*
X96386163Y-94688498D01*
X96446503Y-94834174D01*
X96446509Y-94834185D01*
X96499212Y-94913059D01*
X96534111Y-94965289D01*
X96534114Y-94965292D01*
X96645611Y-95076789D01*
X96669072Y-95092465D01*
X96706951Y-95140515D01*
X96709353Y-95201654D01*
X96675359Y-95252527D01*
X96669079Y-95257090D01*
X96663817Y-95260606D01*
X96663807Y-95260614D01*
X96552314Y-95372107D01*
X96552311Y-95372111D01*
X96464709Y-95503214D01*
X96464703Y-95503225D01*
X96404363Y-95648901D01*
X96404363Y-95648903D01*
X96373600Y-95803555D01*
X96373600Y-95961244D01*
X96404363Y-96115896D01*
X96404363Y-96115898D01*
X96464703Y-96261574D01*
X96464709Y-96261585D01*
X96517412Y-96340459D01*
X96552311Y-96392689D01*
X96552314Y-96392692D01*
X96573318Y-96413696D01*
X96601095Y-96468213D01*
X96591524Y-96528645D01*
X96573318Y-96553704D01*
X96531114Y-96595907D01*
X96531111Y-96595911D01*
X96443509Y-96727014D01*
X96443503Y-96727025D01*
X96383163Y-96872701D01*
X96383163Y-96872703D01*
X96352400Y-97027355D01*
X90000500Y-97027355D01*
X90000500Y-90677655D01*
X96383900Y-90677655D01*
X96383900Y-90835344D01*
X96399726Y-90914905D01*
X96412688Y-90980070D01*
X96414663Y-90989996D01*
X96414663Y-90989998D01*
X96475003Y-91135674D01*
X96475009Y-91135685D01*
X96527712Y-91214559D01*
X96562611Y-91266789D01*
X96674111Y-91378289D01*
X96752276Y-91430517D01*
X96805214Y-91465890D01*
X96805225Y-91465896D01*
X96859038Y-91488185D01*
X96950903Y-91526237D01*
X97105558Y-91557000D01*
X97105559Y-91557000D01*
X97263241Y-91557000D01*
X97263242Y-91557000D01*
X97417897Y-91526237D01*
X97563579Y-91465894D01*
X97694689Y-91378289D01*
X97806189Y-91266789D01*
X97893794Y-91135679D01*
X97954137Y-90989997D01*
X97984900Y-90835342D01*
X97984900Y-90677658D01*
X97954137Y-90523003D01*
X97934022Y-90474442D01*
X97893796Y-90377325D01*
X97893790Y-90377314D01*
X97858417Y-90324376D01*
X97806189Y-90246211D01*
X97694689Y-90134711D01*
X97642459Y-90099812D01*
X97563585Y-90047109D01*
X97563574Y-90047103D01*
X97417897Y-89986763D01*
X97263244Y-89956000D01*
X97263242Y-89956000D01*
X97105558Y-89956000D01*
X97105555Y-89956000D01*
X96950903Y-89986763D01*
X96950901Y-89986763D01*
X96805225Y-90047103D01*
X96805214Y-90047109D01*
X96674111Y-90134711D01*
X96674107Y-90134714D01*
X96562614Y-90246207D01*
X96562611Y-90246211D01*
X96475009Y-90377314D01*
X96475003Y-90377325D01*
X96414663Y-90523001D01*
X96414663Y-90523003D01*
X96383900Y-90677655D01*
X90000500Y-90677655D01*
X90000500Y-69931452D01*
X90000000Y-69923821D01*
X90000000Y-65024000D01*
X90018907Y-64965809D01*
X90068407Y-64929845D01*
X90099000Y-64925000D01*
X131641081Y-64925000D01*
X131691977Y-64939085D01*
G37*
%TD.AperFunction*%
%TD*%
%TA.AperFunction,Conductor*%
%TO.N,AGND*%
G36*
X87959191Y-64943907D02*
G01*
X87995155Y-64993407D01*
X88000000Y-65024000D01*
X88000000Y-69923821D01*
X87999500Y-69931452D01*
X87999500Y-110068548D01*
X88000000Y-110076178D01*
X88000000Y-113862503D01*
X87981093Y-113920694D01*
X87931593Y-113956658D01*
X87881687Y-113959601D01*
X87833420Y-113950000D01*
X87626581Y-113950000D01*
X87423727Y-113990349D01*
X87232638Y-114069501D01*
X87142543Y-114129700D01*
X87626471Y-114613629D01*
X87575606Y-114627259D01*
X87484394Y-114679920D01*
X87409920Y-114754394D01*
X87357259Y-114845606D01*
X87343629Y-114896473D01*
X86859699Y-114412543D01*
X86799501Y-114502638D01*
X86720349Y-114693727D01*
X86680000Y-114896581D01*
X86680000Y-115103418D01*
X86720349Y-115306272D01*
X86799501Y-115497361D01*
X86859699Y-115587455D01*
X87343628Y-115103525D01*
X87357259Y-115154394D01*
X87409920Y-115245606D01*
X87484394Y-115320080D01*
X87575606Y-115372741D01*
X87626470Y-115386369D01*
X87142542Y-115870298D01*
X87232638Y-115930498D01*
X87423727Y-116009650D01*
X87626581Y-116049999D01*
X87626586Y-116050000D01*
X87833415Y-116050000D01*
X87833415Y-116049999D01*
X87881685Y-116040398D01*
X87942446Y-116047589D01*
X87987377Y-116089121D01*
X88000000Y-116137496D01*
X88000000Y-120976000D01*
X87981093Y-121034191D01*
X87931593Y-121070155D01*
X87901000Y-121075000D01*
X48358919Y-121075000D01*
X48308023Y-121060915D01*
X48059950Y-120912226D01*
X48051872Y-120906828D01*
X47783849Y-120708048D01*
X47776339Y-120701885D01*
X47529083Y-120477786D01*
X47522218Y-120470921D01*
X47298114Y-120223660D01*
X47291951Y-120216150D01*
X47093171Y-119948127D01*
X47087773Y-119940049D01*
X46939085Y-119691976D01*
X46925000Y-119641080D01*
X46925000Y-109345533D01*
X51749500Y-109345533D01*
X51749500Y-109654466D01*
X51784088Y-109961450D01*
X51852832Y-110262637D01*
X51954863Y-110554225D01*
X52088905Y-110832566D01*
X52228183Y-111054225D01*
X52253265Y-111094143D01*
X52445880Y-111335674D01*
X52664326Y-111554120D01*
X52905857Y-111746735D01*
X53167435Y-111911095D01*
X53445771Y-112045135D01*
X53737364Y-112147168D01*
X54038548Y-112215911D01*
X54345535Y-112250500D01*
X54345536Y-112250500D01*
X54654464Y-112250500D01*
X54654465Y-112250500D01*
X54961452Y-112215911D01*
X55262636Y-112147168D01*
X55554229Y-112045135D01*
X55832565Y-111911095D01*
X56094143Y-111746735D01*
X56335674Y-111554120D01*
X56554120Y-111335674D01*
X56746735Y-111094143D01*
X56911095Y-110832565D01*
X57045135Y-110554229D01*
X57147168Y-110262636D01*
X57215911Y-109961452D01*
X57215911Y-109961449D01*
X57215913Y-109961442D01*
X57228973Y-109845533D01*
X67249500Y-109845533D01*
X67249500Y-110154466D01*
X67284088Y-110461450D01*
X67352832Y-110762637D01*
X67454863Y-111054225D01*
X67588905Y-111332566D01*
X67728117Y-111554120D01*
X67753265Y-111594143D01*
X67945880Y-111835674D01*
X68164326Y-112054120D01*
X68405857Y-112246735D01*
X68667435Y-112411095D01*
X68945771Y-112545135D01*
X69237364Y-112647168D01*
X69538548Y-112715911D01*
X69845535Y-112750500D01*
X69845536Y-112750500D01*
X70154464Y-112750500D01*
X70154465Y-112750500D01*
X70461452Y-112715911D01*
X70762636Y-112647168D01*
X71054229Y-112545135D01*
X71332565Y-112411095D01*
X71594143Y-112246735D01*
X71835674Y-112054120D01*
X72054120Y-111835674D01*
X72246735Y-111594143D01*
X72411095Y-111332565D01*
X72545135Y-111054229D01*
X72647168Y-110762636D01*
X72715911Y-110461452D01*
X72750500Y-110154465D01*
X72750500Y-109845535D01*
X72715911Y-109538548D01*
X72647168Y-109237364D01*
X72545135Y-108945771D01*
X72411095Y-108667435D01*
X72246735Y-108405857D01*
X72054120Y-108164326D01*
X71835674Y-107945880D01*
X71594143Y-107753265D01*
X71452599Y-107664327D01*
X71332566Y-107588905D01*
X71054225Y-107454863D01*
X70762639Y-107352832D01*
X70702470Y-107339099D01*
X70649946Y-107307716D01*
X70625898Y-107251455D01*
X70625500Y-107242581D01*
X70625500Y-98200855D01*
X73199500Y-98200855D01*
X73199500Y-98358544D01*
X73230263Y-98513196D01*
X73230263Y-98513198D01*
X73290603Y-98658874D01*
X73290609Y-98658885D01*
X73343312Y-98737759D01*
X73378211Y-98789989D01*
X73489711Y-98901489D01*
X73567876Y-98953717D01*
X73620814Y-98989090D01*
X73620825Y-98989096D01*
X73674638Y-99011385D01*
X73766503Y-99049437D01*
X73921158Y-99080200D01*
X73921159Y-99080200D01*
X74078841Y-99080200D01*
X74078842Y-99080200D01*
X74233497Y-99049437D01*
X74379179Y-98989094D01*
X74404936Y-98971884D01*
X74459937Y-98955200D01*
X74802800Y-98955200D01*
X74860991Y-98974107D01*
X74896955Y-99023607D01*
X74901800Y-99054200D01*
X74901800Y-105453833D01*
X74927758Y-105584333D01*
X74927760Y-105584339D01*
X74978679Y-105707267D01*
X74978683Y-105707276D01*
X75052601Y-105817901D01*
X75052602Y-105817902D01*
X75052605Y-105817906D01*
X79497335Y-110262636D01*
X83930736Y-114696037D01*
X83958513Y-114750554D01*
X83958513Y-114781527D01*
X83939500Y-114901578D01*
X83939500Y-115098420D01*
X83970289Y-115292821D01*
X83970291Y-115292826D01*
X84031116Y-115480025D01*
X84120476Y-115655405D01*
X84236172Y-115814646D01*
X84375354Y-115953828D01*
X84534595Y-116069524D01*
X84709975Y-116158884D01*
X84897174Y-116219709D01*
X84897175Y-116219709D01*
X84897178Y-116219710D01*
X85091580Y-116250500D01*
X85091583Y-116250500D01*
X85288420Y-116250500D01*
X85482821Y-116219710D01*
X85482822Y-116219709D01*
X85482826Y-116219709D01*
X85670025Y-116158884D01*
X85845405Y-116069524D01*
X86004646Y-115953828D01*
X86143828Y-115814646D01*
X86259524Y-115655405D01*
X86348884Y-115480025D01*
X86409709Y-115292826D01*
X86426571Y-115186365D01*
X86440500Y-115098420D01*
X86440500Y-114901584D01*
X86440499Y-114901575D01*
X86409710Y-114707178D01*
X86406090Y-114696037D01*
X86348884Y-114519975D01*
X86259524Y-114344595D01*
X86143828Y-114185354D01*
X86004646Y-114046172D01*
X85845405Y-113930476D01*
X85845404Y-113930475D01*
X85845402Y-113930474D01*
X85670025Y-113841116D01*
X85482821Y-113780289D01*
X85288420Y-113749500D01*
X85288417Y-113749500D01*
X85091583Y-113749500D01*
X85091579Y-113749500D01*
X84971527Y-113768513D01*
X84911095Y-113758941D01*
X84886037Y-113740736D01*
X76281796Y-105136495D01*
X76254019Y-105081978D01*
X76252800Y-105066491D01*
X76252800Y-95956008D01*
X76271707Y-95897817D01*
X76281790Y-95886010D01*
X76715196Y-95452603D01*
X76730756Y-95444675D01*
X76743553Y-95432794D01*
X76757339Y-95431131D01*
X76769713Y-95424827D01*
X76786961Y-95427558D01*
X76804298Y-95425468D01*
X76816427Y-95432225D01*
X76830145Y-95434398D01*
X76842493Y-95446746D01*
X76857748Y-95455245D01*
X76862116Y-95466369D01*
X76873410Y-95477663D01*
X76883488Y-95510753D01*
X76884200Y-95516656D01*
X76884200Y-95550042D01*
X76894429Y-95601471D01*
X76894883Y-95605227D01*
X76889673Y-95631723D01*
X76886501Y-95658529D01*
X76883776Y-95661718D01*
X76883080Y-95665263D01*
X76871821Y-95675716D01*
X76851597Y-95699397D01*
X76748311Y-95768411D01*
X76748307Y-95768414D01*
X76636814Y-95879907D01*
X76636811Y-95879911D01*
X76549209Y-96011014D01*
X76549203Y-96011025D01*
X76488863Y-96156701D01*
X76488863Y-96156703D01*
X76458100Y-96311355D01*
X76458100Y-96469044D01*
X76488863Y-96623696D01*
X76488863Y-96623698D01*
X76549203Y-96769374D01*
X76549209Y-96769385D01*
X76593503Y-96835674D01*
X76636811Y-96900489D01*
X76748311Y-97011989D01*
X76826476Y-97064217D01*
X76879414Y-97099590D01*
X76879425Y-97099596D01*
X76933238Y-97121885D01*
X77025103Y-97159937D01*
X77179758Y-97190700D01*
X77179759Y-97190700D01*
X77337441Y-97190700D01*
X77337442Y-97190700D01*
X77492097Y-97159937D01*
X77637779Y-97099594D01*
X77768889Y-97011989D01*
X77768890Y-97011987D01*
X77772932Y-97009287D01*
X77773851Y-97010662D01*
X77824436Y-96990872D01*
X77830251Y-96990701D01*
X77957056Y-96990701D01*
X77957057Y-96990701D01*
X78109785Y-96949777D01*
X78147841Y-96927803D01*
X78159901Y-96920841D01*
X78159904Y-96920839D01*
X78195147Y-96900492D01*
X78246716Y-96870720D01*
X78358520Y-96758916D01*
X78358521Y-96758913D01*
X80061366Y-95056067D01*
X80115881Y-95028292D01*
X80176313Y-95037863D01*
X80213682Y-95071070D01*
X80220509Y-95081287D01*
X80220510Y-95081288D01*
X80220511Y-95081289D01*
X80332011Y-95192789D01*
X80410176Y-95245017D01*
X80463114Y-95280390D01*
X80463125Y-95280396D01*
X80516938Y-95302685D01*
X80608803Y-95340737D01*
X80763458Y-95371500D01*
X80763459Y-95371500D01*
X80921141Y-95371500D01*
X80921142Y-95371500D01*
X81075797Y-95340737D01*
X81221479Y-95280394D01*
X81352589Y-95192789D01*
X81464089Y-95081289D01*
X81551694Y-94950179D01*
X81612037Y-94804497D01*
X81642800Y-94649842D01*
X81642800Y-94492158D01*
X81612037Y-94337503D01*
X81591922Y-94288942D01*
X81551696Y-94191825D01*
X81551690Y-94191814D01*
X81516317Y-94138876D01*
X81464089Y-94060711D01*
X81464084Y-94060706D01*
X81464081Y-94060702D01*
X81352586Y-93949208D01*
X81338794Y-93939993D01*
X81331053Y-93930174D01*
X81320222Y-93923921D01*
X81312565Y-93906724D01*
X81300913Y-93891944D01*
X81300422Y-93879448D01*
X81295336Y-93868025D01*
X81299249Y-93849612D01*
X81298511Y-93830806D01*
X81308055Y-93808183D01*
X81358678Y-93720501D01*
X81385477Y-93674085D01*
X81385477Y-93674081D01*
X81387955Y-93669791D01*
X81403685Y-93649291D01*
X81447689Y-93605289D01*
X81491194Y-93540179D01*
X81535290Y-93474186D01*
X81535296Y-93474174D01*
X81595637Y-93328497D01*
X81626400Y-93173842D01*
X81626400Y-93016158D01*
X81595637Y-92861503D01*
X81535294Y-92715821D01*
X81535293Y-92715819D01*
X81535290Y-92715814D01*
X81499747Y-92662621D01*
X81447689Y-92584711D01*
X81336189Y-92473211D01*
X81283959Y-92438312D01*
X81205085Y-92385609D01*
X81205074Y-92385603D01*
X81059397Y-92325263D01*
X80904744Y-92294500D01*
X80904742Y-92294500D01*
X80747058Y-92294500D01*
X80747055Y-92294500D01*
X80592403Y-92325263D01*
X80592401Y-92325263D01*
X80446725Y-92385603D01*
X80446714Y-92385609D01*
X80315611Y-92473211D01*
X80315607Y-92473214D01*
X80204114Y-92584707D01*
X80204111Y-92584711D01*
X80116509Y-92715814D01*
X80116503Y-92715825D01*
X80056163Y-92861501D01*
X80056163Y-92861503D01*
X80025400Y-93016155D01*
X80025400Y-93173845D01*
X80051530Y-93305209D01*
X80044338Y-93365971D01*
X80024436Y-93394527D01*
X78452044Y-94966919D01*
X78397527Y-94994696D01*
X78337095Y-94985125D01*
X78310526Y-94963751D01*
X78309928Y-94964350D01*
X78194992Y-94849414D01*
X78194989Y-94849411D01*
X78127769Y-94804496D01*
X78063885Y-94761809D01*
X78063874Y-94761803D01*
X77918197Y-94701463D01*
X77763544Y-94670700D01*
X77763542Y-94670700D01*
X77736108Y-94670700D01*
X77677917Y-94651793D01*
X77641953Y-94602293D01*
X77641953Y-94541107D01*
X77666104Y-94501696D01*
X79306299Y-92861501D01*
X80967827Y-91199972D01*
X81018516Y-91172880D01*
X81048897Y-91166837D01*
X81194579Y-91106494D01*
X81325689Y-91018889D01*
X81437189Y-90907389D01*
X81524794Y-90776279D01*
X81585137Y-90630597D01*
X81615900Y-90475942D01*
X81615900Y-90318258D01*
X81585137Y-90163603D01*
X81524794Y-90017921D01*
X81524793Y-90017919D01*
X81524790Y-90017914D01*
X81489417Y-89964976D01*
X81437189Y-89886811D01*
X81325689Y-89775311D01*
X81273459Y-89740412D01*
X81194585Y-89687709D01*
X81194574Y-89687703D01*
X81048897Y-89627363D01*
X80894244Y-89596600D01*
X80894242Y-89596600D01*
X80736558Y-89596600D01*
X80736555Y-89596600D01*
X80581903Y-89627363D01*
X80581901Y-89627363D01*
X80436225Y-89687703D01*
X80436214Y-89687709D01*
X80305111Y-89775311D01*
X80305107Y-89775314D01*
X80193614Y-89886807D01*
X80193611Y-89886811D01*
X80106009Y-90017914D01*
X80106003Y-90017925D01*
X80045663Y-90163600D01*
X80045661Y-90163607D01*
X80039618Y-90193985D01*
X80012525Y-90244672D01*
X75052601Y-95204598D01*
X74978683Y-95315223D01*
X74978679Y-95315232D01*
X74927760Y-95438160D01*
X74927758Y-95438166D01*
X74905505Y-95550042D01*
X74901800Y-95568664D01*
X74901800Y-97505200D01*
X74882893Y-97563391D01*
X74833393Y-97599355D01*
X74802800Y-97604200D01*
X74459937Y-97604200D01*
X74404936Y-97587516D01*
X74379176Y-97570304D01*
X74233497Y-97509963D01*
X74078844Y-97479200D01*
X74078842Y-97479200D01*
X73921158Y-97479200D01*
X73921155Y-97479200D01*
X73766503Y-97509963D01*
X73766501Y-97509963D01*
X73620825Y-97570303D01*
X73620814Y-97570309D01*
X73489711Y-97657911D01*
X73489707Y-97657914D01*
X73378214Y-97769407D01*
X73378211Y-97769411D01*
X73290609Y-97900514D01*
X73290603Y-97900525D01*
X73230263Y-98046201D01*
X73230263Y-98046203D01*
X73199500Y-98200855D01*
X70625500Y-98200855D01*
X70625500Y-97588700D01*
X70644407Y-97530509D01*
X70693907Y-97494545D01*
X70724500Y-97489700D01*
X70762941Y-97489700D01*
X70762942Y-97489700D01*
X70917597Y-97458937D01*
X71063279Y-97398594D01*
X71194389Y-97310989D01*
X71305889Y-97199489D01*
X71393494Y-97068379D01*
X71453837Y-96922697D01*
X71484600Y-96768042D01*
X71484600Y-96610358D01*
X71453837Y-96455703D01*
X71433722Y-96407142D01*
X71393496Y-96310025D01*
X71393490Y-96310014D01*
X71358117Y-96257076D01*
X71305889Y-96178911D01*
X71194389Y-96067411D01*
X71142159Y-96032512D01*
X71063285Y-95979809D01*
X71063272Y-95979802D01*
X71039234Y-95969845D01*
X70992709Y-95930108D01*
X70978426Y-95870613D01*
X71001842Y-95814085D01*
X71022112Y-95796072D01*
X71087789Y-95752189D01*
X71199289Y-95640689D01*
X71286894Y-95509579D01*
X71347237Y-95363897D01*
X71378000Y-95209242D01*
X71378000Y-95051558D01*
X71347237Y-94896903D01*
X71308962Y-94804498D01*
X71286896Y-94751225D01*
X71286890Y-94751214D01*
X71251135Y-94697704D01*
X71199289Y-94620111D01*
X71087789Y-94508611D01*
X71035559Y-94473712D01*
X70956685Y-94421009D01*
X70956674Y-94421003D01*
X70810997Y-94360663D01*
X70656344Y-94329900D01*
X70656342Y-94329900D01*
X70498658Y-94329900D01*
X70498655Y-94329900D01*
X70344003Y-94360663D01*
X70344001Y-94360663D01*
X70198325Y-94421003D01*
X70198314Y-94421009D01*
X70067211Y-94508611D01*
X70067207Y-94508614D01*
X69955714Y-94620107D01*
X69955711Y-94620111D01*
X69868109Y-94751214D01*
X69868103Y-94751225D01*
X69807763Y-94896901D01*
X69784162Y-95015551D01*
X69757068Y-95066239D01*
X69603074Y-95220233D01*
X69603055Y-95220253D01*
X69601269Y-95222040D01*
X69601267Y-95222042D01*
X69514142Y-95309167D01*
X69493048Y-95340737D01*
X69489069Y-95346691D01*
X69489066Y-95346695D01*
X69445689Y-95411611D01*
X69445686Y-95411617D01*
X69434541Y-95438526D01*
X69398537Y-95525446D01*
X69398537Y-95525448D01*
X69374500Y-95646291D01*
X69374500Y-107242581D01*
X69355593Y-107300772D01*
X69306093Y-107336736D01*
X69297530Y-107339099D01*
X69237360Y-107352832D01*
X68945774Y-107454863D01*
X68667433Y-107588905D01*
X68405856Y-107753265D01*
X68164327Y-107945879D01*
X67945879Y-108164327D01*
X67753265Y-108405856D01*
X67588905Y-108667433D01*
X67454863Y-108945774D01*
X67352832Y-109237362D01*
X67284088Y-109538549D01*
X67249500Y-109845533D01*
X57228973Y-109845533D01*
X57230534Y-109831677D01*
X57230534Y-109831673D01*
X57237471Y-109770093D01*
X57250500Y-109654465D01*
X57250500Y-109345535D01*
X57215911Y-109038548D01*
X57147168Y-108737364D01*
X57045135Y-108445771D01*
X56911095Y-108167435D01*
X56878259Y-108115178D01*
X56863310Y-108055852D01*
X56886088Y-107999065D01*
X56892071Y-107992517D01*
X59403394Y-105481196D01*
X59457911Y-105453419D01*
X59473398Y-105452200D01*
X59823934Y-105452200D01*
X59878936Y-105468885D01*
X59979513Y-105536090D01*
X59979525Y-105536096D01*
X60033338Y-105558385D01*
X60125203Y-105596437D01*
X60279858Y-105627200D01*
X60279859Y-105627200D01*
X60437541Y-105627200D01*
X60437542Y-105627200D01*
X60592197Y-105596437D01*
X60737879Y-105536094D01*
X60868989Y-105448489D01*
X60980489Y-105336989D01*
X61068094Y-105205879D01*
X61128437Y-105060197D01*
X61159200Y-104905542D01*
X61159200Y-104747858D01*
X61128437Y-104593203D01*
X61068094Y-104447521D01*
X61068093Y-104447519D01*
X61068090Y-104447514D01*
X60996813Y-104340842D01*
X60980489Y-104316411D01*
X60868989Y-104204911D01*
X60816759Y-104170012D01*
X60737885Y-104117309D01*
X60737874Y-104117303D01*
X60592197Y-104056963D01*
X60437544Y-104026200D01*
X60437542Y-104026200D01*
X60279858Y-104026200D01*
X60279855Y-104026200D01*
X60125203Y-104056963D01*
X60125201Y-104056963D01*
X59979525Y-104117303D01*
X59979513Y-104117309D01*
X59878936Y-104184515D01*
X59823934Y-104201200D01*
X59111688Y-104201200D01*
X59051270Y-104213217D01*
X59051271Y-104213218D01*
X58990850Y-104225236D01*
X58990844Y-104225238D01*
X58877014Y-104272388D01*
X58774567Y-104340842D01*
X58774563Y-104340845D01*
X58687439Y-104427970D01*
X56007492Y-107107916D01*
X55952975Y-107135693D01*
X55892543Y-107126122D01*
X55884829Y-107121745D01*
X55832565Y-107088905D01*
X55554229Y-106954865D01*
X55554225Y-106954863D01*
X55262637Y-106852832D01*
X54961450Y-106784088D01*
X54654466Y-106749500D01*
X54654465Y-106749500D01*
X54345535Y-106749500D01*
X54345533Y-106749500D01*
X54038549Y-106784088D01*
X53737362Y-106852832D01*
X53445774Y-106954863D01*
X53167433Y-107088905D01*
X52905856Y-107253265D01*
X52664327Y-107445879D01*
X52445879Y-107664327D01*
X52253265Y-107905856D01*
X52088905Y-108167433D01*
X51954863Y-108445774D01*
X51852832Y-108737362D01*
X51784088Y-109038549D01*
X51749500Y-109345533D01*
X46925000Y-109345533D01*
X46925000Y-102685855D01*
X61337500Y-102685855D01*
X61337500Y-102843544D01*
X61368263Y-102998196D01*
X61368263Y-102998198D01*
X61428603Y-103143874D01*
X61428609Y-103143885D01*
X61481312Y-103222759D01*
X61516211Y-103274989D01*
X61627711Y-103386489D01*
X61705876Y-103438717D01*
X61758814Y-103474090D01*
X61758825Y-103474096D01*
X61812638Y-103496385D01*
X61904503Y-103534437D01*
X62059158Y-103565200D01*
X62059159Y-103565200D01*
X62216841Y-103565200D01*
X62216842Y-103565200D01*
X62371497Y-103534437D01*
X62517179Y-103474094D01*
X62648289Y-103386489D01*
X62759789Y-103274989D01*
X62847394Y-103143879D01*
X62907737Y-102998197D01*
X62938500Y-102843542D01*
X62938500Y-102685858D01*
X62907737Y-102531203D01*
X62847394Y-102385521D01*
X62847393Y-102385519D01*
X62847390Y-102385514D01*
X62812017Y-102332576D01*
X62759789Y-102254411D01*
X62648289Y-102142911D01*
X62596059Y-102108012D01*
X62517185Y-102055309D01*
X62517174Y-102055303D01*
X62371497Y-101994963D01*
X62216844Y-101964200D01*
X62216842Y-101964200D01*
X62059158Y-101964200D01*
X62059155Y-101964200D01*
X61904503Y-101994963D01*
X61904501Y-101994963D01*
X61758825Y-102055303D01*
X61758814Y-102055309D01*
X61627711Y-102142911D01*
X61627707Y-102142914D01*
X61516214Y-102254407D01*
X61516211Y-102254411D01*
X61428609Y-102385514D01*
X61428603Y-102385525D01*
X61368263Y-102531201D01*
X61368263Y-102531203D01*
X61337500Y-102685855D01*
X46925000Y-102685855D01*
X46925000Y-94845533D01*
X51249500Y-94845533D01*
X51249500Y-95154466D01*
X51284088Y-95461450D01*
X51352832Y-95762637D01*
X51454863Y-96054225D01*
X51588905Y-96332566D01*
X51674659Y-96469042D01*
X51753265Y-96594143D01*
X51945880Y-96835674D01*
X52164326Y-97054120D01*
X52405857Y-97246735D01*
X52508111Y-97310985D01*
X52647539Y-97398594D01*
X52667435Y-97411095D01*
X52945771Y-97545135D01*
X53237364Y-97647168D01*
X53538548Y-97715911D01*
X53845535Y-97750500D01*
X53845536Y-97750500D01*
X54154464Y-97750500D01*
X54154465Y-97750500D01*
X54461452Y-97715911D01*
X54762636Y-97647168D01*
X55054229Y-97545135D01*
X55332565Y-97411095D01*
X55594143Y-97246735D01*
X55835674Y-97054120D01*
X56054120Y-96835674D01*
X56246735Y-96594143D01*
X56411095Y-96332565D01*
X56545135Y-96054229D01*
X56647168Y-95762636D01*
X56715911Y-95461452D01*
X56750500Y-95154465D01*
X56750500Y-94845535D01*
X56715911Y-94538548D01*
X56647168Y-94237364D01*
X56545135Y-93945771D01*
X56411095Y-93667435D01*
X56408678Y-93663589D01*
X56289661Y-93474174D01*
X56246735Y-93405857D01*
X56054120Y-93164326D01*
X55835674Y-92945880D01*
X55594143Y-92753265D01*
X55332566Y-92588905D01*
X55054225Y-92454863D01*
X54762637Y-92352832D01*
X54461450Y-92284088D01*
X54154466Y-92249500D01*
X54154465Y-92249500D01*
X53845535Y-92249500D01*
X53845533Y-92249500D01*
X53538549Y-92284088D01*
X53237362Y-92352832D01*
X52945774Y-92454863D01*
X52667433Y-92588905D01*
X52405856Y-92753265D01*
X52164327Y-92945879D01*
X51945879Y-93164327D01*
X51753265Y-93405856D01*
X51588905Y-93667433D01*
X51521127Y-93808176D01*
X51454865Y-93945771D01*
X51454865Y-93945772D01*
X51454864Y-93945772D01*
X51352832Y-94237362D01*
X51284088Y-94538549D01*
X51249500Y-94845533D01*
X46925000Y-94845533D01*
X46925000Y-77845533D01*
X51249500Y-77845533D01*
X51249500Y-78154466D01*
X51284088Y-78461450D01*
X51352832Y-78762637D01*
X51454863Y-79054225D01*
X51588905Y-79332566D01*
X51753265Y-79594143D01*
X51945880Y-79835674D01*
X52164326Y-80054120D01*
X52405857Y-80246735D01*
X52667435Y-80411095D01*
X52945771Y-80545135D01*
X52945774Y-80545136D01*
X53237360Y-80647167D01*
X53297529Y-80660900D01*
X53350054Y-80692282D01*
X53374101Y-80748543D01*
X53374500Y-80757418D01*
X53374500Y-81738309D01*
X53398537Y-81859150D01*
X53398537Y-81859152D01*
X53445686Y-81972983D01*
X53479915Y-82024209D01*
X53514143Y-82075435D01*
X53601268Y-82162559D01*
X53601269Y-82162559D01*
X59400768Y-87962059D01*
X59427862Y-88012749D01*
X59441774Y-88082690D01*
X59451463Y-88131396D01*
X59451463Y-88131398D01*
X59511803Y-88277074D01*
X59511809Y-88277085D01*
X59564512Y-88355959D01*
X59599411Y-88408189D01*
X59710911Y-88519689D01*
X59789076Y-88571917D01*
X59842014Y-88607290D01*
X59842025Y-88607296D01*
X59895838Y-88629585D01*
X59987703Y-88667637D01*
X60142358Y-88698400D01*
X60142359Y-88698400D01*
X60300041Y-88698400D01*
X60300042Y-88698400D01*
X60454697Y-88667637D01*
X60600379Y-88607294D01*
X60731489Y-88519689D01*
X60842989Y-88408189D01*
X60930594Y-88277079D01*
X60990937Y-88131397D01*
X61021700Y-87976742D01*
X61021700Y-87819058D01*
X60990937Y-87664403D01*
X60930594Y-87518721D01*
X60930593Y-87518719D01*
X60930590Y-87518714D01*
X60895217Y-87465776D01*
X60842989Y-87387611D01*
X60749833Y-87294455D01*
X62872900Y-87294455D01*
X62872900Y-87452144D01*
X62903663Y-87606796D01*
X62903663Y-87606798D01*
X62964003Y-87752474D01*
X62964009Y-87752485D01*
X63008491Y-87819055D01*
X63051611Y-87883589D01*
X63163111Y-87995089D01*
X63241276Y-88047317D01*
X63294214Y-88082690D01*
X63294225Y-88082696D01*
X63348038Y-88104985D01*
X63439903Y-88143037D01*
X63558551Y-88166637D01*
X63609241Y-88193731D01*
X67808804Y-92393294D01*
X67812430Y-92400411D01*
X67818893Y-92405107D01*
X67826056Y-92427155D01*
X67836581Y-92447811D01*
X67837800Y-92463298D01*
X67837800Y-92507032D01*
X67821116Y-92562033D01*
X67753904Y-92662623D01*
X67693563Y-92808301D01*
X67693563Y-92808303D01*
X67662800Y-92962955D01*
X67662800Y-93120644D01*
X67693563Y-93275296D01*
X67693563Y-93275298D01*
X67753903Y-93420974D01*
X67753909Y-93420985D01*
X67806612Y-93499859D01*
X67841511Y-93552089D01*
X67953011Y-93663589D01*
X68031176Y-93715817D01*
X68084114Y-93751190D01*
X68084125Y-93751196D01*
X68137938Y-93773485D01*
X68229803Y-93811537D01*
X68384458Y-93842300D01*
X68384459Y-93842300D01*
X68542141Y-93842300D01*
X68542142Y-93842300D01*
X68696797Y-93811537D01*
X68842479Y-93751194D01*
X68973589Y-93663589D01*
X69085089Y-93552089D01*
X69172694Y-93420979D01*
X69233037Y-93275297D01*
X69242096Y-93229755D01*
X69881400Y-93229755D01*
X69881400Y-93387444D01*
X69912163Y-93542096D01*
X69912163Y-93542098D01*
X69972503Y-93687774D01*
X69972509Y-93687785D01*
X70014880Y-93751196D01*
X70060111Y-93818889D01*
X70171611Y-93930389D01*
X70249776Y-93982617D01*
X70302714Y-94017990D01*
X70302725Y-94017996D01*
X70356538Y-94040285D01*
X70448403Y-94078337D01*
X70603058Y-94109100D01*
X70603059Y-94109100D01*
X70760741Y-94109100D01*
X70760742Y-94109100D01*
X70915397Y-94078337D01*
X71061079Y-94017994D01*
X71192189Y-93930389D01*
X71303689Y-93818889D01*
X71391294Y-93687779D01*
X71451637Y-93542097D01*
X71482400Y-93387442D01*
X71482400Y-93229758D01*
X71451637Y-93075103D01*
X71405186Y-92962959D01*
X71391296Y-92929425D01*
X71391290Y-92929414D01*
X71355917Y-92876476D01*
X71303689Y-92798311D01*
X71192189Y-92686811D01*
X71139959Y-92651912D01*
X71061085Y-92599209D01*
X71061074Y-92599203D01*
X70915397Y-92538863D01*
X70760744Y-92508100D01*
X70760742Y-92508100D01*
X70603058Y-92508100D01*
X70603055Y-92508100D01*
X70448403Y-92538863D01*
X70448401Y-92538863D01*
X70302725Y-92599203D01*
X70302714Y-92599209D01*
X70171611Y-92686811D01*
X70171607Y-92686814D01*
X70060114Y-92798307D01*
X70060111Y-92798311D01*
X69972509Y-92929414D01*
X69972503Y-92929425D01*
X69912163Y-93075101D01*
X69912163Y-93075103D01*
X69881400Y-93229755D01*
X69242096Y-93229755D01*
X69263800Y-93120642D01*
X69263800Y-92962958D01*
X69233037Y-92808303D01*
X69172694Y-92662621D01*
X69105484Y-92562033D01*
X69088800Y-92507032D01*
X69088800Y-92229707D01*
X69088801Y-92229686D01*
X69088801Y-92101595D01*
X69088801Y-92101594D01*
X69064763Y-91980749D01*
X69017613Y-91866917D01*
X69017613Y-91866916D01*
X68949158Y-91764467D01*
X64627994Y-87443303D01*
X64600217Y-87388786D01*
X64609788Y-87328354D01*
X64627994Y-87303295D01*
X65378421Y-86552868D01*
X70485858Y-81445433D01*
X70554312Y-81342985D01*
X70601463Y-81229151D01*
X70625501Y-81108306D01*
X70625501Y-80985093D01*
X70625501Y-80981016D01*
X70625500Y-80980990D01*
X70625500Y-80757418D01*
X70644407Y-80699227D01*
X70693907Y-80663263D01*
X70702471Y-80660900D01*
X70762636Y-80647168D01*
X71054229Y-80545135D01*
X71332565Y-80411095D01*
X71594143Y-80246735D01*
X71835674Y-80054120D01*
X72054120Y-79835674D01*
X72246735Y-79594143D01*
X72411095Y-79332565D01*
X72545135Y-79054229D01*
X72647168Y-78762636D01*
X72715911Y-78461452D01*
X72750500Y-78154465D01*
X72750500Y-77845535D01*
X72715911Y-77538548D01*
X72647168Y-77237364D01*
X72545135Y-76945771D01*
X72411095Y-76667435D01*
X72246735Y-76405857D01*
X72054120Y-76164326D01*
X71835674Y-75945880D01*
X71594143Y-75753265D01*
X71332566Y-75588905D01*
X71054225Y-75454863D01*
X70762637Y-75352832D01*
X70461450Y-75284088D01*
X70154466Y-75249500D01*
X70154465Y-75249500D01*
X69845535Y-75249500D01*
X69845533Y-75249500D01*
X69538549Y-75284088D01*
X69237362Y-75352832D01*
X68945774Y-75454863D01*
X68667433Y-75588905D01*
X68405856Y-75753265D01*
X68164327Y-75945879D01*
X67945879Y-76164327D01*
X67753265Y-76405856D01*
X67588905Y-76667433D01*
X67454863Y-76945774D01*
X67352832Y-77237362D01*
X67284088Y-77538549D01*
X67249500Y-77845533D01*
X67249500Y-78154466D01*
X67284088Y-78461450D01*
X67352832Y-78762637D01*
X67454863Y-79054225D01*
X67588905Y-79332566D01*
X67753265Y-79594143D01*
X67945880Y-79835674D01*
X68164326Y-80054120D01*
X68405857Y-80246735D01*
X68667435Y-80411095D01*
X68945771Y-80545135D01*
X69237364Y-80647168D01*
X69287115Y-80658523D01*
X69288722Y-80658890D01*
X69341246Y-80690272D01*
X69365293Y-80746534D01*
X69351678Y-80806185D01*
X69336696Y-80825412D01*
X63609240Y-86552868D01*
X63558551Y-86579962D01*
X63439901Y-86603563D01*
X63294225Y-86663903D01*
X63294214Y-86663909D01*
X63163111Y-86751511D01*
X63163107Y-86751514D01*
X63051614Y-86863007D01*
X63051611Y-86863011D01*
X62964009Y-86994114D01*
X62964003Y-86994125D01*
X62903663Y-87139801D01*
X62903663Y-87139803D01*
X62872900Y-87294455D01*
X60749833Y-87294455D01*
X60731489Y-87276111D01*
X60679259Y-87241212D01*
X60600385Y-87188509D01*
X60600374Y-87188503D01*
X60454697Y-87128163D01*
X60336049Y-87104562D01*
X60285359Y-87077468D01*
X54654496Y-81446605D01*
X54626719Y-81392088D01*
X54625500Y-81376601D01*
X54625500Y-80757418D01*
X54644407Y-80699227D01*
X54693907Y-80663263D01*
X54702471Y-80660900D01*
X54762636Y-80647168D01*
X55054229Y-80545135D01*
X55332565Y-80411095D01*
X55594143Y-80246735D01*
X55835674Y-80054120D01*
X56054120Y-79835674D01*
X56246735Y-79594143D01*
X56411095Y-79332565D01*
X56545135Y-79054229D01*
X56647168Y-78762636D01*
X56715911Y-78461452D01*
X56750500Y-78154465D01*
X56750500Y-77845535D01*
X56715911Y-77538548D01*
X56647168Y-77237364D01*
X56545135Y-76945771D01*
X56411095Y-76667435D01*
X56246735Y-76405857D01*
X56054120Y-76164326D01*
X55835674Y-75945880D01*
X55594143Y-75753265D01*
X55332566Y-75588905D01*
X55054225Y-75454863D01*
X54762637Y-75352832D01*
X54461450Y-75284088D01*
X54154466Y-75249500D01*
X54154465Y-75249500D01*
X53845535Y-75249500D01*
X53845533Y-75249500D01*
X53538549Y-75284088D01*
X53237362Y-75352832D01*
X52945774Y-75454863D01*
X52667433Y-75588905D01*
X52405856Y-75753265D01*
X52164327Y-75945879D01*
X51945879Y-76164327D01*
X51753265Y-76405856D01*
X51588905Y-76667433D01*
X51454863Y-76945774D01*
X51352832Y-77237362D01*
X51284088Y-77538549D01*
X51249500Y-77845533D01*
X46925000Y-77845533D01*
X46925000Y-66358918D01*
X46939084Y-66308023D01*
X47087780Y-66059938D01*
X47093163Y-66051883D01*
X47291957Y-65783841D01*
X47298107Y-65776346D01*
X47522228Y-65529067D01*
X47529067Y-65522228D01*
X47776346Y-65298107D01*
X47783841Y-65291957D01*
X48051883Y-65093163D01*
X48059938Y-65087780D01*
X48308023Y-64939085D01*
X48358919Y-64925000D01*
X87901000Y-64925000D01*
X87959191Y-64943907D01*
G37*
%TD.AperFunction*%
%TD*%
M02*
