M48
; DRILL file KiCad 10.0.1 date 2026-09-04T14:43:07
; FORMAT={-:-/ absolute / metric / decimal}
; #@! TF.CreationDate,2026-09-04T14:43:07-05:00
; #@! TF.GenerationSoftware,Kicad,Pcbnew,10.0.1
; #@! TF.FileFunction,Plated,1,4,PTH
FMAT,2
METRIC
; #@! TA.AperFunction,Plated,PTH,ViaDrill
T1C0.300
; #@! TA.AperFunction,Plated,PTH,ViaDrill
T2C0.400
; #@! TA.AperFunction,Plated,PTH,ComponentDrill
T3C0.700
; #@! TA.AperFunction,Plated,PTH,ComponentDrill
T4C0.800
; #@! TA.AperFunction,Plated,PTH,ComponentDrill
T5C2.000
%
G90
G05
T1
X60.221Y-87.898
X60.359Y-104.827
X62.138Y-102.765
X62.95Y-88.98
X63.654Y-104.739
X63.673Y-87.373
X63.71Y-96.258
X68.463Y-93.042
X70.578Y-95.13
X70.682Y-93.309
X70.684Y-96.689
X71.483Y-89.317
X74.0Y-95.0
X74.0Y-98.28
X76.012Y-86.34
X77.259Y-96.39
X77.685Y-95.471
X77.845Y-77.957
X80.815Y-90.397
X80.826Y-93.095
X80.842Y-94.571
X80.843Y-99.445
X97.153Y-97.106
X97.156Y-94.455
X97.167Y-99.445
X97.169Y-93.095
X97.174Y-95.882
X97.184Y-90.757
X101.491Y-88.635
X102.331Y-107.625
X102.907Y-93.075
X103.113Y-99.3
X103.133Y-94.55
X103.23Y-98.1
X104.683Y-100.759
X104.69Y-99.941
X105.23Y-74.085
X105.593Y-106.839
X106.83Y-95.05
X107.338Y-106.586
X108.2Y-104.058
X108.9Y-101.944
X108.905Y-73.25
X109.814Y-101.934
X110.677Y-101.929
X111.428Y-101.85
X111.831Y-114.23
X114.734Y-97.0
X118.521Y-74.679
X120.0Y-73.256
X120.538Y-114.762
X123.519Y-74.681
X125.923Y-94.75
X125.923Y-96.05
T2
X105.882Y-109.005
X110.092Y-114.894
X120.498Y-112.438
X122.104Y-117.256
X124.663Y-116.363
X125.79Y-97.4
T3
X130.0Y-90.7
X130.0Y-99.3
T4
X85.19Y-115.0
X87.73Y-115.0
X90.27Y-115.0
X92.81Y-115.0
X127.0Y-108.0
X129.0Y-108.0
T5
X54.0Y-78.0
X54.0Y-95.0
X54.5Y-109.5
X70.0Y-78.0
X70.0Y-110.0
M30
