%TF.GenerationSoftware,KiCad,Pcbnew,10.0.1*%
%TF.CreationDate,2026-08-28T14:36:24-05:00*%
%TF.ProjectId,BIOCHEST-ECG-EMG,42494f43-4845-4535-942d-4543472d454d,rev?*%
%TF.SameCoordinates,Original*%
%TF.FileFunction,Legend,Top*%
%TF.FilePolarity,Positive*%
%FSLAX46Y46*%
G04 Gerber Fmt 4.6, Leading zero omitted, Abs format (unit mm)*
G04 Created by KiCad (PCBNEW 10.0.1) date 2026-08-28 14:36:24*
%MOMM*%
%LPD*%
G01*
G04 APERTURE LIST*
%ADD10C,0.150000*%
%ADD11C,0.090000*%
%ADD12C,0.100000*%
%ADD13C,0.110000*%
%ADD14C,0.140000*%
G04 APERTURE END LIST*
D10*
X95000000Y-85000000D02*
X95000000Y-86650000D01*
X95000000Y-87250000D02*
X95000000Y-88900000D01*
X95000000Y-89500000D02*
X95000000Y-91150000D01*
X95000000Y-91750000D02*
X95000000Y-93400000D01*
X95000000Y-94000000D02*
X95000000Y-95650000D01*
X95000000Y-96250000D02*
X95000000Y-97900000D01*
X95000000Y-98500000D02*
X95000000Y-100150000D01*
X95000000Y-100750000D02*
X95000000Y-102400000D01*
X95000000Y-103000000D02*
X95000000Y-104650000D01*
X95000000Y-105250000D02*
X95000000Y-106900000D01*
X95000000Y-107500000D02*
X95000000Y-109150000D01*
X95000000Y-109750000D02*
X95000000Y-111400000D01*
X95000000Y-112000000D02*
X95000000Y-113650000D01*
X95000000Y-114250000D02*
X95000000Y-115000000D01*
D11*
X94672891Y-88157142D02*
X94672891Y-88442856D01*
X94672891Y-88442856D02*
X94958605Y-88471428D01*
X94958605Y-88471428D02*
X94930034Y-88442856D01*
X94930034Y-88442856D02*
X94901462Y-88385714D01*
X94901462Y-88385714D02*
X94901462Y-88242856D01*
X94901462Y-88242856D02*
X94930034Y-88185714D01*
X94930034Y-88185714D02*
X94958605Y-88157142D01*
X94958605Y-88157142D02*
X95015748Y-88128571D01*
X95015748Y-88128571D02*
X95158605Y-88128571D01*
X95158605Y-88128571D02*
X95215748Y-88157142D01*
X95215748Y-88157142D02*
X95244320Y-88185714D01*
X95244320Y-88185714D02*
X95272891Y-88242856D01*
X95272891Y-88242856D02*
X95272891Y-88385714D01*
X95272891Y-88385714D02*
X95244320Y-88442856D01*
X95244320Y-88442856D02*
X95215748Y-88471428D01*
X95272891Y-87871427D02*
X94672891Y-87871427D01*
X95044320Y-87814285D02*
X95272891Y-87642856D01*
X94872891Y-87642856D02*
X95101462Y-87871427D01*
X94672891Y-87471428D02*
X95272891Y-87271428D01*
X95272891Y-87271428D02*
X94672891Y-87071428D01*
X95272891Y-86871427D02*
X94872891Y-86871427D01*
X94987177Y-86871427D02*
X94930034Y-86842856D01*
X94930034Y-86842856D02*
X94901462Y-86814285D01*
X94901462Y-86814285D02*
X94872891Y-86757142D01*
X94872891Y-86757142D02*
X94872891Y-86699999D01*
X95272891Y-86499998D02*
X94872891Y-86499998D01*
X94930034Y-86499998D02*
X94901462Y-86471427D01*
X94901462Y-86471427D02*
X94872891Y-86414284D01*
X94872891Y-86414284D02*
X94872891Y-86328570D01*
X94872891Y-86328570D02*
X94901462Y-86271427D01*
X94901462Y-86271427D02*
X94958605Y-86242856D01*
X94958605Y-86242856D02*
X95272891Y-86242856D01*
X94958605Y-86242856D02*
X94901462Y-86214284D01*
X94901462Y-86214284D02*
X94872891Y-86157141D01*
X94872891Y-86157141D02*
X94872891Y-86071427D01*
X94872891Y-86071427D02*
X94901462Y-86014284D01*
X94901462Y-86014284D02*
X94958605Y-85985713D01*
X94958605Y-85985713D02*
X95272891Y-85985713D01*
X95244320Y-85728570D02*
X95272891Y-85671427D01*
X95272891Y-85671427D02*
X95272891Y-85557141D01*
X95272891Y-85557141D02*
X95244320Y-85499998D01*
X95244320Y-85499998D02*
X95187177Y-85471427D01*
X95187177Y-85471427D02*
X95158605Y-85471427D01*
X95158605Y-85471427D02*
X95101462Y-85499998D01*
X95101462Y-85499998D02*
X95072891Y-85557141D01*
X95072891Y-85557141D02*
X95072891Y-85642856D01*
X95072891Y-85642856D02*
X95044320Y-85699998D01*
X95044320Y-85699998D02*
X94987177Y-85728570D01*
X94987177Y-85728570D02*
X94958605Y-85728570D01*
X94958605Y-85728570D02*
X94901462Y-85699998D01*
X94901462Y-85699998D02*
X94872891Y-85642856D01*
X94872891Y-85642856D02*
X94872891Y-85557141D01*
X94872891Y-85557141D02*
X94901462Y-85499998D01*
X95272891Y-84757141D02*
X94672891Y-84757141D01*
X95244320Y-84499999D02*
X95272891Y-84414285D01*
X95272891Y-84414285D02*
X95272891Y-84271427D01*
X95272891Y-84271427D02*
X95244320Y-84214285D01*
X95244320Y-84214285D02*
X95215748Y-84185713D01*
X95215748Y-84185713D02*
X95158605Y-84157142D01*
X95158605Y-84157142D02*
X95101462Y-84157142D01*
X95101462Y-84157142D02*
X95044320Y-84185713D01*
X95044320Y-84185713D02*
X95015748Y-84214285D01*
X95015748Y-84214285D02*
X94987177Y-84271427D01*
X94987177Y-84271427D02*
X94958605Y-84385713D01*
X94958605Y-84385713D02*
X94930034Y-84442856D01*
X94930034Y-84442856D02*
X94901462Y-84471427D01*
X94901462Y-84471427D02*
X94844320Y-84499999D01*
X94844320Y-84499999D02*
X94787177Y-84499999D01*
X94787177Y-84499999D02*
X94730034Y-84471427D01*
X94730034Y-84471427D02*
X94701462Y-84442856D01*
X94701462Y-84442856D02*
X94672891Y-84385713D01*
X94672891Y-84385713D02*
X94672891Y-84242856D01*
X94672891Y-84242856D02*
X94701462Y-84157142D01*
X94672891Y-83785713D02*
X94672891Y-83671427D01*
X94672891Y-83671427D02*
X94701462Y-83614284D01*
X94701462Y-83614284D02*
X94758605Y-83557141D01*
X94758605Y-83557141D02*
X94872891Y-83528570D01*
X94872891Y-83528570D02*
X95072891Y-83528570D01*
X95072891Y-83528570D02*
X95187177Y-83557141D01*
X95187177Y-83557141D02*
X95244320Y-83614284D01*
X95244320Y-83614284D02*
X95272891Y-83671427D01*
X95272891Y-83671427D02*
X95272891Y-83785713D01*
X95272891Y-83785713D02*
X95244320Y-83842856D01*
X95244320Y-83842856D02*
X95187177Y-83899998D01*
X95187177Y-83899998D02*
X95072891Y-83928570D01*
X95072891Y-83928570D02*
X94872891Y-83928570D01*
X94872891Y-83928570D02*
X94758605Y-83899998D01*
X94758605Y-83899998D02*
X94701462Y-83842856D01*
X94701462Y-83842856D02*
X94672891Y-83785713D01*
X95272891Y-82985713D02*
X95272891Y-83271427D01*
X95272891Y-83271427D02*
X94672891Y-83271427D01*
X95101462Y-82814285D02*
X95101462Y-82528571D01*
X95272891Y-82871428D02*
X94672891Y-82671428D01*
X94672891Y-82671428D02*
X95272891Y-82471428D01*
X94672891Y-82357142D02*
X94672891Y-82014285D01*
X95272891Y-82185713D02*
X94672891Y-82185713D01*
X95272891Y-81814284D02*
X94672891Y-81814284D01*
X94672891Y-81414285D02*
X94672891Y-81299999D01*
X94672891Y-81299999D02*
X94701462Y-81242856D01*
X94701462Y-81242856D02*
X94758605Y-81185713D01*
X94758605Y-81185713D02*
X94872891Y-81157142D01*
X94872891Y-81157142D02*
X95072891Y-81157142D01*
X95072891Y-81157142D02*
X95187177Y-81185713D01*
X95187177Y-81185713D02*
X95244320Y-81242856D01*
X95244320Y-81242856D02*
X95272891Y-81299999D01*
X95272891Y-81299999D02*
X95272891Y-81414285D01*
X95272891Y-81414285D02*
X95244320Y-81471428D01*
X95244320Y-81471428D02*
X95187177Y-81528570D01*
X95187177Y-81528570D02*
X95072891Y-81557142D01*
X95072891Y-81557142D02*
X94872891Y-81557142D01*
X94872891Y-81557142D02*
X94758605Y-81528570D01*
X94758605Y-81528570D02*
X94701462Y-81471428D01*
X94701462Y-81471428D02*
X94672891Y-81414285D01*
X95272891Y-80899999D02*
X94672891Y-80899999D01*
X94672891Y-80899999D02*
X95272891Y-80557142D01*
X95272891Y-80557142D02*
X94672891Y-80557142D01*
D12*
X93966667Y-118318633D02*
X93966667Y-117618633D01*
X93966667Y-117618633D02*
X94233334Y-117618633D01*
X94233334Y-117618633D02*
X94300001Y-117651966D01*
X94300001Y-117651966D02*
X94333334Y-117685300D01*
X94333334Y-117685300D02*
X94366667Y-117751966D01*
X94366667Y-117751966D02*
X94366667Y-117851966D01*
X94366667Y-117851966D02*
X94333334Y-117918633D01*
X94333334Y-117918633D02*
X94300001Y-117951966D01*
X94300001Y-117951966D02*
X94233334Y-117985300D01*
X94233334Y-117985300D02*
X93966667Y-117985300D01*
X95066667Y-118251966D02*
X95033334Y-118285300D01*
X95033334Y-118285300D02*
X94933334Y-118318633D01*
X94933334Y-118318633D02*
X94866667Y-118318633D01*
X94866667Y-118318633D02*
X94766667Y-118285300D01*
X94766667Y-118285300D02*
X94700001Y-118218633D01*
X94700001Y-118218633D02*
X94666667Y-118151966D01*
X94666667Y-118151966D02*
X94633334Y-118018633D01*
X94633334Y-118018633D02*
X94633334Y-117918633D01*
X94633334Y-117918633D02*
X94666667Y-117785300D01*
X94666667Y-117785300D02*
X94700001Y-117718633D01*
X94700001Y-117718633D02*
X94766667Y-117651966D01*
X94766667Y-117651966D02*
X94866667Y-117618633D01*
X94866667Y-117618633D02*
X94933334Y-117618633D01*
X94933334Y-117618633D02*
X95033334Y-117651966D01*
X95033334Y-117651966D02*
X95066667Y-117685300D01*
X95600001Y-117951966D02*
X95700001Y-117985300D01*
X95700001Y-117985300D02*
X95733334Y-118018633D01*
X95733334Y-118018633D02*
X95766667Y-118085300D01*
X95766667Y-118085300D02*
X95766667Y-118185300D01*
X95766667Y-118185300D02*
X95733334Y-118251966D01*
X95733334Y-118251966D02*
X95700001Y-118285300D01*
X95700001Y-118285300D02*
X95633334Y-118318633D01*
X95633334Y-118318633D02*
X95366667Y-118318633D01*
X95366667Y-118318633D02*
X95366667Y-117618633D01*
X95366667Y-117618633D02*
X95600001Y-117618633D01*
X95600001Y-117618633D02*
X95666667Y-117651966D01*
X95666667Y-117651966D02*
X95700001Y-117685300D01*
X95700001Y-117685300D02*
X95733334Y-117751966D01*
X95733334Y-117751966D02*
X95733334Y-117818633D01*
X95733334Y-117818633D02*
X95700001Y-117885300D01*
X95700001Y-117885300D02*
X95666667Y-117918633D01*
X95666667Y-117918633D02*
X95600001Y-117951966D01*
X95600001Y-117951966D02*
X95366667Y-117951966D01*
X96000001Y-117618633D02*
X96166667Y-118318633D01*
X96166667Y-118318633D02*
X96300001Y-117818633D01*
X96300001Y-117818633D02*
X96433334Y-118318633D01*
X96433334Y-118318633D02*
X96600001Y-117618633D01*
X97166667Y-118318633D02*
X97166667Y-117951966D01*
X97166667Y-117951966D02*
X97133334Y-117885300D01*
X97133334Y-117885300D02*
X97066667Y-117851966D01*
X97066667Y-117851966D02*
X96933334Y-117851966D01*
X96933334Y-117851966D02*
X96866667Y-117885300D01*
X97166667Y-118285300D02*
X97100001Y-118318633D01*
X97100001Y-118318633D02*
X96933334Y-118318633D01*
X96933334Y-118318633D02*
X96866667Y-118285300D01*
X96866667Y-118285300D02*
X96833334Y-118218633D01*
X96833334Y-118218633D02*
X96833334Y-118151966D01*
X96833334Y-118151966D02*
X96866667Y-118085300D01*
X96866667Y-118085300D02*
X96933334Y-118051966D01*
X96933334Y-118051966D02*
X97100001Y-118051966D01*
X97100001Y-118051966D02*
X97166667Y-118018633D01*
X97433334Y-117851966D02*
X97600000Y-118318633D01*
X97766667Y-117851966D02*
X97600000Y-118318633D01*
X97600000Y-118318633D02*
X97533334Y-118485300D01*
X97533334Y-118485300D02*
X97500000Y-118518633D01*
X97500000Y-118518633D02*
X97433334Y-118551966D01*
X98866666Y-117851966D02*
X98866666Y-118318633D01*
X98700000Y-117585300D02*
X98533333Y-118085300D01*
X98533333Y-118085300D02*
X98966666Y-118085300D01*
X99566667Y-118318633D02*
X99233333Y-118318633D01*
X99233333Y-118318633D02*
X99233333Y-117618633D01*
X100700000Y-118318633D02*
X100300000Y-118318633D01*
X100500000Y-118318633D02*
X100500000Y-117618633D01*
X100500000Y-117618633D02*
X100433333Y-117718633D01*
X100433333Y-117718633D02*
X100366667Y-117785300D01*
X100366667Y-117785300D02*
X100300000Y-117818633D01*
X101000000Y-118251966D02*
X101033334Y-118285300D01*
X101033334Y-118285300D02*
X101000000Y-118318633D01*
X101000000Y-118318633D02*
X100966667Y-118285300D01*
X100966667Y-118285300D02*
X101000000Y-118251966D01*
X101000000Y-118251966D02*
X101000000Y-118318633D01*
X101633333Y-117618633D02*
X101500000Y-117618633D01*
X101500000Y-117618633D02*
X101433333Y-117651966D01*
X101433333Y-117651966D02*
X101400000Y-117685300D01*
X101400000Y-117685300D02*
X101333333Y-117785300D01*
X101333333Y-117785300D02*
X101300000Y-117918633D01*
X101300000Y-117918633D02*
X101300000Y-118185300D01*
X101300000Y-118185300D02*
X101333333Y-118251966D01*
X101333333Y-118251966D02*
X101366667Y-118285300D01*
X101366667Y-118285300D02*
X101433333Y-118318633D01*
X101433333Y-118318633D02*
X101566667Y-118318633D01*
X101566667Y-118318633D02*
X101633333Y-118285300D01*
X101633333Y-118285300D02*
X101666667Y-118251966D01*
X101666667Y-118251966D02*
X101700000Y-118185300D01*
X101700000Y-118185300D02*
X101700000Y-118018633D01*
X101700000Y-118018633D02*
X101666667Y-117951966D01*
X101666667Y-117951966D02*
X101633333Y-117918633D01*
X101633333Y-117918633D02*
X101566667Y-117885300D01*
X101566667Y-117885300D02*
X101433333Y-117885300D01*
X101433333Y-117885300D02*
X101366667Y-117918633D01*
X101366667Y-117918633D02*
X101333333Y-117951966D01*
X101333333Y-117951966D02*
X101300000Y-118018633D01*
X102000000Y-118318633D02*
X102000000Y-117851966D01*
X102000000Y-117918633D02*
X102033334Y-117885300D01*
X102033334Y-117885300D02*
X102100000Y-117851966D01*
X102100000Y-117851966D02*
X102200000Y-117851966D01*
X102200000Y-117851966D02*
X102266667Y-117885300D01*
X102266667Y-117885300D02*
X102300000Y-117951966D01*
X102300000Y-117951966D02*
X102300000Y-118318633D01*
X102300000Y-117951966D02*
X102333334Y-117885300D01*
X102333334Y-117885300D02*
X102400000Y-117851966D01*
X102400000Y-117851966D02*
X102500000Y-117851966D01*
X102500000Y-117851966D02*
X102566667Y-117885300D01*
X102566667Y-117885300D02*
X102600000Y-117951966D01*
X102600000Y-117951966D02*
X102600000Y-118318633D01*
X102933333Y-118318633D02*
X102933333Y-117851966D01*
X102933333Y-117918633D02*
X102966667Y-117885300D01*
X102966667Y-117885300D02*
X103033333Y-117851966D01*
X103033333Y-117851966D02*
X103133333Y-117851966D01*
X103133333Y-117851966D02*
X103200000Y-117885300D01*
X103200000Y-117885300D02*
X103233333Y-117951966D01*
X103233333Y-117951966D02*
X103233333Y-118318633D01*
X103233333Y-117951966D02*
X103266667Y-117885300D01*
X103266667Y-117885300D02*
X103333333Y-117851966D01*
X103333333Y-117851966D02*
X103433333Y-117851966D01*
X103433333Y-117851966D02*
X103500000Y-117885300D01*
X103500000Y-117885300D02*
X103533333Y-117951966D01*
X103533333Y-117951966D02*
X103533333Y-118318633D01*
X104633333Y-117951966D02*
X104399999Y-117951966D01*
X104399999Y-118318633D02*
X104399999Y-117618633D01*
X104399999Y-117618633D02*
X104733333Y-117618633D01*
X105399999Y-118318633D02*
X105166666Y-117985300D01*
X104999999Y-118318633D02*
X104999999Y-117618633D01*
X104999999Y-117618633D02*
X105266666Y-117618633D01*
X105266666Y-117618633D02*
X105333333Y-117651966D01*
X105333333Y-117651966D02*
X105366666Y-117685300D01*
X105366666Y-117685300D02*
X105399999Y-117751966D01*
X105399999Y-117751966D02*
X105399999Y-117851966D01*
X105399999Y-117851966D02*
X105366666Y-117918633D01*
X105366666Y-117918633D02*
X105333333Y-117951966D01*
X105333333Y-117951966D02*
X105266666Y-117985300D01*
X105266666Y-117985300D02*
X104999999Y-117985300D01*
X105999999Y-117851966D02*
X105999999Y-118318633D01*
X105833333Y-117585300D02*
X105666666Y-118085300D01*
X105666666Y-118085300D02*
X106099999Y-118085300D01*
D13*
X76783334Y-82818113D02*
X76783334Y-82118113D01*
X76783334Y-82118113D02*
X77050001Y-82118113D01*
X77050001Y-82118113D02*
X77116668Y-82151446D01*
X77116668Y-82151446D02*
X77150001Y-82184780D01*
X77150001Y-82184780D02*
X77183334Y-82251446D01*
X77183334Y-82251446D02*
X77183334Y-82351446D01*
X77183334Y-82351446D02*
X77150001Y-82418113D01*
X77150001Y-82418113D02*
X77116668Y-82451446D01*
X77116668Y-82451446D02*
X77050001Y-82484780D01*
X77050001Y-82484780D02*
X76783334Y-82484780D01*
X77450001Y-82618113D02*
X77783334Y-82618113D01*
X77383334Y-82818113D02*
X77616668Y-82118113D01*
X77616668Y-82118113D02*
X77850001Y-82818113D01*
X77983334Y-82118113D02*
X78383334Y-82118113D01*
X78183334Y-82818113D02*
X78183334Y-82118113D01*
X78616667Y-82818113D02*
X78616667Y-82118113D01*
X78950000Y-82451446D02*
X79183334Y-82451446D01*
X79283334Y-82818113D02*
X78950000Y-82818113D01*
X78950000Y-82818113D02*
X78950000Y-82118113D01*
X78950000Y-82118113D02*
X79283334Y-82118113D01*
X79583333Y-82818113D02*
X79583333Y-82118113D01*
X79583333Y-82118113D02*
X79983333Y-82818113D01*
X79983333Y-82818113D02*
X79983333Y-82118113D01*
X80216666Y-82118113D02*
X80616666Y-82118113D01*
X80416666Y-82818113D02*
X80416666Y-82118113D01*
X80849999Y-82551446D02*
X81383333Y-82551446D01*
X81683333Y-82618113D02*
X82016666Y-82618113D01*
X81616666Y-82818113D02*
X81850000Y-82118113D01*
X81850000Y-82118113D02*
X82083333Y-82818113D01*
X82550000Y-82451446D02*
X82316666Y-82451446D01*
X82316666Y-82818113D02*
X82316666Y-82118113D01*
X82316666Y-82118113D02*
X82650000Y-82118113D01*
X82916666Y-82451446D02*
X83150000Y-82451446D01*
X83250000Y-82818113D02*
X82916666Y-82818113D01*
X82916666Y-82818113D02*
X82916666Y-82118113D01*
X82916666Y-82118113D02*
X83250000Y-82118113D01*
X116733333Y-82818113D02*
X116733333Y-82118113D01*
X116733333Y-82118113D02*
X116900000Y-82118113D01*
X116900000Y-82118113D02*
X117000000Y-82151446D01*
X117000000Y-82151446D02*
X117066667Y-82218113D01*
X117066667Y-82218113D02*
X117100000Y-82284780D01*
X117100000Y-82284780D02*
X117133333Y-82418113D01*
X117133333Y-82418113D02*
X117133333Y-82518113D01*
X117133333Y-82518113D02*
X117100000Y-82651446D01*
X117100000Y-82651446D02*
X117066667Y-82718113D01*
X117066667Y-82718113D02*
X117000000Y-82784780D01*
X117000000Y-82784780D02*
X116900000Y-82818113D01*
X116900000Y-82818113D02*
X116733333Y-82818113D01*
X117433333Y-82818113D02*
X117433333Y-82118113D01*
X118133333Y-82151446D02*
X118066666Y-82118113D01*
X118066666Y-82118113D02*
X117966666Y-82118113D01*
X117966666Y-82118113D02*
X117866666Y-82151446D01*
X117866666Y-82151446D02*
X117800000Y-82218113D01*
X117800000Y-82218113D02*
X117766666Y-82284780D01*
X117766666Y-82284780D02*
X117733333Y-82418113D01*
X117733333Y-82418113D02*
X117733333Y-82518113D01*
X117733333Y-82518113D02*
X117766666Y-82651446D01*
X117766666Y-82651446D02*
X117800000Y-82718113D01*
X117800000Y-82718113D02*
X117866666Y-82784780D01*
X117866666Y-82784780D02*
X117966666Y-82818113D01*
X117966666Y-82818113D02*
X118033333Y-82818113D01*
X118033333Y-82818113D02*
X118133333Y-82784780D01*
X118133333Y-82784780D02*
X118166666Y-82751446D01*
X118166666Y-82751446D02*
X118166666Y-82518113D01*
X118166666Y-82518113D02*
X118033333Y-82518113D01*
X118466666Y-82818113D02*
X118466666Y-82118113D01*
X118699999Y-82118113D02*
X119099999Y-82118113D01*
X118899999Y-82818113D02*
X118899999Y-82118113D01*
X119299999Y-82618113D02*
X119633332Y-82618113D01*
X119233332Y-82818113D02*
X119466666Y-82118113D01*
X119466666Y-82118113D02*
X119699999Y-82818113D01*
X120266666Y-82818113D02*
X119933332Y-82818113D01*
X119933332Y-82818113D02*
X119933332Y-82118113D01*
X120499999Y-82551446D02*
X121033333Y-82551446D01*
X121366666Y-82818113D02*
X121366666Y-82118113D01*
X121366666Y-82118113D02*
X121600000Y-82618113D01*
X121600000Y-82618113D02*
X121833333Y-82118113D01*
X121833333Y-82118113D02*
X121833333Y-82818113D01*
X122566666Y-82751446D02*
X122533333Y-82784780D01*
X122533333Y-82784780D02*
X122433333Y-82818113D01*
X122433333Y-82818113D02*
X122366666Y-82818113D01*
X122366666Y-82818113D02*
X122266666Y-82784780D01*
X122266666Y-82784780D02*
X122200000Y-82718113D01*
X122200000Y-82718113D02*
X122166666Y-82651446D01*
X122166666Y-82651446D02*
X122133333Y-82518113D01*
X122133333Y-82518113D02*
X122133333Y-82418113D01*
X122133333Y-82418113D02*
X122166666Y-82284780D01*
X122166666Y-82284780D02*
X122200000Y-82218113D01*
X122200000Y-82218113D02*
X122266666Y-82151446D01*
X122266666Y-82151446D02*
X122366666Y-82118113D01*
X122366666Y-82118113D02*
X122433333Y-82118113D01*
X122433333Y-82118113D02*
X122533333Y-82151446D01*
X122533333Y-82151446D02*
X122566666Y-82184780D01*
X122866666Y-82118113D02*
X122866666Y-82684780D01*
X122866666Y-82684780D02*
X122900000Y-82751446D01*
X122900000Y-82751446D02*
X122933333Y-82784780D01*
X122933333Y-82784780D02*
X123000000Y-82818113D01*
X123000000Y-82818113D02*
X123133333Y-82818113D01*
X123133333Y-82818113D02*
X123200000Y-82784780D01*
X123200000Y-82784780D02*
X123233333Y-82751446D01*
X123233333Y-82751446D02*
X123266666Y-82684780D01*
X123266666Y-82684780D02*
X123266666Y-82118113D01*
D14*
X91814286Y-82137648D02*
X91942858Y-82180505D01*
X91942858Y-82180505D02*
X91985715Y-82223362D01*
X91985715Y-82223362D02*
X92028572Y-82309077D01*
X92028572Y-82309077D02*
X92028572Y-82437648D01*
X92028572Y-82437648D02*
X91985715Y-82523362D01*
X91985715Y-82523362D02*
X91942858Y-82566220D01*
X91942858Y-82566220D02*
X91857143Y-82609077D01*
X91857143Y-82609077D02*
X91514286Y-82609077D01*
X91514286Y-82609077D02*
X91514286Y-81709077D01*
X91514286Y-81709077D02*
X91814286Y-81709077D01*
X91814286Y-81709077D02*
X91900001Y-81751934D01*
X91900001Y-81751934D02*
X91942858Y-81794791D01*
X91942858Y-81794791D02*
X91985715Y-81880505D01*
X91985715Y-81880505D02*
X91985715Y-81966220D01*
X91985715Y-81966220D02*
X91942858Y-82051934D01*
X91942858Y-82051934D02*
X91900001Y-82094791D01*
X91900001Y-82094791D02*
X91814286Y-82137648D01*
X91814286Y-82137648D02*
X91514286Y-82137648D01*
X92414286Y-82609077D02*
X92414286Y-81709077D01*
X93014286Y-81709077D02*
X93185714Y-81709077D01*
X93185714Y-81709077D02*
X93271429Y-81751934D01*
X93271429Y-81751934D02*
X93357143Y-81837648D01*
X93357143Y-81837648D02*
X93400000Y-82009077D01*
X93400000Y-82009077D02*
X93400000Y-82309077D01*
X93400000Y-82309077D02*
X93357143Y-82480505D01*
X93357143Y-82480505D02*
X93271429Y-82566220D01*
X93271429Y-82566220D02*
X93185714Y-82609077D01*
X93185714Y-82609077D02*
X93014286Y-82609077D01*
X93014286Y-82609077D02*
X92928572Y-82566220D01*
X92928572Y-82566220D02*
X92842857Y-82480505D01*
X92842857Y-82480505D02*
X92800000Y-82309077D01*
X92800000Y-82309077D02*
X92800000Y-82009077D01*
X92800000Y-82009077D02*
X92842857Y-81837648D01*
X92842857Y-81837648D02*
X92928572Y-81751934D01*
X92928572Y-81751934D02*
X93014286Y-81709077D01*
X94300000Y-82523362D02*
X94257143Y-82566220D01*
X94257143Y-82566220D02*
X94128571Y-82609077D01*
X94128571Y-82609077D02*
X94042857Y-82609077D01*
X94042857Y-82609077D02*
X93914286Y-82566220D01*
X93914286Y-82566220D02*
X93828571Y-82480505D01*
X93828571Y-82480505D02*
X93785714Y-82394791D01*
X93785714Y-82394791D02*
X93742857Y-82223362D01*
X93742857Y-82223362D02*
X93742857Y-82094791D01*
X93742857Y-82094791D02*
X93785714Y-81923362D01*
X93785714Y-81923362D02*
X93828571Y-81837648D01*
X93828571Y-81837648D02*
X93914286Y-81751934D01*
X93914286Y-81751934D02*
X94042857Y-81709077D01*
X94042857Y-81709077D02*
X94128571Y-81709077D01*
X94128571Y-81709077D02*
X94257143Y-81751934D01*
X94257143Y-81751934D02*
X94300000Y-81794791D01*
X94685714Y-82609077D02*
X94685714Y-81709077D01*
X94685714Y-82137648D02*
X95200000Y-82137648D01*
X95200000Y-82609077D02*
X95200000Y-81709077D01*
X95628571Y-82137648D02*
X95928571Y-82137648D01*
X96057143Y-82609077D02*
X95628571Y-82609077D01*
X95628571Y-82609077D02*
X95628571Y-81709077D01*
X95628571Y-81709077D02*
X96057143Y-81709077D01*
X96400000Y-82566220D02*
X96528572Y-82609077D01*
X96528572Y-82609077D02*
X96742857Y-82609077D01*
X96742857Y-82609077D02*
X96828572Y-82566220D01*
X96828572Y-82566220D02*
X96871429Y-82523362D01*
X96871429Y-82523362D02*
X96914286Y-82437648D01*
X96914286Y-82437648D02*
X96914286Y-82351934D01*
X96914286Y-82351934D02*
X96871429Y-82266220D01*
X96871429Y-82266220D02*
X96828572Y-82223362D01*
X96828572Y-82223362D02*
X96742857Y-82180505D01*
X96742857Y-82180505D02*
X96571429Y-82137648D01*
X96571429Y-82137648D02*
X96485714Y-82094791D01*
X96485714Y-82094791D02*
X96442857Y-82051934D01*
X96442857Y-82051934D02*
X96400000Y-81966220D01*
X96400000Y-81966220D02*
X96400000Y-81880505D01*
X96400000Y-81880505D02*
X96442857Y-81794791D01*
X96442857Y-81794791D02*
X96485714Y-81751934D01*
X96485714Y-81751934D02*
X96571429Y-81709077D01*
X96571429Y-81709077D02*
X96785714Y-81709077D01*
X96785714Y-81709077D02*
X96914286Y-81751934D01*
X97171429Y-81709077D02*
X97685715Y-81709077D01*
X97428572Y-82609077D02*
X97428572Y-81709077D01*
X97985714Y-82266220D02*
X98671429Y-82266220D01*
X99100000Y-82137648D02*
X99400000Y-82137648D01*
X99528572Y-82609077D02*
X99100000Y-82609077D01*
X99100000Y-82609077D02*
X99100000Y-81709077D01*
X99100000Y-81709077D02*
X99528572Y-81709077D01*
X100428572Y-82523362D02*
X100385715Y-82566220D01*
X100385715Y-82566220D02*
X100257143Y-82609077D01*
X100257143Y-82609077D02*
X100171429Y-82609077D01*
X100171429Y-82609077D02*
X100042858Y-82566220D01*
X100042858Y-82566220D02*
X99957143Y-82480505D01*
X99957143Y-82480505D02*
X99914286Y-82394791D01*
X99914286Y-82394791D02*
X99871429Y-82223362D01*
X99871429Y-82223362D02*
X99871429Y-82094791D01*
X99871429Y-82094791D02*
X99914286Y-81923362D01*
X99914286Y-81923362D02*
X99957143Y-81837648D01*
X99957143Y-81837648D02*
X100042858Y-81751934D01*
X100042858Y-81751934D02*
X100171429Y-81709077D01*
X100171429Y-81709077D02*
X100257143Y-81709077D01*
X100257143Y-81709077D02*
X100385715Y-81751934D01*
X100385715Y-81751934D02*
X100428572Y-81794791D01*
X101285715Y-81751934D02*
X101200001Y-81709077D01*
X101200001Y-81709077D02*
X101071429Y-81709077D01*
X101071429Y-81709077D02*
X100942858Y-81751934D01*
X100942858Y-81751934D02*
X100857143Y-81837648D01*
X100857143Y-81837648D02*
X100814286Y-81923362D01*
X100814286Y-81923362D02*
X100771429Y-82094791D01*
X100771429Y-82094791D02*
X100771429Y-82223362D01*
X100771429Y-82223362D02*
X100814286Y-82394791D01*
X100814286Y-82394791D02*
X100857143Y-82480505D01*
X100857143Y-82480505D02*
X100942858Y-82566220D01*
X100942858Y-82566220D02*
X101071429Y-82609077D01*
X101071429Y-82609077D02*
X101157143Y-82609077D01*
X101157143Y-82609077D02*
X101285715Y-82566220D01*
X101285715Y-82566220D02*
X101328572Y-82523362D01*
X101328572Y-82523362D02*
X101328572Y-82223362D01*
X101328572Y-82223362D02*
X101157143Y-82223362D01*
X102357143Y-81666220D02*
X101585715Y-82823362D01*
X102657143Y-82137648D02*
X102957143Y-82137648D01*
X103085715Y-82609077D02*
X102657143Y-82609077D01*
X102657143Y-82609077D02*
X102657143Y-81709077D01*
X102657143Y-81709077D02*
X103085715Y-81709077D01*
X103471429Y-82609077D02*
X103471429Y-81709077D01*
X103471429Y-81709077D02*
X103771429Y-82351934D01*
X103771429Y-82351934D02*
X104071429Y-81709077D01*
X104071429Y-81709077D02*
X104071429Y-82609077D01*
X104971429Y-81751934D02*
X104885715Y-81709077D01*
X104885715Y-81709077D02*
X104757143Y-81709077D01*
X104757143Y-81709077D02*
X104628572Y-81751934D01*
X104628572Y-81751934D02*
X104542857Y-81837648D01*
X104542857Y-81837648D02*
X104500000Y-81923362D01*
X104500000Y-81923362D02*
X104457143Y-82094791D01*
X104457143Y-82094791D02*
X104457143Y-82223362D01*
X104457143Y-82223362D02*
X104500000Y-82394791D01*
X104500000Y-82394791D02*
X104542857Y-82480505D01*
X104542857Y-82480505D02*
X104628572Y-82566220D01*
X104628572Y-82566220D02*
X104757143Y-82609077D01*
X104757143Y-82609077D02*
X104842857Y-82609077D01*
X104842857Y-82609077D02*
X104971429Y-82566220D01*
X104971429Y-82566220D02*
X105014286Y-82523362D01*
X105014286Y-82523362D02*
X105014286Y-82223362D01*
X105014286Y-82223362D02*
X104842857Y-82223362D01*
X106000000Y-82009077D02*
X106214286Y-82609077D01*
X106214286Y-82609077D02*
X106428571Y-82009077D01*
X107242857Y-82609077D02*
X106728571Y-82609077D01*
X106985714Y-82609077D02*
X106985714Y-81709077D01*
X106985714Y-81709077D02*
X106900000Y-81837648D01*
X106900000Y-81837648D02*
X106814285Y-81923362D01*
X106814285Y-81923362D02*
X106728571Y-81966220D01*
X107628571Y-82523362D02*
X107671428Y-82566220D01*
X107671428Y-82566220D02*
X107628571Y-82609077D01*
X107628571Y-82609077D02*
X107585714Y-82566220D01*
X107585714Y-82566220D02*
X107628571Y-82523362D01*
X107628571Y-82523362D02*
X107628571Y-82609077D01*
X108228571Y-81709077D02*
X108314285Y-81709077D01*
X108314285Y-81709077D02*
X108399999Y-81751934D01*
X108399999Y-81751934D02*
X108442857Y-81794791D01*
X108442857Y-81794791D02*
X108485714Y-81880505D01*
X108485714Y-81880505D02*
X108528571Y-82051934D01*
X108528571Y-82051934D02*
X108528571Y-82266220D01*
X108528571Y-82266220D02*
X108485714Y-82437648D01*
X108485714Y-82437648D02*
X108442857Y-82523362D01*
X108442857Y-82523362D02*
X108399999Y-82566220D01*
X108399999Y-82566220D02*
X108314285Y-82609077D01*
X108314285Y-82609077D02*
X108228571Y-82609077D01*
X108228571Y-82609077D02*
X108142857Y-82566220D01*
X108142857Y-82566220D02*
X108099999Y-82523362D01*
X108099999Y-82523362D02*
X108057142Y-82437648D01*
X108057142Y-82437648D02*
X108014285Y-82266220D01*
X108014285Y-82266220D02*
X108014285Y-82051934D01*
X108014285Y-82051934D02*
X108057142Y-81880505D01*
X108057142Y-81880505D02*
X108099999Y-81794791D01*
X108099999Y-81794791D02*
X108142857Y-81751934D01*
X108142857Y-81751934D02*
X108228571Y-81709077D01*
D12*
X77483333Y-108518633D02*
X77483333Y-107818633D01*
X77483333Y-107818633D02*
X77650000Y-107818633D01*
X77650000Y-107818633D02*
X77750000Y-107851966D01*
X77750000Y-107851966D02*
X77816667Y-107918633D01*
X77816667Y-107918633D02*
X77850000Y-107985300D01*
X77850000Y-107985300D02*
X77883333Y-108118633D01*
X77883333Y-108118633D02*
X77883333Y-108218633D01*
X77883333Y-108218633D02*
X77850000Y-108351966D01*
X77850000Y-108351966D02*
X77816667Y-108418633D01*
X77816667Y-108418633D02*
X77750000Y-108485300D01*
X77750000Y-108485300D02*
X77650000Y-108518633D01*
X77650000Y-108518633D02*
X77483333Y-108518633D01*
X78150000Y-107885300D02*
X78183333Y-107851966D01*
X78183333Y-107851966D02*
X78250000Y-107818633D01*
X78250000Y-107818633D02*
X78416667Y-107818633D01*
X78416667Y-107818633D02*
X78483333Y-107851966D01*
X78483333Y-107851966D02*
X78516667Y-107885300D01*
X78516667Y-107885300D02*
X78550000Y-107951966D01*
X78550000Y-107951966D02*
X78550000Y-108018633D01*
X78550000Y-108018633D02*
X78516667Y-108118633D01*
X78516667Y-108118633D02*
X78116667Y-108518633D01*
X78116667Y-108518633D02*
X78550000Y-108518633D01*
X115383333Y-113551966D02*
X115350000Y-113585300D01*
X115350000Y-113585300D02*
X115250000Y-113618633D01*
X115250000Y-113618633D02*
X115183333Y-113618633D01*
X115183333Y-113618633D02*
X115083333Y-113585300D01*
X115083333Y-113585300D02*
X115016667Y-113518633D01*
X115016667Y-113518633D02*
X114983333Y-113451966D01*
X114983333Y-113451966D02*
X114950000Y-113318633D01*
X114950000Y-113318633D02*
X114950000Y-113218633D01*
X114950000Y-113218633D02*
X114983333Y-113085300D01*
X114983333Y-113085300D02*
X115016667Y-113018633D01*
X115016667Y-113018633D02*
X115083333Y-112951966D01*
X115083333Y-112951966D02*
X115183333Y-112918633D01*
X115183333Y-112918633D02*
X115250000Y-112918633D01*
X115250000Y-112918633D02*
X115350000Y-112951966D01*
X115350000Y-112951966D02*
X115383333Y-112985300D01*
X115983333Y-112918633D02*
X115850000Y-112918633D01*
X115850000Y-112918633D02*
X115783333Y-112951966D01*
X115783333Y-112951966D02*
X115750000Y-112985300D01*
X115750000Y-112985300D02*
X115683333Y-113085300D01*
X115683333Y-113085300D02*
X115650000Y-113218633D01*
X115650000Y-113218633D02*
X115650000Y-113485300D01*
X115650000Y-113485300D02*
X115683333Y-113551966D01*
X115683333Y-113551966D02*
X115716667Y-113585300D01*
X115716667Y-113585300D02*
X115783333Y-113618633D01*
X115783333Y-113618633D02*
X115916667Y-113618633D01*
X115916667Y-113618633D02*
X115983333Y-113585300D01*
X115983333Y-113585300D02*
X116016667Y-113551966D01*
X116016667Y-113551966D02*
X116050000Y-113485300D01*
X116050000Y-113485300D02*
X116050000Y-113318633D01*
X116050000Y-113318633D02*
X116016667Y-113251966D01*
X116016667Y-113251966D02*
X115983333Y-113218633D01*
X115983333Y-113218633D02*
X115916667Y-113185300D01*
X115916667Y-113185300D02*
X115783333Y-113185300D01*
X115783333Y-113185300D02*
X115716667Y-113218633D01*
X115716667Y-113218633D02*
X115683333Y-113251966D01*
X115683333Y-113251966D02*
X115650000Y-113318633D01*
X85883333Y-93551966D02*
X85850000Y-93585300D01*
X85850000Y-93585300D02*
X85750000Y-93618633D01*
X85750000Y-93618633D02*
X85683333Y-93618633D01*
X85683333Y-93618633D02*
X85583333Y-93585300D01*
X85583333Y-93585300D02*
X85516667Y-93518633D01*
X85516667Y-93518633D02*
X85483333Y-93451966D01*
X85483333Y-93451966D02*
X85450000Y-93318633D01*
X85450000Y-93318633D02*
X85450000Y-93218633D01*
X85450000Y-93218633D02*
X85483333Y-93085300D01*
X85483333Y-93085300D02*
X85516667Y-93018633D01*
X85516667Y-93018633D02*
X85583333Y-92951966D01*
X85583333Y-92951966D02*
X85683333Y-92918633D01*
X85683333Y-92918633D02*
X85750000Y-92918633D01*
X85750000Y-92918633D02*
X85850000Y-92951966D01*
X85850000Y-92951966D02*
X85883333Y-92985300D01*
X86150000Y-92985300D02*
X86183333Y-92951966D01*
X86183333Y-92951966D02*
X86250000Y-92918633D01*
X86250000Y-92918633D02*
X86416667Y-92918633D01*
X86416667Y-92918633D02*
X86483333Y-92951966D01*
X86483333Y-92951966D02*
X86516667Y-92985300D01*
X86516667Y-92985300D02*
X86550000Y-93051966D01*
X86550000Y-93051966D02*
X86550000Y-93118633D01*
X86550000Y-93118633D02*
X86516667Y-93218633D01*
X86516667Y-93218633D02*
X86116667Y-93618633D01*
X86116667Y-93618633D02*
X86550000Y-93618633D01*
X89966666Y-83818633D02*
X89966666Y-84385300D01*
X89966666Y-84385300D02*
X90000000Y-84451966D01*
X90000000Y-84451966D02*
X90033333Y-84485300D01*
X90033333Y-84485300D02*
X90100000Y-84518633D01*
X90100000Y-84518633D02*
X90233333Y-84518633D01*
X90233333Y-84518633D02*
X90300000Y-84485300D01*
X90300000Y-84485300D02*
X90333333Y-84451966D01*
X90333333Y-84451966D02*
X90366666Y-84385300D01*
X90366666Y-84385300D02*
X90366666Y-83818633D01*
X90633333Y-83818633D02*
X91099999Y-83818633D01*
X91099999Y-83818633D02*
X90799999Y-84518633D01*
X114066666Y-82785300D02*
X114166666Y-82818633D01*
X114166666Y-82818633D02*
X114333333Y-82818633D01*
X114333333Y-82818633D02*
X114399999Y-82785300D01*
X114399999Y-82785300D02*
X114433333Y-82751966D01*
X114433333Y-82751966D02*
X114466666Y-82685300D01*
X114466666Y-82685300D02*
X114466666Y-82618633D01*
X114466666Y-82618633D02*
X114433333Y-82551966D01*
X114433333Y-82551966D02*
X114399999Y-82518633D01*
X114399999Y-82518633D02*
X114333333Y-82485300D01*
X114333333Y-82485300D02*
X114199999Y-82451966D01*
X114199999Y-82451966D02*
X114133333Y-82418633D01*
X114133333Y-82418633D02*
X114099999Y-82385300D01*
X114099999Y-82385300D02*
X114066666Y-82318633D01*
X114066666Y-82318633D02*
X114066666Y-82251966D01*
X114066666Y-82251966D02*
X114099999Y-82185300D01*
X114099999Y-82185300D02*
X114133333Y-82151966D01*
X114133333Y-82151966D02*
X114199999Y-82118633D01*
X114199999Y-82118633D02*
X114366666Y-82118633D01*
X114366666Y-82118633D02*
X114466666Y-82151966D01*
X114700000Y-82118633D02*
X114866666Y-82818633D01*
X114866666Y-82818633D02*
X115000000Y-82318633D01*
X115000000Y-82318633D02*
X115133333Y-82818633D01*
X115133333Y-82818633D02*
X115300000Y-82118633D01*
X115933333Y-82818633D02*
X115533333Y-82818633D01*
X115733333Y-82818633D02*
X115733333Y-82118633D01*
X115733333Y-82118633D02*
X115666666Y-82218633D01*
X115666666Y-82218633D02*
X115600000Y-82285300D01*
X115600000Y-82285300D02*
X115533333Y-82318633D01*
X72766666Y-82118633D02*
X72766666Y-82618633D01*
X72766666Y-82618633D02*
X72733333Y-82718633D01*
X72733333Y-82718633D02*
X72666666Y-82785300D01*
X72666666Y-82785300D02*
X72566666Y-82818633D01*
X72566666Y-82818633D02*
X72500000Y-82818633D01*
X73466666Y-82818633D02*
X73066666Y-82818633D01*
X73266666Y-82818633D02*
X73266666Y-82118633D01*
X73266666Y-82118633D02*
X73199999Y-82218633D01*
X73199999Y-82218633D02*
X73133333Y-82285300D01*
X73133333Y-82285300D02*
X73066666Y-82318633D01*
X125950000Y-111251966D02*
X126050000Y-111285300D01*
X126050000Y-111285300D02*
X126083333Y-111318633D01*
X126083333Y-111318633D02*
X126116666Y-111385300D01*
X126116666Y-111385300D02*
X126116666Y-111485300D01*
X126116666Y-111485300D02*
X126083333Y-111551966D01*
X126083333Y-111551966D02*
X126050000Y-111585300D01*
X126050000Y-111585300D02*
X125983333Y-111618633D01*
X125983333Y-111618633D02*
X125716666Y-111618633D01*
X125716666Y-111618633D02*
X125716666Y-110918633D01*
X125716666Y-110918633D02*
X125950000Y-110918633D01*
X125950000Y-110918633D02*
X126016666Y-110951966D01*
X126016666Y-110951966D02*
X126050000Y-110985300D01*
X126050000Y-110985300D02*
X126083333Y-111051966D01*
X126083333Y-111051966D02*
X126083333Y-111118633D01*
X126083333Y-111118633D02*
X126050000Y-111185300D01*
X126050000Y-111185300D02*
X126016666Y-111218633D01*
X126016666Y-111218633D02*
X125950000Y-111251966D01*
X125950000Y-111251966D02*
X125716666Y-111251966D01*
X126316666Y-110918633D02*
X126716666Y-110918633D01*
X126516666Y-111618633D02*
X126516666Y-110918633D01*
X127316666Y-111618633D02*
X126916666Y-111618633D01*
X127116666Y-111618633D02*
X127116666Y-110918633D01*
X127116666Y-110918633D02*
X127049999Y-111018633D01*
X127049999Y-111018633D02*
X126983333Y-111085300D01*
X126983333Y-111085300D02*
X126916666Y-111118633D01*
X124766666Y-99618633D02*
X124766666Y-100118633D01*
X124766666Y-100118633D02*
X124733333Y-100218633D01*
X124733333Y-100218633D02*
X124666666Y-100285300D01*
X124666666Y-100285300D02*
X124566666Y-100318633D01*
X124566666Y-100318633D02*
X124500000Y-100318633D01*
X125399999Y-99618633D02*
X125266666Y-99618633D01*
X125266666Y-99618633D02*
X125199999Y-99651966D01*
X125199999Y-99651966D02*
X125166666Y-99685300D01*
X125166666Y-99685300D02*
X125099999Y-99785300D01*
X125099999Y-99785300D02*
X125066666Y-99918633D01*
X125066666Y-99918633D02*
X125066666Y-100185300D01*
X125066666Y-100185300D02*
X125099999Y-100251966D01*
X125099999Y-100251966D02*
X125133333Y-100285300D01*
X125133333Y-100285300D02*
X125199999Y-100318633D01*
X125199999Y-100318633D02*
X125333333Y-100318633D01*
X125333333Y-100318633D02*
X125399999Y-100285300D01*
X125399999Y-100285300D02*
X125433333Y-100251966D01*
X125433333Y-100251966D02*
X125466666Y-100185300D01*
X125466666Y-100185300D02*
X125466666Y-100018633D01*
X125466666Y-100018633D02*
X125433333Y-99951966D01*
X125433333Y-99951966D02*
X125399999Y-99918633D01*
X125399999Y-99918633D02*
X125333333Y-99885300D01*
X125333333Y-99885300D02*
X125199999Y-99885300D01*
X125199999Y-99885300D02*
X125133333Y-99918633D01*
X125133333Y-99918633D02*
X125099999Y-99951966D01*
X125099999Y-99951966D02*
X125066666Y-100018633D01*
X83383333Y-93551966D02*
X83350000Y-93585300D01*
X83350000Y-93585300D02*
X83250000Y-93618633D01*
X83250000Y-93618633D02*
X83183333Y-93618633D01*
X83183333Y-93618633D02*
X83083333Y-93585300D01*
X83083333Y-93585300D02*
X83016667Y-93518633D01*
X83016667Y-93518633D02*
X82983333Y-93451966D01*
X82983333Y-93451966D02*
X82950000Y-93318633D01*
X82950000Y-93318633D02*
X82950000Y-93218633D01*
X82950000Y-93218633D02*
X82983333Y-93085300D01*
X82983333Y-93085300D02*
X83016667Y-93018633D01*
X83016667Y-93018633D02*
X83083333Y-92951966D01*
X83083333Y-92951966D02*
X83183333Y-92918633D01*
X83183333Y-92918633D02*
X83250000Y-92918633D01*
X83250000Y-92918633D02*
X83350000Y-92951966D01*
X83350000Y-92951966D02*
X83383333Y-92985300D01*
X84050000Y-93618633D02*
X83650000Y-93618633D01*
X83850000Y-93618633D02*
X83850000Y-92918633D01*
X83850000Y-92918633D02*
X83783333Y-93018633D01*
X83783333Y-93018633D02*
X83716667Y-93085300D01*
X83716667Y-93085300D02*
X83650000Y-93118633D01*
X88383333Y-93551966D02*
X88350000Y-93585300D01*
X88350000Y-93585300D02*
X88250000Y-93618633D01*
X88250000Y-93618633D02*
X88183333Y-93618633D01*
X88183333Y-93618633D02*
X88083333Y-93585300D01*
X88083333Y-93585300D02*
X88016667Y-93518633D01*
X88016667Y-93518633D02*
X87983333Y-93451966D01*
X87983333Y-93451966D02*
X87950000Y-93318633D01*
X87950000Y-93318633D02*
X87950000Y-93218633D01*
X87950000Y-93218633D02*
X87983333Y-93085300D01*
X87983333Y-93085300D02*
X88016667Y-93018633D01*
X88016667Y-93018633D02*
X88083333Y-92951966D01*
X88083333Y-92951966D02*
X88183333Y-92918633D01*
X88183333Y-92918633D02*
X88250000Y-92918633D01*
X88250000Y-92918633D02*
X88350000Y-92951966D01*
X88350000Y-92951966D02*
X88383333Y-92985300D01*
X88616667Y-92918633D02*
X89050000Y-92918633D01*
X89050000Y-92918633D02*
X88816667Y-93185300D01*
X88816667Y-93185300D02*
X88916667Y-93185300D01*
X88916667Y-93185300D02*
X88983333Y-93218633D01*
X88983333Y-93218633D02*
X89016667Y-93251966D01*
X89016667Y-93251966D02*
X89050000Y-93318633D01*
X89050000Y-93318633D02*
X89050000Y-93485300D01*
X89050000Y-93485300D02*
X89016667Y-93551966D01*
X89016667Y-93551966D02*
X88983333Y-93585300D01*
X88983333Y-93585300D02*
X88916667Y-93618633D01*
X88916667Y-93618633D02*
X88716667Y-93618633D01*
X88716667Y-93618633D02*
X88650000Y-93585300D01*
X88650000Y-93585300D02*
X88616667Y-93551966D01*
X110883333Y-87551966D02*
X110850000Y-87585300D01*
X110850000Y-87585300D02*
X110750000Y-87618633D01*
X110750000Y-87618633D02*
X110683333Y-87618633D01*
X110683333Y-87618633D02*
X110583333Y-87585300D01*
X110583333Y-87585300D02*
X110516667Y-87518633D01*
X110516667Y-87518633D02*
X110483333Y-87451966D01*
X110483333Y-87451966D02*
X110450000Y-87318633D01*
X110450000Y-87318633D02*
X110450000Y-87218633D01*
X110450000Y-87218633D02*
X110483333Y-87085300D01*
X110483333Y-87085300D02*
X110516667Y-87018633D01*
X110516667Y-87018633D02*
X110583333Y-86951966D01*
X110583333Y-86951966D02*
X110683333Y-86918633D01*
X110683333Y-86918633D02*
X110750000Y-86918633D01*
X110750000Y-86918633D02*
X110850000Y-86951966D01*
X110850000Y-86951966D02*
X110883333Y-86985300D01*
X111516667Y-86918633D02*
X111183333Y-86918633D01*
X111183333Y-86918633D02*
X111150000Y-87251966D01*
X111150000Y-87251966D02*
X111183333Y-87218633D01*
X111183333Y-87218633D02*
X111250000Y-87185300D01*
X111250000Y-87185300D02*
X111416667Y-87185300D01*
X111416667Y-87185300D02*
X111483333Y-87218633D01*
X111483333Y-87218633D02*
X111516667Y-87251966D01*
X111516667Y-87251966D02*
X111550000Y-87318633D01*
X111550000Y-87318633D02*
X111550000Y-87485300D01*
X111550000Y-87485300D02*
X111516667Y-87551966D01*
X111516667Y-87551966D02*
X111483333Y-87585300D01*
X111483333Y-87585300D02*
X111416667Y-87618633D01*
X111416667Y-87618633D02*
X111250000Y-87618633D01*
X111250000Y-87618633D02*
X111183333Y-87585300D01*
X111183333Y-87585300D02*
X111150000Y-87551966D01*
X120383333Y-108051966D02*
X120350000Y-108085300D01*
X120350000Y-108085300D02*
X120250000Y-108118633D01*
X120250000Y-108118633D02*
X120183333Y-108118633D01*
X120183333Y-108118633D02*
X120083333Y-108085300D01*
X120083333Y-108085300D02*
X120016667Y-108018633D01*
X120016667Y-108018633D02*
X119983333Y-107951966D01*
X119983333Y-107951966D02*
X119950000Y-107818633D01*
X119950000Y-107818633D02*
X119950000Y-107718633D01*
X119950000Y-107718633D02*
X119983333Y-107585300D01*
X119983333Y-107585300D02*
X120016667Y-107518633D01*
X120016667Y-107518633D02*
X120083333Y-107451966D01*
X120083333Y-107451966D02*
X120183333Y-107418633D01*
X120183333Y-107418633D02*
X120250000Y-107418633D01*
X120250000Y-107418633D02*
X120350000Y-107451966D01*
X120350000Y-107451966D02*
X120383333Y-107485300D01*
X120616667Y-107418633D02*
X121083333Y-107418633D01*
X121083333Y-107418633D02*
X120783333Y-108118633D01*
X72766666Y-110118633D02*
X72766666Y-110618633D01*
X72766666Y-110618633D02*
X72733333Y-110718633D01*
X72733333Y-110718633D02*
X72666666Y-110785300D01*
X72666666Y-110785300D02*
X72566666Y-110818633D01*
X72566666Y-110818633D02*
X72500000Y-110818633D01*
X73399999Y-110351966D02*
X73399999Y-110818633D01*
X73233333Y-110085300D02*
X73066666Y-110585300D01*
X73066666Y-110585300D02*
X73499999Y-110585300D01*
X123483333Y-84118633D02*
X123483333Y-83418633D01*
X123483333Y-83418633D02*
X123650000Y-83418633D01*
X123650000Y-83418633D02*
X123750000Y-83451966D01*
X123750000Y-83451966D02*
X123816667Y-83518633D01*
X123816667Y-83518633D02*
X123850000Y-83585300D01*
X123850000Y-83585300D02*
X123883333Y-83718633D01*
X123883333Y-83718633D02*
X123883333Y-83818633D01*
X123883333Y-83818633D02*
X123850000Y-83951966D01*
X123850000Y-83951966D02*
X123816667Y-84018633D01*
X123816667Y-84018633D02*
X123750000Y-84085300D01*
X123750000Y-84085300D02*
X123650000Y-84118633D01*
X123650000Y-84118633D02*
X123483333Y-84118633D01*
X124483333Y-83651966D02*
X124483333Y-84118633D01*
X124316667Y-83385300D02*
X124150000Y-83885300D01*
X124150000Y-83885300D02*
X124583333Y-83885300D01*
X97966666Y-93418633D02*
X97966666Y-93985300D01*
X97966666Y-93985300D02*
X98000000Y-94051966D01*
X98000000Y-94051966D02*
X98033333Y-94085300D01*
X98033333Y-94085300D02*
X98100000Y-94118633D01*
X98100000Y-94118633D02*
X98233333Y-94118633D01*
X98233333Y-94118633D02*
X98300000Y-94085300D01*
X98300000Y-94085300D02*
X98333333Y-94051966D01*
X98333333Y-94051966D02*
X98366666Y-93985300D01*
X98366666Y-93985300D02*
X98366666Y-93418633D01*
X98666666Y-93485300D02*
X98699999Y-93451966D01*
X98699999Y-93451966D02*
X98766666Y-93418633D01*
X98766666Y-93418633D02*
X98933333Y-93418633D01*
X98933333Y-93418633D02*
X98999999Y-93451966D01*
X98999999Y-93451966D02*
X99033333Y-93485300D01*
X99033333Y-93485300D02*
X99066666Y-93551966D01*
X99066666Y-93551966D02*
X99066666Y-93618633D01*
X99066666Y-93618633D02*
X99033333Y-93718633D01*
X99033333Y-93718633D02*
X98633333Y-94118633D01*
X98633333Y-94118633D02*
X99066666Y-94118633D01*
X119066666Y-82785300D02*
X119166666Y-82818633D01*
X119166666Y-82818633D02*
X119333333Y-82818633D01*
X119333333Y-82818633D02*
X119399999Y-82785300D01*
X119399999Y-82785300D02*
X119433333Y-82751966D01*
X119433333Y-82751966D02*
X119466666Y-82685300D01*
X119466666Y-82685300D02*
X119466666Y-82618633D01*
X119466666Y-82618633D02*
X119433333Y-82551966D01*
X119433333Y-82551966D02*
X119399999Y-82518633D01*
X119399999Y-82518633D02*
X119333333Y-82485300D01*
X119333333Y-82485300D02*
X119199999Y-82451966D01*
X119199999Y-82451966D02*
X119133333Y-82418633D01*
X119133333Y-82418633D02*
X119099999Y-82385300D01*
X119099999Y-82385300D02*
X119066666Y-82318633D01*
X119066666Y-82318633D02*
X119066666Y-82251966D01*
X119066666Y-82251966D02*
X119099999Y-82185300D01*
X119099999Y-82185300D02*
X119133333Y-82151966D01*
X119133333Y-82151966D02*
X119199999Y-82118633D01*
X119199999Y-82118633D02*
X119366666Y-82118633D01*
X119366666Y-82118633D02*
X119466666Y-82151966D01*
X119700000Y-82118633D02*
X119866666Y-82818633D01*
X119866666Y-82818633D02*
X120000000Y-82318633D01*
X120000000Y-82318633D02*
X120133333Y-82818633D01*
X120133333Y-82818633D02*
X120300000Y-82118633D01*
X120533333Y-82185300D02*
X120566666Y-82151966D01*
X120566666Y-82151966D02*
X120633333Y-82118633D01*
X120633333Y-82118633D02*
X120800000Y-82118633D01*
X120800000Y-82118633D02*
X120866666Y-82151966D01*
X120866666Y-82151966D02*
X120900000Y-82185300D01*
X120900000Y-82185300D02*
X120933333Y-82251966D01*
X120933333Y-82251966D02*
X120933333Y-82318633D01*
X120933333Y-82318633D02*
X120900000Y-82418633D01*
X120900000Y-82418633D02*
X120500000Y-82818633D01*
X120500000Y-82818633D02*
X120933333Y-82818633D01*
X107883333Y-87551966D02*
X107850000Y-87585300D01*
X107850000Y-87585300D02*
X107750000Y-87618633D01*
X107750000Y-87618633D02*
X107683333Y-87618633D01*
X107683333Y-87618633D02*
X107583333Y-87585300D01*
X107583333Y-87585300D02*
X107516667Y-87518633D01*
X107516667Y-87518633D02*
X107483333Y-87451966D01*
X107483333Y-87451966D02*
X107450000Y-87318633D01*
X107450000Y-87318633D02*
X107450000Y-87218633D01*
X107450000Y-87218633D02*
X107483333Y-87085300D01*
X107483333Y-87085300D02*
X107516667Y-87018633D01*
X107516667Y-87018633D02*
X107583333Y-86951966D01*
X107583333Y-86951966D02*
X107683333Y-86918633D01*
X107683333Y-86918633D02*
X107750000Y-86918633D01*
X107750000Y-86918633D02*
X107850000Y-86951966D01*
X107850000Y-86951966D02*
X107883333Y-86985300D01*
X108483333Y-87151966D02*
X108483333Y-87618633D01*
X108316667Y-86885300D02*
X108150000Y-87385300D01*
X108150000Y-87385300D02*
X108583333Y-87385300D01*
X77483333Y-98518633D02*
X77483333Y-97818633D01*
X77483333Y-97818633D02*
X77650000Y-97818633D01*
X77650000Y-97818633D02*
X77750000Y-97851966D01*
X77750000Y-97851966D02*
X77816667Y-97918633D01*
X77816667Y-97918633D02*
X77850000Y-97985300D01*
X77850000Y-97985300D02*
X77883333Y-98118633D01*
X77883333Y-98118633D02*
X77883333Y-98218633D01*
X77883333Y-98218633D02*
X77850000Y-98351966D01*
X77850000Y-98351966D02*
X77816667Y-98418633D01*
X77816667Y-98418633D02*
X77750000Y-98485300D01*
X77750000Y-98485300D02*
X77650000Y-98518633D01*
X77650000Y-98518633D02*
X77483333Y-98518633D01*
X78116667Y-97818633D02*
X78550000Y-97818633D01*
X78550000Y-97818633D02*
X78316667Y-98085300D01*
X78316667Y-98085300D02*
X78416667Y-98085300D01*
X78416667Y-98085300D02*
X78483333Y-98118633D01*
X78483333Y-98118633D02*
X78516667Y-98151966D01*
X78516667Y-98151966D02*
X78550000Y-98218633D01*
X78550000Y-98218633D02*
X78550000Y-98385300D01*
X78550000Y-98385300D02*
X78516667Y-98451966D01*
X78516667Y-98451966D02*
X78483333Y-98485300D01*
X78483333Y-98485300D02*
X78416667Y-98518633D01*
X78416667Y-98518633D02*
X78216667Y-98518633D01*
X78216667Y-98518633D02*
X78150000Y-98485300D01*
X78150000Y-98485300D02*
X78116667Y-98451966D01*
X97633333Y-112318633D02*
X97633333Y-112885300D01*
X97633333Y-112885300D02*
X97666667Y-112951966D01*
X97666667Y-112951966D02*
X97700000Y-112985300D01*
X97700000Y-112985300D02*
X97766667Y-113018633D01*
X97766667Y-113018633D02*
X97900000Y-113018633D01*
X97900000Y-113018633D02*
X97966667Y-112985300D01*
X97966667Y-112985300D02*
X98000000Y-112951966D01*
X98000000Y-112951966D02*
X98033333Y-112885300D01*
X98033333Y-112885300D02*
X98033333Y-112318633D01*
X98733333Y-113018633D02*
X98333333Y-113018633D01*
X98533333Y-113018633D02*
X98533333Y-112318633D01*
X98533333Y-112318633D02*
X98466666Y-112418633D01*
X98466666Y-112418633D02*
X98400000Y-112485300D01*
X98400000Y-112485300D02*
X98333333Y-112518633D01*
X99166667Y-112318633D02*
X99233333Y-112318633D01*
X99233333Y-112318633D02*
X99300000Y-112351966D01*
X99300000Y-112351966D02*
X99333333Y-112385300D01*
X99333333Y-112385300D02*
X99366667Y-112451966D01*
X99366667Y-112451966D02*
X99400000Y-112585300D01*
X99400000Y-112585300D02*
X99400000Y-112751966D01*
X99400000Y-112751966D02*
X99366667Y-112885300D01*
X99366667Y-112885300D02*
X99333333Y-112951966D01*
X99333333Y-112951966D02*
X99300000Y-112985300D01*
X99300000Y-112985300D02*
X99233333Y-113018633D01*
X99233333Y-113018633D02*
X99166667Y-113018633D01*
X99166667Y-113018633D02*
X99100000Y-112985300D01*
X99100000Y-112985300D02*
X99066667Y-112951966D01*
X99066667Y-112951966D02*
X99033333Y-112885300D01*
X99033333Y-112885300D02*
X99000000Y-112751966D01*
X99000000Y-112751966D02*
X99000000Y-112585300D01*
X99000000Y-112585300D02*
X99033333Y-112451966D01*
X99033333Y-112451966D02*
X99066667Y-112385300D01*
X99066667Y-112385300D02*
X99100000Y-112351966D01*
X99100000Y-112351966D02*
X99166667Y-112318633D01*
X126483333Y-84118633D02*
X126483333Y-83418633D01*
X126483333Y-83418633D02*
X126650000Y-83418633D01*
X126650000Y-83418633D02*
X126750000Y-83451966D01*
X126750000Y-83451966D02*
X126816667Y-83518633D01*
X126816667Y-83518633D02*
X126850000Y-83585300D01*
X126850000Y-83585300D02*
X126883333Y-83718633D01*
X126883333Y-83718633D02*
X126883333Y-83818633D01*
X126883333Y-83818633D02*
X126850000Y-83951966D01*
X126850000Y-83951966D02*
X126816667Y-84018633D01*
X126816667Y-84018633D02*
X126750000Y-84085300D01*
X126750000Y-84085300D02*
X126650000Y-84118633D01*
X126650000Y-84118633D02*
X126483333Y-84118633D01*
X127516667Y-83418633D02*
X127183333Y-83418633D01*
X127183333Y-83418633D02*
X127150000Y-83751966D01*
X127150000Y-83751966D02*
X127183333Y-83718633D01*
X127183333Y-83718633D02*
X127250000Y-83685300D01*
X127250000Y-83685300D02*
X127416667Y-83685300D01*
X127416667Y-83685300D02*
X127483333Y-83718633D01*
X127483333Y-83718633D02*
X127516667Y-83751966D01*
X127516667Y-83751966D02*
X127550000Y-83818633D01*
X127550000Y-83818633D02*
X127550000Y-83985300D01*
X127550000Y-83985300D02*
X127516667Y-84051966D01*
X127516667Y-84051966D02*
X127483333Y-84085300D01*
X127483333Y-84085300D02*
X127416667Y-84118633D01*
X127416667Y-84118633D02*
X127250000Y-84118633D01*
X127250000Y-84118633D02*
X127183333Y-84085300D01*
X127183333Y-84085300D02*
X127150000Y-84051966D01*
X82766666Y-82118633D02*
X82766666Y-82618633D01*
X82766666Y-82618633D02*
X82733333Y-82718633D01*
X82733333Y-82718633D02*
X82666666Y-82785300D01*
X82666666Y-82785300D02*
X82566666Y-82818633D01*
X82566666Y-82818633D02*
X82500000Y-82818633D01*
X83066666Y-82185300D02*
X83099999Y-82151966D01*
X83099999Y-82151966D02*
X83166666Y-82118633D01*
X83166666Y-82118633D02*
X83333333Y-82118633D01*
X83333333Y-82118633D02*
X83399999Y-82151966D01*
X83399999Y-82151966D02*
X83433333Y-82185300D01*
X83433333Y-82185300D02*
X83466666Y-82251966D01*
X83466666Y-82251966D02*
X83466666Y-82318633D01*
X83466666Y-82318633D02*
X83433333Y-82418633D01*
X83433333Y-82418633D02*
X83033333Y-82818633D01*
X83033333Y-82818633D02*
X83466666Y-82818633D01*
X119966666Y-111618633D02*
X119966666Y-112185300D01*
X119966666Y-112185300D02*
X120000000Y-112251966D01*
X120000000Y-112251966D02*
X120033333Y-112285300D01*
X120033333Y-112285300D02*
X120100000Y-112318633D01*
X120100000Y-112318633D02*
X120233333Y-112318633D01*
X120233333Y-112318633D02*
X120300000Y-112285300D01*
X120300000Y-112285300D02*
X120333333Y-112251966D01*
X120333333Y-112251966D02*
X120366666Y-112185300D01*
X120366666Y-112185300D02*
X120366666Y-111618633D01*
X120733333Y-112318633D02*
X120866666Y-112318633D01*
X120866666Y-112318633D02*
X120933333Y-112285300D01*
X120933333Y-112285300D02*
X120966666Y-112251966D01*
X120966666Y-112251966D02*
X121033333Y-112151966D01*
X121033333Y-112151966D02*
X121066666Y-112018633D01*
X121066666Y-112018633D02*
X121066666Y-111751966D01*
X121066666Y-111751966D02*
X121033333Y-111685300D01*
X121033333Y-111685300D02*
X120999999Y-111651966D01*
X120999999Y-111651966D02*
X120933333Y-111618633D01*
X120933333Y-111618633D02*
X120799999Y-111618633D01*
X120799999Y-111618633D02*
X120733333Y-111651966D01*
X120733333Y-111651966D02*
X120699999Y-111685300D01*
X120699999Y-111685300D02*
X120666666Y-111751966D01*
X120666666Y-111751966D02*
X120666666Y-111918633D01*
X120666666Y-111918633D02*
X120699999Y-111985300D01*
X120699999Y-111985300D02*
X120733333Y-112018633D01*
X120733333Y-112018633D02*
X120799999Y-112051966D01*
X120799999Y-112051966D02*
X120933333Y-112051966D01*
X120933333Y-112051966D02*
X120999999Y-112018633D01*
X120999999Y-112018633D02*
X121033333Y-111985300D01*
X121033333Y-111985300D02*
X121066666Y-111918633D01*
X77483333Y-88518633D02*
X77483333Y-87818633D01*
X77483333Y-87818633D02*
X77650000Y-87818633D01*
X77650000Y-87818633D02*
X77750000Y-87851966D01*
X77750000Y-87851966D02*
X77816667Y-87918633D01*
X77816667Y-87918633D02*
X77850000Y-87985300D01*
X77850000Y-87985300D02*
X77883333Y-88118633D01*
X77883333Y-88118633D02*
X77883333Y-88218633D01*
X77883333Y-88218633D02*
X77850000Y-88351966D01*
X77850000Y-88351966D02*
X77816667Y-88418633D01*
X77816667Y-88418633D02*
X77750000Y-88485300D01*
X77750000Y-88485300D02*
X77650000Y-88518633D01*
X77650000Y-88518633D02*
X77483333Y-88518633D01*
X78550000Y-88518633D02*
X78150000Y-88518633D01*
X78350000Y-88518633D02*
X78350000Y-87818633D01*
X78350000Y-87818633D02*
X78283333Y-87918633D01*
X78283333Y-87918633D02*
X78216667Y-87985300D01*
X78216667Y-87985300D02*
X78150000Y-88018633D01*
X85966666Y-96418633D02*
X85966666Y-96985300D01*
X85966666Y-96985300D02*
X86000000Y-97051966D01*
X86000000Y-97051966D02*
X86033333Y-97085300D01*
X86033333Y-97085300D02*
X86100000Y-97118633D01*
X86100000Y-97118633D02*
X86233333Y-97118633D01*
X86233333Y-97118633D02*
X86300000Y-97085300D01*
X86300000Y-97085300D02*
X86333333Y-97051966D01*
X86333333Y-97051966D02*
X86366666Y-96985300D01*
X86366666Y-96985300D02*
X86366666Y-96418633D01*
X87066666Y-97118633D02*
X86666666Y-97118633D01*
X86866666Y-97118633D02*
X86866666Y-96418633D01*
X86866666Y-96418633D02*
X86799999Y-96518633D01*
X86799999Y-96518633D02*
X86733333Y-96585300D01*
X86733333Y-96585300D02*
X86666666Y-96618633D01*
X117466666Y-90618633D02*
X117466666Y-91185300D01*
X117466666Y-91185300D02*
X117500000Y-91251966D01*
X117500000Y-91251966D02*
X117533333Y-91285300D01*
X117533333Y-91285300D02*
X117600000Y-91318633D01*
X117600000Y-91318633D02*
X117733333Y-91318633D01*
X117733333Y-91318633D02*
X117800000Y-91285300D01*
X117800000Y-91285300D02*
X117833333Y-91251966D01*
X117833333Y-91251966D02*
X117866666Y-91185300D01*
X117866666Y-91185300D02*
X117866666Y-90618633D01*
X118133333Y-90618633D02*
X118566666Y-90618633D01*
X118566666Y-90618633D02*
X118333333Y-90885300D01*
X118333333Y-90885300D02*
X118433333Y-90885300D01*
X118433333Y-90885300D02*
X118499999Y-90918633D01*
X118499999Y-90918633D02*
X118533333Y-90951966D01*
X118533333Y-90951966D02*
X118566666Y-91018633D01*
X118566666Y-91018633D02*
X118566666Y-91185300D01*
X118566666Y-91185300D02*
X118533333Y-91251966D01*
X118533333Y-91251966D02*
X118499999Y-91285300D01*
X118499999Y-91285300D02*
X118433333Y-91318633D01*
X118433333Y-91318633D02*
X118233333Y-91318633D01*
X118233333Y-91318633D02*
X118166666Y-91285300D01*
X118166666Y-91285300D02*
X118133333Y-91251966D01*
X71766666Y-96118633D02*
X71766666Y-96618633D01*
X71766666Y-96618633D02*
X71733333Y-96718633D01*
X71733333Y-96718633D02*
X71666666Y-96785300D01*
X71666666Y-96785300D02*
X71566666Y-96818633D01*
X71566666Y-96818633D02*
X71500000Y-96818633D01*
X72033333Y-96118633D02*
X72466666Y-96118633D01*
X72466666Y-96118633D02*
X72233333Y-96385300D01*
X72233333Y-96385300D02*
X72333333Y-96385300D01*
X72333333Y-96385300D02*
X72399999Y-96418633D01*
X72399999Y-96418633D02*
X72433333Y-96451966D01*
X72433333Y-96451966D02*
X72466666Y-96518633D01*
X72466666Y-96518633D02*
X72466666Y-96685300D01*
X72466666Y-96685300D02*
X72433333Y-96751966D01*
X72433333Y-96751966D02*
X72399999Y-96785300D01*
X72399999Y-96785300D02*
X72333333Y-96818633D01*
X72333333Y-96818633D02*
X72133333Y-96818633D01*
X72133333Y-96818633D02*
X72066666Y-96785300D01*
X72066666Y-96785300D02*
X72033333Y-96751966D01*
X106633333Y-110818633D02*
X106633333Y-111385300D01*
X106633333Y-111385300D02*
X106666667Y-111451966D01*
X106666667Y-111451966D02*
X106700000Y-111485300D01*
X106700000Y-111485300D02*
X106766667Y-111518633D01*
X106766667Y-111518633D02*
X106900000Y-111518633D01*
X106900000Y-111518633D02*
X106966667Y-111485300D01*
X106966667Y-111485300D02*
X107000000Y-111451966D01*
X107000000Y-111451966D02*
X107033333Y-111385300D01*
X107033333Y-111385300D02*
X107033333Y-110818633D01*
X107733333Y-111518633D02*
X107333333Y-111518633D01*
X107533333Y-111518633D02*
X107533333Y-110818633D01*
X107533333Y-110818633D02*
X107466666Y-110918633D01*
X107466666Y-110918633D02*
X107400000Y-110985300D01*
X107400000Y-110985300D02*
X107333333Y-111018633D01*
X108400000Y-111518633D02*
X108000000Y-111518633D01*
X108200000Y-111518633D02*
X108200000Y-110818633D01*
X108200000Y-110818633D02*
X108133333Y-110918633D01*
X108133333Y-110918633D02*
X108066667Y-110985300D01*
X108066667Y-110985300D02*
X108000000Y-111018633D01*
X111466666Y-112318633D02*
X111466666Y-112885300D01*
X111466666Y-112885300D02*
X111500000Y-112951966D01*
X111500000Y-112951966D02*
X111533333Y-112985300D01*
X111533333Y-112985300D02*
X111600000Y-113018633D01*
X111600000Y-113018633D02*
X111733333Y-113018633D01*
X111733333Y-113018633D02*
X111800000Y-112985300D01*
X111800000Y-112985300D02*
X111833333Y-112951966D01*
X111833333Y-112951966D02*
X111866666Y-112885300D01*
X111866666Y-112885300D02*
X111866666Y-112318633D01*
X112299999Y-112618633D02*
X112233333Y-112585300D01*
X112233333Y-112585300D02*
X112199999Y-112551966D01*
X112199999Y-112551966D02*
X112166666Y-112485300D01*
X112166666Y-112485300D02*
X112166666Y-112451966D01*
X112166666Y-112451966D02*
X112199999Y-112385300D01*
X112199999Y-112385300D02*
X112233333Y-112351966D01*
X112233333Y-112351966D02*
X112299999Y-112318633D01*
X112299999Y-112318633D02*
X112433333Y-112318633D01*
X112433333Y-112318633D02*
X112499999Y-112351966D01*
X112499999Y-112351966D02*
X112533333Y-112385300D01*
X112533333Y-112385300D02*
X112566666Y-112451966D01*
X112566666Y-112451966D02*
X112566666Y-112485300D01*
X112566666Y-112485300D02*
X112533333Y-112551966D01*
X112533333Y-112551966D02*
X112499999Y-112585300D01*
X112499999Y-112585300D02*
X112433333Y-112618633D01*
X112433333Y-112618633D02*
X112299999Y-112618633D01*
X112299999Y-112618633D02*
X112233333Y-112651966D01*
X112233333Y-112651966D02*
X112199999Y-112685300D01*
X112199999Y-112685300D02*
X112166666Y-112751966D01*
X112166666Y-112751966D02*
X112166666Y-112885300D01*
X112166666Y-112885300D02*
X112199999Y-112951966D01*
X112199999Y-112951966D02*
X112233333Y-112985300D01*
X112233333Y-112985300D02*
X112299999Y-113018633D01*
X112299999Y-113018633D02*
X112433333Y-113018633D01*
X112433333Y-113018633D02*
X112499999Y-112985300D01*
X112499999Y-112985300D02*
X112533333Y-112951966D01*
X112533333Y-112951966D02*
X112566666Y-112885300D01*
X112566666Y-112885300D02*
X112566666Y-112751966D01*
X112566666Y-112751966D02*
X112533333Y-112685300D01*
X112533333Y-112685300D02*
X112499999Y-112651966D01*
X112499999Y-112651966D02*
X112433333Y-112618633D01*
X82766666Y-110118633D02*
X82766666Y-110618633D01*
X82766666Y-110618633D02*
X82733333Y-110718633D01*
X82733333Y-110718633D02*
X82666666Y-110785300D01*
X82666666Y-110785300D02*
X82566666Y-110818633D01*
X82566666Y-110818633D02*
X82500000Y-110818633D01*
X83433333Y-110118633D02*
X83099999Y-110118633D01*
X83099999Y-110118633D02*
X83066666Y-110451966D01*
X83066666Y-110451966D02*
X83099999Y-110418633D01*
X83099999Y-110418633D02*
X83166666Y-110385300D01*
X83166666Y-110385300D02*
X83333333Y-110385300D01*
X83333333Y-110385300D02*
X83399999Y-110418633D01*
X83399999Y-110418633D02*
X83433333Y-110451966D01*
X83433333Y-110451966D02*
X83466666Y-110518633D01*
X83466666Y-110518633D02*
X83466666Y-110685300D01*
X83466666Y-110685300D02*
X83433333Y-110751966D01*
X83433333Y-110751966D02*
X83399999Y-110785300D01*
X83399999Y-110785300D02*
X83333333Y-110818633D01*
X83333333Y-110818633D02*
X83166666Y-110818633D01*
X83166666Y-110818633D02*
X83099999Y-110785300D01*
X83099999Y-110785300D02*
X83066666Y-110751966D01*
M02*
