%TF.GenerationSoftware,KiCad,Pcbnew,10.0.1*%
%TF.CreationDate,2026-09-04T14:43:07-05:00*%
%TF.ProjectId,BIOCHEST-ECG-EMG,42494f43-4845-4535-942d-4543472d454d,rev?*%
%TF.SameCoordinates,Original*%
%TF.FileFunction,Copper,L4,Bot*%
%TF.FilePolarity,Positive*%
%FSLAX46Y46*%
G04 Gerber Fmt 4.6, Leading zero omitted, Abs format (unit mm)*
G04 Created by KiCad (PCBNEW 10.0.1) date 2026-09-04 14:43:07*
%MOMM*%
%LPD*%
G01*
G04 APERTURE LIST*
%TA.AperFunction,ComponentPad*%
%ADD10C,4.500000*%
%TD*%
%TA.AperFunction,ComponentPad*%
%ADD11R,1.500000X1.500000*%
%TD*%
%TA.AperFunction,ComponentPad*%
%ADD12C,1.500000*%
%TD*%
%TA.AperFunction,ComponentPad*%
%ADD13O,2.200000X1.200000*%
%TD*%
%TA.AperFunction,ViaPad*%
%ADD14C,0.600000*%
%TD*%
%TA.AperFunction,ViaPad*%
%ADD15C,0.800000*%
%TD*%
%TA.AperFunction,Conductor*%
%ADD16C,0.200000*%
%TD*%
G04 APERTURE END LIST*
D10*
%TO.P,J5,1*%
%TO.N,EMG_N*%
X70000000Y-110000000D03*
%TD*%
D11*
%TO.P,BT1,1*%
%TO.N,VBAT*%
X127000000Y-108000000D03*
D12*
%TO.P,BT1,2*%
%TO.N,DGND*%
X129000000Y-108000000D03*
%TD*%
D11*
%TO.P,U10,1*%
%TO.N,DGND*%
X92810000Y-115000000D03*
D12*
%TO.P,U10,2*%
%TO.N,VSYS*%
X90270000Y-115000000D03*
%TO.P,U10,3*%
%TO.N,AGND*%
X87730000Y-115000000D03*
%TO.P,U10,4*%
%TO.N,3V3_AFE*%
X85190000Y-115000000D03*
%TD*%
D13*
%TO.P,J6,SH*%
%TO.N,DGND*%
X130000000Y-99300000D03*
X130000000Y-90700000D03*
%TD*%
D10*
%TO.P,J4,1*%
%TO.N,EMG_P*%
X54500000Y-109500000D03*
%TD*%
%TO.P,J3,1*%
%TO.N,RLD_DRV*%
X54000000Y-95000000D03*
%TD*%
%TO.P,J2,1*%
%TO.N,ECG_N*%
X70000000Y-78000000D03*
%TD*%
%TO.P,J1,1*%
%TO.N,ECG_P*%
X54000000Y-78000000D03*
%TD*%
D14*
%TO.N,EMG_N*%
X70577500Y-95130400D03*
D15*
%TO.N,VBAT*%
X105881700Y-109005000D03*
X122104400Y-117256100D03*
D14*
%TO.N,DGND*%
X111831200Y-114229500D03*
X97166600Y-99445000D03*
X101491100Y-88635000D03*
X120000000Y-73255900D03*
X120538100Y-114761900D03*
X114734200Y-97000000D03*
X105592500Y-106839400D03*
%TO.N,3V3_AFE*%
X80815400Y-90397100D03*
X74000000Y-98279700D03*
X62138000Y-102764700D03*
%TO.N,AGND*%
X63709800Y-96258100D03*
X74000000Y-95000000D03*
X80842700Y-99445000D03*
X77845000Y-77956700D03*
X63654200Y-104739200D03*
X76012100Y-86340200D03*
X71482500Y-89317500D03*
X62950000Y-88979900D03*
%TO.N,RLD_DRV*%
X70684100Y-96689200D03*
%TO.N,ECG_P*%
X70681900Y-93308600D03*
X60221200Y-87897900D03*
%TO.N,ECG_N*%
X68463300Y-93041800D03*
X63673400Y-87373300D03*
%TO.N,LED_ALERT*%
X123519100Y-74680900D03*
X109814200Y-101934100D03*
D15*
%TO.N,VSYS*%
X110092100Y-114893800D03*
X124663000Y-116363000D03*
D14*
%TO.N,3V3_DIG*%
X97184400Y-90756500D03*
X102907500Y-93075200D03*
X107337800Y-106585800D03*
%TO.N,EMG_P*%
X60358700Y-104826700D03*
%TO.N,SPI_SCLK_AFE*%
X80825900Y-93095000D03*
X77258600Y-96390200D03*
%TO.N,SPI_MOSI_AFE*%
X77684700Y-95471200D03*
X80842300Y-94571000D03*
%TO.N,SPI_MISO_DIG*%
X97152900Y-97106200D03*
X104682800Y-100759500D03*
%TO.N,SPI_CS_DIG*%
X103230000Y-98100200D03*
X97174100Y-95882400D03*
%TO.N,SPI_MOSI_DIG*%
X97155900Y-94455000D03*
X103112900Y-99300000D03*
%TO.N,SPI_SCLK_DIG*%
X97169400Y-93095000D03*
X104689800Y-99941500D03*
%TO.N,ESP_EN*%
X103133500Y-94549800D03*
X105230000Y-74085000D03*
%TO.N,ESP_IO0*%
X106830100Y-95050000D03*
X108905000Y-73249800D03*
%TO.N,I2C_SCL*%
X108200000Y-104058400D03*
X102331400Y-107625200D03*
%TO.N,LED_STATUS*%
X108900000Y-101943500D03*
X118521400Y-74678600D03*
%TO.N,USB_DN*%
X125923400Y-94750100D03*
X110676600Y-101929100D03*
%TO.N,USB_DP*%
X111428400Y-101849900D03*
X125923400Y-96049900D03*
D15*
%TO.N,VBUS*%
X125790000Y-97400000D03*
X120498300Y-112438000D03*
%TD*%
%TO.N,SPI_MOSI_DIG*%
D16*
X102000900Y-99300000D02*
X103112900Y-99300000D01*
X97155900Y-94455000D02*
X102000900Y-99300000D01*
%TD*%
%TA.AperFunction,Conductor*%
%TO.N,AGND*%
G36*
X87959191Y-64943907D02*
G01*
X87995155Y-64993407D01*
X88000000Y-65024000D01*
X88000000Y-69923821D01*
X87999500Y-69931452D01*
X87999500Y-110068548D01*
X88000000Y-110076178D01*
X88000000Y-113862503D01*
X87981093Y-113920694D01*
X87931593Y-113956658D01*
X87881687Y-113959601D01*
X87833420Y-113950000D01*
X87626581Y-113950000D01*
X87423727Y-113990349D01*
X87232638Y-114069501D01*
X87142543Y-114129700D01*
X87626471Y-114613629D01*
X87575606Y-114627259D01*
X87484394Y-114679920D01*
X87409920Y-114754394D01*
X87357259Y-114845606D01*
X87343629Y-114896473D01*
X86859699Y-114412543D01*
X86799501Y-114502638D01*
X86720349Y-114693727D01*
X86680000Y-114896581D01*
X86680000Y-115103418D01*
X86720349Y-115306272D01*
X86799501Y-115497361D01*
X86859699Y-115587455D01*
X87343628Y-115103525D01*
X87357259Y-115154394D01*
X87409920Y-115245606D01*
X87484394Y-115320080D01*
X87575606Y-115372741D01*
X87626470Y-115386369D01*
X87142542Y-115870298D01*
X87232638Y-115930498D01*
X87423727Y-116009650D01*
X87626581Y-116049999D01*
X87626586Y-116050000D01*
X87833415Y-116050000D01*
X87833415Y-116049999D01*
X87881685Y-116040398D01*
X87942446Y-116047589D01*
X87987377Y-116089121D01*
X88000000Y-116137496D01*
X88000000Y-120976000D01*
X87981093Y-121034191D01*
X87931593Y-121070155D01*
X87901000Y-121075000D01*
X48358919Y-121075000D01*
X48308023Y-121060915D01*
X48059950Y-120912226D01*
X48051872Y-120906828D01*
X47783849Y-120708048D01*
X47776339Y-120701885D01*
X47529083Y-120477786D01*
X47522218Y-120470921D01*
X47298114Y-120223660D01*
X47291951Y-120216150D01*
X47093171Y-119948127D01*
X47087773Y-119940049D01*
X46939085Y-119691976D01*
X46925000Y-119641080D01*
X46925000Y-114901579D01*
X83939500Y-114901579D01*
X83939500Y-115098420D01*
X83970289Y-115292821D01*
X83970291Y-115292826D01*
X84031116Y-115480025D01*
X84120476Y-115655405D01*
X84236172Y-115814646D01*
X84375354Y-115953828D01*
X84534595Y-116069524D01*
X84709975Y-116158884D01*
X84897174Y-116219709D01*
X84897175Y-116219709D01*
X84897178Y-116219710D01*
X85091580Y-116250500D01*
X85091583Y-116250500D01*
X85288420Y-116250500D01*
X85482821Y-116219710D01*
X85482822Y-116219709D01*
X85482826Y-116219709D01*
X85670025Y-116158884D01*
X85845405Y-116069524D01*
X86004646Y-115953828D01*
X86143828Y-115814646D01*
X86259524Y-115655405D01*
X86348884Y-115480025D01*
X86409709Y-115292826D01*
X86426571Y-115186365D01*
X86440500Y-115098420D01*
X86440500Y-114901584D01*
X86440499Y-114901575D01*
X86409710Y-114707178D01*
X86409709Y-114707174D01*
X86348884Y-114519975D01*
X86259524Y-114344595D01*
X86143828Y-114185354D01*
X86004646Y-114046172D01*
X85845405Y-113930476D01*
X85845404Y-113930475D01*
X85845402Y-113930474D01*
X85670025Y-113841116D01*
X85482821Y-113780289D01*
X85288420Y-113749500D01*
X85288417Y-113749500D01*
X85091583Y-113749500D01*
X85091580Y-113749500D01*
X84897178Y-113780289D01*
X84709974Y-113841116D01*
X84534597Y-113930474D01*
X84375355Y-114046171D01*
X84236171Y-114185355D01*
X84120474Y-114344597D01*
X84031116Y-114519974D01*
X83970289Y-114707178D01*
X83939500Y-114901579D01*
X46925000Y-114901579D01*
X46925000Y-109345533D01*
X51749500Y-109345533D01*
X51749500Y-109654466D01*
X51784088Y-109961450D01*
X51852832Y-110262637D01*
X51954863Y-110554225D01*
X52088905Y-110832566D01*
X52228183Y-111054225D01*
X52253265Y-111094143D01*
X52445880Y-111335674D01*
X52664326Y-111554120D01*
X52905857Y-111746735D01*
X53167435Y-111911095D01*
X53445771Y-112045135D01*
X53737364Y-112147168D01*
X54038548Y-112215911D01*
X54345535Y-112250500D01*
X54345536Y-112250500D01*
X54654464Y-112250500D01*
X54654465Y-112250500D01*
X54961452Y-112215911D01*
X55262636Y-112147168D01*
X55554229Y-112045135D01*
X55832565Y-111911095D01*
X56094143Y-111746735D01*
X56335674Y-111554120D01*
X56554120Y-111335674D01*
X56746735Y-111094143D01*
X56911095Y-110832565D01*
X57045135Y-110554229D01*
X57147168Y-110262636D01*
X57215911Y-109961452D01*
X57215911Y-109961449D01*
X57215913Y-109961442D01*
X57228973Y-109845533D01*
X67249500Y-109845533D01*
X67249500Y-110154466D01*
X67284088Y-110461450D01*
X67352832Y-110762637D01*
X67454863Y-111054225D01*
X67588905Y-111332566D01*
X67728117Y-111554120D01*
X67753265Y-111594143D01*
X67945880Y-111835674D01*
X68164326Y-112054120D01*
X68405857Y-112246735D01*
X68667435Y-112411095D01*
X68945771Y-112545135D01*
X69237364Y-112647168D01*
X69538548Y-112715911D01*
X69845535Y-112750500D01*
X69845536Y-112750500D01*
X70154464Y-112750500D01*
X70154465Y-112750500D01*
X70461452Y-112715911D01*
X70762636Y-112647168D01*
X71054229Y-112545135D01*
X71332565Y-112411095D01*
X71594143Y-112246735D01*
X71835674Y-112054120D01*
X72054120Y-111835674D01*
X72246735Y-111594143D01*
X72411095Y-111332565D01*
X72545135Y-111054229D01*
X72647168Y-110762636D01*
X72715911Y-110461452D01*
X72750500Y-110154465D01*
X72750500Y-109845535D01*
X72715911Y-109538548D01*
X72647168Y-109237364D01*
X72545135Y-108945771D01*
X72411095Y-108667435D01*
X72246735Y-108405857D01*
X72054120Y-108164326D01*
X71835674Y-107945880D01*
X71594143Y-107753265D01*
X71452599Y-107664327D01*
X71332566Y-107588905D01*
X71054225Y-107454863D01*
X70762637Y-107352832D01*
X70461450Y-107284088D01*
X70154466Y-107249500D01*
X70154465Y-107249500D01*
X69845535Y-107249500D01*
X69845533Y-107249500D01*
X69538549Y-107284088D01*
X69237362Y-107352832D01*
X68945774Y-107454863D01*
X68667433Y-107588905D01*
X68405856Y-107753265D01*
X68164327Y-107945879D01*
X67945879Y-108164327D01*
X67753265Y-108405856D01*
X67588905Y-108667433D01*
X67454863Y-108945774D01*
X67352832Y-109237362D01*
X67284088Y-109538549D01*
X67249500Y-109845533D01*
X57228973Y-109845533D01*
X57230534Y-109831677D01*
X57230534Y-109831673D01*
X57237471Y-109770093D01*
X57250500Y-109654465D01*
X57250500Y-109345535D01*
X57215911Y-109038548D01*
X57147168Y-108737364D01*
X57045135Y-108445771D01*
X56911095Y-108167435D01*
X56909141Y-108164326D01*
X56746734Y-107905856D01*
X56554120Y-107664326D01*
X56335674Y-107445880D01*
X56094143Y-107253265D01*
X56088151Y-107249500D01*
X55832566Y-107088905D01*
X55554225Y-106954863D01*
X55262637Y-106852832D01*
X54961450Y-106784088D01*
X54654466Y-106749500D01*
X54654465Y-106749500D01*
X54345535Y-106749500D01*
X54345533Y-106749500D01*
X54038549Y-106784088D01*
X53737362Y-106852832D01*
X53445774Y-106954863D01*
X53167433Y-107088905D01*
X52905856Y-107253265D01*
X52664327Y-107445879D01*
X52445879Y-107664327D01*
X52253265Y-107905856D01*
X52088905Y-108167433D01*
X51954863Y-108445774D01*
X51852832Y-108737362D01*
X51784088Y-109038549D01*
X51749500Y-109345533D01*
X46925000Y-109345533D01*
X46925000Y-104747855D01*
X59558200Y-104747855D01*
X59558200Y-104905544D01*
X59588963Y-105060196D01*
X59588963Y-105060198D01*
X59649303Y-105205874D01*
X59649309Y-105205885D01*
X59702012Y-105284759D01*
X59736911Y-105336989D01*
X59848411Y-105448489D01*
X59926576Y-105500717D01*
X59979514Y-105536090D01*
X59979525Y-105536096D01*
X60033338Y-105558385D01*
X60125203Y-105596437D01*
X60279858Y-105627200D01*
X60279859Y-105627200D01*
X60437541Y-105627200D01*
X60437542Y-105627200D01*
X60592197Y-105596437D01*
X60737879Y-105536094D01*
X60868989Y-105448489D01*
X60980489Y-105336989D01*
X61068094Y-105205879D01*
X61128437Y-105060197D01*
X61159200Y-104905542D01*
X61159200Y-104747858D01*
X61128437Y-104593203D01*
X61068094Y-104447521D01*
X61068093Y-104447519D01*
X61068090Y-104447514D01*
X61032717Y-104394576D01*
X60980489Y-104316411D01*
X60868989Y-104204911D01*
X60816759Y-104170012D01*
X60737885Y-104117309D01*
X60737874Y-104117303D01*
X60592197Y-104056963D01*
X60437544Y-104026200D01*
X60437542Y-104026200D01*
X60279858Y-104026200D01*
X60279855Y-104026200D01*
X60125203Y-104056963D01*
X60125201Y-104056963D01*
X59979525Y-104117303D01*
X59979514Y-104117309D01*
X59848411Y-104204911D01*
X59848407Y-104204914D01*
X59736914Y-104316407D01*
X59736911Y-104316411D01*
X59649309Y-104447514D01*
X59649303Y-104447525D01*
X59588963Y-104593201D01*
X59588963Y-104593203D01*
X59558200Y-104747855D01*
X46925000Y-104747855D01*
X46925000Y-102685855D01*
X61337500Y-102685855D01*
X61337500Y-102843544D01*
X61368263Y-102998196D01*
X61368263Y-102998198D01*
X61428603Y-103143874D01*
X61428609Y-103143885D01*
X61481312Y-103222759D01*
X61516211Y-103274989D01*
X61627711Y-103386489D01*
X61705876Y-103438717D01*
X61758814Y-103474090D01*
X61758825Y-103474096D01*
X61812638Y-103496385D01*
X61904503Y-103534437D01*
X62059158Y-103565200D01*
X62059159Y-103565200D01*
X62216841Y-103565200D01*
X62216842Y-103565200D01*
X62371497Y-103534437D01*
X62517179Y-103474094D01*
X62648289Y-103386489D01*
X62759789Y-103274989D01*
X62847394Y-103143879D01*
X62907737Y-102998197D01*
X62938500Y-102843542D01*
X62938500Y-102685858D01*
X62907737Y-102531203D01*
X62847394Y-102385521D01*
X62847393Y-102385519D01*
X62847390Y-102385514D01*
X62812017Y-102332576D01*
X62759789Y-102254411D01*
X62648289Y-102142911D01*
X62596059Y-102108012D01*
X62517185Y-102055309D01*
X62517174Y-102055303D01*
X62371497Y-101994963D01*
X62216844Y-101964200D01*
X62216842Y-101964200D01*
X62059158Y-101964200D01*
X62059155Y-101964200D01*
X61904503Y-101994963D01*
X61904501Y-101994963D01*
X61758825Y-102055303D01*
X61758814Y-102055309D01*
X61627711Y-102142911D01*
X61627707Y-102142914D01*
X61516214Y-102254407D01*
X61516211Y-102254411D01*
X61428609Y-102385514D01*
X61428603Y-102385525D01*
X61368263Y-102531201D01*
X61368263Y-102531203D01*
X61337500Y-102685855D01*
X46925000Y-102685855D01*
X46925000Y-98200855D01*
X73199500Y-98200855D01*
X73199500Y-98358544D01*
X73230263Y-98513196D01*
X73230263Y-98513198D01*
X73290603Y-98658874D01*
X73290609Y-98658885D01*
X73343312Y-98737759D01*
X73378211Y-98789989D01*
X73489711Y-98901489D01*
X73567876Y-98953717D01*
X73620814Y-98989090D01*
X73620825Y-98989096D01*
X73674638Y-99011385D01*
X73766503Y-99049437D01*
X73921158Y-99080200D01*
X73921159Y-99080200D01*
X74078841Y-99080200D01*
X74078842Y-99080200D01*
X74233497Y-99049437D01*
X74379179Y-98989094D01*
X74510289Y-98901489D01*
X74621789Y-98789989D01*
X74709394Y-98658879D01*
X74769737Y-98513197D01*
X74800500Y-98358542D01*
X74800500Y-98200858D01*
X74769737Y-98046203D01*
X74709394Y-97900521D01*
X74709393Y-97900519D01*
X74709390Y-97900514D01*
X74674017Y-97847576D01*
X74621789Y-97769411D01*
X74510289Y-97657911D01*
X74458059Y-97623012D01*
X74379185Y-97570309D01*
X74379174Y-97570303D01*
X74233497Y-97509963D01*
X74078844Y-97479200D01*
X74078842Y-97479200D01*
X73921158Y-97479200D01*
X73921155Y-97479200D01*
X73766503Y-97509963D01*
X73766501Y-97509963D01*
X73620825Y-97570303D01*
X73620814Y-97570309D01*
X73489711Y-97657911D01*
X73489707Y-97657914D01*
X73378214Y-97769407D01*
X73378211Y-97769411D01*
X73290609Y-97900514D01*
X73290603Y-97900525D01*
X73230263Y-98046201D01*
X73230263Y-98046203D01*
X73199500Y-98200855D01*
X46925000Y-98200855D01*
X46925000Y-94845533D01*
X51249500Y-94845533D01*
X51249500Y-95154466D01*
X51284088Y-95461450D01*
X51352832Y-95762637D01*
X51454863Y-96054225D01*
X51588905Y-96332566D01*
X51674659Y-96469042D01*
X51753265Y-96594143D01*
X51945880Y-96835674D01*
X52164326Y-97054120D01*
X52405857Y-97246735D01*
X52508111Y-97310985D01*
X52647539Y-97398594D01*
X52667435Y-97411095D01*
X52945771Y-97545135D01*
X53237364Y-97647168D01*
X53538548Y-97715911D01*
X53845535Y-97750500D01*
X53845536Y-97750500D01*
X54154464Y-97750500D01*
X54154465Y-97750500D01*
X54461452Y-97715911D01*
X54762636Y-97647168D01*
X55054229Y-97545135D01*
X55332565Y-97411095D01*
X55594143Y-97246735D01*
X55835674Y-97054120D01*
X56054120Y-96835674D01*
X56246735Y-96594143D01*
X56411095Y-96332565D01*
X56545135Y-96054229D01*
X56647168Y-95762636D01*
X56715911Y-95461452D01*
X56750500Y-95154465D01*
X56750500Y-95051555D01*
X69777000Y-95051555D01*
X69777000Y-95209244D01*
X69807763Y-95363896D01*
X69807763Y-95363898D01*
X69868103Y-95509574D01*
X69868109Y-95509585D01*
X69920812Y-95588459D01*
X69955711Y-95640689D01*
X70067211Y-95752189D01*
X70145376Y-95804417D01*
X70198314Y-95839790D01*
X70198318Y-95839792D01*
X70198321Y-95839794D01*
X70216314Y-95847247D01*
X70222364Y-95849753D01*
X70268889Y-95889490D01*
X70283173Y-95948984D01*
X70259758Y-96005512D01*
X70239480Y-96023532D01*
X70173811Y-96067410D01*
X70062314Y-96178907D01*
X70062311Y-96178911D01*
X69974709Y-96310014D01*
X69974703Y-96310025D01*
X69914363Y-96455701D01*
X69914363Y-96455703D01*
X69883600Y-96610355D01*
X69883600Y-96768044D01*
X69914363Y-96922696D01*
X69914363Y-96922698D01*
X69974703Y-97068374D01*
X69974709Y-97068385D01*
X70027412Y-97147259D01*
X70062311Y-97199489D01*
X70173811Y-97310989D01*
X70251976Y-97363217D01*
X70304914Y-97398590D01*
X70304925Y-97398596D01*
X70335099Y-97411094D01*
X70450603Y-97458937D01*
X70605258Y-97489700D01*
X70605259Y-97489700D01*
X70762941Y-97489700D01*
X70762942Y-97489700D01*
X70917597Y-97458937D01*
X71063279Y-97398594D01*
X71194389Y-97310989D01*
X71305889Y-97199489D01*
X71393494Y-97068379D01*
X71453837Y-96922697D01*
X71484600Y-96768042D01*
X71484600Y-96610358D01*
X71453837Y-96455703D01*
X71443006Y-96429555D01*
X71407726Y-96344379D01*
X71394050Y-96311364D01*
X71394046Y-96311355D01*
X76458100Y-96311355D01*
X76458100Y-96469044D01*
X76488863Y-96623696D01*
X76488863Y-96623698D01*
X76549203Y-96769374D01*
X76549209Y-96769385D01*
X76593503Y-96835674D01*
X76636811Y-96900489D01*
X76748311Y-97011989D01*
X76826476Y-97064217D01*
X76879414Y-97099590D01*
X76879425Y-97099596D01*
X76933238Y-97121885D01*
X77025103Y-97159937D01*
X77179758Y-97190700D01*
X77179759Y-97190700D01*
X77337441Y-97190700D01*
X77337442Y-97190700D01*
X77492097Y-97159937D01*
X77637779Y-97099594D01*
X77768889Y-97011989D01*
X77880389Y-96900489D01*
X77967994Y-96769379D01*
X78028337Y-96623697D01*
X78059100Y-96469042D01*
X78059100Y-96311358D01*
X78049606Y-96263631D01*
X78056796Y-96202872D01*
X78091699Y-96162004D01*
X78194989Y-96092989D01*
X78306489Y-95981489D01*
X78394094Y-95850379D01*
X78454437Y-95704697D01*
X78485200Y-95550042D01*
X78485200Y-95392358D01*
X78454437Y-95237703D01*
X78394094Y-95092021D01*
X78394093Y-95092019D01*
X78394090Y-95092014D01*
X78358717Y-95039076D01*
X78306489Y-94960911D01*
X78194989Y-94849411D01*
X78127769Y-94804496D01*
X78063885Y-94761809D01*
X78063874Y-94761803D01*
X77918197Y-94701463D01*
X77763544Y-94670700D01*
X77763542Y-94670700D01*
X77605858Y-94670700D01*
X77605855Y-94670700D01*
X77451203Y-94701463D01*
X77451201Y-94701463D01*
X77305525Y-94761803D01*
X77305514Y-94761809D01*
X77174411Y-94849411D01*
X77174407Y-94849414D01*
X77062914Y-94960907D01*
X77062911Y-94960911D01*
X76975309Y-95092014D01*
X76975303Y-95092025D01*
X76914963Y-95237701D01*
X76914963Y-95237703D01*
X76884200Y-95392355D01*
X76884200Y-95550045D01*
X76893693Y-95597768D01*
X76886501Y-95658529D01*
X76851597Y-95699397D01*
X76748311Y-95768411D01*
X76748307Y-95768414D01*
X76636814Y-95879907D01*
X76636811Y-95879911D01*
X76549209Y-96011014D01*
X76549203Y-96011025D01*
X76488863Y-96156701D01*
X76488863Y-96156703D01*
X76458100Y-96311355D01*
X71394046Y-96311355D01*
X71393494Y-96310021D01*
X71393492Y-96310018D01*
X71393490Y-96310014D01*
X71321899Y-96202872D01*
X71305889Y-96178911D01*
X71194389Y-96067411D01*
X71128720Y-96023532D01*
X71063285Y-95979809D01*
X71063272Y-95979802D01*
X71039234Y-95969845D01*
X70992709Y-95930108D01*
X70978426Y-95870613D01*
X71001842Y-95814085D01*
X71022112Y-95796072D01*
X71087789Y-95752189D01*
X71199289Y-95640689D01*
X71286894Y-95509579D01*
X71347237Y-95363897D01*
X71378000Y-95209242D01*
X71378000Y-95051558D01*
X71347237Y-94896903D01*
X71308962Y-94804498D01*
X71286896Y-94751225D01*
X71286890Y-94751214D01*
X71251517Y-94698276D01*
X71199289Y-94620111D01*
X71087789Y-94508611D01*
X71035559Y-94473712D01*
X70956685Y-94421009D01*
X70956674Y-94421003D01*
X70810997Y-94360663D01*
X70656344Y-94329900D01*
X70656342Y-94329900D01*
X70498658Y-94329900D01*
X70498655Y-94329900D01*
X70344003Y-94360663D01*
X70344001Y-94360663D01*
X70198325Y-94421003D01*
X70198314Y-94421009D01*
X70067211Y-94508611D01*
X70067207Y-94508614D01*
X69955714Y-94620107D01*
X69955711Y-94620111D01*
X69868109Y-94751214D01*
X69868103Y-94751225D01*
X69807763Y-94896901D01*
X69807763Y-94896903D01*
X69777000Y-95051555D01*
X56750500Y-95051555D01*
X56750500Y-94845535D01*
X56715911Y-94538548D01*
X56647168Y-94237364D01*
X56545135Y-93945771D01*
X56411095Y-93667435D01*
X56408678Y-93663589D01*
X56289661Y-93474174D01*
X56246735Y-93405857D01*
X56054120Y-93164326D01*
X55852749Y-92962955D01*
X67662800Y-92962955D01*
X67662800Y-93120644D01*
X67693563Y-93275296D01*
X67693563Y-93275298D01*
X67753903Y-93420974D01*
X67753909Y-93420985D01*
X67789453Y-93474179D01*
X67841511Y-93552089D01*
X67953011Y-93663589D01*
X68031176Y-93715817D01*
X68084114Y-93751190D01*
X68084125Y-93751196D01*
X68137938Y-93773485D01*
X68229803Y-93811537D01*
X68384458Y-93842300D01*
X68384459Y-93842300D01*
X68542141Y-93842300D01*
X68542142Y-93842300D01*
X68696797Y-93811537D01*
X68842479Y-93751194D01*
X68973589Y-93663589D01*
X69085089Y-93552089D01*
X69172694Y-93420979D01*
X69233037Y-93275297D01*
X69242096Y-93229755D01*
X69881400Y-93229755D01*
X69881400Y-93387444D01*
X69912163Y-93542096D01*
X69912163Y-93542098D01*
X69972503Y-93687774D01*
X69972509Y-93687785D01*
X70014880Y-93751196D01*
X70060111Y-93818889D01*
X70171611Y-93930389D01*
X70249776Y-93982617D01*
X70302714Y-94017990D01*
X70302725Y-94017996D01*
X70356538Y-94040285D01*
X70448403Y-94078337D01*
X70603058Y-94109100D01*
X70603059Y-94109100D01*
X70760741Y-94109100D01*
X70760742Y-94109100D01*
X70915397Y-94078337D01*
X71061079Y-94017994D01*
X71192189Y-93930389D01*
X71303689Y-93818889D01*
X71391294Y-93687779D01*
X71451637Y-93542097D01*
X71482400Y-93387442D01*
X71482400Y-93229758D01*
X71451637Y-93075103D01*
X71427220Y-93016155D01*
X80025400Y-93016155D01*
X80025400Y-93173844D01*
X80056163Y-93328496D01*
X80056163Y-93328498D01*
X80116503Y-93474174D01*
X80116509Y-93474185D01*
X80161887Y-93542096D01*
X80204111Y-93605289D01*
X80315611Y-93716789D01*
X80364975Y-93749773D01*
X80374540Y-93756164D01*
X80412419Y-93804214D01*
X80414821Y-93865352D01*
X80380828Y-93916226D01*
X80374540Y-93920794D01*
X80332011Y-93949211D01*
X80332007Y-93949214D01*
X80220514Y-94060707D01*
X80220511Y-94060711D01*
X80132909Y-94191814D01*
X80132903Y-94191825D01*
X80072563Y-94337501D01*
X80072563Y-94337503D01*
X80041800Y-94492155D01*
X80041800Y-94649844D01*
X80072563Y-94804496D01*
X80072563Y-94804498D01*
X80132903Y-94950174D01*
X80132909Y-94950185D01*
X80185612Y-95029059D01*
X80220511Y-95081289D01*
X80332011Y-95192789D01*
X80410176Y-95245017D01*
X80463114Y-95280390D01*
X80463125Y-95280396D01*
X80516938Y-95302685D01*
X80608803Y-95340737D01*
X80763458Y-95371500D01*
X80763459Y-95371500D01*
X80921141Y-95371500D01*
X80921142Y-95371500D01*
X81075797Y-95340737D01*
X81221479Y-95280394D01*
X81352589Y-95192789D01*
X81464089Y-95081289D01*
X81551694Y-94950179D01*
X81612037Y-94804497D01*
X81642800Y-94649842D01*
X81642800Y-94492158D01*
X81612037Y-94337503D01*
X81591922Y-94288942D01*
X81551696Y-94191825D01*
X81551690Y-94191814D01*
X81516317Y-94138876D01*
X81464089Y-94060711D01*
X81352589Y-93949211D01*
X81293659Y-93909835D01*
X81255780Y-93861785D01*
X81253378Y-93800647D01*
X81287371Y-93749773D01*
X81293638Y-93745220D01*
X81336189Y-93716789D01*
X81447689Y-93605289D01*
X81535294Y-93474179D01*
X81595637Y-93328497D01*
X81626400Y-93173842D01*
X81626400Y-93016158D01*
X81595637Y-92861503D01*
X81535294Y-92715821D01*
X81535293Y-92715819D01*
X81535290Y-92715814D01*
X81499742Y-92662614D01*
X81447689Y-92584711D01*
X81336189Y-92473211D01*
X81283959Y-92438312D01*
X81205085Y-92385609D01*
X81205074Y-92385603D01*
X81059397Y-92325263D01*
X80904744Y-92294500D01*
X80904742Y-92294500D01*
X80747058Y-92294500D01*
X80747055Y-92294500D01*
X80592403Y-92325263D01*
X80592401Y-92325263D01*
X80446725Y-92385603D01*
X80446714Y-92385609D01*
X80315611Y-92473211D01*
X80315607Y-92473214D01*
X80204114Y-92584707D01*
X80204111Y-92584711D01*
X80116509Y-92715814D01*
X80116503Y-92715825D01*
X80056163Y-92861501D01*
X80056163Y-92861503D01*
X80025400Y-93016155D01*
X71427220Y-93016155D01*
X71405186Y-92962959D01*
X71391296Y-92929425D01*
X71391290Y-92929414D01*
X71355917Y-92876476D01*
X71303689Y-92798311D01*
X71192189Y-92686811D01*
X71139959Y-92651912D01*
X71061085Y-92599209D01*
X71061074Y-92599203D01*
X70915397Y-92538863D01*
X70760744Y-92508100D01*
X70760742Y-92508100D01*
X70603058Y-92508100D01*
X70603055Y-92508100D01*
X70448403Y-92538863D01*
X70448401Y-92538863D01*
X70302725Y-92599203D01*
X70302714Y-92599209D01*
X70171611Y-92686811D01*
X70171607Y-92686814D01*
X70060114Y-92798307D01*
X70060111Y-92798311D01*
X69972509Y-92929414D01*
X69972503Y-92929425D01*
X69912163Y-93075101D01*
X69912163Y-93075103D01*
X69881400Y-93229755D01*
X69242096Y-93229755D01*
X69263800Y-93120642D01*
X69263800Y-92962958D01*
X69233037Y-92808303D01*
X69172694Y-92662621D01*
X69172693Y-92662619D01*
X69172690Y-92662614D01*
X69090001Y-92538863D01*
X69085089Y-92531511D01*
X68973589Y-92420011D01*
X68921359Y-92385112D01*
X68842485Y-92332409D01*
X68842474Y-92332403D01*
X68696797Y-92272063D01*
X68542144Y-92241300D01*
X68542142Y-92241300D01*
X68384458Y-92241300D01*
X68384455Y-92241300D01*
X68229803Y-92272063D01*
X68229801Y-92272063D01*
X68084125Y-92332403D01*
X68084114Y-92332409D01*
X67953011Y-92420011D01*
X67953007Y-92420014D01*
X67841514Y-92531507D01*
X67841511Y-92531511D01*
X67753909Y-92662614D01*
X67753903Y-92662625D01*
X67693563Y-92808301D01*
X67693563Y-92808303D01*
X67662800Y-92962955D01*
X55852749Y-92962955D01*
X55835674Y-92945880D01*
X55594143Y-92753265D01*
X55332566Y-92588905D01*
X55054225Y-92454863D01*
X54762637Y-92352832D01*
X54461450Y-92284088D01*
X54154466Y-92249500D01*
X54154465Y-92249500D01*
X53845535Y-92249500D01*
X53845533Y-92249500D01*
X53538549Y-92284088D01*
X53237362Y-92352832D01*
X52945774Y-92454863D01*
X52667433Y-92588905D01*
X52405856Y-92753265D01*
X52164327Y-92945879D01*
X51945879Y-93164327D01*
X51753265Y-93405856D01*
X51588905Y-93667433D01*
X51546175Y-93756164D01*
X51454865Y-93945771D01*
X51454865Y-93945772D01*
X51454864Y-93945772D01*
X51352832Y-94237362D01*
X51284088Y-94538549D01*
X51249500Y-94845533D01*
X46925000Y-94845533D01*
X46925000Y-90318255D01*
X80014900Y-90318255D01*
X80014900Y-90475944D01*
X80045663Y-90630596D01*
X80045663Y-90630598D01*
X80106003Y-90776274D01*
X80106009Y-90776285D01*
X80158712Y-90855159D01*
X80193611Y-90907389D01*
X80305111Y-91018889D01*
X80383276Y-91071117D01*
X80436214Y-91106490D01*
X80436225Y-91106496D01*
X80490038Y-91128785D01*
X80581903Y-91166837D01*
X80736558Y-91197600D01*
X80736559Y-91197600D01*
X80894241Y-91197600D01*
X80894242Y-91197600D01*
X81048897Y-91166837D01*
X81194579Y-91106494D01*
X81325689Y-91018889D01*
X81437189Y-90907389D01*
X81524794Y-90776279D01*
X81585137Y-90630597D01*
X81615900Y-90475942D01*
X81615900Y-90318258D01*
X81585137Y-90163603D01*
X81524794Y-90017921D01*
X81524793Y-90017919D01*
X81524790Y-90017914D01*
X81489417Y-89964976D01*
X81437189Y-89886811D01*
X81325689Y-89775311D01*
X81273459Y-89740412D01*
X81194585Y-89687709D01*
X81194574Y-89687703D01*
X81048897Y-89627363D01*
X80894244Y-89596600D01*
X80894242Y-89596600D01*
X80736558Y-89596600D01*
X80736555Y-89596600D01*
X80581903Y-89627363D01*
X80581901Y-89627363D01*
X80436225Y-89687703D01*
X80436214Y-89687709D01*
X80305111Y-89775311D01*
X80305107Y-89775314D01*
X80193614Y-89886807D01*
X80193611Y-89886811D01*
X80106009Y-90017914D01*
X80106003Y-90017925D01*
X80045663Y-90163601D01*
X80045663Y-90163603D01*
X80014900Y-90318255D01*
X46925000Y-90318255D01*
X46925000Y-87819055D01*
X59420700Y-87819055D01*
X59420700Y-87976744D01*
X59451463Y-88131396D01*
X59451463Y-88131398D01*
X59511803Y-88277074D01*
X59511809Y-88277085D01*
X59564512Y-88355959D01*
X59599411Y-88408189D01*
X59710911Y-88519689D01*
X59789076Y-88571917D01*
X59842014Y-88607290D01*
X59842025Y-88607296D01*
X59895838Y-88629585D01*
X59987703Y-88667637D01*
X60142358Y-88698400D01*
X60142359Y-88698400D01*
X60300041Y-88698400D01*
X60300042Y-88698400D01*
X60454697Y-88667637D01*
X60600379Y-88607294D01*
X60731489Y-88519689D01*
X60842989Y-88408189D01*
X60930594Y-88277079D01*
X60990937Y-88131397D01*
X61021700Y-87976742D01*
X61021700Y-87819058D01*
X60990937Y-87664403D01*
X60930594Y-87518721D01*
X60930593Y-87518719D01*
X60930590Y-87518714D01*
X60895217Y-87465776D01*
X60842989Y-87387611D01*
X60749833Y-87294455D01*
X62872900Y-87294455D01*
X62872900Y-87452144D01*
X62903663Y-87606796D01*
X62903663Y-87606798D01*
X62964003Y-87752474D01*
X62964009Y-87752485D01*
X63008491Y-87819055D01*
X63051611Y-87883589D01*
X63163111Y-87995089D01*
X63241276Y-88047317D01*
X63294214Y-88082690D01*
X63294225Y-88082696D01*
X63348038Y-88104985D01*
X63439903Y-88143037D01*
X63594558Y-88173800D01*
X63594559Y-88173800D01*
X63752241Y-88173800D01*
X63752242Y-88173800D01*
X63906897Y-88143037D01*
X64052579Y-88082694D01*
X64183689Y-87995089D01*
X64295189Y-87883589D01*
X64382794Y-87752479D01*
X64443137Y-87606797D01*
X64473900Y-87452142D01*
X64473900Y-87294458D01*
X64443137Y-87139803D01*
X64382794Y-86994121D01*
X64382793Y-86994119D01*
X64382790Y-86994114D01*
X64347417Y-86941176D01*
X64295189Y-86863011D01*
X64183689Y-86751511D01*
X64131459Y-86716612D01*
X64052585Y-86663909D01*
X64052574Y-86663903D01*
X63906897Y-86603563D01*
X63752244Y-86572800D01*
X63752242Y-86572800D01*
X63594558Y-86572800D01*
X63594555Y-86572800D01*
X63439903Y-86603563D01*
X63439901Y-86603563D01*
X63294225Y-86663903D01*
X63294214Y-86663909D01*
X63163111Y-86751511D01*
X63163107Y-86751514D01*
X63051614Y-86863007D01*
X63051611Y-86863011D01*
X62964009Y-86994114D01*
X62964003Y-86994125D01*
X62903663Y-87139801D01*
X62903663Y-87139803D01*
X62872900Y-87294455D01*
X60749833Y-87294455D01*
X60731489Y-87276111D01*
X60679259Y-87241212D01*
X60600385Y-87188509D01*
X60600374Y-87188503D01*
X60454697Y-87128163D01*
X60300044Y-87097400D01*
X60300042Y-87097400D01*
X60142358Y-87097400D01*
X60142355Y-87097400D01*
X59987703Y-87128163D01*
X59987701Y-87128163D01*
X59842025Y-87188503D01*
X59842014Y-87188509D01*
X59710911Y-87276111D01*
X59710907Y-87276114D01*
X59599414Y-87387607D01*
X59599411Y-87387611D01*
X59511809Y-87518714D01*
X59511803Y-87518725D01*
X59451463Y-87664401D01*
X59451463Y-87664403D01*
X59420700Y-87819055D01*
X46925000Y-87819055D01*
X46925000Y-77845533D01*
X51249500Y-77845533D01*
X51249500Y-78154466D01*
X51284088Y-78461450D01*
X51352832Y-78762637D01*
X51454863Y-79054225D01*
X51588905Y-79332566D01*
X51753265Y-79594143D01*
X51945880Y-79835674D01*
X52164326Y-80054120D01*
X52405857Y-80246735D01*
X52667435Y-80411095D01*
X52945771Y-80545135D01*
X53237364Y-80647168D01*
X53538548Y-80715911D01*
X53845535Y-80750500D01*
X53845536Y-80750500D01*
X54154464Y-80750500D01*
X54154465Y-80750500D01*
X54461452Y-80715911D01*
X54762636Y-80647168D01*
X55054229Y-80545135D01*
X55332565Y-80411095D01*
X55594143Y-80246735D01*
X55835674Y-80054120D01*
X56054120Y-79835674D01*
X56246735Y-79594143D01*
X56411095Y-79332565D01*
X56545135Y-79054229D01*
X56647168Y-78762636D01*
X56715911Y-78461452D01*
X56750500Y-78154465D01*
X56750500Y-77845535D01*
X56750500Y-77845533D01*
X67249500Y-77845533D01*
X67249500Y-78154466D01*
X67284088Y-78461450D01*
X67352832Y-78762637D01*
X67454863Y-79054225D01*
X67588905Y-79332566D01*
X67753265Y-79594143D01*
X67945880Y-79835674D01*
X68164326Y-80054120D01*
X68405857Y-80246735D01*
X68667435Y-80411095D01*
X68945771Y-80545135D01*
X69237364Y-80647168D01*
X69538548Y-80715911D01*
X69845535Y-80750500D01*
X69845536Y-80750500D01*
X70154464Y-80750500D01*
X70154465Y-80750500D01*
X70461452Y-80715911D01*
X70762636Y-80647168D01*
X71054229Y-80545135D01*
X71332565Y-80411095D01*
X71594143Y-80246735D01*
X71835674Y-80054120D01*
X72054120Y-79835674D01*
X72246735Y-79594143D01*
X72411095Y-79332565D01*
X72545135Y-79054229D01*
X72647168Y-78762636D01*
X72715911Y-78461452D01*
X72750500Y-78154465D01*
X72750500Y-77845535D01*
X72715911Y-77538548D01*
X72647168Y-77237364D01*
X72545135Y-76945771D01*
X72411095Y-76667435D01*
X72246735Y-76405857D01*
X72054120Y-76164326D01*
X71835674Y-75945880D01*
X71594143Y-75753265D01*
X71332566Y-75588905D01*
X71054225Y-75454863D01*
X70762637Y-75352832D01*
X70461450Y-75284088D01*
X70154466Y-75249500D01*
X70154465Y-75249500D01*
X69845535Y-75249500D01*
X69845533Y-75249500D01*
X69538549Y-75284088D01*
X69237362Y-75352832D01*
X68945774Y-75454863D01*
X68667433Y-75588905D01*
X68405856Y-75753265D01*
X68164327Y-75945879D01*
X67945879Y-76164327D01*
X67753265Y-76405856D01*
X67588905Y-76667433D01*
X67454863Y-76945774D01*
X67352832Y-77237362D01*
X67284088Y-77538549D01*
X67249500Y-77845533D01*
X56750500Y-77845533D01*
X56715911Y-77538548D01*
X56647168Y-77237364D01*
X56545135Y-76945771D01*
X56411095Y-76667435D01*
X56246735Y-76405857D01*
X56054120Y-76164326D01*
X55835674Y-75945880D01*
X55594143Y-75753265D01*
X55332566Y-75588905D01*
X55054225Y-75454863D01*
X54762637Y-75352832D01*
X54461450Y-75284088D01*
X54154466Y-75249500D01*
X54154465Y-75249500D01*
X53845535Y-75249500D01*
X53845533Y-75249500D01*
X53538549Y-75284088D01*
X53237362Y-75352832D01*
X52945774Y-75454863D01*
X52667433Y-75588905D01*
X52405856Y-75753265D01*
X52164327Y-75945879D01*
X51945879Y-76164327D01*
X51753265Y-76405856D01*
X51588905Y-76667433D01*
X51454863Y-76945774D01*
X51352832Y-77237362D01*
X51284088Y-77538549D01*
X51249500Y-77845533D01*
X46925000Y-77845533D01*
X46925000Y-66358918D01*
X46939084Y-66308023D01*
X47087780Y-66059938D01*
X47093163Y-66051883D01*
X47291957Y-65783841D01*
X47298107Y-65776346D01*
X47522228Y-65529067D01*
X47529067Y-65522228D01*
X47776346Y-65298107D01*
X47783841Y-65291957D01*
X48051883Y-65093163D01*
X48059938Y-65087780D01*
X48308023Y-64939085D01*
X48358919Y-64925000D01*
X87901000Y-64925000D01*
X87959191Y-64943907D01*
G37*
%TD.AperFunction*%
%TD*%
%TA.AperFunction,Conductor*%
%TO.N,DGND*%
G36*
X131691977Y-64939085D02*
G01*
X131940049Y-65087773D01*
X131948127Y-65093171D01*
X132216150Y-65291951D01*
X132223660Y-65298114D01*
X132470921Y-65522218D01*
X132477781Y-65529078D01*
X132603484Y-65667770D01*
X132701885Y-65776339D01*
X132708048Y-65783849D01*
X132906828Y-66051872D01*
X132912226Y-66059950D01*
X133060914Y-66308022D01*
X133074999Y-66358916D01*
X133074999Y-119641082D01*
X133060914Y-119691978D01*
X132912226Y-119940049D01*
X132906828Y-119948127D01*
X132708048Y-120216150D01*
X132701885Y-120223660D01*
X132477786Y-120470916D01*
X132470916Y-120477786D01*
X132223660Y-120701885D01*
X132216150Y-120708048D01*
X131948127Y-120906828D01*
X131940049Y-120912226D01*
X131691977Y-121060915D01*
X131641081Y-121075000D01*
X90099000Y-121075000D01*
X90040809Y-121056093D01*
X90004845Y-121006593D01*
X90000000Y-120976000D01*
X90000000Y-117167406D01*
X121203900Y-117167406D01*
X121203900Y-117344793D01*
X121238506Y-117518765D01*
X121238506Y-117518767D01*
X121306385Y-117682644D01*
X121306385Y-117682645D01*
X121404935Y-117830134D01*
X121404936Y-117830135D01*
X121530365Y-117955564D01*
X121677853Y-118054113D01*
X121841734Y-118121994D01*
X122015709Y-118156600D01*
X122015710Y-118156600D01*
X122193090Y-118156600D01*
X122193091Y-118156600D01*
X122367066Y-118121994D01*
X122530947Y-118054113D01*
X122678435Y-117955564D01*
X122803864Y-117830135D01*
X122902413Y-117682647D01*
X122970294Y-117518766D01*
X123004900Y-117344791D01*
X123004900Y-117167409D01*
X122970294Y-116993434D01*
X122902414Y-116829555D01*
X122902414Y-116829554D01*
X122803864Y-116682065D01*
X122678434Y-116556635D01*
X122530944Y-116458085D01*
X122367066Y-116390206D01*
X122248105Y-116366543D01*
X122193093Y-116355600D01*
X122193091Y-116355600D01*
X122015709Y-116355600D01*
X122015706Y-116355600D01*
X121841734Y-116390206D01*
X121841732Y-116390206D01*
X121677855Y-116458085D01*
X121677854Y-116458085D01*
X121530365Y-116556635D01*
X121404935Y-116682065D01*
X121306385Y-116829554D01*
X121306385Y-116829555D01*
X121238506Y-116993432D01*
X121238506Y-116993434D01*
X121203900Y-117167406D01*
X90000000Y-117167406D01*
X90000000Y-116339238D01*
X90018907Y-116281047D01*
X90028185Y-116274306D01*
X123762500Y-116274306D01*
X123762500Y-116451693D01*
X123797106Y-116625665D01*
X123797106Y-116625667D01*
X123864985Y-116789544D01*
X123864985Y-116789545D01*
X123963535Y-116937034D01*
X123963536Y-116937035D01*
X124088965Y-117062464D01*
X124236453Y-117161013D01*
X124400334Y-117228894D01*
X124574309Y-117263500D01*
X124574310Y-117263500D01*
X124751690Y-117263500D01*
X124751691Y-117263500D01*
X124925666Y-117228894D01*
X125089547Y-117161013D01*
X125237035Y-117062464D01*
X125362464Y-116937035D01*
X125461013Y-116789547D01*
X125528894Y-116625666D01*
X125563500Y-116451691D01*
X125563500Y-116274309D01*
X125528894Y-116100334D01*
X125461014Y-115936455D01*
X125461014Y-115936454D01*
X125362464Y-115788965D01*
X125237034Y-115663535D01*
X125089544Y-115564985D01*
X124925666Y-115497106D01*
X124751693Y-115462500D01*
X124751691Y-115462500D01*
X124574309Y-115462500D01*
X124574306Y-115462500D01*
X124400334Y-115497106D01*
X124400332Y-115497106D01*
X124236455Y-115564985D01*
X124236454Y-115564985D01*
X124088965Y-115663535D01*
X123963535Y-115788965D01*
X123864985Y-115936454D01*
X123864985Y-115936455D01*
X123797106Y-116100332D01*
X123797106Y-116100334D01*
X123762500Y-116274306D01*
X90028185Y-116274306D01*
X90068407Y-116245083D01*
X90114487Y-116241457D01*
X90132525Y-116244314D01*
X90171581Y-116250500D01*
X90171583Y-116250500D01*
X90368420Y-116250500D01*
X90562821Y-116219710D01*
X90562822Y-116219709D01*
X90562826Y-116219709D01*
X90750025Y-116158884D01*
X90925405Y-116069524D01*
X91084646Y-115953828D01*
X91223828Y-115814646D01*
X91339524Y-115655405D01*
X91428884Y-115480025D01*
X91489709Y-115292826D01*
X91511306Y-115156466D01*
X91513359Y-115143506D01*
X91520500Y-115098420D01*
X91520500Y-114901579D01*
X91489710Y-114707178D01*
X91489709Y-114707174D01*
X91428884Y-114519975D01*
X91339524Y-114344595D01*
X91278452Y-114260537D01*
X91278452Y-114260536D01*
X91238249Y-114205202D01*
X91760000Y-114205202D01*
X91760000Y-114799999D01*
X91760001Y-114800000D01*
X92463589Y-114800000D01*
X92437259Y-114845606D01*
X92410000Y-114947339D01*
X92410000Y-115052661D01*
X92437259Y-115154394D01*
X92463590Y-115200000D01*
X91760002Y-115200000D01*
X91760001Y-115200001D01*
X91760001Y-115794791D01*
X91762909Y-115819874D01*
X91808213Y-115922477D01*
X91887522Y-116001786D01*
X91990127Y-116047090D01*
X92015203Y-116049999D01*
X92609998Y-116049999D01*
X92610000Y-116049998D01*
X92610000Y-115346410D01*
X92655606Y-115372741D01*
X92757339Y-115400000D01*
X92862661Y-115400000D01*
X92964394Y-115372741D01*
X93010000Y-115346410D01*
X93010000Y-116049998D01*
X93010001Y-116049999D01*
X93604790Y-116049999D01*
X93604791Y-116049998D01*
X93629874Y-116047090D01*
X93732477Y-116001786D01*
X93811786Y-115922477D01*
X93857090Y-115819872D01*
X93859999Y-115794797D01*
X93860000Y-115794795D01*
X93860000Y-115200001D01*
X93859999Y-115200000D01*
X93156410Y-115200000D01*
X93182741Y-115154394D01*
X93210000Y-115052661D01*
X93210000Y-114947339D01*
X93182741Y-114845606D01*
X93159359Y-114805106D01*
X109191600Y-114805106D01*
X109191600Y-114982493D01*
X109226206Y-115156465D01*
X109226206Y-115156467D01*
X109294085Y-115320344D01*
X109294085Y-115320345D01*
X109389071Y-115462500D01*
X109392636Y-115467835D01*
X109518065Y-115593264D01*
X109665553Y-115691813D01*
X109829434Y-115759694D01*
X110003409Y-115794300D01*
X110003410Y-115794300D01*
X110180790Y-115794300D01*
X110180791Y-115794300D01*
X110354766Y-115759694D01*
X110518647Y-115691813D01*
X110666135Y-115593264D01*
X110791564Y-115467835D01*
X110890113Y-115320347D01*
X110957994Y-115156466D01*
X110992600Y-114982491D01*
X110992600Y-114805109D01*
X110957994Y-114631134D01*
X110890114Y-114467255D01*
X110890114Y-114467254D01*
X110791564Y-114319765D01*
X110666134Y-114194335D01*
X110518644Y-114095785D01*
X110354766Y-114027906D01*
X110180793Y-113993300D01*
X110180791Y-113993300D01*
X110003409Y-113993300D01*
X110003406Y-113993300D01*
X109829434Y-114027906D01*
X109829432Y-114027906D01*
X109665555Y-114095785D01*
X109665554Y-114095785D01*
X109518065Y-114194335D01*
X109392635Y-114319765D01*
X109294085Y-114467254D01*
X109294085Y-114467255D01*
X109226206Y-114631132D01*
X109226206Y-114631134D01*
X109191600Y-114805106D01*
X93159359Y-114805106D01*
X93156411Y-114800000D01*
X93859998Y-114800000D01*
X93859999Y-114799999D01*
X93859999Y-114205210D01*
X93859998Y-114205208D01*
X93857090Y-114180125D01*
X93811786Y-114077522D01*
X93732477Y-113998213D01*
X93629872Y-113952909D01*
X93604797Y-113950000D01*
X93010001Y-113950000D01*
X93010000Y-113950001D01*
X93010000Y-114653589D01*
X92964394Y-114627259D01*
X92862661Y-114600000D01*
X92757339Y-114600000D01*
X92655606Y-114627259D01*
X92610000Y-114653589D01*
X92610000Y-113950001D01*
X92609999Y-113950000D01*
X92015210Y-113950000D01*
X92015207Y-113950001D01*
X91990125Y-113952909D01*
X91887522Y-113998213D01*
X91808213Y-114077522D01*
X91762909Y-114180127D01*
X91760000Y-114205202D01*
X91238249Y-114205202D01*
X91223832Y-114185359D01*
X91223830Y-114185357D01*
X91223828Y-114185354D01*
X91084646Y-114046172D01*
X90925405Y-113930476D01*
X90925404Y-113930475D01*
X90925402Y-113930474D01*
X90750025Y-113841116D01*
X90562821Y-113780289D01*
X90368420Y-113749500D01*
X90368417Y-113749500D01*
X90171583Y-113749500D01*
X90171579Y-113749500D01*
X90114486Y-113758542D01*
X90054054Y-113748970D01*
X90010790Y-113705705D01*
X90000000Y-113660761D01*
X90000000Y-112349306D01*
X119597800Y-112349306D01*
X119597800Y-112526693D01*
X119632406Y-112700665D01*
X119632406Y-112700667D01*
X119700285Y-112864544D01*
X119700285Y-112864545D01*
X119798835Y-113012034D01*
X119798836Y-113012035D01*
X119924265Y-113137464D01*
X120071753Y-113236013D01*
X120235634Y-113303894D01*
X120409609Y-113338500D01*
X120409610Y-113338500D01*
X120586990Y-113338500D01*
X120586991Y-113338500D01*
X120760966Y-113303894D01*
X120924847Y-113236013D01*
X121072335Y-113137464D01*
X121197764Y-113012035D01*
X121296313Y-112864547D01*
X121364194Y-112700666D01*
X121398800Y-112526691D01*
X121398800Y-112349309D01*
X121364194Y-112175334D01*
X121296314Y-112011455D01*
X121296314Y-112011454D01*
X121197764Y-111863965D01*
X121072334Y-111738535D01*
X120924844Y-111639985D01*
X120760966Y-111572106D01*
X120586993Y-111537500D01*
X120586991Y-111537500D01*
X120409609Y-111537500D01*
X120409606Y-111537500D01*
X120235634Y-111572106D01*
X120235632Y-111572106D01*
X120071755Y-111639985D01*
X120071754Y-111639985D01*
X119924265Y-111738535D01*
X119798835Y-111863965D01*
X119700285Y-112011454D01*
X119700285Y-112011455D01*
X119632406Y-112175332D01*
X119632406Y-112175334D01*
X119597800Y-112349306D01*
X90000000Y-112349306D01*
X90000000Y-110076178D01*
X90000500Y-110068548D01*
X90000500Y-108916306D01*
X104981200Y-108916306D01*
X104981200Y-109093693D01*
X105001112Y-109193796D01*
X105012391Y-109250500D01*
X105015806Y-109267665D01*
X105015806Y-109267667D01*
X105083685Y-109431544D01*
X105083685Y-109431545D01*
X105129092Y-109499500D01*
X105182236Y-109579035D01*
X105307665Y-109704464D01*
X105455153Y-109803013D01*
X105455154Y-109803013D01*
X105455155Y-109803014D01*
X105492281Y-109818391D01*
X105619034Y-109870894D01*
X105793009Y-109905500D01*
X105793010Y-109905500D01*
X105970390Y-109905500D01*
X105970391Y-109905500D01*
X106144366Y-109870894D01*
X106308247Y-109803013D01*
X106455735Y-109704464D01*
X106581164Y-109579035D01*
X106679713Y-109431547D01*
X106747594Y-109267666D01*
X106782200Y-109093691D01*
X106782200Y-108916309D01*
X106747594Y-108742334D01*
X106679714Y-108578455D01*
X106679714Y-108578454D01*
X106581164Y-108430965D01*
X106455734Y-108305535D01*
X106308244Y-108206985D01*
X106144366Y-108139106D01*
X105970393Y-108104500D01*
X105970391Y-108104500D01*
X105793009Y-108104500D01*
X105793006Y-108104500D01*
X105619034Y-108139106D01*
X105619032Y-108139106D01*
X105455155Y-108206985D01*
X105455154Y-108206985D01*
X105307665Y-108305535D01*
X105182235Y-108430965D01*
X105083685Y-108578454D01*
X105083685Y-108578455D01*
X105015806Y-108742332D01*
X105015806Y-108742334D01*
X104981200Y-108916306D01*
X90000500Y-108916306D01*
X90000500Y-107546355D01*
X101530900Y-107546355D01*
X101530900Y-107704044D01*
X101561663Y-107858696D01*
X101561663Y-107858698D01*
X101622003Y-108004374D01*
X101622009Y-108004385D01*
X101654267Y-108052661D01*
X101709611Y-108135489D01*
X101821111Y-108246989D01*
X101899276Y-108299217D01*
X101952214Y-108334590D01*
X101952225Y-108334596D01*
X102006038Y-108356885D01*
X102097903Y-108394937D01*
X102252558Y-108425700D01*
X102252559Y-108425700D01*
X102410241Y-108425700D01*
X102410242Y-108425700D01*
X102564897Y-108394937D01*
X102710579Y-108334594D01*
X102841689Y-108246989D01*
X102953189Y-108135489D01*
X103040794Y-108004379D01*
X103101137Y-107858697D01*
X103131900Y-107704042D01*
X103131900Y-107546358D01*
X103101137Y-107391703D01*
X103040794Y-107246021D01*
X103040793Y-107246019D01*
X103040790Y-107246014D01*
X102989633Y-107169453D01*
X102953189Y-107114911D01*
X102841689Y-107003411D01*
X102789459Y-106968512D01*
X102710585Y-106915809D01*
X102710574Y-106915803D01*
X102564897Y-106855463D01*
X102410244Y-106824700D01*
X102410242Y-106824700D01*
X102252558Y-106824700D01*
X102252555Y-106824700D01*
X102097903Y-106855463D01*
X102097901Y-106855463D01*
X101952225Y-106915803D01*
X101952214Y-106915809D01*
X101821111Y-107003411D01*
X101821107Y-107003414D01*
X101709614Y-107114907D01*
X101709611Y-107114911D01*
X101622009Y-107246014D01*
X101622003Y-107246025D01*
X101561663Y-107391701D01*
X101561663Y-107391703D01*
X101530900Y-107546355D01*
X90000500Y-107546355D01*
X90000500Y-106506955D01*
X106537300Y-106506955D01*
X106537300Y-106664644D01*
X106568063Y-106819296D01*
X106568063Y-106819298D01*
X106628403Y-106964974D01*
X106628409Y-106964985D01*
X106656931Y-107007670D01*
X106716011Y-107096089D01*
X106827511Y-107207589D01*
X106905676Y-107259817D01*
X106958614Y-107295190D01*
X106958625Y-107295196D01*
X107012438Y-107317485D01*
X107104303Y-107355537D01*
X107258958Y-107386300D01*
X107258959Y-107386300D01*
X107416641Y-107386300D01*
X107416642Y-107386300D01*
X107571297Y-107355537D01*
X107716979Y-107295194D01*
X107848089Y-107207589D01*
X107853549Y-107202129D01*
X125749500Y-107202129D01*
X125749500Y-108797866D01*
X125749501Y-108797870D01*
X125755908Y-108857480D01*
X125755909Y-108857485D01*
X125806202Y-108992329D01*
X125892450Y-109107541D01*
X125892454Y-109107546D01*
X125892457Y-109107548D01*
X125892458Y-109107549D01*
X126007670Y-109193797D01*
X126142511Y-109244089D01*
X126142512Y-109244089D01*
X126142517Y-109244091D01*
X126202127Y-109250500D01*
X127797872Y-109250499D01*
X127857483Y-109244091D01*
X127924907Y-109218943D01*
X127992329Y-109193797D01*
X127992329Y-109193796D01*
X127992331Y-109193796D01*
X128107546Y-109107546D01*
X128193796Y-108992331D01*
X128230145Y-108894873D01*
X128268195Y-108846959D01*
X128327142Y-108830561D01*
X128377904Y-108847154D01*
X128502633Y-108930495D01*
X128502639Y-108930498D01*
X128693727Y-109009650D01*
X128896581Y-109049999D01*
X128896586Y-109050000D01*
X129103414Y-109050000D01*
X129103418Y-109049999D01*
X129306272Y-109009650D01*
X129497360Y-108930498D01*
X129587456Y-108870298D01*
X129103528Y-108386370D01*
X129154394Y-108372741D01*
X129245606Y-108320080D01*
X129320080Y-108245606D01*
X129372741Y-108154394D01*
X129386370Y-108103526D01*
X129870299Y-108587455D01*
X129930498Y-108497360D01*
X130009650Y-108306272D01*
X130049999Y-108103418D01*
X130050000Y-108103413D01*
X130050000Y-107896586D01*
X130049999Y-107896581D01*
X130009650Y-107693727D01*
X129930498Y-107502638D01*
X129870299Y-107412543D01*
X129386370Y-107896471D01*
X129372741Y-107845606D01*
X129320080Y-107754394D01*
X129245606Y-107679920D01*
X129154394Y-107627259D01*
X129103526Y-107613629D01*
X129587455Y-107129699D01*
X129497361Y-107069501D01*
X129306272Y-106990349D01*
X129103418Y-106950000D01*
X128896581Y-106950000D01*
X128693727Y-106990349D01*
X128502639Y-107069501D01*
X128502632Y-107069504D01*
X128377904Y-107152845D01*
X128319016Y-107169453D01*
X128261612Y-107148275D01*
X128230145Y-107105125D01*
X128193797Y-107007670D01*
X128107549Y-106892458D01*
X128107548Y-106892457D01*
X128107546Y-106892454D01*
X128107541Y-106892450D01*
X127992329Y-106806202D01*
X127857488Y-106755910D01*
X127857483Y-106755909D01*
X127857481Y-106755908D01*
X127857477Y-106755908D01*
X127826249Y-106752550D01*
X127797873Y-106749500D01*
X127797870Y-106749500D01*
X126202133Y-106749500D01*
X126202129Y-106749500D01*
X126202128Y-106749501D01*
X126194949Y-106750272D01*
X126142519Y-106755908D01*
X126142514Y-106755909D01*
X126007670Y-106806202D01*
X125892458Y-106892450D01*
X125892450Y-106892458D01*
X125806202Y-107007670D01*
X125755910Y-107142511D01*
X125755908Y-107142522D01*
X125749500Y-107202129D01*
X107853549Y-107202129D01*
X107959589Y-107096089D01*
X108047194Y-106964979D01*
X108107537Y-106819297D01*
X108138300Y-106664642D01*
X108138300Y-106506958D01*
X108107537Y-106352303D01*
X108047194Y-106206621D01*
X108047193Y-106206619D01*
X108047190Y-106206614D01*
X108011817Y-106153676D01*
X107959589Y-106075511D01*
X107848089Y-105964011D01*
X107795859Y-105929112D01*
X107716985Y-105876409D01*
X107716974Y-105876403D01*
X107571297Y-105816063D01*
X107416644Y-105785300D01*
X107416642Y-105785300D01*
X107258958Y-105785300D01*
X107258955Y-105785300D01*
X107104303Y-105816063D01*
X107104301Y-105816063D01*
X106958625Y-105876403D01*
X106958614Y-105876409D01*
X106827511Y-105964011D01*
X106827507Y-105964014D01*
X106716014Y-106075507D01*
X106716011Y-106075511D01*
X106628409Y-106206614D01*
X106628403Y-106206625D01*
X106568063Y-106352301D01*
X106568063Y-106352303D01*
X106537300Y-106506955D01*
X90000500Y-106506955D01*
X90000500Y-103979555D01*
X107399500Y-103979555D01*
X107399500Y-104137244D01*
X107430263Y-104291896D01*
X107430263Y-104291898D01*
X107490603Y-104437574D01*
X107490609Y-104437585D01*
X107543312Y-104516459D01*
X107578211Y-104568689D01*
X107689711Y-104680189D01*
X107767876Y-104732417D01*
X107820814Y-104767790D01*
X107820825Y-104767796D01*
X107874638Y-104790085D01*
X107966503Y-104828137D01*
X108121158Y-104858900D01*
X108121159Y-104858900D01*
X108278841Y-104858900D01*
X108278842Y-104858900D01*
X108433497Y-104828137D01*
X108579179Y-104767794D01*
X108710289Y-104680189D01*
X108821789Y-104568689D01*
X108909394Y-104437579D01*
X108969737Y-104291897D01*
X109000500Y-104137242D01*
X109000500Y-103979558D01*
X108969737Y-103824903D01*
X108909394Y-103679221D01*
X108909393Y-103679219D01*
X108909390Y-103679214D01*
X108874017Y-103626276D01*
X108821789Y-103548111D01*
X108710289Y-103436611D01*
X108658059Y-103401712D01*
X108579185Y-103349009D01*
X108579174Y-103349003D01*
X108433497Y-103288663D01*
X108278844Y-103257900D01*
X108278842Y-103257900D01*
X108121158Y-103257900D01*
X108121155Y-103257900D01*
X107966503Y-103288663D01*
X107966501Y-103288663D01*
X107820825Y-103349003D01*
X107820814Y-103349009D01*
X107689711Y-103436611D01*
X107689707Y-103436614D01*
X107578214Y-103548107D01*
X107578211Y-103548111D01*
X107490609Y-103679214D01*
X107490603Y-103679225D01*
X107430263Y-103824901D01*
X107430263Y-103824903D01*
X107399500Y-103979555D01*
X90000500Y-103979555D01*
X90000500Y-101864655D01*
X108099500Y-101864655D01*
X108099500Y-102022344D01*
X108130263Y-102176996D01*
X108130263Y-102176998D01*
X108190603Y-102322674D01*
X108190609Y-102322685D01*
X108215669Y-102360189D01*
X108278211Y-102453789D01*
X108389711Y-102565289D01*
X108458914Y-102611529D01*
X108520814Y-102652890D01*
X108520825Y-102652896D01*
X108574638Y-102675185D01*
X108666503Y-102713237D01*
X108821158Y-102744000D01*
X108821159Y-102744000D01*
X108978841Y-102744000D01*
X108978842Y-102744000D01*
X109133497Y-102713237D01*
X109279179Y-102652894D01*
X109309133Y-102632878D01*
X109368017Y-102616270D01*
X109419134Y-102632878D01*
X109435021Y-102643494D01*
X109435022Y-102643494D01*
X109435023Y-102643495D01*
X109468026Y-102657165D01*
X109580703Y-102703837D01*
X109735358Y-102734600D01*
X109735359Y-102734600D01*
X109893041Y-102734600D01*
X109893042Y-102734600D01*
X110047697Y-102703837D01*
X110139561Y-102665785D01*
X110193375Y-102643496D01*
X110193376Y-102643495D01*
X110193379Y-102643494D01*
X110194428Y-102642792D01*
X110194985Y-102642635D01*
X110197665Y-102641203D01*
X110197979Y-102641790D01*
X110253313Y-102626177D01*
X110292816Y-102636900D01*
X110292927Y-102636633D01*
X110295014Y-102637497D01*
X110296121Y-102637798D01*
X110297410Y-102638487D01*
X110297421Y-102638494D01*
X110443103Y-102698837D01*
X110597758Y-102729600D01*
X110597759Y-102729600D01*
X110755441Y-102729600D01*
X110755442Y-102729600D01*
X110910097Y-102698837D01*
X111055779Y-102638494D01*
X111082440Y-102620678D01*
X111141328Y-102604069D01*
X111175328Y-102611529D01*
X111194903Y-102619637D01*
X111349558Y-102650400D01*
X111349559Y-102650400D01*
X111507241Y-102650400D01*
X111507242Y-102650400D01*
X111661897Y-102619637D01*
X111807579Y-102559294D01*
X111938689Y-102471689D01*
X112050189Y-102360189D01*
X112137794Y-102229079D01*
X112198137Y-102083397D01*
X112228900Y-101928742D01*
X112228900Y-101771058D01*
X112198137Y-101616403D01*
X112137794Y-101470721D01*
X112137793Y-101470719D01*
X112137790Y-101470714D01*
X112078037Y-101381289D01*
X112050189Y-101339611D01*
X111938689Y-101228111D01*
X111857352Y-101173763D01*
X111807585Y-101140509D01*
X111807574Y-101140503D01*
X111661897Y-101080163D01*
X111507244Y-101049400D01*
X111507242Y-101049400D01*
X111349558Y-101049400D01*
X111349555Y-101049400D01*
X111194903Y-101080163D01*
X111194901Y-101080163D01*
X111049221Y-101140505D01*
X111022555Y-101158322D01*
X110963666Y-101174929D01*
X110929673Y-101167470D01*
X110910105Y-101159365D01*
X110910098Y-101159363D01*
X110755444Y-101128600D01*
X110755442Y-101128600D01*
X110597758Y-101128600D01*
X110597755Y-101128600D01*
X110443103Y-101159363D01*
X110443101Y-101159363D01*
X110297420Y-101219705D01*
X110297417Y-101219707D01*
X110296346Y-101220423D01*
X110295780Y-101220582D01*
X110293132Y-101221998D01*
X110292821Y-101221416D01*
X110237455Y-101237020D01*
X110197982Y-101226301D01*
X110197873Y-101226567D01*
X110195803Y-101225709D01*
X110194696Y-101225409D01*
X110193382Y-101224707D01*
X110047697Y-101164363D01*
X109893044Y-101133600D01*
X109893042Y-101133600D01*
X109735358Y-101133600D01*
X109735355Y-101133600D01*
X109580703Y-101164363D01*
X109580701Y-101164363D01*
X109435021Y-101224705D01*
X109405064Y-101244721D01*
X109346175Y-101261328D01*
X109295065Y-101244720D01*
X109279180Y-101234106D01*
X109279176Y-101234104D01*
X109133497Y-101173763D01*
X108978844Y-101143000D01*
X108978842Y-101143000D01*
X108821158Y-101143000D01*
X108821155Y-101143000D01*
X108666503Y-101173763D01*
X108666501Y-101173763D01*
X108520825Y-101234103D01*
X108520814Y-101234109D01*
X108389711Y-101321711D01*
X108389707Y-101321714D01*
X108278214Y-101433207D01*
X108278211Y-101433211D01*
X108190609Y-101564314D01*
X108190603Y-101564325D01*
X108130263Y-101710001D01*
X108130263Y-101710003D01*
X108099500Y-101864655D01*
X90000500Y-101864655D01*
X90000500Y-97027355D01*
X96352400Y-97027355D01*
X96352400Y-97027358D01*
X96352400Y-97185042D01*
X96377516Y-97311310D01*
X96383163Y-97339696D01*
X96383163Y-97339698D01*
X96443503Y-97485374D01*
X96443509Y-97485385D01*
X96496212Y-97564259D01*
X96531111Y-97616489D01*
X96642611Y-97727989D01*
X96720776Y-97780217D01*
X96773714Y-97815590D01*
X96773725Y-97815596D01*
X96800159Y-97826545D01*
X96919403Y-97875937D01*
X97074058Y-97906700D01*
X97074059Y-97906700D01*
X97231741Y-97906700D01*
X97231742Y-97906700D01*
X97386397Y-97875937D01*
X97532079Y-97815594D01*
X97663189Y-97727989D01*
X97774689Y-97616489D01*
X97862294Y-97485379D01*
X97922637Y-97339697D01*
X97953400Y-97185042D01*
X97953400Y-97027358D01*
X97922637Y-96872703D01*
X97862294Y-96727021D01*
X97862293Y-96727019D01*
X97862290Y-96727014D01*
X97811455Y-96650935D01*
X97774689Y-96595911D01*
X97753681Y-96574903D01*
X97725904Y-96520386D01*
X97735475Y-96459954D01*
X97753680Y-96434897D01*
X97795889Y-96392689D01*
X97883494Y-96261579D01*
X97894086Y-96236008D01*
X97933822Y-96189482D01*
X97993317Y-96175198D01*
X98049845Y-96198612D01*
X98055553Y-96203888D01*
X101632184Y-99780520D01*
X101769116Y-99859577D01*
X101769118Y-99859577D01*
X101769119Y-99859578D01*
X101845479Y-99880039D01*
X101921840Y-99900500D01*
X101921842Y-99900501D01*
X101921843Y-99900501D01*
X102086021Y-99900501D01*
X102086037Y-99900500D01*
X102541248Y-99900500D01*
X102598547Y-99919117D01*
X102598568Y-99919087D01*
X102598675Y-99919159D01*
X102599439Y-99919407D01*
X102601944Y-99921343D01*
X102733714Y-100009390D01*
X102733725Y-100009396D01*
X102787538Y-100031685D01*
X102879403Y-100069737D01*
X103034058Y-100100500D01*
X103034059Y-100100500D01*
X103191741Y-100100500D01*
X103191742Y-100100500D01*
X103346397Y-100069737D01*
X103492079Y-100009394D01*
X103623189Y-99921789D01*
X103720296Y-99824682D01*
X103774813Y-99796905D01*
X103835245Y-99806476D01*
X103878510Y-99849741D01*
X103889300Y-99894686D01*
X103889300Y-100020344D01*
X103920063Y-100174996D01*
X103920063Y-100174998D01*
X103973565Y-100304165D01*
X103978365Y-100365162D01*
X103973565Y-100379935D01*
X103913063Y-100526001D01*
X103913063Y-100526003D01*
X103882300Y-100680655D01*
X103882300Y-100838344D01*
X103913063Y-100992996D01*
X103913063Y-100992998D01*
X103973403Y-101138674D01*
X103973409Y-101138685D01*
X104006174Y-101187720D01*
X104061011Y-101269789D01*
X104172511Y-101381289D01*
X104250212Y-101433207D01*
X104303614Y-101468890D01*
X104303625Y-101468896D01*
X104308041Y-101470725D01*
X104449303Y-101529237D01*
X104603958Y-101560000D01*
X104603959Y-101560000D01*
X104761641Y-101560000D01*
X104761642Y-101560000D01*
X104916297Y-101529237D01*
X105061979Y-101468894D01*
X105193089Y-101381289D01*
X105304589Y-101269789D01*
X105392194Y-101138679D01*
X105452537Y-100992997D01*
X105483300Y-100838342D01*
X105483300Y-100680658D01*
X105452537Y-100526003D01*
X105399034Y-100396834D01*
X105394233Y-100335838D01*
X105399034Y-100321063D01*
X105399191Y-100320682D01*
X105399194Y-100320679D01*
X105459537Y-100174997D01*
X105490300Y-100020342D01*
X105490300Y-99862658D01*
X105459537Y-99708003D01*
X105399194Y-99562321D01*
X105399193Y-99562319D01*
X105399190Y-99562314D01*
X105363817Y-99509376D01*
X105311589Y-99431211D01*
X105200089Y-99319711D01*
X105147859Y-99284812D01*
X105068985Y-99232109D01*
X105068974Y-99232103D01*
X104923297Y-99171763D01*
X104768644Y-99141000D01*
X104768642Y-99141000D01*
X104610958Y-99141000D01*
X104610955Y-99141000D01*
X104456303Y-99171763D01*
X104456301Y-99171763D01*
X104310625Y-99232103D01*
X104310614Y-99232109D01*
X104179511Y-99319711D01*
X104179507Y-99319714D01*
X104082404Y-99416818D01*
X104027887Y-99444595D01*
X103967455Y-99435024D01*
X103924190Y-99391759D01*
X103913400Y-99346814D01*
X103913400Y-99221159D01*
X103913399Y-99221155D01*
X103882637Y-99066503D01*
X103822294Y-98920821D01*
X103822290Y-98920813D01*
X103754945Y-98820026D01*
X103738336Y-98761138D01*
X103759513Y-98703734D01*
X103767249Y-98695028D01*
X103851789Y-98610489D01*
X103939394Y-98479379D01*
X103999737Y-98333697D01*
X104030500Y-98179042D01*
X104030500Y-98021358D01*
X103999737Y-97866703D01*
X103978565Y-97815590D01*
X103939396Y-97721025D01*
X103939390Y-97721014D01*
X103900402Y-97662665D01*
X103851789Y-97589911D01*
X103740289Y-97478411D01*
X103653474Y-97420403D01*
X103609184Y-97390809D01*
X103609174Y-97390803D01*
X103463497Y-97330463D01*
X103367190Y-97311306D01*
X124889500Y-97311306D01*
X124889500Y-97488693D01*
X124924106Y-97662665D01*
X124924106Y-97662667D01*
X124991985Y-97826544D01*
X124991985Y-97826545D01*
X125090535Y-97974034D01*
X125090536Y-97974035D01*
X125215965Y-98099464D01*
X125363453Y-98198013D01*
X125527334Y-98265894D01*
X125701309Y-98300500D01*
X125701310Y-98300500D01*
X125878690Y-98300500D01*
X125878691Y-98300500D01*
X126052666Y-98265894D01*
X126216547Y-98198013D01*
X126364035Y-98099464D01*
X126489464Y-97974035D01*
X126588013Y-97826547D01*
X126655894Y-97662666D01*
X126690500Y-97488691D01*
X126690500Y-97311309D01*
X126655894Y-97137334D01*
X126588014Y-96973455D01*
X126588014Y-96973454D01*
X126489464Y-96825965D01*
X126454442Y-96790943D01*
X126426665Y-96736426D01*
X126436236Y-96675994D01*
X126454443Y-96650935D01*
X126545181Y-96560197D01*
X126545189Y-96560189D01*
X126632794Y-96429079D01*
X126693137Y-96283397D01*
X126723900Y-96128742D01*
X126723900Y-95971058D01*
X126693137Y-95816403D01*
X126669522Y-95759390D01*
X126632796Y-95670725D01*
X126632790Y-95670714D01*
X126597417Y-95617776D01*
X126545189Y-95539611D01*
X126545184Y-95539606D01*
X126545181Y-95539602D01*
X126475582Y-95470004D01*
X126447804Y-95415488D01*
X126457375Y-95355056D01*
X126475582Y-95329996D01*
X126545181Y-95260397D01*
X126545189Y-95260389D01*
X126632794Y-95129279D01*
X126693137Y-94983597D01*
X126723900Y-94828942D01*
X126723900Y-94671258D01*
X126693137Y-94516603D01*
X126656524Y-94428211D01*
X126632796Y-94370925D01*
X126632790Y-94370914D01*
X126572218Y-94280263D01*
X126545189Y-94239811D01*
X126433689Y-94128311D01*
X126381459Y-94093412D01*
X126302585Y-94040709D01*
X126302574Y-94040703D01*
X126156897Y-93980363D01*
X126002244Y-93949600D01*
X126002242Y-93949600D01*
X125844558Y-93949600D01*
X125844555Y-93949600D01*
X125689903Y-93980363D01*
X125689901Y-93980363D01*
X125544225Y-94040703D01*
X125544214Y-94040709D01*
X125413111Y-94128311D01*
X125413107Y-94128314D01*
X125301614Y-94239807D01*
X125301611Y-94239811D01*
X125214009Y-94370914D01*
X125214003Y-94370925D01*
X125153663Y-94516601D01*
X125153663Y-94516603D01*
X125122900Y-94671255D01*
X125122900Y-94828944D01*
X125153663Y-94983596D01*
X125153663Y-94983598D01*
X125214003Y-95129274D01*
X125214009Y-95129285D01*
X125243223Y-95173006D01*
X125301611Y-95260389D01*
X125301614Y-95260392D01*
X125371218Y-95329996D01*
X125398995Y-95384513D01*
X125389424Y-95444945D01*
X125371218Y-95470004D01*
X125301614Y-95539607D01*
X125301611Y-95539611D01*
X125214009Y-95670714D01*
X125214003Y-95670725D01*
X125153663Y-95816401D01*
X125153663Y-95816403D01*
X125122900Y-95971055D01*
X125122900Y-96128744D01*
X125153663Y-96283396D01*
X125153663Y-96283398D01*
X125214003Y-96429074D01*
X125214009Y-96429085D01*
X125264193Y-96504189D01*
X125275015Y-96520386D01*
X125285005Y-96535336D01*
X125301614Y-96594224D01*
X125280437Y-96651628D01*
X125257694Y-96672652D01*
X125215964Y-96700536D01*
X125090537Y-96825962D01*
X124991985Y-96973454D01*
X124991985Y-96973455D01*
X124924106Y-97137332D01*
X124924106Y-97137334D01*
X124889500Y-97311306D01*
X103367190Y-97311306D01*
X103308844Y-97299700D01*
X103308842Y-97299700D01*
X103151158Y-97299700D01*
X103151155Y-97299700D01*
X102996503Y-97330463D01*
X102996501Y-97330463D01*
X102850825Y-97390803D01*
X102850814Y-97390809D01*
X102719711Y-97478411D01*
X102719707Y-97478414D01*
X102608214Y-97589907D01*
X102608211Y-97589911D01*
X102520609Y-97721014D01*
X102520603Y-97721025D01*
X102460263Y-97866701D01*
X102460263Y-97866703D01*
X102429500Y-98021355D01*
X102429500Y-98179044D01*
X102446776Y-98265893D01*
X102453659Y-98300499D01*
X102460263Y-98333696D01*
X102460263Y-98333698D01*
X102520603Y-98479374D01*
X102520609Y-98479386D01*
X102564785Y-98545498D01*
X102568525Y-98558758D01*
X102576625Y-98569907D01*
X102576625Y-98587477D01*
X102581394Y-98604386D01*
X102576625Y-98617313D01*
X102576625Y-98631093D01*
X102566297Y-98645307D01*
X102560217Y-98661790D01*
X102548760Y-98669444D01*
X102540661Y-98680593D01*
X102523950Y-98686022D01*
X102509343Y-98695783D01*
X102482470Y-98699500D01*
X102290644Y-98699500D01*
X102232453Y-98680593D01*
X102220640Y-98670504D01*
X97984736Y-94434600D01*
X97957385Y-94380920D01*
X97957349Y-94380928D01*
X97957323Y-94380797D01*
X97956959Y-94380083D01*
X97956555Y-94376939D01*
X97955357Y-94370914D01*
X97925637Y-94221503D01*
X97865294Y-94075821D01*
X97865293Y-94075819D01*
X97865290Y-94075814D01*
X97829917Y-94022876D01*
X97777689Y-93944711D01*
X97684731Y-93851753D01*
X97656954Y-93797236D01*
X97666525Y-93736804D01*
X97684729Y-93711748D01*
X97791189Y-93605289D01*
X97878794Y-93474179D01*
X97939137Y-93328497D01*
X97969900Y-93173842D01*
X97969900Y-93016158D01*
X97965961Y-92996355D01*
X102107000Y-92996355D01*
X102107000Y-93154044D01*
X102137763Y-93308696D01*
X102137763Y-93308698D01*
X102198103Y-93454374D01*
X102198109Y-93454385D01*
X102250812Y-93533259D01*
X102285711Y-93585489D01*
X102397211Y-93696989D01*
X102475376Y-93749217D01*
X102528314Y-93784590D01*
X102528318Y-93784592D01*
X102528321Y-93784594D01*
X102559943Y-93797692D01*
X102606468Y-93837427D01*
X102620753Y-93896922D01*
X102597339Y-93953450D01*
X102592062Y-93959160D01*
X102511714Y-94039507D01*
X102511711Y-94039511D01*
X102424109Y-94170614D01*
X102424103Y-94170625D01*
X102363763Y-94316301D01*
X102363763Y-94316303D01*
X102333000Y-94470955D01*
X102333000Y-94628644D01*
X102363763Y-94783296D01*
X102363763Y-94783298D01*
X102424103Y-94928974D01*
X102424109Y-94928985D01*
X102460601Y-94983598D01*
X102511711Y-95060089D01*
X102623211Y-95171589D01*
X102701376Y-95223817D01*
X102754314Y-95259190D01*
X102754325Y-95259196D01*
X102808138Y-95281485D01*
X102900003Y-95319537D01*
X103054658Y-95350300D01*
X103054659Y-95350300D01*
X103212341Y-95350300D01*
X103212342Y-95350300D01*
X103366997Y-95319537D01*
X103512679Y-95259194D01*
X103643789Y-95171589D01*
X103755289Y-95060089D01*
X103814713Y-94971155D01*
X106029600Y-94971155D01*
X106029600Y-95128844D01*
X106060363Y-95283496D01*
X106060363Y-95283498D01*
X106120703Y-95429174D01*
X106120709Y-95429185D01*
X106147984Y-95470004D01*
X106208311Y-95560289D01*
X106319811Y-95671789D01*
X106397976Y-95724017D01*
X106450914Y-95759390D01*
X106450925Y-95759396D01*
X106504738Y-95781685D01*
X106596603Y-95819737D01*
X106751258Y-95850500D01*
X106751259Y-95850500D01*
X106908941Y-95850500D01*
X106908942Y-95850500D01*
X107063597Y-95819737D01*
X107209279Y-95759394D01*
X107340389Y-95671789D01*
X107451889Y-95560289D01*
X107539494Y-95429179D01*
X107599837Y-95283497D01*
X107630600Y-95128842D01*
X107630600Y-94971158D01*
X107599837Y-94816503D01*
X107546815Y-94688496D01*
X107539496Y-94670825D01*
X107539490Y-94670814D01*
X107504117Y-94617876D01*
X107451889Y-94539711D01*
X107340389Y-94428211D01*
X107269429Y-94380797D01*
X107209285Y-94340609D01*
X107209274Y-94340603D01*
X107063597Y-94280263D01*
X106908944Y-94249500D01*
X106908942Y-94249500D01*
X106751258Y-94249500D01*
X106751255Y-94249500D01*
X106596603Y-94280263D01*
X106596601Y-94280263D01*
X106450925Y-94340603D01*
X106450914Y-94340609D01*
X106319811Y-94428211D01*
X106319807Y-94428214D01*
X106208314Y-94539707D01*
X106208311Y-94539711D01*
X106120709Y-94670814D01*
X106120703Y-94670825D01*
X106060363Y-94816501D01*
X106060363Y-94816503D01*
X106029600Y-94971155D01*
X103814713Y-94971155D01*
X103842894Y-94928979D01*
X103842898Y-94928970D01*
X103843134Y-94928402D01*
X103882163Y-94834174D01*
X103903237Y-94783297D01*
X103934000Y-94628642D01*
X103934000Y-94470958D01*
X103903237Y-94316303D01*
X103842894Y-94170621D01*
X103842893Y-94170619D01*
X103842890Y-94170614D01*
X103779553Y-94075825D01*
X103755289Y-94039511D01*
X103643789Y-93928011D01*
X103591559Y-93893112D01*
X103512685Y-93840409D01*
X103512674Y-93840403D01*
X103481056Y-93827307D01*
X103434530Y-93787571D01*
X103420246Y-93728076D01*
X103443661Y-93671548D01*
X103448925Y-93665852D01*
X103529289Y-93585489D01*
X103616894Y-93454379D01*
X103677237Y-93308697D01*
X103708000Y-93154042D01*
X103708000Y-92996358D01*
X103677237Y-92841703D01*
X103625097Y-92715825D01*
X103616896Y-92696025D01*
X103616890Y-92696014D01*
X103581517Y-92643076D01*
X103529289Y-92564911D01*
X103417789Y-92453411D01*
X103365559Y-92418512D01*
X103286685Y-92365809D01*
X103286674Y-92365803D01*
X103140997Y-92305463D01*
X102986344Y-92274700D01*
X102986342Y-92274700D01*
X102828658Y-92274700D01*
X102828655Y-92274700D01*
X102674003Y-92305463D01*
X102674001Y-92305463D01*
X102528325Y-92365803D01*
X102528314Y-92365809D01*
X102397211Y-92453411D01*
X102397207Y-92453414D01*
X102285714Y-92564907D01*
X102285711Y-92564911D01*
X102198109Y-92696014D01*
X102198103Y-92696025D01*
X102137763Y-92841701D01*
X102137763Y-92841703D01*
X102107000Y-92996355D01*
X97965961Y-92996355D01*
X97939137Y-92861503D01*
X97878794Y-92715821D01*
X97878793Y-92715819D01*
X97878790Y-92715814D01*
X97843417Y-92662876D01*
X97791189Y-92584711D01*
X97679689Y-92473211D01*
X97627459Y-92438312D01*
X97548585Y-92385609D01*
X97548574Y-92385603D01*
X97402897Y-92325263D01*
X97248244Y-92294500D01*
X97248242Y-92294500D01*
X97090558Y-92294500D01*
X97090555Y-92294500D01*
X96935903Y-92325263D01*
X96935901Y-92325263D01*
X96790225Y-92385603D01*
X96790214Y-92385609D01*
X96659111Y-92473211D01*
X96659107Y-92473214D01*
X96547614Y-92584707D01*
X96547611Y-92584711D01*
X96460009Y-92715814D01*
X96460003Y-92715825D01*
X96399663Y-92861501D01*
X96399663Y-92861503D01*
X96368900Y-93016155D01*
X96368900Y-93173844D01*
X96399663Y-93328496D01*
X96399663Y-93328498D01*
X96460003Y-93474174D01*
X96460009Y-93474185D01*
X96512712Y-93553059D01*
X96547611Y-93605289D01*
X96547614Y-93605292D01*
X96640568Y-93698246D01*
X96668345Y-93752763D01*
X96658774Y-93813195D01*
X96640568Y-93838254D01*
X96534114Y-93944707D01*
X96534111Y-93944711D01*
X96446509Y-94075814D01*
X96446503Y-94075825D01*
X96386163Y-94221501D01*
X96386163Y-94221503D01*
X96355400Y-94376155D01*
X96355400Y-94533844D01*
X96386163Y-94688496D01*
X96386163Y-94688498D01*
X96446503Y-94834174D01*
X96446509Y-94834185D01*
X96499212Y-94913059D01*
X96534111Y-94965289D01*
X96534114Y-94965292D01*
X96645611Y-95076789D01*
X96669072Y-95092465D01*
X96706951Y-95140515D01*
X96709353Y-95201654D01*
X96675359Y-95252527D01*
X96669079Y-95257090D01*
X96663817Y-95260606D01*
X96663807Y-95260614D01*
X96552314Y-95372107D01*
X96552311Y-95372111D01*
X96464709Y-95503214D01*
X96464703Y-95503225D01*
X96404363Y-95648901D01*
X96404363Y-95648903D01*
X96373600Y-95803555D01*
X96373600Y-95961244D01*
X96404363Y-96115896D01*
X96404363Y-96115898D01*
X96464703Y-96261574D01*
X96464709Y-96261585D01*
X96517412Y-96340459D01*
X96552311Y-96392689D01*
X96552314Y-96392692D01*
X96573318Y-96413696D01*
X96601095Y-96468213D01*
X96591524Y-96528645D01*
X96573318Y-96553704D01*
X96531114Y-96595907D01*
X96531111Y-96595911D01*
X96443509Y-96727014D01*
X96443503Y-96727025D01*
X96383163Y-96872701D01*
X96383163Y-96872703D01*
X96352400Y-97027355D01*
X90000500Y-97027355D01*
X90000500Y-90677655D01*
X96383900Y-90677655D01*
X96383900Y-90835344D01*
X96414663Y-90989996D01*
X96414663Y-90989998D01*
X96475003Y-91135674D01*
X96475009Y-91135685D01*
X96527712Y-91214559D01*
X96562611Y-91266789D01*
X96674111Y-91378289D01*
X96752276Y-91430517D01*
X96805214Y-91465890D01*
X96805225Y-91465896D01*
X96859038Y-91488185D01*
X96950903Y-91526237D01*
X97105558Y-91557000D01*
X97105559Y-91557000D01*
X97263241Y-91557000D01*
X97263242Y-91557000D01*
X97417897Y-91526237D01*
X97563579Y-91465894D01*
X97694689Y-91378289D01*
X97806189Y-91266789D01*
X97893794Y-91135679D01*
X97954137Y-90989997D01*
X97984900Y-90835342D01*
X97984900Y-90677658D01*
X97954137Y-90523003D01*
X97893794Y-90377321D01*
X97893793Y-90377319D01*
X97893790Y-90377314D01*
X97858417Y-90324376D01*
X97806189Y-90246211D01*
X97694689Y-90134711D01*
X97642459Y-90099812D01*
X97563585Y-90047109D01*
X97563574Y-90047103D01*
X97417897Y-89986763D01*
X97263244Y-89956000D01*
X97263242Y-89956000D01*
X97105558Y-89956000D01*
X97105555Y-89956000D01*
X96950903Y-89986763D01*
X96950901Y-89986763D01*
X96805225Y-90047103D01*
X96805214Y-90047109D01*
X96674111Y-90134711D01*
X96674107Y-90134714D01*
X96562614Y-90246207D01*
X96562611Y-90246211D01*
X96475009Y-90377314D01*
X96475003Y-90377325D01*
X96414663Y-90523001D01*
X96414663Y-90523003D01*
X96383900Y-90677655D01*
X90000500Y-90677655D01*
X90000500Y-74006155D01*
X104429500Y-74006155D01*
X104429500Y-74163844D01*
X104460263Y-74318496D01*
X104460263Y-74318498D01*
X104520603Y-74464174D01*
X104520609Y-74464185D01*
X104571196Y-74539892D01*
X104608211Y-74595289D01*
X104719711Y-74706789D01*
X104797876Y-74759017D01*
X104850814Y-74794390D01*
X104850825Y-74794396D01*
X104904638Y-74816685D01*
X104996503Y-74854737D01*
X105151158Y-74885500D01*
X105151159Y-74885500D01*
X105308841Y-74885500D01*
X105308842Y-74885500D01*
X105463497Y-74854737D01*
X105609179Y-74794394D01*
X105740289Y-74706789D01*
X105847323Y-74599755D01*
X117720900Y-74599755D01*
X117720900Y-74757444D01*
X117740253Y-74854736D01*
X117746372Y-74885500D01*
X117751663Y-74912096D01*
X117751663Y-74912098D01*
X117812003Y-75057774D01*
X117812009Y-75057785D01*
X117864712Y-75136659D01*
X117899611Y-75188889D01*
X118011111Y-75300389D01*
X118089276Y-75352617D01*
X118142214Y-75387990D01*
X118142225Y-75387996D01*
X118196038Y-75410285D01*
X118287903Y-75448337D01*
X118442558Y-75479100D01*
X118442559Y-75479100D01*
X118600241Y-75479100D01*
X118600242Y-75479100D01*
X118754897Y-75448337D01*
X118900579Y-75387994D01*
X119031689Y-75300389D01*
X119143189Y-75188889D01*
X119230794Y-75057779D01*
X119291137Y-74912097D01*
X119321900Y-74757442D01*
X119321900Y-74602055D01*
X122718600Y-74602055D01*
X122718600Y-74759744D01*
X122725493Y-74794396D01*
X122748905Y-74912097D01*
X122749363Y-74914396D01*
X122749363Y-74914398D01*
X122809703Y-75060074D01*
X122809709Y-75060085D01*
X122862412Y-75138959D01*
X122897311Y-75191189D01*
X123008811Y-75302689D01*
X123086976Y-75354917D01*
X123139914Y-75390290D01*
X123139925Y-75390296D01*
X123193738Y-75412585D01*
X123285603Y-75450637D01*
X123440258Y-75481400D01*
X123440259Y-75481400D01*
X123597941Y-75481400D01*
X123597942Y-75481400D01*
X123752597Y-75450637D01*
X123898279Y-75390294D01*
X124029389Y-75302689D01*
X124140889Y-75191189D01*
X124228494Y-75060079D01*
X124288837Y-74914397D01*
X124319600Y-74759742D01*
X124319600Y-74602058D01*
X124288837Y-74447403D01*
X124235443Y-74318497D01*
X124228496Y-74301725D01*
X124228490Y-74301714D01*
X124193117Y-74248776D01*
X124140889Y-74170611D01*
X124029389Y-74059111D01*
X123977159Y-74024212D01*
X123898285Y-73971509D01*
X123898274Y-73971503D01*
X123752597Y-73911163D01*
X123597944Y-73880400D01*
X123597942Y-73880400D01*
X123440258Y-73880400D01*
X123440255Y-73880400D01*
X123285603Y-73911163D01*
X123285601Y-73911163D01*
X123139925Y-73971503D01*
X123139914Y-73971509D01*
X123008811Y-74059111D01*
X123008807Y-74059114D01*
X122897314Y-74170607D01*
X122897311Y-74170611D01*
X122809709Y-74301714D01*
X122809703Y-74301725D01*
X122749363Y-74447401D01*
X122749363Y-74447403D01*
X122718600Y-74602055D01*
X119321900Y-74602055D01*
X119321900Y-74599758D01*
X119291137Y-74445103D01*
X119238696Y-74318498D01*
X119230796Y-74299425D01*
X119230790Y-74299414D01*
X119195417Y-74246476D01*
X119143189Y-74168311D01*
X119031689Y-74056811D01*
X118955877Y-74006155D01*
X118900585Y-73969209D01*
X118900574Y-73969203D01*
X118754897Y-73908863D01*
X118600244Y-73878100D01*
X118600242Y-73878100D01*
X118442558Y-73878100D01*
X118442555Y-73878100D01*
X118287903Y-73908863D01*
X118287901Y-73908863D01*
X118142225Y-73969203D01*
X118142214Y-73969209D01*
X118011111Y-74056811D01*
X118011107Y-74056814D01*
X117899614Y-74168307D01*
X117899611Y-74168311D01*
X117812009Y-74299414D01*
X117812003Y-74299425D01*
X117751663Y-74445101D01*
X117751663Y-74445103D01*
X117720900Y-74599755D01*
X105847323Y-74599755D01*
X105851789Y-74595289D01*
X105939394Y-74464179D01*
X105999737Y-74318497D01*
X106030500Y-74163842D01*
X106030500Y-74006158D01*
X105999737Y-73851503D01*
X105961874Y-73760092D01*
X105939396Y-73705825D01*
X105939390Y-73705814D01*
X105904017Y-73652876D01*
X105851789Y-73574711D01*
X105740289Y-73463211D01*
X105688059Y-73428312D01*
X105609185Y-73375609D01*
X105609174Y-73375603D01*
X105463497Y-73315263D01*
X105308844Y-73284500D01*
X105308842Y-73284500D01*
X105151158Y-73284500D01*
X105151155Y-73284500D01*
X104996503Y-73315263D01*
X104996501Y-73315263D01*
X104850825Y-73375603D01*
X104850814Y-73375609D01*
X104719711Y-73463211D01*
X104719707Y-73463214D01*
X104608214Y-73574707D01*
X104608211Y-73574711D01*
X104520609Y-73705814D01*
X104520603Y-73705825D01*
X104460263Y-73851501D01*
X104460263Y-73851503D01*
X104429500Y-74006155D01*
X90000500Y-74006155D01*
X90000500Y-73170955D01*
X108104500Y-73170955D01*
X108104500Y-73328644D01*
X108135263Y-73483296D01*
X108135263Y-73483298D01*
X108195603Y-73628974D01*
X108195609Y-73628985D01*
X108246946Y-73705814D01*
X108283211Y-73760089D01*
X108394711Y-73871589D01*
X108453938Y-73911163D01*
X108525814Y-73959190D01*
X108525825Y-73959196D01*
X108555545Y-73971506D01*
X108671503Y-74019537D01*
X108826158Y-74050300D01*
X108826159Y-74050300D01*
X108983841Y-74050300D01*
X108983842Y-74050300D01*
X109138497Y-74019537D01*
X109284179Y-73959194D01*
X109415289Y-73871589D01*
X109526789Y-73760089D01*
X109614394Y-73628979D01*
X109674737Y-73483297D01*
X109705500Y-73328642D01*
X109705500Y-73170958D01*
X109674737Y-73016303D01*
X109614394Y-72870621D01*
X109614393Y-72870619D01*
X109614390Y-72870614D01*
X109579017Y-72817676D01*
X109526789Y-72739511D01*
X109415289Y-72628011D01*
X109363059Y-72593112D01*
X109284185Y-72540409D01*
X109284174Y-72540403D01*
X109138497Y-72480063D01*
X108983844Y-72449300D01*
X108983842Y-72449300D01*
X108826158Y-72449300D01*
X108826155Y-72449300D01*
X108671503Y-72480063D01*
X108671501Y-72480063D01*
X108525825Y-72540403D01*
X108525814Y-72540409D01*
X108394711Y-72628011D01*
X108394707Y-72628014D01*
X108283214Y-72739507D01*
X108283211Y-72739511D01*
X108195609Y-72870614D01*
X108195603Y-72870625D01*
X108135263Y-73016301D01*
X108135263Y-73016303D01*
X108104500Y-73170955D01*
X90000500Y-73170955D01*
X90000500Y-69931452D01*
X90000000Y-69923821D01*
X90000000Y-65024000D01*
X90018907Y-64965809D01*
X90068407Y-64929845D01*
X90099000Y-64925000D01*
X131641081Y-64925000D01*
X131691977Y-64939085D01*
G37*
%TD.AperFunction*%
%TD*%
M02*
