M48
; DRILL file KiCad 10.0.1 date 2026-08-28T14:36:25
; FORMAT={-:-/ absolute / metric / decimal}
; #@! TF.CreationDate,2026-08-28T14:36:25-05:00
; #@! TF.GenerationSoftware,Kicad,Pcbnew,10.0.1
; #@! TF.FileFunction,MixedPlating,1,4
FMAT,2
METRIC
; #@! TA.AperFunction,Plated,PTH,ViaDrill
T1C0.250
; #@! TA.AperFunction,Plated,PTH,ComponentDrill
T2C0.600
; #@! TA.AperFunction,Plated,PTH,ComponentDrill
T3C0.800
; #@! TA.AperFunction,Plated,PTH,ComponentDrill
T4C2.000
%
G90
G05
T1
X76.0Y-99.5
X77.05Y-112.0
X78.0Y-88.0
X78.0Y-92.3
X78.0Y-97.7
X78.0Y-107.7
X78.0Y-112.0
X78.95Y-87.7
X78.95Y-102.3
X78.95Y-112.3
X79.5Y-100.0
X81.0Y-99.0
X81.55Y-94.5
X84.05Y-94.5
X85.45Y-94.5
X85.7Y-99.2
X85.7Y-100.8
X86.5Y-103.65
X86.55Y-94.5
X87.3Y-99.2
X87.3Y-100.8
X87.95Y-94.5
X88.35Y-84.9
X88.35Y-87.1
X90.15Y-97.5
X90.15Y-101.0
X90.45Y-94.5
X90.5Y-88.3
X92.3Y-95.555
X92.3Y-96.825
X92.3Y-97.5
X92.3Y-99.365
X92.3Y-103.175
X93.0Y-115.5
X93.0Y-117.3
X97.23Y-117.3
X100.5Y-115.5
X104.7Y-95.555
X104.7Y-96.825
X104.7Y-98.095
X104.7Y-99.365
X104.7Y-103.175
X105.35Y-113.25
X105.55Y-110.0
X105.55Y-111.0
X106.05Y-88.5
X109.05Y-88.5
X109.65Y-112.75
X109.65Y-113.25
X109.85Y-113.4
X109.85Y-115.6
X109.95Y-88.5
X110.25Y-100.05
X110.55Y-97.5
X110.55Y-98.35
X110.55Y-104.3
X110.55Y-105.15
X112.0Y-116.8
X112.95Y-88.5
X113.55Y-114.5
X117.2Y-101.2
X117.2Y-102.8
X117.45Y-114.5
X117.6Y-113.5
X117.6Y-114.5
X117.8Y-85.0
X118.4Y-86.5
X118.8Y-101.2
X118.8Y-102.8
X120.5Y-114.5
X121.0Y-106.15
X122.0Y-107.0
X122.45Y-109.0
X122.5Y-105.3
X122.8Y-85.0
X123.25Y-87.0
X123.4Y-115.0
X123.5Y-104.45
X125.8Y-97.6
X125.8Y-98.4
X125.8Y-102.4
X125.8Y-103.2
X125.95Y-85.0
X126.25Y-87.0
X128.95Y-85.0
T3
X94.69Y-115.5
X97.23Y-115.5
X99.77Y-115.5
X102.31Y-115.5
X125.5Y-114.5
X127.5Y-114.5
T4
X72.0Y-100.0
X73.0Y-86.0
X73.0Y-114.0
X83.0Y-86.0
X83.0Y-114.0
T2
X129.5Y-95.4G85X129.5Y-96.0
G05
X129.5Y-104.0G85X129.5Y-104.6
G05
M30
