%TF.GenerationSoftware,KiCad,Pcbnew,10.0.1*%
%TF.CreationDate,2026-09-04T14:43:07-05:00*%
%TF.ProjectId,BIOCHEST-ECG-EMG,42494f43-4845-4535-942d-4543472d454d,rev?*%
%TF.SameCoordinates,Original*%
%TF.FileFunction,Soldermask,Top*%
%TF.FilePolarity,Negative*%
%FSLAX46Y46*%
G04 Gerber Fmt 4.6, Leading zero omitted, Abs format (unit mm)*
G04 Created by KiCad (PCBNEW 10.0.1) date 2026-09-04 14:43:07*
%MOMM*%
%LPD*%
G01*
G04 APERTURE LIST*
G04 Aperture macros list*
%AMRoundRect*
0 Rectangle with rounded corners*
0 $1 Rounding radius*
0 $2 $3 $4 $5 $6 $7 $8 $9 X,Y pos of 4 corners*
0 Add a 4 corners polygon primitive as box body*
4,1,4,$2,$3,$4,$5,$6,$7,$8,$9,$2,$3,0*
0 Add four circle primitives for the rounded corners*
1,1,$1+$1,$2,$3*
1,1,$1+$1,$4,$5*
1,1,$1+$1,$6,$7*
1,1,$1+$1,$8,$9*
0 Add four rect primitives between the rounded corners*
20,1,$1+$1,$2,$3,$4,$5,0*
20,1,$1+$1,$4,$5,$6,$7,0*
20,1,$1+$1,$6,$7,$8,$9,0*
20,1,$1+$1,$8,$9,$2,$3,0*%
G04 Aperture macros list end*
%ADD10C,4.500000*%
%ADD11C,6.000000*%
%ADD12R,1.500000X1.500000*%
%ADD13C,1.500000*%
%ADD14RoundRect,0.200000X-0.200000X-0.200000X0.200000X-0.200000X0.200000X0.200000X-0.200000X0.200000X0*%
%ADD15R,0.600000X0.800000*%
%ADD16RoundRect,0.200000X0.200000X0.200000X-0.200000X0.200000X-0.200000X-0.200000X0.200000X-0.200000X0*%
%ADD17R,1.800000X0.600000*%
%ADD18R,1.200000X0.500000*%
%ADD19R,0.500000X1.200000*%
%ADD20R,4.500000X4.500000*%
%ADD21R,0.700000X0.280000*%
%ADD22R,0.280000X0.700000*%
%ADD23R,3.400000X3.400000*%
%ADD24R,1.000000X1.000000*%
%ADD25R,1.200000X0.300000*%
%ADD26O,2.200000X1.200000*%
%ADD27R,0.500000X0.250000*%
%ADD28R,1.200000X0.800000*%
%ADD29R,0.600000X0.280000*%
%ADD30R,0.280000X0.600000*%
%ADD31R,2.000000X2.000000*%
G04 APERTURE END LIST*
D10*
%TO.C,J5*%
X70000000Y-110000000D03*
D11*
X70000000Y-110000000D03*
%TD*%
D12*
%TO.C,BT1*%
X127000000Y-108000000D03*
D13*
X129000000Y-108000000D03*
%TD*%
D14*
%TO.C,C3*%
X73200000Y-86000000D03*
X74800000Y-86000000D03*
%TD*%
D15*
%TO.C,D3*%
X61050000Y-96100000D03*
X62000000Y-96100000D03*
X62950000Y-96100000D03*
X62950000Y-93900000D03*
X62000000Y-93900000D03*
X61050000Y-93900000D03*
%TD*%
%TO.C,D1*%
X61050000Y-88100000D03*
X62000000Y-88100000D03*
X62950000Y-88100000D03*
X62950000Y-85900000D03*
X62000000Y-85900000D03*
X61050000Y-85900000D03*
%TD*%
D14*
%TO.C,D5*%
X124200000Y-74000000D03*
X125800000Y-74000000D03*
%TD*%
%TO.C,C2*%
X77200000Y-86000000D03*
X78800000Y-86000000D03*
%TD*%
D12*
%TO.C,U10*%
X92810000Y-115000000D03*
D13*
X90270000Y-115000000D03*
X87730000Y-115000000D03*
X85190000Y-115000000D03*
%TD*%
D16*
%TO.C,C7*%
X120800000Y-108000000D03*
X119200000Y-108000000D03*
%TD*%
D14*
%TO.C,C4*%
X99200000Y-88000000D03*
X100800000Y-88000000D03*
%TD*%
D15*
%TO.C,D2*%
X61050000Y-104100000D03*
X62000000Y-104100000D03*
X62950000Y-104100000D03*
X62950000Y-101900000D03*
X62000000Y-101900000D03*
X61050000Y-101900000D03*
%TD*%
D14*
%TO.C,C1*%
X69200000Y-90000000D03*
X70800000Y-90000000D03*
%TD*%
D17*
%TO.C,U2*%
X82200000Y-90555000D03*
X82200000Y-91825000D03*
X82200000Y-93095000D03*
X82200000Y-94365000D03*
X82200000Y-95635000D03*
X82200000Y-96905000D03*
X82200000Y-98175000D03*
X82200000Y-99445000D03*
X95800000Y-99445000D03*
X95800000Y-98175000D03*
X95800000Y-96905000D03*
X95800000Y-95635000D03*
X95800000Y-94365000D03*
X95800000Y-93095000D03*
X95800000Y-91825000D03*
X95800000Y-90555000D03*
%TD*%
D18*
%TO.C,U3*%
X105750000Y-92500000D03*
X105750000Y-93350000D03*
X105750000Y-94200000D03*
X105750000Y-95050000D03*
X105750000Y-95900000D03*
X105750000Y-96750000D03*
X105750000Y-97600000D03*
X105750000Y-98450000D03*
X105750000Y-99300000D03*
X105750000Y-100150000D03*
X105750000Y-101000000D03*
X105750000Y-101850000D03*
X105750000Y-102700000D03*
X105750000Y-103550000D03*
D19*
X107500000Y-103000000D03*
X108200000Y-103000000D03*
X108900000Y-103000000D03*
X109600000Y-103000000D03*
X110300000Y-103000000D03*
X111000000Y-103000000D03*
X111700000Y-103000000D03*
X112400000Y-103000000D03*
X113100000Y-103000000D03*
X113800000Y-103000000D03*
X114500000Y-103000000D03*
X115200000Y-103000000D03*
X115900000Y-103000000D03*
X116600000Y-103000000D03*
D18*
X118250000Y-102000000D03*
X118250000Y-101150000D03*
X118250000Y-100300000D03*
X118250000Y-99450000D03*
X118250000Y-98600000D03*
X118250000Y-97750000D03*
X118250000Y-96900000D03*
X118250000Y-96050000D03*
X118250000Y-95200000D03*
X118250000Y-94350000D03*
X118250000Y-93500000D03*
X118250000Y-92650000D03*
X118250000Y-91800000D03*
X118250000Y-90950000D03*
D20*
X112000000Y-97000000D03*
%TD*%
D21*
%TO.C,U1*%
X71550000Y-93500000D03*
X71550000Y-94000000D03*
X71550000Y-94500000D03*
X71550000Y-95000000D03*
X71550000Y-95500000D03*
X71550000Y-96000000D03*
X71550000Y-96500000D03*
D22*
X72500000Y-97450000D03*
X73000000Y-97450000D03*
X73500000Y-97450000D03*
X74000000Y-97450000D03*
X74500000Y-97450000D03*
X75000000Y-97450000D03*
X75500000Y-97450000D03*
D21*
X76450000Y-96500000D03*
X76450000Y-96000000D03*
X76450000Y-95500000D03*
X76450000Y-95000000D03*
X76450000Y-94500000D03*
X76450000Y-94000000D03*
X76450000Y-93500000D03*
D22*
X75500000Y-92550000D03*
X75000000Y-92550000D03*
X74500000Y-92550000D03*
X74000000Y-92550000D03*
X73500000Y-92550000D03*
X73000000Y-92550000D03*
X72500000Y-92550000D03*
D23*
X74000000Y-95000000D03*
%TD*%
D14*
%TO.C,C6*%
X115200000Y-114000000D03*
X116800000Y-114000000D03*
%TD*%
%TO.C,C5*%
X99200000Y-85000000D03*
X100800000Y-85000000D03*
%TD*%
D15*
%TO.C,U7*%
X77050000Y-77100000D03*
X78000000Y-77100000D03*
X78950000Y-77100000D03*
X78950000Y-74900000D03*
X77050000Y-74900000D03*
%TD*%
D24*
%TO.C,SW2*%
X112200000Y-74000000D03*
X115800000Y-74000000D03*
%TD*%
D25*
%TO.C,J6*%
X127000000Y-98200000D03*
X127000000Y-97400000D03*
X127000000Y-96600000D03*
X127000000Y-95800000D03*
X127000000Y-95000000D03*
X127000000Y-94200000D03*
X127000000Y-93400000D03*
X127000000Y-92600000D03*
X127000000Y-91800000D03*
D26*
X130000000Y-99300000D03*
X130000000Y-90700000D03*
%TD*%
D15*
%TO.C,U8*%
X111050000Y-115100000D03*
X112000000Y-115100000D03*
X112950000Y-115100000D03*
X112950000Y-112900000D03*
X111050000Y-112900000D03*
%TD*%
D10*
%TO.C,J4*%
X54500000Y-109500000D03*
D11*
X54500000Y-109500000D03*
%TD*%
D10*
%TO.C,J3*%
X54000000Y-95000000D03*
D11*
X54000000Y-95000000D03*
%TD*%
D10*
%TO.C,J2*%
X70000000Y-78000000D03*
D11*
X70000000Y-78000000D03*
%TD*%
D27*
%TO.C,U11*%
X103050000Y-107250000D03*
X103050000Y-107750000D03*
X103050000Y-108250000D03*
X103050000Y-108750000D03*
X104950000Y-108750000D03*
X104950000Y-108250000D03*
X104950000Y-107750000D03*
X104950000Y-107250000D03*
D28*
X104000000Y-108000000D03*
%TD*%
D14*
%TO.C,D4*%
X119200000Y-74000000D03*
X120800000Y-74000000D03*
%TD*%
D24*
%TO.C,SW1*%
X106200000Y-74000000D03*
X109800000Y-74000000D03*
%TD*%
D29*
%TO.C,U9*%
X121300000Y-113000000D03*
X121300000Y-113500000D03*
X121300000Y-114000000D03*
X121300000Y-114500000D03*
X121300000Y-115000000D03*
D30*
X122000000Y-115700000D03*
X122500000Y-115700000D03*
X123000000Y-115700000D03*
X123500000Y-115700000D03*
X124000000Y-115700000D03*
D29*
X124700000Y-115000000D03*
X124700000Y-114500000D03*
X124700000Y-114000000D03*
X124700000Y-113500000D03*
X124700000Y-113000000D03*
D30*
X124000000Y-112300000D03*
X123500000Y-112300000D03*
X123000000Y-112300000D03*
X122500000Y-112300000D03*
X122000000Y-112300000D03*
D31*
X123000000Y-114000000D03*
%TD*%
D10*
%TO.C,J1*%
X54000000Y-78000000D03*
D11*
X54000000Y-78000000D03*
%TD*%
M02*
