%TF.GenerationSoftware,KiCad,Pcbnew,10.0.1*%
%TF.CreationDate,2026-08-28T14:53:27-05:00*%
%TF.ProjectId,BIOCHEST-ECG-EMG,42494f43-4845-4535-942d-4543472d454d,rev?*%
%TF.SameCoordinates,Original*%
%TF.FileFunction,AssemblyDrawing,Top*%
%FSLAX46Y46*%
G04 Gerber Fmt 4.6, Leading zero omitted, Abs format (unit mm)*
G04 Created by KiCad (PCBNEW 10.0.1) date 2026-08-28 14:53:27*
%MOMM*%
%LPD*%
G01*
G04 APERTURE LIST*
%ADD10C,0.080000*%
G04 APERTURE END LIST*
D10*
X86314284Y-95973411D02*
X85971427Y-95973411D01*
X86142856Y-95973411D02*
X86142856Y-95373411D01*
X86142856Y-95373411D02*
X86085713Y-95459125D01*
X86085713Y-95459125D02*
X86028570Y-95516268D01*
X86028570Y-95516268D02*
X85971427Y-95544840D01*
X86685713Y-95373411D02*
X86742856Y-95373411D01*
X86742856Y-95373411D02*
X86799999Y-95401982D01*
X86799999Y-95401982D02*
X86828571Y-95430554D01*
X86828571Y-95430554D02*
X86857142Y-95487697D01*
X86857142Y-95487697D02*
X86885713Y-95601982D01*
X86885713Y-95601982D02*
X86885713Y-95744840D01*
X86885713Y-95744840D02*
X86857142Y-95859125D01*
X86857142Y-95859125D02*
X86828571Y-95916268D01*
X86828571Y-95916268D02*
X86799999Y-95944840D01*
X86799999Y-95944840D02*
X86742856Y-95973411D01*
X86742856Y-95973411D02*
X86685713Y-95973411D01*
X86685713Y-95973411D02*
X86628571Y-95944840D01*
X86628571Y-95944840D02*
X86599999Y-95916268D01*
X86599999Y-95916268D02*
X86571428Y-95859125D01*
X86571428Y-95859125D02*
X86542856Y-95744840D01*
X86542856Y-95744840D02*
X86542856Y-95601982D01*
X86542856Y-95601982D02*
X86571428Y-95487697D01*
X86571428Y-95487697D02*
X86599999Y-95430554D01*
X86599999Y-95430554D02*
X86628571Y-95401982D01*
X86628571Y-95401982D02*
X86685713Y-95373411D01*
X87257142Y-95373411D02*
X87314285Y-95373411D01*
X87314285Y-95373411D02*
X87371428Y-95401982D01*
X87371428Y-95401982D02*
X87400000Y-95430554D01*
X87400000Y-95430554D02*
X87428571Y-95487697D01*
X87428571Y-95487697D02*
X87457142Y-95601982D01*
X87457142Y-95601982D02*
X87457142Y-95744840D01*
X87457142Y-95744840D02*
X87428571Y-95859125D01*
X87428571Y-95859125D02*
X87400000Y-95916268D01*
X87400000Y-95916268D02*
X87371428Y-95944840D01*
X87371428Y-95944840D02*
X87314285Y-95973411D01*
X87314285Y-95973411D02*
X87257142Y-95973411D01*
X87257142Y-95973411D02*
X87200000Y-95944840D01*
X87200000Y-95944840D02*
X87171428Y-95916268D01*
X87171428Y-95916268D02*
X87142857Y-95859125D01*
X87142857Y-95859125D02*
X87114285Y-95744840D01*
X87114285Y-95744840D02*
X87114285Y-95601982D01*
X87114285Y-95601982D02*
X87142857Y-95487697D01*
X87142857Y-95487697D02*
X87171428Y-95430554D01*
X87171428Y-95430554D02*
X87200000Y-95401982D01*
X87200000Y-95401982D02*
X87257142Y-95373411D01*
X87714286Y-95573411D02*
X87714286Y-95973411D01*
X87714286Y-95630554D02*
X87742857Y-95601982D01*
X87742857Y-95601982D02*
X87800000Y-95573411D01*
X87800000Y-95573411D02*
X87885714Y-95573411D01*
X87885714Y-95573411D02*
X87942857Y-95601982D01*
X87942857Y-95601982D02*
X87971429Y-95659125D01*
X87971429Y-95659125D02*
X87971429Y-95973411D01*
X88457143Y-95659125D02*
X88257143Y-95659125D01*
X88257143Y-95973411D02*
X88257143Y-95373411D01*
X88257143Y-95373411D02*
X88542857Y-95373411D01*
X88628572Y-96030554D02*
X89085714Y-96030554D01*
X89228572Y-95973411D02*
X89228572Y-95373411D01*
X89485714Y-95944840D02*
X89571429Y-95973411D01*
X89571429Y-95973411D02*
X89714286Y-95973411D01*
X89714286Y-95973411D02*
X89771429Y-95944840D01*
X89771429Y-95944840D02*
X89800000Y-95916268D01*
X89800000Y-95916268D02*
X89828571Y-95859125D01*
X89828571Y-95859125D02*
X89828571Y-95801982D01*
X89828571Y-95801982D02*
X89800000Y-95744840D01*
X89800000Y-95744840D02*
X89771429Y-95716268D01*
X89771429Y-95716268D02*
X89714286Y-95687697D01*
X89714286Y-95687697D02*
X89600000Y-95659125D01*
X89600000Y-95659125D02*
X89542857Y-95630554D01*
X89542857Y-95630554D02*
X89514286Y-95601982D01*
X89514286Y-95601982D02*
X89485714Y-95544840D01*
X89485714Y-95544840D02*
X89485714Y-95487697D01*
X89485714Y-95487697D02*
X89514286Y-95430554D01*
X89514286Y-95430554D02*
X89542857Y-95401982D01*
X89542857Y-95401982D02*
X89600000Y-95373411D01*
X89600000Y-95373411D02*
X89742857Y-95373411D01*
X89742857Y-95373411D02*
X89828571Y-95401982D01*
X90200000Y-95373411D02*
X90314286Y-95373411D01*
X90314286Y-95373411D02*
X90371429Y-95401982D01*
X90371429Y-95401982D02*
X90428572Y-95459125D01*
X90428572Y-95459125D02*
X90457143Y-95573411D01*
X90457143Y-95573411D02*
X90457143Y-95773411D01*
X90457143Y-95773411D02*
X90428572Y-95887697D01*
X90428572Y-95887697D02*
X90371429Y-95944840D01*
X90371429Y-95944840D02*
X90314286Y-95973411D01*
X90314286Y-95973411D02*
X90200000Y-95973411D01*
X90200000Y-95973411D02*
X90142858Y-95944840D01*
X90142858Y-95944840D02*
X90085715Y-95887697D01*
X90085715Y-95887697D02*
X90057143Y-95773411D01*
X90057143Y-95773411D02*
X90057143Y-95573411D01*
X90057143Y-95573411D02*
X90085715Y-95459125D01*
X90085715Y-95459125D02*
X90142858Y-95401982D01*
X90142858Y-95401982D02*
X90200000Y-95373411D01*
X91028571Y-95973411D02*
X90685714Y-95973411D01*
X90857143Y-95973411D02*
X90857143Y-95373411D01*
X90857143Y-95373411D02*
X90800000Y-95459125D01*
X90800000Y-95459125D02*
X90742857Y-95516268D01*
X90742857Y-95516268D02*
X90685714Y-95544840D01*
X88057141Y-87473411D02*
X88399999Y-87473411D01*
X88228570Y-88073411D02*
X88228570Y-87473411D01*
X88599999Y-88073411D02*
X88599999Y-87473411D01*
X88599999Y-87473411D02*
X88828570Y-87473411D01*
X88828570Y-87473411D02*
X88885713Y-87501982D01*
X88885713Y-87501982D02*
X88914284Y-87530554D01*
X88914284Y-87530554D02*
X88942856Y-87587697D01*
X88942856Y-87587697D02*
X88942856Y-87673411D01*
X88942856Y-87673411D02*
X88914284Y-87730554D01*
X88914284Y-87730554D02*
X88885713Y-87759125D01*
X88885713Y-87759125D02*
X88828570Y-87787697D01*
X88828570Y-87787697D02*
X88599999Y-87787697D01*
X89171427Y-88044840D02*
X89257142Y-88073411D01*
X89257142Y-88073411D02*
X89399999Y-88073411D01*
X89399999Y-88073411D02*
X89457142Y-88044840D01*
X89457142Y-88044840D02*
X89485713Y-88016268D01*
X89485713Y-88016268D02*
X89514284Y-87959125D01*
X89514284Y-87959125D02*
X89514284Y-87901982D01*
X89514284Y-87901982D02*
X89485713Y-87844840D01*
X89485713Y-87844840D02*
X89457142Y-87816268D01*
X89457142Y-87816268D02*
X89399999Y-87787697D01*
X89399999Y-87787697D02*
X89285713Y-87759125D01*
X89285713Y-87759125D02*
X89228570Y-87730554D01*
X89228570Y-87730554D02*
X89199999Y-87701982D01*
X89199999Y-87701982D02*
X89171427Y-87644840D01*
X89171427Y-87644840D02*
X89171427Y-87587697D01*
X89171427Y-87587697D02*
X89199999Y-87530554D01*
X89199999Y-87530554D02*
X89228570Y-87501982D01*
X89228570Y-87501982D02*
X89285713Y-87473411D01*
X89285713Y-87473411D02*
X89428570Y-87473411D01*
X89428570Y-87473411D02*
X89514284Y-87501982D01*
X89714285Y-87473411D02*
X90114285Y-87473411D01*
X90114285Y-87473411D02*
X89857142Y-88073411D01*
X90314285Y-87901982D02*
X90600000Y-87901982D01*
X90257142Y-88073411D02*
X90457142Y-87473411D01*
X90457142Y-87473411D02*
X90657142Y-88073411D01*
X90828571Y-87530554D02*
X90857143Y-87501982D01*
X90857143Y-87501982D02*
X90914286Y-87473411D01*
X90914286Y-87473411D02*
X91057143Y-87473411D01*
X91057143Y-87473411D02*
X91114286Y-87501982D01*
X91114286Y-87501982D02*
X91142857Y-87530554D01*
X91142857Y-87530554D02*
X91171428Y-87587697D01*
X91171428Y-87587697D02*
X91171428Y-87644840D01*
X91171428Y-87644840D02*
X91142857Y-87730554D01*
X91142857Y-87730554D02*
X90800000Y-88073411D01*
X90800000Y-88073411D02*
X91171428Y-88073411D01*
X91542857Y-87473411D02*
X91600000Y-87473411D01*
X91600000Y-87473411D02*
X91657143Y-87501982D01*
X91657143Y-87501982D02*
X91685715Y-87530554D01*
X91685715Y-87530554D02*
X91714286Y-87587697D01*
X91714286Y-87587697D02*
X91742857Y-87701982D01*
X91742857Y-87701982D02*
X91742857Y-87844840D01*
X91742857Y-87844840D02*
X91714286Y-87959125D01*
X91714286Y-87959125D02*
X91685715Y-88016268D01*
X91685715Y-88016268D02*
X91657143Y-88044840D01*
X91657143Y-88044840D02*
X91600000Y-88073411D01*
X91600000Y-88073411D02*
X91542857Y-88073411D01*
X91542857Y-88073411D02*
X91485715Y-88044840D01*
X91485715Y-88044840D02*
X91457143Y-88016268D01*
X91457143Y-88016268D02*
X91428572Y-87959125D01*
X91428572Y-87959125D02*
X91400000Y-87844840D01*
X91400000Y-87844840D02*
X91400000Y-87701982D01*
X91400000Y-87701982D02*
X91428572Y-87587697D01*
X91428572Y-87587697D02*
X91457143Y-87530554D01*
X91457143Y-87530554D02*
X91485715Y-87501982D01*
X91485715Y-87501982D02*
X91542857Y-87473411D01*
X91942858Y-87473411D02*
X92314286Y-87473411D01*
X92314286Y-87473411D02*
X92114286Y-87701982D01*
X92114286Y-87701982D02*
X92200001Y-87701982D01*
X92200001Y-87701982D02*
X92257144Y-87730554D01*
X92257144Y-87730554D02*
X92285715Y-87759125D01*
X92285715Y-87759125D02*
X92314286Y-87816268D01*
X92314286Y-87816268D02*
X92314286Y-87959125D01*
X92314286Y-87959125D02*
X92285715Y-88016268D01*
X92285715Y-88016268D02*
X92257144Y-88044840D01*
X92257144Y-88044840D02*
X92200001Y-88073411D01*
X92200001Y-88073411D02*
X92028572Y-88073411D01*
X92028572Y-88073411D02*
X91971429Y-88044840D01*
X91971429Y-88044840D02*
X91942858Y-88016268D01*
X92514287Y-87473411D02*
X92885715Y-87473411D01*
X92885715Y-87473411D02*
X92685715Y-87701982D01*
X92685715Y-87701982D02*
X92771430Y-87701982D01*
X92771430Y-87701982D02*
X92828573Y-87730554D01*
X92828573Y-87730554D02*
X92857144Y-87759125D01*
X92857144Y-87759125D02*
X92885715Y-87816268D01*
X92885715Y-87816268D02*
X92885715Y-87959125D01*
X92885715Y-87959125D02*
X92857144Y-88016268D01*
X92857144Y-88016268D02*
X92828573Y-88044840D01*
X92828573Y-88044840D02*
X92771430Y-88073411D01*
X92771430Y-88073411D02*
X92600001Y-88073411D01*
X92600001Y-88073411D02*
X92542858Y-88044840D01*
X92542858Y-88044840D02*
X92514287Y-88016268D01*
X81228570Y-95973411D02*
X80885713Y-95973411D01*
X81057142Y-95973411D02*
X81057142Y-95373411D01*
X81057142Y-95373411D02*
X80999999Y-95459125D01*
X80999999Y-95459125D02*
X80942856Y-95516268D01*
X80942856Y-95516268D02*
X80885713Y-95544840D01*
X81599999Y-95373411D02*
X81657142Y-95373411D01*
X81657142Y-95373411D02*
X81714285Y-95401982D01*
X81714285Y-95401982D02*
X81742857Y-95430554D01*
X81742857Y-95430554D02*
X81771428Y-95487697D01*
X81771428Y-95487697D02*
X81799999Y-95601982D01*
X81799999Y-95601982D02*
X81799999Y-95744840D01*
X81799999Y-95744840D02*
X81771428Y-95859125D01*
X81771428Y-95859125D02*
X81742857Y-95916268D01*
X81742857Y-95916268D02*
X81714285Y-95944840D01*
X81714285Y-95944840D02*
X81657142Y-95973411D01*
X81657142Y-95973411D02*
X81599999Y-95973411D01*
X81599999Y-95973411D02*
X81542857Y-95944840D01*
X81542857Y-95944840D02*
X81514285Y-95916268D01*
X81514285Y-95916268D02*
X81485714Y-95859125D01*
X81485714Y-95859125D02*
X81457142Y-95744840D01*
X81457142Y-95744840D02*
X81457142Y-95601982D01*
X81457142Y-95601982D02*
X81485714Y-95487697D01*
X81485714Y-95487697D02*
X81514285Y-95430554D01*
X81514285Y-95430554D02*
X81542857Y-95401982D01*
X81542857Y-95401982D02*
X81599999Y-95373411D01*
X82171428Y-95373411D02*
X82228571Y-95373411D01*
X82228571Y-95373411D02*
X82285714Y-95401982D01*
X82285714Y-95401982D02*
X82314286Y-95430554D01*
X82314286Y-95430554D02*
X82342857Y-95487697D01*
X82342857Y-95487697D02*
X82371428Y-95601982D01*
X82371428Y-95601982D02*
X82371428Y-95744840D01*
X82371428Y-95744840D02*
X82342857Y-95859125D01*
X82342857Y-95859125D02*
X82314286Y-95916268D01*
X82314286Y-95916268D02*
X82285714Y-95944840D01*
X82285714Y-95944840D02*
X82228571Y-95973411D01*
X82228571Y-95973411D02*
X82171428Y-95973411D01*
X82171428Y-95973411D02*
X82114286Y-95944840D01*
X82114286Y-95944840D02*
X82085714Y-95916268D01*
X82085714Y-95916268D02*
X82057143Y-95859125D01*
X82057143Y-95859125D02*
X82028571Y-95744840D01*
X82028571Y-95744840D02*
X82028571Y-95601982D01*
X82028571Y-95601982D02*
X82057143Y-95487697D01*
X82057143Y-95487697D02*
X82085714Y-95430554D01*
X82085714Y-95430554D02*
X82114286Y-95401982D01*
X82114286Y-95401982D02*
X82171428Y-95373411D01*
X82628572Y-95573411D02*
X82628572Y-95973411D01*
X82628572Y-95630554D02*
X82657143Y-95601982D01*
X82657143Y-95601982D02*
X82714286Y-95573411D01*
X82714286Y-95573411D02*
X82800000Y-95573411D01*
X82800000Y-95573411D02*
X82857143Y-95601982D01*
X82857143Y-95601982D02*
X82885715Y-95659125D01*
X82885715Y-95659125D02*
X82885715Y-95973411D01*
X83371429Y-95659125D02*
X83171429Y-95659125D01*
X83171429Y-95973411D02*
X83171429Y-95373411D01*
X83171429Y-95373411D02*
X83457143Y-95373411D01*
X83542858Y-96030554D02*
X84000000Y-96030554D01*
X84114286Y-95801982D02*
X84400001Y-95801982D01*
X84057143Y-95973411D02*
X84257143Y-95373411D01*
X84257143Y-95373411D02*
X84457143Y-95973411D01*
X84571429Y-95373411D02*
X84771429Y-95973411D01*
X84771429Y-95973411D02*
X84971429Y-95373411D01*
X85171430Y-95973411D02*
X85171430Y-95373411D01*
X85171430Y-95373411D02*
X85314287Y-95373411D01*
X85314287Y-95373411D02*
X85400001Y-95401982D01*
X85400001Y-95401982D02*
X85457144Y-95459125D01*
X85457144Y-95459125D02*
X85485715Y-95516268D01*
X85485715Y-95516268D02*
X85514287Y-95630554D01*
X85514287Y-95630554D02*
X85514287Y-95716268D01*
X85514287Y-95716268D02*
X85485715Y-95830554D01*
X85485715Y-95830554D02*
X85457144Y-95887697D01*
X85457144Y-95887697D02*
X85400001Y-95944840D01*
X85400001Y-95944840D02*
X85314287Y-95973411D01*
X85314287Y-95973411D02*
X85171430Y-95973411D01*
X85771430Y-95973411D02*
X85771430Y-95373411D01*
X85771430Y-95373411D02*
X85914287Y-95373411D01*
X85914287Y-95373411D02*
X86000001Y-95401982D01*
X86000001Y-95401982D02*
X86057144Y-95459125D01*
X86057144Y-95459125D02*
X86085715Y-95516268D01*
X86085715Y-95516268D02*
X86114287Y-95630554D01*
X86114287Y-95630554D02*
X86114287Y-95716268D01*
X86114287Y-95716268D02*
X86085715Y-95830554D01*
X86085715Y-95830554D02*
X86057144Y-95887697D01*
X86057144Y-95887697D02*
X86000001Y-95944840D01*
X86000001Y-95944840D02*
X85914287Y-95973411D01*
X85914287Y-95973411D02*
X85771430Y-95973411D01*
X109028570Y-116401982D02*
X109314285Y-116401982D01*
X108971427Y-116573411D02*
X109171427Y-115973411D01*
X109171427Y-115973411D02*
X109371427Y-116573411D01*
X109571428Y-116573411D02*
X109571428Y-115973411D01*
X109571428Y-115973411D02*
X109799999Y-115973411D01*
X109799999Y-115973411D02*
X109857142Y-116001982D01*
X109857142Y-116001982D02*
X109885713Y-116030554D01*
X109885713Y-116030554D02*
X109914285Y-116087697D01*
X109914285Y-116087697D02*
X109914285Y-116173411D01*
X109914285Y-116173411D02*
X109885713Y-116230554D01*
X109885713Y-116230554D02*
X109857142Y-116259125D01*
X109857142Y-116259125D02*
X109799999Y-116287697D01*
X109799999Y-116287697D02*
X109571428Y-116287697D01*
X110142856Y-116030554D02*
X110171428Y-116001982D01*
X110171428Y-116001982D02*
X110228571Y-115973411D01*
X110228571Y-115973411D02*
X110371428Y-115973411D01*
X110371428Y-115973411D02*
X110428571Y-116001982D01*
X110428571Y-116001982D02*
X110457142Y-116030554D01*
X110457142Y-116030554D02*
X110485713Y-116087697D01*
X110485713Y-116087697D02*
X110485713Y-116144840D01*
X110485713Y-116144840D02*
X110457142Y-116230554D01*
X110457142Y-116230554D02*
X110114285Y-116573411D01*
X110114285Y-116573411D02*
X110485713Y-116573411D01*
X111057142Y-116573411D02*
X110714285Y-116573411D01*
X110885714Y-116573411D02*
X110885714Y-115973411D01*
X110885714Y-115973411D02*
X110828571Y-116059125D01*
X110828571Y-116059125D02*
X110771428Y-116116268D01*
X110771428Y-116116268D02*
X110714285Y-116144840D01*
X111628571Y-116573411D02*
X111285714Y-116573411D01*
X111457143Y-116573411D02*
X111457143Y-115973411D01*
X111457143Y-115973411D02*
X111400000Y-116059125D01*
X111400000Y-116059125D02*
X111342857Y-116116268D01*
X111342857Y-116116268D02*
X111285714Y-116144840D01*
X111857143Y-116030554D02*
X111885715Y-116001982D01*
X111885715Y-116001982D02*
X111942858Y-115973411D01*
X111942858Y-115973411D02*
X112085715Y-115973411D01*
X112085715Y-115973411D02*
X112142858Y-116001982D01*
X112142858Y-116001982D02*
X112171429Y-116030554D01*
X112171429Y-116030554D02*
X112200000Y-116087697D01*
X112200000Y-116087697D02*
X112200000Y-116144840D01*
X112200000Y-116144840D02*
X112171429Y-116230554D01*
X112171429Y-116230554D02*
X111828572Y-116573411D01*
X111828572Y-116573411D02*
X112200000Y-116573411D01*
X112457144Y-116573411D02*
X112457144Y-115973411D01*
X112800001Y-116573411D02*
X112542858Y-116230554D01*
X112800001Y-115973411D02*
X112457144Y-116316268D01*
X113057144Y-116344840D02*
X113514287Y-116344840D01*
X113742858Y-115973411D02*
X114114286Y-115973411D01*
X114114286Y-115973411D02*
X113914286Y-116201982D01*
X113914286Y-116201982D02*
X114000001Y-116201982D01*
X114000001Y-116201982D02*
X114057144Y-116230554D01*
X114057144Y-116230554D02*
X114085715Y-116259125D01*
X114085715Y-116259125D02*
X114114286Y-116316268D01*
X114114286Y-116316268D02*
X114114286Y-116459125D01*
X114114286Y-116459125D02*
X114085715Y-116516268D01*
X114085715Y-116516268D02*
X114057144Y-116544840D01*
X114057144Y-116544840D02*
X114000001Y-116573411D01*
X114000001Y-116573411D02*
X113828572Y-116573411D01*
X113828572Y-116573411D02*
X113771429Y-116544840D01*
X113771429Y-116544840D02*
X113742858Y-116516268D01*
X114371430Y-116516268D02*
X114400001Y-116544840D01*
X114400001Y-116544840D02*
X114371430Y-116573411D01*
X114371430Y-116573411D02*
X114342858Y-116544840D01*
X114342858Y-116544840D02*
X114371430Y-116516268D01*
X114371430Y-116516268D02*
X114371430Y-116573411D01*
X114600001Y-115973411D02*
X114971429Y-115973411D01*
X114971429Y-115973411D02*
X114771429Y-116201982D01*
X114771429Y-116201982D02*
X114857144Y-116201982D01*
X114857144Y-116201982D02*
X114914287Y-116230554D01*
X114914287Y-116230554D02*
X114942858Y-116259125D01*
X114942858Y-116259125D02*
X114971429Y-116316268D01*
X114971429Y-116316268D02*
X114971429Y-116459125D01*
X114971429Y-116459125D02*
X114942858Y-116516268D01*
X114942858Y-116516268D02*
X114914287Y-116544840D01*
X114914287Y-116544840D02*
X114857144Y-116573411D01*
X114857144Y-116573411D02*
X114685715Y-116573411D01*
X114685715Y-116573411D02*
X114628572Y-116544840D01*
X114628572Y-116544840D02*
X114600001Y-116516268D01*
X118842856Y-110473411D02*
X118499999Y-110473411D01*
X118671428Y-110473411D02*
X118671428Y-109873411D01*
X118671428Y-109873411D02*
X118614285Y-109959125D01*
X118614285Y-109959125D02*
X118557142Y-110016268D01*
X118557142Y-110016268D02*
X118499999Y-110044840D01*
X119214285Y-109873411D02*
X119271428Y-109873411D01*
X119271428Y-109873411D02*
X119328571Y-109901982D01*
X119328571Y-109901982D02*
X119357143Y-109930554D01*
X119357143Y-109930554D02*
X119385714Y-109987697D01*
X119385714Y-109987697D02*
X119414285Y-110101982D01*
X119414285Y-110101982D02*
X119414285Y-110244840D01*
X119414285Y-110244840D02*
X119385714Y-110359125D01*
X119385714Y-110359125D02*
X119357143Y-110416268D01*
X119357143Y-110416268D02*
X119328571Y-110444840D01*
X119328571Y-110444840D02*
X119271428Y-110473411D01*
X119271428Y-110473411D02*
X119214285Y-110473411D01*
X119214285Y-110473411D02*
X119157143Y-110444840D01*
X119157143Y-110444840D02*
X119128571Y-110416268D01*
X119128571Y-110416268D02*
X119100000Y-110359125D01*
X119100000Y-110359125D02*
X119071428Y-110244840D01*
X119071428Y-110244840D02*
X119071428Y-110101982D01*
X119071428Y-110101982D02*
X119100000Y-109987697D01*
X119100000Y-109987697D02*
X119128571Y-109930554D01*
X119128571Y-109930554D02*
X119157143Y-109901982D01*
X119157143Y-109901982D02*
X119214285Y-109873411D01*
X119928572Y-110073411D02*
X119928572Y-110473411D01*
X119671429Y-110073411D02*
X119671429Y-110387697D01*
X119671429Y-110387697D02*
X119700000Y-110444840D01*
X119700000Y-110444840D02*
X119757143Y-110473411D01*
X119757143Y-110473411D02*
X119842857Y-110473411D01*
X119842857Y-110473411D02*
X119900000Y-110444840D01*
X119900000Y-110444840D02*
X119928572Y-110416268D01*
X120414286Y-110159125D02*
X120214286Y-110159125D01*
X120214286Y-110473411D02*
X120214286Y-109873411D01*
X120214286Y-109873411D02*
X120500000Y-109873411D01*
X120585715Y-110530554D02*
X121042857Y-110530554D01*
X121385715Y-110159125D02*
X121471429Y-110187697D01*
X121471429Y-110187697D02*
X121500000Y-110216268D01*
X121500000Y-110216268D02*
X121528572Y-110273411D01*
X121528572Y-110273411D02*
X121528572Y-110359125D01*
X121528572Y-110359125D02*
X121500000Y-110416268D01*
X121500000Y-110416268D02*
X121471429Y-110444840D01*
X121471429Y-110444840D02*
X121414286Y-110473411D01*
X121414286Y-110473411D02*
X121185715Y-110473411D01*
X121185715Y-110473411D02*
X121185715Y-109873411D01*
X121185715Y-109873411D02*
X121385715Y-109873411D01*
X121385715Y-109873411D02*
X121442858Y-109901982D01*
X121442858Y-109901982D02*
X121471429Y-109930554D01*
X121471429Y-109930554D02*
X121500000Y-109987697D01*
X121500000Y-109987697D02*
X121500000Y-110044840D01*
X121500000Y-110044840D02*
X121471429Y-110101982D01*
X121471429Y-110101982D02*
X121442858Y-110130554D01*
X121442858Y-110130554D02*
X121385715Y-110159125D01*
X121385715Y-110159125D02*
X121185715Y-110159125D01*
X121757143Y-110301982D02*
X122042858Y-110301982D01*
X121700000Y-110473411D02*
X121900000Y-109873411D01*
X121900000Y-109873411D02*
X122100000Y-110473411D01*
X122214286Y-109873411D02*
X122557144Y-109873411D01*
X122385715Y-110473411D02*
X122385715Y-109873411D01*
X71900000Y-89459125D02*
X72100000Y-89459125D01*
X72185714Y-89773411D02*
X71900000Y-89773411D01*
X71900000Y-89773411D02*
X71900000Y-89173411D01*
X71900000Y-89173411D02*
X72185714Y-89173411D01*
X72785714Y-89716268D02*
X72757142Y-89744840D01*
X72757142Y-89744840D02*
X72671428Y-89773411D01*
X72671428Y-89773411D02*
X72614285Y-89773411D01*
X72614285Y-89773411D02*
X72528571Y-89744840D01*
X72528571Y-89744840D02*
X72471428Y-89687697D01*
X72471428Y-89687697D02*
X72442857Y-89630554D01*
X72442857Y-89630554D02*
X72414285Y-89516268D01*
X72414285Y-89516268D02*
X72414285Y-89430554D01*
X72414285Y-89430554D02*
X72442857Y-89316268D01*
X72442857Y-89316268D02*
X72471428Y-89259125D01*
X72471428Y-89259125D02*
X72528571Y-89201982D01*
X72528571Y-89201982D02*
X72614285Y-89173411D01*
X72614285Y-89173411D02*
X72671428Y-89173411D01*
X72671428Y-89173411D02*
X72757142Y-89201982D01*
X72757142Y-89201982D02*
X72785714Y-89230554D01*
X73357142Y-89201982D02*
X73300000Y-89173411D01*
X73300000Y-89173411D02*
X73214285Y-89173411D01*
X73214285Y-89173411D02*
X73128571Y-89201982D01*
X73128571Y-89201982D02*
X73071428Y-89259125D01*
X73071428Y-89259125D02*
X73042857Y-89316268D01*
X73042857Y-89316268D02*
X73014285Y-89430554D01*
X73014285Y-89430554D02*
X73014285Y-89516268D01*
X73014285Y-89516268D02*
X73042857Y-89630554D01*
X73042857Y-89630554D02*
X73071428Y-89687697D01*
X73071428Y-89687697D02*
X73128571Y-89744840D01*
X73128571Y-89744840D02*
X73214285Y-89773411D01*
X73214285Y-89773411D02*
X73271428Y-89773411D01*
X73271428Y-89773411D02*
X73357142Y-89744840D01*
X73357142Y-89744840D02*
X73385714Y-89716268D01*
X73385714Y-89716268D02*
X73385714Y-89516268D01*
X73385714Y-89516268D02*
X73271428Y-89516268D01*
X73642857Y-89544840D02*
X74100000Y-89544840D01*
X73871428Y-89773411D02*
X73871428Y-89316268D01*
X75814284Y-101473411D02*
X76157142Y-101473411D01*
X75985713Y-102073411D02*
X75985713Y-101473411D01*
X76357142Y-102073411D02*
X76357142Y-101473411D01*
X76357142Y-101473411D02*
X76585713Y-101473411D01*
X76585713Y-101473411D02*
X76642856Y-101501982D01*
X76642856Y-101501982D02*
X76671427Y-101530554D01*
X76671427Y-101530554D02*
X76699999Y-101587697D01*
X76699999Y-101587697D02*
X76699999Y-101673411D01*
X76699999Y-101673411D02*
X76671427Y-101730554D01*
X76671427Y-101730554D02*
X76642856Y-101759125D01*
X76642856Y-101759125D02*
X76585713Y-101787697D01*
X76585713Y-101787697D02*
X76357142Y-101787697D01*
X76957142Y-102073411D02*
X76957142Y-101473411D01*
X76957142Y-101473411D02*
X77099999Y-101473411D01*
X77099999Y-101473411D02*
X77185713Y-101501982D01*
X77185713Y-101501982D02*
X77242856Y-101559125D01*
X77242856Y-101559125D02*
X77271427Y-101616268D01*
X77271427Y-101616268D02*
X77299999Y-101730554D01*
X77299999Y-101730554D02*
X77299999Y-101816268D01*
X77299999Y-101816268D02*
X77271427Y-101930554D01*
X77271427Y-101930554D02*
X77242856Y-101987697D01*
X77242856Y-101987697D02*
X77185713Y-102044840D01*
X77185713Y-102044840D02*
X77099999Y-102073411D01*
X77099999Y-102073411D02*
X76957142Y-102073411D01*
X77528570Y-101530554D02*
X77557142Y-101501982D01*
X77557142Y-101501982D02*
X77614285Y-101473411D01*
X77614285Y-101473411D02*
X77757142Y-101473411D01*
X77757142Y-101473411D02*
X77814285Y-101501982D01*
X77814285Y-101501982D02*
X77842856Y-101530554D01*
X77842856Y-101530554D02*
X77871427Y-101587697D01*
X77871427Y-101587697D02*
X77871427Y-101644840D01*
X77871427Y-101644840D02*
X77842856Y-101730554D01*
X77842856Y-101730554D02*
X77499999Y-102073411D01*
X77499999Y-102073411D02*
X77871427Y-102073411D01*
X78128571Y-101759125D02*
X78328571Y-101759125D01*
X78414285Y-102073411D02*
X78128571Y-102073411D01*
X78128571Y-102073411D02*
X78128571Y-101473411D01*
X78128571Y-101473411D02*
X78414285Y-101473411D01*
X78785713Y-101473411D02*
X78842856Y-101473411D01*
X78842856Y-101473411D02*
X78899999Y-101501982D01*
X78899999Y-101501982D02*
X78928571Y-101530554D01*
X78928571Y-101530554D02*
X78957142Y-101587697D01*
X78957142Y-101587697D02*
X78985713Y-101701982D01*
X78985713Y-101701982D02*
X78985713Y-101844840D01*
X78985713Y-101844840D02*
X78957142Y-101959125D01*
X78957142Y-101959125D02*
X78928571Y-102016268D01*
X78928571Y-102016268D02*
X78899999Y-102044840D01*
X78899999Y-102044840D02*
X78842856Y-102073411D01*
X78842856Y-102073411D02*
X78785713Y-102073411D01*
X78785713Y-102073411D02*
X78728571Y-102044840D01*
X78728571Y-102044840D02*
X78699999Y-102016268D01*
X78699999Y-102016268D02*
X78671428Y-101959125D01*
X78671428Y-101959125D02*
X78642856Y-101844840D01*
X78642856Y-101844840D02*
X78642856Y-101701982D01*
X78642856Y-101701982D02*
X78671428Y-101587697D01*
X78671428Y-101587697D02*
X78699999Y-101530554D01*
X78699999Y-101530554D02*
X78728571Y-101501982D01*
X78728571Y-101501982D02*
X78785713Y-101473411D01*
X79357142Y-101473411D02*
X79414285Y-101473411D01*
X79414285Y-101473411D02*
X79471428Y-101501982D01*
X79471428Y-101501982D02*
X79500000Y-101530554D01*
X79500000Y-101530554D02*
X79528571Y-101587697D01*
X79528571Y-101587697D02*
X79557142Y-101701982D01*
X79557142Y-101701982D02*
X79557142Y-101844840D01*
X79557142Y-101844840D02*
X79528571Y-101959125D01*
X79528571Y-101959125D02*
X79500000Y-102016268D01*
X79500000Y-102016268D02*
X79471428Y-102044840D01*
X79471428Y-102044840D02*
X79414285Y-102073411D01*
X79414285Y-102073411D02*
X79357142Y-102073411D01*
X79357142Y-102073411D02*
X79300000Y-102044840D01*
X79300000Y-102044840D02*
X79271428Y-102016268D01*
X79271428Y-102016268D02*
X79242857Y-101959125D01*
X79242857Y-101959125D02*
X79214285Y-101844840D01*
X79214285Y-101844840D02*
X79214285Y-101701982D01*
X79214285Y-101701982D02*
X79242857Y-101587697D01*
X79242857Y-101587697D02*
X79271428Y-101530554D01*
X79271428Y-101530554D02*
X79300000Y-101501982D01*
X79300000Y-101501982D02*
X79357142Y-101473411D01*
X80128571Y-102073411D02*
X79785714Y-102073411D01*
X79957143Y-102073411D02*
X79957143Y-101473411D01*
X79957143Y-101473411D02*
X79900000Y-101559125D01*
X79900000Y-101559125D02*
X79842857Y-101616268D01*
X79842857Y-101616268D02*
X79785714Y-101644840D01*
X109271427Y-89973411D02*
X108928570Y-89973411D01*
X109099999Y-89973411D02*
X109099999Y-89373411D01*
X109099999Y-89373411D02*
X109042856Y-89459125D01*
X109042856Y-89459125D02*
X108985713Y-89516268D01*
X108985713Y-89516268D02*
X108928570Y-89544840D01*
X109642856Y-89373411D02*
X109699999Y-89373411D01*
X109699999Y-89373411D02*
X109757142Y-89401982D01*
X109757142Y-89401982D02*
X109785714Y-89430554D01*
X109785714Y-89430554D02*
X109814285Y-89487697D01*
X109814285Y-89487697D02*
X109842856Y-89601982D01*
X109842856Y-89601982D02*
X109842856Y-89744840D01*
X109842856Y-89744840D02*
X109814285Y-89859125D01*
X109814285Y-89859125D02*
X109785714Y-89916268D01*
X109785714Y-89916268D02*
X109757142Y-89944840D01*
X109757142Y-89944840D02*
X109699999Y-89973411D01*
X109699999Y-89973411D02*
X109642856Y-89973411D01*
X109642856Y-89973411D02*
X109585714Y-89944840D01*
X109585714Y-89944840D02*
X109557142Y-89916268D01*
X109557142Y-89916268D02*
X109528571Y-89859125D01*
X109528571Y-89859125D02*
X109499999Y-89744840D01*
X109499999Y-89744840D02*
X109499999Y-89601982D01*
X109499999Y-89601982D02*
X109528571Y-89487697D01*
X109528571Y-89487697D02*
X109557142Y-89430554D01*
X109557142Y-89430554D02*
X109585714Y-89401982D01*
X109585714Y-89401982D02*
X109642856Y-89373411D01*
X110357143Y-89573411D02*
X110357143Y-89973411D01*
X110100000Y-89573411D02*
X110100000Y-89887697D01*
X110100000Y-89887697D02*
X110128571Y-89944840D01*
X110128571Y-89944840D02*
X110185714Y-89973411D01*
X110185714Y-89973411D02*
X110271428Y-89973411D01*
X110271428Y-89973411D02*
X110328571Y-89944840D01*
X110328571Y-89944840D02*
X110357143Y-89916268D01*
X110842857Y-89659125D02*
X110642857Y-89659125D01*
X110642857Y-89973411D02*
X110642857Y-89373411D01*
X110642857Y-89373411D02*
X110928571Y-89373411D01*
X111014286Y-90030554D02*
X111471428Y-90030554D01*
X111614286Y-89659125D02*
X111814286Y-89659125D01*
X111900000Y-89973411D02*
X111614286Y-89973411D01*
X111614286Y-89973411D02*
X111614286Y-89373411D01*
X111614286Y-89373411D02*
X111900000Y-89373411D01*
X112128571Y-89944840D02*
X112214286Y-89973411D01*
X112214286Y-89973411D02*
X112357143Y-89973411D01*
X112357143Y-89973411D02*
X112414286Y-89944840D01*
X112414286Y-89944840D02*
X112442857Y-89916268D01*
X112442857Y-89916268D02*
X112471428Y-89859125D01*
X112471428Y-89859125D02*
X112471428Y-89801982D01*
X112471428Y-89801982D02*
X112442857Y-89744840D01*
X112442857Y-89744840D02*
X112414286Y-89716268D01*
X112414286Y-89716268D02*
X112357143Y-89687697D01*
X112357143Y-89687697D02*
X112242857Y-89659125D01*
X112242857Y-89659125D02*
X112185714Y-89630554D01*
X112185714Y-89630554D02*
X112157143Y-89601982D01*
X112157143Y-89601982D02*
X112128571Y-89544840D01*
X112128571Y-89544840D02*
X112128571Y-89487697D01*
X112128571Y-89487697D02*
X112157143Y-89430554D01*
X112157143Y-89430554D02*
X112185714Y-89401982D01*
X112185714Y-89401982D02*
X112242857Y-89373411D01*
X112242857Y-89373411D02*
X112385714Y-89373411D01*
X112385714Y-89373411D02*
X112471428Y-89401982D01*
X112728572Y-89973411D02*
X112728572Y-89373411D01*
X112728572Y-89373411D02*
X112957143Y-89373411D01*
X112957143Y-89373411D02*
X113014286Y-89401982D01*
X113014286Y-89401982D02*
X113042857Y-89430554D01*
X113042857Y-89430554D02*
X113071429Y-89487697D01*
X113071429Y-89487697D02*
X113071429Y-89573411D01*
X113071429Y-89573411D02*
X113042857Y-89630554D01*
X113042857Y-89630554D02*
X113014286Y-89659125D01*
X113014286Y-89659125D02*
X112957143Y-89687697D01*
X112957143Y-89687697D02*
X112728572Y-89687697D01*
X75814284Y-91473411D02*
X76157142Y-91473411D01*
X75985713Y-92073411D02*
X75985713Y-91473411D01*
X76357142Y-92073411D02*
X76357142Y-91473411D01*
X76357142Y-91473411D02*
X76585713Y-91473411D01*
X76585713Y-91473411D02*
X76642856Y-91501982D01*
X76642856Y-91501982D02*
X76671427Y-91530554D01*
X76671427Y-91530554D02*
X76699999Y-91587697D01*
X76699999Y-91587697D02*
X76699999Y-91673411D01*
X76699999Y-91673411D02*
X76671427Y-91730554D01*
X76671427Y-91730554D02*
X76642856Y-91759125D01*
X76642856Y-91759125D02*
X76585713Y-91787697D01*
X76585713Y-91787697D02*
X76357142Y-91787697D01*
X76957142Y-92073411D02*
X76957142Y-91473411D01*
X76957142Y-91473411D02*
X77099999Y-91473411D01*
X77099999Y-91473411D02*
X77185713Y-91501982D01*
X77185713Y-91501982D02*
X77242856Y-91559125D01*
X77242856Y-91559125D02*
X77271427Y-91616268D01*
X77271427Y-91616268D02*
X77299999Y-91730554D01*
X77299999Y-91730554D02*
X77299999Y-91816268D01*
X77299999Y-91816268D02*
X77271427Y-91930554D01*
X77271427Y-91930554D02*
X77242856Y-91987697D01*
X77242856Y-91987697D02*
X77185713Y-92044840D01*
X77185713Y-92044840D02*
X77099999Y-92073411D01*
X77099999Y-92073411D02*
X76957142Y-92073411D01*
X77528570Y-91530554D02*
X77557142Y-91501982D01*
X77557142Y-91501982D02*
X77614285Y-91473411D01*
X77614285Y-91473411D02*
X77757142Y-91473411D01*
X77757142Y-91473411D02*
X77814285Y-91501982D01*
X77814285Y-91501982D02*
X77842856Y-91530554D01*
X77842856Y-91530554D02*
X77871427Y-91587697D01*
X77871427Y-91587697D02*
X77871427Y-91644840D01*
X77871427Y-91644840D02*
X77842856Y-91730554D01*
X77842856Y-91730554D02*
X77499999Y-92073411D01*
X77499999Y-92073411D02*
X77871427Y-92073411D01*
X78128571Y-91759125D02*
X78328571Y-91759125D01*
X78414285Y-92073411D02*
X78128571Y-92073411D01*
X78128571Y-92073411D02*
X78128571Y-91473411D01*
X78128571Y-91473411D02*
X78414285Y-91473411D01*
X78785713Y-91473411D02*
X78842856Y-91473411D01*
X78842856Y-91473411D02*
X78899999Y-91501982D01*
X78899999Y-91501982D02*
X78928571Y-91530554D01*
X78928571Y-91530554D02*
X78957142Y-91587697D01*
X78957142Y-91587697D02*
X78985713Y-91701982D01*
X78985713Y-91701982D02*
X78985713Y-91844840D01*
X78985713Y-91844840D02*
X78957142Y-91959125D01*
X78957142Y-91959125D02*
X78928571Y-92016268D01*
X78928571Y-92016268D02*
X78899999Y-92044840D01*
X78899999Y-92044840D02*
X78842856Y-92073411D01*
X78842856Y-92073411D02*
X78785713Y-92073411D01*
X78785713Y-92073411D02*
X78728571Y-92044840D01*
X78728571Y-92044840D02*
X78699999Y-92016268D01*
X78699999Y-92016268D02*
X78671428Y-91959125D01*
X78671428Y-91959125D02*
X78642856Y-91844840D01*
X78642856Y-91844840D02*
X78642856Y-91701982D01*
X78642856Y-91701982D02*
X78671428Y-91587697D01*
X78671428Y-91587697D02*
X78699999Y-91530554D01*
X78699999Y-91530554D02*
X78728571Y-91501982D01*
X78728571Y-91501982D02*
X78785713Y-91473411D01*
X79357142Y-91473411D02*
X79414285Y-91473411D01*
X79414285Y-91473411D02*
X79471428Y-91501982D01*
X79471428Y-91501982D02*
X79500000Y-91530554D01*
X79500000Y-91530554D02*
X79528571Y-91587697D01*
X79528571Y-91587697D02*
X79557142Y-91701982D01*
X79557142Y-91701982D02*
X79557142Y-91844840D01*
X79557142Y-91844840D02*
X79528571Y-91959125D01*
X79528571Y-91959125D02*
X79500000Y-92016268D01*
X79500000Y-92016268D02*
X79471428Y-92044840D01*
X79471428Y-92044840D02*
X79414285Y-92073411D01*
X79414285Y-92073411D02*
X79357142Y-92073411D01*
X79357142Y-92073411D02*
X79300000Y-92044840D01*
X79300000Y-92044840D02*
X79271428Y-92016268D01*
X79271428Y-92016268D02*
X79242857Y-91959125D01*
X79242857Y-91959125D02*
X79214285Y-91844840D01*
X79214285Y-91844840D02*
X79214285Y-91701982D01*
X79214285Y-91701982D02*
X79242857Y-91587697D01*
X79242857Y-91587697D02*
X79271428Y-91530554D01*
X79271428Y-91530554D02*
X79300000Y-91501982D01*
X79300000Y-91501982D02*
X79357142Y-91473411D01*
X80128571Y-92073411D02*
X79785714Y-92073411D01*
X79957143Y-92073411D02*
X79957143Y-91473411D01*
X79957143Y-91473411D02*
X79900000Y-91559125D01*
X79900000Y-91559125D02*
X79842857Y-91616268D01*
X79842857Y-91616268D02*
X79785714Y-91644840D01*
X123957142Y-117973411D02*
X123671428Y-117973411D01*
X123671428Y-117973411D02*
X123671428Y-117373411D01*
X124157142Y-117973411D02*
X124157142Y-117573411D01*
X124157142Y-117373411D02*
X124128570Y-117401982D01*
X124128570Y-117401982D02*
X124157142Y-117430554D01*
X124157142Y-117430554D02*
X124185713Y-117401982D01*
X124185713Y-117401982D02*
X124157142Y-117373411D01*
X124157142Y-117373411D02*
X124157142Y-117430554D01*
X124442856Y-117973411D02*
X124442856Y-117373411D01*
X124442856Y-117373411D02*
X124671427Y-117373411D01*
X124671427Y-117373411D02*
X124728570Y-117401982D01*
X124728570Y-117401982D02*
X124757141Y-117430554D01*
X124757141Y-117430554D02*
X124785713Y-117487697D01*
X124785713Y-117487697D02*
X124785713Y-117573411D01*
X124785713Y-117573411D02*
X124757141Y-117630554D01*
X124757141Y-117630554D02*
X124728570Y-117659125D01*
X124728570Y-117659125D02*
X124671427Y-117687697D01*
X124671427Y-117687697D02*
X124442856Y-117687697D01*
X125128570Y-117973411D02*
X125071427Y-117944840D01*
X125071427Y-117944840D02*
X125042856Y-117916268D01*
X125042856Y-117916268D02*
X125014284Y-117859125D01*
X125014284Y-117859125D02*
X125014284Y-117687697D01*
X125014284Y-117687697D02*
X125042856Y-117630554D01*
X125042856Y-117630554D02*
X125071427Y-117601982D01*
X125071427Y-117601982D02*
X125128570Y-117573411D01*
X125128570Y-117573411D02*
X125214284Y-117573411D01*
X125214284Y-117573411D02*
X125271427Y-117601982D01*
X125271427Y-117601982D02*
X125299999Y-117630554D01*
X125299999Y-117630554D02*
X125328570Y-117687697D01*
X125328570Y-117687697D02*
X125328570Y-117859125D01*
X125328570Y-117859125D02*
X125299999Y-117916268D01*
X125299999Y-117916268D02*
X125271427Y-117944840D01*
X125271427Y-117944840D02*
X125214284Y-117973411D01*
X125214284Y-117973411D02*
X125128570Y-117973411D01*
X125442856Y-118030554D02*
X125899998Y-118030554D01*
X126128570Y-117630554D02*
X126071427Y-117601982D01*
X126071427Y-117601982D02*
X126042856Y-117573411D01*
X126042856Y-117573411D02*
X126014284Y-117516268D01*
X126014284Y-117516268D02*
X126014284Y-117487697D01*
X126014284Y-117487697D02*
X126042856Y-117430554D01*
X126042856Y-117430554D02*
X126071427Y-117401982D01*
X126071427Y-117401982D02*
X126128570Y-117373411D01*
X126128570Y-117373411D02*
X126242856Y-117373411D01*
X126242856Y-117373411D02*
X126299999Y-117401982D01*
X126299999Y-117401982D02*
X126328570Y-117430554D01*
X126328570Y-117430554D02*
X126357141Y-117487697D01*
X126357141Y-117487697D02*
X126357141Y-117516268D01*
X126357141Y-117516268D02*
X126328570Y-117573411D01*
X126328570Y-117573411D02*
X126299999Y-117601982D01*
X126299999Y-117601982D02*
X126242856Y-117630554D01*
X126242856Y-117630554D02*
X126128570Y-117630554D01*
X126128570Y-117630554D02*
X126071427Y-117659125D01*
X126071427Y-117659125D02*
X126042856Y-117687697D01*
X126042856Y-117687697D02*
X126014284Y-117744840D01*
X126014284Y-117744840D02*
X126014284Y-117859125D01*
X126014284Y-117859125D02*
X126042856Y-117916268D01*
X126042856Y-117916268D02*
X126071427Y-117944840D01*
X126071427Y-117944840D02*
X126128570Y-117973411D01*
X126128570Y-117973411D02*
X126242856Y-117973411D01*
X126242856Y-117973411D02*
X126299999Y-117944840D01*
X126299999Y-117944840D02*
X126328570Y-117916268D01*
X126328570Y-117916268D02*
X126357141Y-117859125D01*
X126357141Y-117859125D02*
X126357141Y-117744840D01*
X126357141Y-117744840D02*
X126328570Y-117687697D01*
X126328570Y-117687697D02*
X126299999Y-117659125D01*
X126299999Y-117659125D02*
X126242856Y-117630554D01*
X126728570Y-117373411D02*
X126785713Y-117373411D01*
X126785713Y-117373411D02*
X126842856Y-117401982D01*
X126842856Y-117401982D02*
X126871428Y-117430554D01*
X126871428Y-117430554D02*
X126899999Y-117487697D01*
X126899999Y-117487697D02*
X126928570Y-117601982D01*
X126928570Y-117601982D02*
X126928570Y-117744840D01*
X126928570Y-117744840D02*
X126899999Y-117859125D01*
X126899999Y-117859125D02*
X126871428Y-117916268D01*
X126871428Y-117916268D02*
X126842856Y-117944840D01*
X126842856Y-117944840D02*
X126785713Y-117973411D01*
X126785713Y-117973411D02*
X126728570Y-117973411D01*
X126728570Y-117973411D02*
X126671428Y-117944840D01*
X126671428Y-117944840D02*
X126642856Y-117916268D01*
X126642856Y-117916268D02*
X126614285Y-117859125D01*
X126614285Y-117859125D02*
X126585713Y-117744840D01*
X126585713Y-117744840D02*
X126585713Y-117601982D01*
X126585713Y-117601982D02*
X126614285Y-117487697D01*
X126614285Y-117487697D02*
X126642856Y-117430554D01*
X126642856Y-117430554D02*
X126671428Y-117401982D01*
X126671428Y-117401982D02*
X126728570Y-117373411D01*
X127299999Y-117373411D02*
X127357142Y-117373411D01*
X127357142Y-117373411D02*
X127414285Y-117401982D01*
X127414285Y-117401982D02*
X127442857Y-117430554D01*
X127442857Y-117430554D02*
X127471428Y-117487697D01*
X127471428Y-117487697D02*
X127499999Y-117601982D01*
X127499999Y-117601982D02*
X127499999Y-117744840D01*
X127499999Y-117744840D02*
X127471428Y-117859125D01*
X127471428Y-117859125D02*
X127442857Y-117916268D01*
X127442857Y-117916268D02*
X127414285Y-117944840D01*
X127414285Y-117944840D02*
X127357142Y-117973411D01*
X127357142Y-117973411D02*
X127299999Y-117973411D01*
X127299999Y-117973411D02*
X127242857Y-117944840D01*
X127242857Y-117944840D02*
X127214285Y-117916268D01*
X127214285Y-117916268D02*
X127185714Y-117859125D01*
X127185714Y-117859125D02*
X127157142Y-117744840D01*
X127157142Y-117744840D02*
X127157142Y-117601982D01*
X127157142Y-117601982D02*
X127185714Y-117487697D01*
X127185714Y-117487697D02*
X127214285Y-117430554D01*
X127214285Y-117430554D02*
X127242857Y-117401982D01*
X127242857Y-117401982D02*
X127299999Y-117373411D01*
X127757143Y-117973411D02*
X127757143Y-117573411D01*
X127757143Y-117630554D02*
X127785714Y-117601982D01*
X127785714Y-117601982D02*
X127842857Y-117573411D01*
X127842857Y-117573411D02*
X127928571Y-117573411D01*
X127928571Y-117573411D02*
X127985714Y-117601982D01*
X127985714Y-117601982D02*
X128014286Y-117659125D01*
X128014286Y-117659125D02*
X128014286Y-117973411D01*
X128014286Y-117659125D02*
X128042857Y-117601982D01*
X128042857Y-117601982D02*
X128100000Y-117573411D01*
X128100000Y-117573411D02*
X128185714Y-117573411D01*
X128185714Y-117573411D02*
X128242857Y-117601982D01*
X128242857Y-117601982D02*
X128271428Y-117659125D01*
X128271428Y-117659125D02*
X128271428Y-117973411D01*
X128528571Y-117801982D02*
X128814286Y-117801982D01*
X128471428Y-117973411D02*
X128671428Y-117373411D01*
X128671428Y-117373411D02*
X128871428Y-117973411D01*
X129071429Y-117973411D02*
X129071429Y-117373411D01*
X129328572Y-117973411D02*
X129328572Y-117659125D01*
X129328572Y-117659125D02*
X129300000Y-117601982D01*
X129300000Y-117601982D02*
X129242857Y-117573411D01*
X129242857Y-117573411D02*
X129157143Y-117573411D01*
X129157143Y-117573411D02*
X129100000Y-117601982D01*
X129100000Y-117601982D02*
X129071429Y-117630554D01*
X84628570Y-103301982D02*
X84914285Y-103301982D01*
X84571427Y-103473411D02*
X84771427Y-102873411D01*
X84771427Y-102873411D02*
X84971427Y-103473411D01*
X85171428Y-103473411D02*
X85171428Y-102873411D01*
X85171428Y-102873411D02*
X85314285Y-102873411D01*
X85314285Y-102873411D02*
X85399999Y-102901982D01*
X85399999Y-102901982D02*
X85457142Y-102959125D01*
X85457142Y-102959125D02*
X85485713Y-103016268D01*
X85485713Y-103016268D02*
X85514285Y-103130554D01*
X85514285Y-103130554D02*
X85514285Y-103216268D01*
X85514285Y-103216268D02*
X85485713Y-103330554D01*
X85485713Y-103330554D02*
X85457142Y-103387697D01*
X85457142Y-103387697D02*
X85399999Y-103444840D01*
X85399999Y-103444840D02*
X85314285Y-103473411D01*
X85314285Y-103473411D02*
X85171428Y-103473411D01*
X85742856Y-103444840D02*
X85828571Y-103473411D01*
X85828571Y-103473411D02*
X85971428Y-103473411D01*
X85971428Y-103473411D02*
X86028571Y-103444840D01*
X86028571Y-103444840D02*
X86057142Y-103416268D01*
X86057142Y-103416268D02*
X86085713Y-103359125D01*
X86085713Y-103359125D02*
X86085713Y-103301982D01*
X86085713Y-103301982D02*
X86057142Y-103244840D01*
X86057142Y-103244840D02*
X86028571Y-103216268D01*
X86028571Y-103216268D02*
X85971428Y-103187697D01*
X85971428Y-103187697D02*
X85857142Y-103159125D01*
X85857142Y-103159125D02*
X85799999Y-103130554D01*
X85799999Y-103130554D02*
X85771428Y-103101982D01*
X85771428Y-103101982D02*
X85742856Y-103044840D01*
X85742856Y-103044840D02*
X85742856Y-102987697D01*
X85742856Y-102987697D02*
X85771428Y-102930554D01*
X85771428Y-102930554D02*
X85799999Y-102901982D01*
X85799999Y-102901982D02*
X85857142Y-102873411D01*
X85857142Y-102873411D02*
X85999999Y-102873411D01*
X85999999Y-102873411D02*
X86085713Y-102901982D01*
X86657142Y-103473411D02*
X86314285Y-103473411D01*
X86485714Y-103473411D02*
X86485714Y-102873411D01*
X86485714Y-102873411D02*
X86428571Y-102959125D01*
X86428571Y-102959125D02*
X86371428Y-103016268D01*
X86371428Y-103016268D02*
X86314285Y-103044840D01*
X86885714Y-102930554D02*
X86914286Y-102901982D01*
X86914286Y-102901982D02*
X86971429Y-102873411D01*
X86971429Y-102873411D02*
X87114286Y-102873411D01*
X87114286Y-102873411D02*
X87171429Y-102901982D01*
X87171429Y-102901982D02*
X87200000Y-102930554D01*
X87200000Y-102930554D02*
X87228571Y-102987697D01*
X87228571Y-102987697D02*
X87228571Y-103044840D01*
X87228571Y-103044840D02*
X87200000Y-103130554D01*
X87200000Y-103130554D02*
X86857143Y-103473411D01*
X86857143Y-103473411D02*
X87228571Y-103473411D01*
X87514286Y-103473411D02*
X87628572Y-103473411D01*
X87628572Y-103473411D02*
X87685715Y-103444840D01*
X87685715Y-103444840D02*
X87714286Y-103416268D01*
X87714286Y-103416268D02*
X87771429Y-103330554D01*
X87771429Y-103330554D02*
X87800000Y-103216268D01*
X87800000Y-103216268D02*
X87800000Y-102987697D01*
X87800000Y-102987697D02*
X87771429Y-102930554D01*
X87771429Y-102930554D02*
X87742858Y-102901982D01*
X87742858Y-102901982D02*
X87685715Y-102873411D01*
X87685715Y-102873411D02*
X87571429Y-102873411D01*
X87571429Y-102873411D02*
X87514286Y-102901982D01*
X87514286Y-102901982D02*
X87485715Y-102930554D01*
X87485715Y-102930554D02*
X87457143Y-102987697D01*
X87457143Y-102987697D02*
X87457143Y-103130554D01*
X87457143Y-103130554D02*
X87485715Y-103187697D01*
X87485715Y-103187697D02*
X87514286Y-103216268D01*
X87514286Y-103216268D02*
X87571429Y-103244840D01*
X87571429Y-103244840D02*
X87685715Y-103244840D01*
X87685715Y-103244840D02*
X87742858Y-103216268D01*
X87742858Y-103216268D02*
X87771429Y-103187697D01*
X87771429Y-103187697D02*
X87800000Y-103130554D01*
X88000001Y-102873411D02*
X88371429Y-102873411D01*
X88371429Y-102873411D02*
X88171429Y-103101982D01*
X88171429Y-103101982D02*
X88257144Y-103101982D01*
X88257144Y-103101982D02*
X88314287Y-103130554D01*
X88314287Y-103130554D02*
X88342858Y-103159125D01*
X88342858Y-103159125D02*
X88371429Y-103216268D01*
X88371429Y-103216268D02*
X88371429Y-103359125D01*
X88371429Y-103359125D02*
X88342858Y-103416268D01*
X88342858Y-103416268D02*
X88314287Y-103444840D01*
X88314287Y-103444840D02*
X88257144Y-103473411D01*
X88257144Y-103473411D02*
X88085715Y-103473411D01*
X88085715Y-103473411D02*
X88028572Y-103444840D01*
X88028572Y-103444840D02*
X88000001Y-103416268D01*
X118799999Y-116959125D02*
X118885713Y-116987697D01*
X118885713Y-116987697D02*
X118914284Y-117016268D01*
X118914284Y-117016268D02*
X118942856Y-117073411D01*
X118942856Y-117073411D02*
X118942856Y-117159125D01*
X118942856Y-117159125D02*
X118914284Y-117216268D01*
X118914284Y-117216268D02*
X118885713Y-117244840D01*
X118885713Y-117244840D02*
X118828570Y-117273411D01*
X118828570Y-117273411D02*
X118599999Y-117273411D01*
X118599999Y-117273411D02*
X118599999Y-116673411D01*
X118599999Y-116673411D02*
X118799999Y-116673411D01*
X118799999Y-116673411D02*
X118857142Y-116701982D01*
X118857142Y-116701982D02*
X118885713Y-116730554D01*
X118885713Y-116730554D02*
X118914284Y-116787697D01*
X118914284Y-116787697D02*
X118914284Y-116844840D01*
X118914284Y-116844840D02*
X118885713Y-116901982D01*
X118885713Y-116901982D02*
X118857142Y-116930554D01*
X118857142Y-116930554D02*
X118799999Y-116959125D01*
X118799999Y-116959125D02*
X118599999Y-116959125D01*
X119599999Y-117330554D02*
X119542856Y-117301982D01*
X119542856Y-117301982D02*
X119485713Y-117244840D01*
X119485713Y-117244840D02*
X119399999Y-117159125D01*
X119399999Y-117159125D02*
X119342856Y-117130554D01*
X119342856Y-117130554D02*
X119285713Y-117130554D01*
X119314284Y-117273411D02*
X119257142Y-117244840D01*
X119257142Y-117244840D02*
X119199999Y-117187697D01*
X119199999Y-117187697D02*
X119171427Y-117073411D01*
X119171427Y-117073411D02*
X119171427Y-116873411D01*
X119171427Y-116873411D02*
X119199999Y-116759125D01*
X119199999Y-116759125D02*
X119257142Y-116701982D01*
X119257142Y-116701982D02*
X119314284Y-116673411D01*
X119314284Y-116673411D02*
X119428570Y-116673411D01*
X119428570Y-116673411D02*
X119485713Y-116701982D01*
X119485713Y-116701982D02*
X119542856Y-116759125D01*
X119542856Y-116759125D02*
X119571427Y-116873411D01*
X119571427Y-116873411D02*
X119571427Y-117073411D01*
X119571427Y-117073411D02*
X119542856Y-117187697D01*
X119542856Y-117187697D02*
X119485713Y-117244840D01*
X119485713Y-117244840D02*
X119428570Y-117273411D01*
X119428570Y-117273411D02*
X119314284Y-117273411D01*
X119799998Y-116730554D02*
X119828570Y-116701982D01*
X119828570Y-116701982D02*
X119885713Y-116673411D01*
X119885713Y-116673411D02*
X120028570Y-116673411D01*
X120028570Y-116673411D02*
X120085713Y-116701982D01*
X120085713Y-116701982D02*
X120114284Y-116730554D01*
X120114284Y-116730554D02*
X120142855Y-116787697D01*
X120142855Y-116787697D02*
X120142855Y-116844840D01*
X120142855Y-116844840D02*
X120114284Y-116930554D01*
X120114284Y-116930554D02*
X119771427Y-117273411D01*
X119771427Y-117273411D02*
X120142855Y-117273411D01*
X120657142Y-116873411D02*
X120657142Y-117273411D01*
X120514284Y-116644840D02*
X120371427Y-117073411D01*
X120371427Y-117073411D02*
X120742856Y-117073411D01*
X121085713Y-116673411D02*
X121142856Y-116673411D01*
X121142856Y-116673411D02*
X121199999Y-116701982D01*
X121199999Y-116701982D02*
X121228571Y-116730554D01*
X121228571Y-116730554D02*
X121257142Y-116787697D01*
X121257142Y-116787697D02*
X121285713Y-116901982D01*
X121285713Y-116901982D02*
X121285713Y-117044840D01*
X121285713Y-117044840D02*
X121257142Y-117159125D01*
X121257142Y-117159125D02*
X121228571Y-117216268D01*
X121228571Y-117216268D02*
X121199999Y-117244840D01*
X121199999Y-117244840D02*
X121142856Y-117273411D01*
X121142856Y-117273411D02*
X121085713Y-117273411D01*
X121085713Y-117273411D02*
X121028571Y-117244840D01*
X121028571Y-117244840D02*
X120999999Y-117216268D01*
X120999999Y-117216268D02*
X120971428Y-117159125D01*
X120971428Y-117159125D02*
X120942856Y-117044840D01*
X120942856Y-117044840D02*
X120942856Y-116901982D01*
X120942856Y-116901982D02*
X120971428Y-116787697D01*
X120971428Y-116787697D02*
X120999999Y-116730554D01*
X120999999Y-116730554D02*
X121028571Y-116701982D01*
X121028571Y-116701982D02*
X121085713Y-116673411D01*
X121485714Y-116673411D02*
X121885714Y-116673411D01*
X121885714Y-116673411D02*
X121628571Y-117273411D01*
X122400000Y-116673411D02*
X122114286Y-116673411D01*
X122114286Y-116673411D02*
X122085714Y-116959125D01*
X122085714Y-116959125D02*
X122114286Y-116930554D01*
X122114286Y-116930554D02*
X122171429Y-116901982D01*
X122171429Y-116901982D02*
X122314286Y-116901982D01*
X122314286Y-116901982D02*
X122371429Y-116930554D01*
X122371429Y-116930554D02*
X122400000Y-116959125D01*
X122400000Y-116959125D02*
X122428571Y-117016268D01*
X122428571Y-117016268D02*
X122428571Y-117159125D01*
X122428571Y-117159125D02*
X122400000Y-117216268D01*
X122400000Y-117216268D02*
X122371429Y-117244840D01*
X122371429Y-117244840D02*
X122314286Y-117273411D01*
X122314286Y-117273411D02*
X122171429Y-117273411D01*
X122171429Y-117273411D02*
X122114286Y-117244840D01*
X122114286Y-117244840D02*
X122085714Y-117216268D01*
X113800000Y-108959125D02*
X114000000Y-108959125D01*
X114085714Y-109273411D02*
X113800000Y-109273411D01*
X113800000Y-109273411D02*
X113800000Y-108673411D01*
X113800000Y-108673411D02*
X114085714Y-108673411D01*
X114314285Y-109244840D02*
X114400000Y-109273411D01*
X114400000Y-109273411D02*
X114542857Y-109273411D01*
X114542857Y-109273411D02*
X114600000Y-109244840D01*
X114600000Y-109244840D02*
X114628571Y-109216268D01*
X114628571Y-109216268D02*
X114657142Y-109159125D01*
X114657142Y-109159125D02*
X114657142Y-109101982D01*
X114657142Y-109101982D02*
X114628571Y-109044840D01*
X114628571Y-109044840D02*
X114600000Y-109016268D01*
X114600000Y-109016268D02*
X114542857Y-108987697D01*
X114542857Y-108987697D02*
X114428571Y-108959125D01*
X114428571Y-108959125D02*
X114371428Y-108930554D01*
X114371428Y-108930554D02*
X114342857Y-108901982D01*
X114342857Y-108901982D02*
X114314285Y-108844840D01*
X114314285Y-108844840D02*
X114314285Y-108787697D01*
X114314285Y-108787697D02*
X114342857Y-108730554D01*
X114342857Y-108730554D02*
X114371428Y-108701982D01*
X114371428Y-108701982D02*
X114428571Y-108673411D01*
X114428571Y-108673411D02*
X114571428Y-108673411D01*
X114571428Y-108673411D02*
X114657142Y-108701982D01*
X114914286Y-109273411D02*
X114914286Y-108673411D01*
X114914286Y-108673411D02*
X115142857Y-108673411D01*
X115142857Y-108673411D02*
X115200000Y-108701982D01*
X115200000Y-108701982D02*
X115228571Y-108730554D01*
X115228571Y-108730554D02*
X115257143Y-108787697D01*
X115257143Y-108787697D02*
X115257143Y-108873411D01*
X115257143Y-108873411D02*
X115228571Y-108930554D01*
X115228571Y-108930554D02*
X115200000Y-108959125D01*
X115200000Y-108959125D02*
X115142857Y-108987697D01*
X115142857Y-108987697D02*
X114914286Y-108987697D01*
X115457143Y-108673411D02*
X115828571Y-108673411D01*
X115828571Y-108673411D02*
X115628571Y-108901982D01*
X115628571Y-108901982D02*
X115714286Y-108901982D01*
X115714286Y-108901982D02*
X115771429Y-108930554D01*
X115771429Y-108930554D02*
X115800000Y-108959125D01*
X115800000Y-108959125D02*
X115828571Y-109016268D01*
X115828571Y-109016268D02*
X115828571Y-109159125D01*
X115828571Y-109159125D02*
X115800000Y-109216268D01*
X115800000Y-109216268D02*
X115771429Y-109244840D01*
X115771429Y-109244840D02*
X115714286Y-109273411D01*
X115714286Y-109273411D02*
X115542857Y-109273411D01*
X115542857Y-109273411D02*
X115485714Y-109244840D01*
X115485714Y-109244840D02*
X115457143Y-109216268D01*
X116057143Y-108730554D02*
X116085715Y-108701982D01*
X116085715Y-108701982D02*
X116142858Y-108673411D01*
X116142858Y-108673411D02*
X116285715Y-108673411D01*
X116285715Y-108673411D02*
X116342858Y-108701982D01*
X116342858Y-108701982D02*
X116371429Y-108730554D01*
X116371429Y-108730554D02*
X116400000Y-108787697D01*
X116400000Y-108787697D02*
X116400000Y-108844840D01*
X116400000Y-108844840D02*
X116371429Y-108930554D01*
X116371429Y-108930554D02*
X116028572Y-109273411D01*
X116028572Y-109273411D02*
X116400000Y-109273411D01*
X116657144Y-109044840D02*
X117114287Y-109044840D01*
X117371429Y-109244840D02*
X117457144Y-109273411D01*
X117457144Y-109273411D02*
X117600001Y-109273411D01*
X117600001Y-109273411D02*
X117657144Y-109244840D01*
X117657144Y-109244840D02*
X117685715Y-109216268D01*
X117685715Y-109216268D02*
X117714286Y-109159125D01*
X117714286Y-109159125D02*
X117714286Y-109101982D01*
X117714286Y-109101982D02*
X117685715Y-109044840D01*
X117685715Y-109044840D02*
X117657144Y-109016268D01*
X117657144Y-109016268D02*
X117600001Y-108987697D01*
X117600001Y-108987697D02*
X117485715Y-108959125D01*
X117485715Y-108959125D02*
X117428572Y-108930554D01*
X117428572Y-108930554D02*
X117400001Y-108901982D01*
X117400001Y-108901982D02*
X117371429Y-108844840D01*
X117371429Y-108844840D02*
X117371429Y-108787697D01*
X117371429Y-108787697D02*
X117400001Y-108730554D01*
X117400001Y-108730554D02*
X117428572Y-108701982D01*
X117428572Y-108701982D02*
X117485715Y-108673411D01*
X117485715Y-108673411D02*
X117628572Y-108673411D01*
X117628572Y-108673411D02*
X117714286Y-108701982D01*
X117914287Y-108673411D02*
X118285715Y-108673411D01*
X118285715Y-108673411D02*
X118085715Y-108901982D01*
X118085715Y-108901982D02*
X118171430Y-108901982D01*
X118171430Y-108901982D02*
X118228573Y-108930554D01*
X118228573Y-108930554D02*
X118257144Y-108959125D01*
X118257144Y-108959125D02*
X118285715Y-109016268D01*
X118285715Y-109016268D02*
X118285715Y-109159125D01*
X118285715Y-109159125D02*
X118257144Y-109216268D01*
X118257144Y-109216268D02*
X118228573Y-109244840D01*
X118228573Y-109244840D02*
X118171430Y-109273411D01*
X118171430Y-109273411D02*
X118000001Y-109273411D01*
X118000001Y-109273411D02*
X117942858Y-109244840D01*
X117942858Y-109244840D02*
X117914287Y-109216268D01*
X118542859Y-109044840D02*
X119000002Y-109044840D01*
X119285716Y-109273411D02*
X119285716Y-108673411D01*
X119285716Y-108673411D02*
X119485716Y-109101982D01*
X119485716Y-109101982D02*
X119685716Y-108673411D01*
X119685716Y-108673411D02*
X119685716Y-109273411D01*
X119971430Y-109273411D02*
X119971430Y-108673411D01*
X120257144Y-109273411D02*
X120257144Y-108673411D01*
X120257144Y-108673411D02*
X120600001Y-109273411D01*
X120600001Y-109273411D02*
X120600001Y-108673411D01*
X120885715Y-109273411D02*
X120885715Y-108673411D01*
X121171429Y-109044840D02*
X121628572Y-109044840D01*
X122228571Y-109273411D02*
X121885714Y-109273411D01*
X122057143Y-109273411D02*
X122057143Y-108673411D01*
X122057143Y-108673411D02*
X122000000Y-108759125D01*
X122000000Y-108759125D02*
X121942857Y-108816268D01*
X121942857Y-108816268D02*
X121885714Y-108844840D01*
X105328570Y-115073411D02*
X105328570Y-114473411D01*
X105328570Y-114473411D02*
X105528570Y-114901982D01*
X105528570Y-114901982D02*
X105728570Y-114473411D01*
X105728570Y-114473411D02*
X105728570Y-115073411D01*
X105985712Y-114901982D02*
X106271427Y-114901982D01*
X105928569Y-115073411D02*
X106128569Y-114473411D01*
X106128569Y-114473411D02*
X106328569Y-115073411D01*
X106471427Y-114473411D02*
X106871427Y-115073411D01*
X106871427Y-114473411D02*
X106471427Y-115073411D01*
X107414284Y-115073411D02*
X107071427Y-115073411D01*
X107242856Y-115073411D02*
X107242856Y-114473411D01*
X107242856Y-114473411D02*
X107185713Y-114559125D01*
X107185713Y-114559125D02*
X107128570Y-114616268D01*
X107128570Y-114616268D02*
X107071427Y-114644840D01*
X107614285Y-114473411D02*
X108014285Y-114473411D01*
X108014285Y-114473411D02*
X107757142Y-115073411D01*
X108357142Y-114473411D02*
X108414285Y-114473411D01*
X108414285Y-114473411D02*
X108471428Y-114501982D01*
X108471428Y-114501982D02*
X108500000Y-114530554D01*
X108500000Y-114530554D02*
X108528571Y-114587697D01*
X108528571Y-114587697D02*
X108557142Y-114701982D01*
X108557142Y-114701982D02*
X108557142Y-114844840D01*
X108557142Y-114844840D02*
X108528571Y-114959125D01*
X108528571Y-114959125D02*
X108500000Y-115016268D01*
X108500000Y-115016268D02*
X108471428Y-115044840D01*
X108471428Y-115044840D02*
X108414285Y-115073411D01*
X108414285Y-115073411D02*
X108357142Y-115073411D01*
X108357142Y-115073411D02*
X108300000Y-115044840D01*
X108300000Y-115044840D02*
X108271428Y-115016268D01*
X108271428Y-115016268D02*
X108242857Y-114959125D01*
X108242857Y-114959125D02*
X108214285Y-114844840D01*
X108214285Y-114844840D02*
X108214285Y-114701982D01*
X108214285Y-114701982D02*
X108242857Y-114587697D01*
X108242857Y-114587697D02*
X108271428Y-114530554D01*
X108271428Y-114530554D02*
X108300000Y-114501982D01*
X108300000Y-114501982D02*
X108357142Y-114473411D01*
X109071429Y-114673411D02*
X109071429Y-115073411D01*
X108928571Y-114444840D02*
X108785714Y-114873411D01*
X108785714Y-114873411D02*
X109157143Y-114873411D01*
X109471429Y-114730554D02*
X109414286Y-114701982D01*
X109414286Y-114701982D02*
X109385715Y-114673411D01*
X109385715Y-114673411D02*
X109357143Y-114616268D01*
X109357143Y-114616268D02*
X109357143Y-114587697D01*
X109357143Y-114587697D02*
X109385715Y-114530554D01*
X109385715Y-114530554D02*
X109414286Y-114501982D01*
X109414286Y-114501982D02*
X109471429Y-114473411D01*
X109471429Y-114473411D02*
X109585715Y-114473411D01*
X109585715Y-114473411D02*
X109642858Y-114501982D01*
X109642858Y-114501982D02*
X109671429Y-114530554D01*
X109671429Y-114530554D02*
X109700000Y-114587697D01*
X109700000Y-114587697D02*
X109700000Y-114616268D01*
X109700000Y-114616268D02*
X109671429Y-114673411D01*
X109671429Y-114673411D02*
X109642858Y-114701982D01*
X109642858Y-114701982D02*
X109585715Y-114730554D01*
X109585715Y-114730554D02*
X109471429Y-114730554D01*
X109471429Y-114730554D02*
X109414286Y-114759125D01*
X109414286Y-114759125D02*
X109385715Y-114787697D01*
X109385715Y-114787697D02*
X109357143Y-114844840D01*
X109357143Y-114844840D02*
X109357143Y-114959125D01*
X109357143Y-114959125D02*
X109385715Y-115016268D01*
X109385715Y-115016268D02*
X109414286Y-115044840D01*
X109414286Y-115044840D02*
X109471429Y-115073411D01*
X109471429Y-115073411D02*
X109585715Y-115073411D01*
X109585715Y-115073411D02*
X109642858Y-115044840D01*
X109642858Y-115044840D02*
X109671429Y-115016268D01*
X109671429Y-115016268D02*
X109700000Y-114959125D01*
X109700000Y-114959125D02*
X109700000Y-114844840D01*
X109700000Y-114844840D02*
X109671429Y-114787697D01*
X109671429Y-114787697D02*
X109642858Y-114759125D01*
X109642858Y-114759125D02*
X109585715Y-114730554D01*
X121371428Y-86444840D02*
X121457143Y-86473411D01*
X121457143Y-86473411D02*
X121600000Y-86473411D01*
X121600000Y-86473411D02*
X121657143Y-86444840D01*
X121657143Y-86444840D02*
X121685714Y-86416268D01*
X121685714Y-86416268D02*
X121714285Y-86359125D01*
X121714285Y-86359125D02*
X121714285Y-86301982D01*
X121714285Y-86301982D02*
X121685714Y-86244840D01*
X121685714Y-86244840D02*
X121657143Y-86216268D01*
X121657143Y-86216268D02*
X121600000Y-86187697D01*
X121600000Y-86187697D02*
X121485714Y-86159125D01*
X121485714Y-86159125D02*
X121428571Y-86130554D01*
X121428571Y-86130554D02*
X121400000Y-86101982D01*
X121400000Y-86101982D02*
X121371428Y-86044840D01*
X121371428Y-86044840D02*
X121371428Y-85987697D01*
X121371428Y-85987697D02*
X121400000Y-85930554D01*
X121400000Y-85930554D02*
X121428571Y-85901982D01*
X121428571Y-85901982D02*
X121485714Y-85873411D01*
X121485714Y-85873411D02*
X121628571Y-85873411D01*
X121628571Y-85873411D02*
X121714285Y-85901982D01*
X121885714Y-85873411D02*
X122228572Y-85873411D01*
X122057143Y-86473411D02*
X122057143Y-85873411D01*
X122400000Y-86301982D02*
X122685715Y-86301982D01*
X122342857Y-86473411D02*
X122542857Y-85873411D01*
X122542857Y-85873411D02*
X122742857Y-86473411D01*
X122857143Y-85873411D02*
X123200001Y-85873411D01*
X123028572Y-86473411D02*
X123028572Y-85873411D01*
X123400001Y-85873411D02*
X123400001Y-86359125D01*
X123400001Y-86359125D02*
X123428572Y-86416268D01*
X123428572Y-86416268D02*
X123457144Y-86444840D01*
X123457144Y-86444840D02*
X123514286Y-86473411D01*
X123514286Y-86473411D02*
X123628572Y-86473411D01*
X123628572Y-86473411D02*
X123685715Y-86444840D01*
X123685715Y-86444840D02*
X123714286Y-86416268D01*
X123714286Y-86416268D02*
X123742858Y-86359125D01*
X123742858Y-86359125D02*
X123742858Y-85873411D01*
X124000000Y-86444840D02*
X124085715Y-86473411D01*
X124085715Y-86473411D02*
X124228572Y-86473411D01*
X124228572Y-86473411D02*
X124285715Y-86444840D01*
X124285715Y-86444840D02*
X124314286Y-86416268D01*
X124314286Y-86416268D02*
X124342857Y-86359125D01*
X124342857Y-86359125D02*
X124342857Y-86301982D01*
X124342857Y-86301982D02*
X124314286Y-86244840D01*
X124314286Y-86244840D02*
X124285715Y-86216268D01*
X124285715Y-86216268D02*
X124228572Y-86187697D01*
X124228572Y-86187697D02*
X124114286Y-86159125D01*
X124114286Y-86159125D02*
X124057143Y-86130554D01*
X124057143Y-86130554D02*
X124028572Y-86101982D01*
X124028572Y-86101982D02*
X124000000Y-86044840D01*
X124000000Y-86044840D02*
X124000000Y-85987697D01*
X124000000Y-85987697D02*
X124028572Y-85930554D01*
X124028572Y-85930554D02*
X124057143Y-85901982D01*
X124057143Y-85901982D02*
X124114286Y-85873411D01*
X124114286Y-85873411D02*
X124257143Y-85873411D01*
X124257143Y-85873411D02*
X124342857Y-85901982D01*
X124457144Y-86530554D02*
X124914286Y-86530554D01*
X125371429Y-85901982D02*
X125314287Y-85873411D01*
X125314287Y-85873411D02*
X125228572Y-85873411D01*
X125228572Y-85873411D02*
X125142858Y-85901982D01*
X125142858Y-85901982D02*
X125085715Y-85959125D01*
X125085715Y-85959125D02*
X125057144Y-86016268D01*
X125057144Y-86016268D02*
X125028572Y-86130554D01*
X125028572Y-86130554D02*
X125028572Y-86216268D01*
X125028572Y-86216268D02*
X125057144Y-86330554D01*
X125057144Y-86330554D02*
X125085715Y-86387697D01*
X125085715Y-86387697D02*
X125142858Y-86444840D01*
X125142858Y-86444840D02*
X125228572Y-86473411D01*
X125228572Y-86473411D02*
X125285715Y-86473411D01*
X125285715Y-86473411D02*
X125371429Y-86444840D01*
X125371429Y-86444840D02*
X125400001Y-86416268D01*
X125400001Y-86416268D02*
X125400001Y-86216268D01*
X125400001Y-86216268D02*
X125285715Y-86216268D01*
X126000001Y-86473411D02*
X125800001Y-86187697D01*
X125657144Y-86473411D02*
X125657144Y-85873411D01*
X125657144Y-85873411D02*
X125885715Y-85873411D01*
X125885715Y-85873411D02*
X125942858Y-85901982D01*
X125942858Y-85901982D02*
X125971429Y-85930554D01*
X125971429Y-85930554D02*
X126000001Y-85987697D01*
X126000001Y-85987697D02*
X126000001Y-86073411D01*
X126000001Y-86073411D02*
X125971429Y-86130554D01*
X125971429Y-86130554D02*
X125942858Y-86159125D01*
X125942858Y-86159125D02*
X125885715Y-86187697D01*
X125885715Y-86187697D02*
X125657144Y-86187697D01*
X126257144Y-86473411D02*
X126257144Y-85873411D01*
X126257144Y-85873411D02*
X126600001Y-86473411D01*
X126600001Y-86473411D02*
X126600001Y-85873411D01*
X113599999Y-115573411D02*
X113599999Y-115973411D01*
X113457141Y-115344840D02*
X113314284Y-115773411D01*
X113314284Y-115773411D02*
X113685713Y-115773411D01*
X113914285Y-115916268D02*
X113942856Y-115944840D01*
X113942856Y-115944840D02*
X113914285Y-115973411D01*
X113914285Y-115973411D02*
X113885713Y-115944840D01*
X113885713Y-115944840D02*
X113914285Y-115916268D01*
X113914285Y-115916268D02*
X113914285Y-115973411D01*
X114142856Y-115373411D02*
X114542856Y-115373411D01*
X114542856Y-115373411D02*
X114285713Y-115973411D01*
X115028571Y-115573411D02*
X115028571Y-115973411D01*
X114771428Y-115573411D02*
X114771428Y-115887697D01*
X114771428Y-115887697D02*
X114799999Y-115944840D01*
X114799999Y-115944840D02*
X114857142Y-115973411D01*
X114857142Y-115973411D02*
X114942856Y-115973411D01*
X114942856Y-115973411D02*
X114999999Y-115944840D01*
X114999999Y-115944840D02*
X115028571Y-115916268D01*
X115514285Y-115659125D02*
X115314285Y-115659125D01*
X115314285Y-115973411D02*
X115314285Y-115373411D01*
X115314285Y-115373411D02*
X115599999Y-115373411D01*
X115685714Y-116030554D02*
X116142856Y-116030554D01*
X116228571Y-115373411D02*
X116599999Y-115373411D01*
X116599999Y-115373411D02*
X116399999Y-115601982D01*
X116399999Y-115601982D02*
X116485714Y-115601982D01*
X116485714Y-115601982D02*
X116542857Y-115630554D01*
X116542857Y-115630554D02*
X116571428Y-115659125D01*
X116571428Y-115659125D02*
X116599999Y-115716268D01*
X116599999Y-115716268D02*
X116599999Y-115859125D01*
X116599999Y-115859125D02*
X116571428Y-115916268D01*
X116571428Y-115916268D02*
X116542857Y-115944840D01*
X116542857Y-115944840D02*
X116485714Y-115973411D01*
X116485714Y-115973411D02*
X116314285Y-115973411D01*
X116314285Y-115973411D02*
X116257142Y-115944840D01*
X116257142Y-115944840D02*
X116228571Y-115916268D01*
X116771428Y-115373411D02*
X116971428Y-115973411D01*
X116971428Y-115973411D02*
X117171428Y-115373411D01*
X117314286Y-115373411D02*
X117685714Y-115373411D01*
X117685714Y-115373411D02*
X117485714Y-115601982D01*
X117485714Y-115601982D02*
X117571429Y-115601982D01*
X117571429Y-115601982D02*
X117628572Y-115630554D01*
X117628572Y-115630554D02*
X117657143Y-115659125D01*
X117657143Y-115659125D02*
X117685714Y-115716268D01*
X117685714Y-115716268D02*
X117685714Y-115859125D01*
X117685714Y-115859125D02*
X117657143Y-115916268D01*
X117657143Y-115916268D02*
X117628572Y-115944840D01*
X117628572Y-115944840D02*
X117571429Y-115973411D01*
X117571429Y-115973411D02*
X117400000Y-115973411D01*
X117400000Y-115973411D02*
X117342857Y-115944840D01*
X117342857Y-115944840D02*
X117314286Y-115916268D01*
X124714285Y-86301982D02*
X125000000Y-86301982D01*
X124657142Y-86473411D02*
X124857142Y-85873411D01*
X124857142Y-85873411D02*
X125057142Y-86473411D01*
X125542857Y-86473411D02*
X125257143Y-86473411D01*
X125257143Y-86473411D02*
X125257143Y-85873411D01*
X125742857Y-86159125D02*
X125942857Y-86159125D01*
X126028571Y-86473411D02*
X125742857Y-86473411D01*
X125742857Y-86473411D02*
X125742857Y-85873411D01*
X125742857Y-85873411D02*
X126028571Y-85873411D01*
X126628571Y-86473411D02*
X126428571Y-86187697D01*
X126285714Y-86473411D02*
X126285714Y-85873411D01*
X126285714Y-85873411D02*
X126514285Y-85873411D01*
X126514285Y-85873411D02*
X126571428Y-85901982D01*
X126571428Y-85901982D02*
X126599999Y-85930554D01*
X126599999Y-85930554D02*
X126628571Y-85987697D01*
X126628571Y-85987697D02*
X126628571Y-86073411D01*
X126628571Y-86073411D02*
X126599999Y-86130554D01*
X126599999Y-86130554D02*
X126571428Y-86159125D01*
X126571428Y-86159125D02*
X126514285Y-86187697D01*
X126514285Y-86187697D02*
X126285714Y-86187697D01*
X126799999Y-85873411D02*
X127142857Y-85873411D01*
X126971428Y-86473411D02*
X126971428Y-85873411D01*
X127200000Y-86530554D02*
X127657142Y-86530554D01*
X128142857Y-86473411D02*
X127942857Y-86187697D01*
X127800000Y-86473411D02*
X127800000Y-85873411D01*
X127800000Y-85873411D02*
X128028571Y-85873411D01*
X128028571Y-85873411D02*
X128085714Y-85901982D01*
X128085714Y-85901982D02*
X128114285Y-85930554D01*
X128114285Y-85930554D02*
X128142857Y-85987697D01*
X128142857Y-85987697D02*
X128142857Y-86073411D01*
X128142857Y-86073411D02*
X128114285Y-86130554D01*
X128114285Y-86130554D02*
X128085714Y-86159125D01*
X128085714Y-86159125D02*
X128028571Y-86187697D01*
X128028571Y-86187697D02*
X127800000Y-86187697D01*
X128400000Y-86159125D02*
X128600000Y-86159125D01*
X128685714Y-86473411D02*
X128400000Y-86473411D01*
X128400000Y-86473411D02*
X128400000Y-85873411D01*
X128400000Y-85873411D02*
X128685714Y-85873411D01*
X128942857Y-86473411D02*
X128942857Y-85873411D01*
X128942857Y-85873411D02*
X129085714Y-85873411D01*
X129085714Y-85873411D02*
X129171428Y-85901982D01*
X129171428Y-85901982D02*
X129228571Y-85959125D01*
X129228571Y-85959125D02*
X129257142Y-86016268D01*
X129257142Y-86016268D02*
X129285714Y-86130554D01*
X129285714Y-86130554D02*
X129285714Y-86216268D01*
X129285714Y-86216268D02*
X129257142Y-86330554D01*
X129257142Y-86330554D02*
X129228571Y-86387697D01*
X129228571Y-86387697D02*
X129171428Y-86444840D01*
X129171428Y-86444840D02*
X129085714Y-86473411D01*
X129085714Y-86473411D02*
X128942857Y-86473411D01*
X71642857Y-103773411D02*
X71442857Y-103487697D01*
X71300000Y-103773411D02*
X71300000Y-103173411D01*
X71300000Y-103173411D02*
X71528571Y-103173411D01*
X71528571Y-103173411D02*
X71585714Y-103201982D01*
X71585714Y-103201982D02*
X71614285Y-103230554D01*
X71614285Y-103230554D02*
X71642857Y-103287697D01*
X71642857Y-103287697D02*
X71642857Y-103373411D01*
X71642857Y-103373411D02*
X71614285Y-103430554D01*
X71614285Y-103430554D02*
X71585714Y-103459125D01*
X71585714Y-103459125D02*
X71528571Y-103487697D01*
X71528571Y-103487697D02*
X71300000Y-103487697D01*
X72185714Y-103773411D02*
X71900000Y-103773411D01*
X71900000Y-103773411D02*
X71900000Y-103173411D01*
X72385714Y-103773411D02*
X72385714Y-103173411D01*
X72385714Y-103173411D02*
X72528571Y-103173411D01*
X72528571Y-103173411D02*
X72614285Y-103201982D01*
X72614285Y-103201982D02*
X72671428Y-103259125D01*
X72671428Y-103259125D02*
X72699999Y-103316268D01*
X72699999Y-103316268D02*
X72728571Y-103430554D01*
X72728571Y-103430554D02*
X72728571Y-103516268D01*
X72728571Y-103516268D02*
X72699999Y-103630554D01*
X72699999Y-103630554D02*
X72671428Y-103687697D01*
X72671428Y-103687697D02*
X72614285Y-103744840D01*
X72614285Y-103744840D02*
X72528571Y-103773411D01*
X72528571Y-103773411D02*
X72385714Y-103773411D01*
X75814284Y-111473411D02*
X76157142Y-111473411D01*
X75985713Y-112073411D02*
X75985713Y-111473411D01*
X76357142Y-112073411D02*
X76357142Y-111473411D01*
X76357142Y-111473411D02*
X76585713Y-111473411D01*
X76585713Y-111473411D02*
X76642856Y-111501982D01*
X76642856Y-111501982D02*
X76671427Y-111530554D01*
X76671427Y-111530554D02*
X76699999Y-111587697D01*
X76699999Y-111587697D02*
X76699999Y-111673411D01*
X76699999Y-111673411D02*
X76671427Y-111730554D01*
X76671427Y-111730554D02*
X76642856Y-111759125D01*
X76642856Y-111759125D02*
X76585713Y-111787697D01*
X76585713Y-111787697D02*
X76357142Y-111787697D01*
X76957142Y-112073411D02*
X76957142Y-111473411D01*
X76957142Y-111473411D02*
X77099999Y-111473411D01*
X77099999Y-111473411D02*
X77185713Y-111501982D01*
X77185713Y-111501982D02*
X77242856Y-111559125D01*
X77242856Y-111559125D02*
X77271427Y-111616268D01*
X77271427Y-111616268D02*
X77299999Y-111730554D01*
X77299999Y-111730554D02*
X77299999Y-111816268D01*
X77299999Y-111816268D02*
X77271427Y-111930554D01*
X77271427Y-111930554D02*
X77242856Y-111987697D01*
X77242856Y-111987697D02*
X77185713Y-112044840D01*
X77185713Y-112044840D02*
X77099999Y-112073411D01*
X77099999Y-112073411D02*
X76957142Y-112073411D01*
X77528570Y-111530554D02*
X77557142Y-111501982D01*
X77557142Y-111501982D02*
X77614285Y-111473411D01*
X77614285Y-111473411D02*
X77757142Y-111473411D01*
X77757142Y-111473411D02*
X77814285Y-111501982D01*
X77814285Y-111501982D02*
X77842856Y-111530554D01*
X77842856Y-111530554D02*
X77871427Y-111587697D01*
X77871427Y-111587697D02*
X77871427Y-111644840D01*
X77871427Y-111644840D02*
X77842856Y-111730554D01*
X77842856Y-111730554D02*
X77499999Y-112073411D01*
X77499999Y-112073411D02*
X77871427Y-112073411D01*
X78128571Y-111759125D02*
X78328571Y-111759125D01*
X78414285Y-112073411D02*
X78128571Y-112073411D01*
X78128571Y-112073411D02*
X78128571Y-111473411D01*
X78128571Y-111473411D02*
X78414285Y-111473411D01*
X78785713Y-111473411D02*
X78842856Y-111473411D01*
X78842856Y-111473411D02*
X78899999Y-111501982D01*
X78899999Y-111501982D02*
X78928571Y-111530554D01*
X78928571Y-111530554D02*
X78957142Y-111587697D01*
X78957142Y-111587697D02*
X78985713Y-111701982D01*
X78985713Y-111701982D02*
X78985713Y-111844840D01*
X78985713Y-111844840D02*
X78957142Y-111959125D01*
X78957142Y-111959125D02*
X78928571Y-112016268D01*
X78928571Y-112016268D02*
X78899999Y-112044840D01*
X78899999Y-112044840D02*
X78842856Y-112073411D01*
X78842856Y-112073411D02*
X78785713Y-112073411D01*
X78785713Y-112073411D02*
X78728571Y-112044840D01*
X78728571Y-112044840D02*
X78699999Y-112016268D01*
X78699999Y-112016268D02*
X78671428Y-111959125D01*
X78671428Y-111959125D02*
X78642856Y-111844840D01*
X78642856Y-111844840D02*
X78642856Y-111701982D01*
X78642856Y-111701982D02*
X78671428Y-111587697D01*
X78671428Y-111587697D02*
X78699999Y-111530554D01*
X78699999Y-111530554D02*
X78728571Y-111501982D01*
X78728571Y-111501982D02*
X78785713Y-111473411D01*
X79357142Y-111473411D02*
X79414285Y-111473411D01*
X79414285Y-111473411D02*
X79471428Y-111501982D01*
X79471428Y-111501982D02*
X79500000Y-111530554D01*
X79500000Y-111530554D02*
X79528571Y-111587697D01*
X79528571Y-111587697D02*
X79557142Y-111701982D01*
X79557142Y-111701982D02*
X79557142Y-111844840D01*
X79557142Y-111844840D02*
X79528571Y-111959125D01*
X79528571Y-111959125D02*
X79500000Y-112016268D01*
X79500000Y-112016268D02*
X79471428Y-112044840D01*
X79471428Y-112044840D02*
X79414285Y-112073411D01*
X79414285Y-112073411D02*
X79357142Y-112073411D01*
X79357142Y-112073411D02*
X79300000Y-112044840D01*
X79300000Y-112044840D02*
X79271428Y-112016268D01*
X79271428Y-112016268D02*
X79242857Y-111959125D01*
X79242857Y-111959125D02*
X79214285Y-111844840D01*
X79214285Y-111844840D02*
X79214285Y-111701982D01*
X79214285Y-111701982D02*
X79242857Y-111587697D01*
X79242857Y-111587697D02*
X79271428Y-111530554D01*
X79271428Y-111530554D02*
X79300000Y-111501982D01*
X79300000Y-111501982D02*
X79357142Y-111473411D01*
X80128571Y-112073411D02*
X79785714Y-112073411D01*
X79957143Y-112073411D02*
X79957143Y-111473411D01*
X79957143Y-111473411D02*
X79900000Y-111559125D01*
X79900000Y-111559125D02*
X79842857Y-111616268D01*
X79842857Y-111616268D02*
X79785714Y-111644840D01*
X96442857Y-106473411D02*
X96442857Y-105873411D01*
X96699999Y-106444840D02*
X96785714Y-106473411D01*
X96785714Y-106473411D02*
X96928571Y-106473411D01*
X96928571Y-106473411D02*
X96985714Y-106444840D01*
X96985714Y-106444840D02*
X97014285Y-106416268D01*
X97014285Y-106416268D02*
X97042856Y-106359125D01*
X97042856Y-106359125D02*
X97042856Y-106301982D01*
X97042856Y-106301982D02*
X97014285Y-106244840D01*
X97014285Y-106244840D02*
X96985714Y-106216268D01*
X96985714Y-106216268D02*
X96928571Y-106187697D01*
X96928571Y-106187697D02*
X96814285Y-106159125D01*
X96814285Y-106159125D02*
X96757142Y-106130554D01*
X96757142Y-106130554D02*
X96728571Y-106101982D01*
X96728571Y-106101982D02*
X96699999Y-106044840D01*
X96699999Y-106044840D02*
X96699999Y-105987697D01*
X96699999Y-105987697D02*
X96728571Y-105930554D01*
X96728571Y-105930554D02*
X96757142Y-105901982D01*
X96757142Y-105901982D02*
X96814285Y-105873411D01*
X96814285Y-105873411D02*
X96957142Y-105873411D01*
X96957142Y-105873411D02*
X97042856Y-105901982D01*
X97414285Y-105873411D02*
X97528571Y-105873411D01*
X97528571Y-105873411D02*
X97585714Y-105901982D01*
X97585714Y-105901982D02*
X97642857Y-105959125D01*
X97642857Y-105959125D02*
X97671428Y-106073411D01*
X97671428Y-106073411D02*
X97671428Y-106273411D01*
X97671428Y-106273411D02*
X97642857Y-106387697D01*
X97642857Y-106387697D02*
X97585714Y-106444840D01*
X97585714Y-106444840D02*
X97528571Y-106473411D01*
X97528571Y-106473411D02*
X97414285Y-106473411D01*
X97414285Y-106473411D02*
X97357143Y-106444840D01*
X97357143Y-106444840D02*
X97300000Y-106387697D01*
X97300000Y-106387697D02*
X97271428Y-106273411D01*
X97271428Y-106273411D02*
X97271428Y-106073411D01*
X97271428Y-106073411D02*
X97300000Y-105959125D01*
X97300000Y-105959125D02*
X97357143Y-105901982D01*
X97357143Y-105901982D02*
X97414285Y-105873411D01*
X97871428Y-105873411D02*
X98271428Y-105873411D01*
X98271428Y-105873411D02*
X98014285Y-106473411D01*
X98442857Y-105873411D02*
X98842857Y-105873411D01*
X98842857Y-105873411D02*
X98585714Y-106473411D01*
X99328572Y-106073411D02*
X99328572Y-106473411D01*
X99185714Y-105844840D02*
X99042857Y-106273411D01*
X99042857Y-106273411D02*
X99414286Y-106273411D01*
X99957143Y-106473411D02*
X99614286Y-106473411D01*
X99785715Y-106473411D02*
X99785715Y-105873411D01*
X99785715Y-105873411D02*
X99728572Y-105959125D01*
X99728572Y-105959125D02*
X99671429Y-106016268D01*
X99671429Y-106016268D02*
X99614286Y-106044840D01*
X100214287Y-105873411D02*
X100214287Y-106359125D01*
X100214287Y-106359125D02*
X100242858Y-106416268D01*
X100242858Y-106416268D02*
X100271430Y-106444840D01*
X100271430Y-106444840D02*
X100328572Y-106473411D01*
X100328572Y-106473411D02*
X100442858Y-106473411D01*
X100442858Y-106473411D02*
X100500001Y-106444840D01*
X100500001Y-106444840D02*
X100528572Y-106416268D01*
X100528572Y-106416268D02*
X100557144Y-106359125D01*
X100557144Y-106359125D02*
X100557144Y-105873411D01*
X83685713Y-95973411D02*
X83342856Y-95973411D01*
X83514285Y-95973411D02*
X83514285Y-95373411D01*
X83514285Y-95373411D02*
X83457142Y-95459125D01*
X83457142Y-95459125D02*
X83399999Y-95516268D01*
X83399999Y-95516268D02*
X83342856Y-95544840D01*
X84057142Y-95373411D02*
X84114285Y-95373411D01*
X84114285Y-95373411D02*
X84171428Y-95401982D01*
X84171428Y-95401982D02*
X84200000Y-95430554D01*
X84200000Y-95430554D02*
X84228571Y-95487697D01*
X84228571Y-95487697D02*
X84257142Y-95601982D01*
X84257142Y-95601982D02*
X84257142Y-95744840D01*
X84257142Y-95744840D02*
X84228571Y-95859125D01*
X84228571Y-95859125D02*
X84200000Y-95916268D01*
X84200000Y-95916268D02*
X84171428Y-95944840D01*
X84171428Y-95944840D02*
X84114285Y-95973411D01*
X84114285Y-95973411D02*
X84057142Y-95973411D01*
X84057142Y-95973411D02*
X84000000Y-95944840D01*
X84000000Y-95944840D02*
X83971428Y-95916268D01*
X83971428Y-95916268D02*
X83942857Y-95859125D01*
X83942857Y-95859125D02*
X83914285Y-95744840D01*
X83914285Y-95744840D02*
X83914285Y-95601982D01*
X83914285Y-95601982D02*
X83942857Y-95487697D01*
X83942857Y-95487697D02*
X83971428Y-95430554D01*
X83971428Y-95430554D02*
X84000000Y-95401982D01*
X84000000Y-95401982D02*
X84057142Y-95373411D01*
X84628571Y-95373411D02*
X84685714Y-95373411D01*
X84685714Y-95373411D02*
X84742857Y-95401982D01*
X84742857Y-95401982D02*
X84771429Y-95430554D01*
X84771429Y-95430554D02*
X84800000Y-95487697D01*
X84800000Y-95487697D02*
X84828571Y-95601982D01*
X84828571Y-95601982D02*
X84828571Y-95744840D01*
X84828571Y-95744840D02*
X84800000Y-95859125D01*
X84800000Y-95859125D02*
X84771429Y-95916268D01*
X84771429Y-95916268D02*
X84742857Y-95944840D01*
X84742857Y-95944840D02*
X84685714Y-95973411D01*
X84685714Y-95973411D02*
X84628571Y-95973411D01*
X84628571Y-95973411D02*
X84571429Y-95944840D01*
X84571429Y-95944840D02*
X84542857Y-95916268D01*
X84542857Y-95916268D02*
X84514286Y-95859125D01*
X84514286Y-95859125D02*
X84485714Y-95744840D01*
X84485714Y-95744840D02*
X84485714Y-95601982D01*
X84485714Y-95601982D02*
X84514286Y-95487697D01*
X84514286Y-95487697D02*
X84542857Y-95430554D01*
X84542857Y-95430554D02*
X84571429Y-95401982D01*
X84571429Y-95401982D02*
X84628571Y-95373411D01*
X85085715Y-95573411D02*
X85085715Y-95973411D01*
X85085715Y-95630554D02*
X85114286Y-95601982D01*
X85114286Y-95601982D02*
X85171429Y-95573411D01*
X85171429Y-95573411D02*
X85257143Y-95573411D01*
X85257143Y-95573411D02*
X85314286Y-95601982D01*
X85314286Y-95601982D02*
X85342858Y-95659125D01*
X85342858Y-95659125D02*
X85342858Y-95973411D01*
X85828572Y-95659125D02*
X85628572Y-95659125D01*
X85628572Y-95973411D02*
X85628572Y-95373411D01*
X85628572Y-95373411D02*
X85914286Y-95373411D01*
X86000001Y-96030554D02*
X86457143Y-96030554D01*
X86600001Y-95973411D02*
X86600001Y-95373411D01*
X86600001Y-95373411D02*
X86742858Y-95373411D01*
X86742858Y-95373411D02*
X86828572Y-95401982D01*
X86828572Y-95401982D02*
X86885715Y-95459125D01*
X86885715Y-95459125D02*
X86914286Y-95516268D01*
X86914286Y-95516268D02*
X86942858Y-95630554D01*
X86942858Y-95630554D02*
X86942858Y-95716268D01*
X86942858Y-95716268D02*
X86914286Y-95830554D01*
X86914286Y-95830554D02*
X86885715Y-95887697D01*
X86885715Y-95887697D02*
X86828572Y-95944840D01*
X86828572Y-95944840D02*
X86742858Y-95973411D01*
X86742858Y-95973411D02*
X86600001Y-95973411D01*
X87114286Y-95373411D02*
X87314286Y-95973411D01*
X87314286Y-95973411D02*
X87514286Y-95373411D01*
X87714287Y-95973411D02*
X87714287Y-95373411D01*
X87714287Y-95373411D02*
X87857144Y-95373411D01*
X87857144Y-95373411D02*
X87942858Y-95401982D01*
X87942858Y-95401982D02*
X88000001Y-95459125D01*
X88000001Y-95459125D02*
X88028572Y-95516268D01*
X88028572Y-95516268D02*
X88057144Y-95630554D01*
X88057144Y-95630554D02*
X88057144Y-95716268D01*
X88057144Y-95716268D02*
X88028572Y-95830554D01*
X88028572Y-95830554D02*
X88000001Y-95887697D01*
X88000001Y-95887697D02*
X87942858Y-95944840D01*
X87942858Y-95944840D02*
X87857144Y-95973411D01*
X87857144Y-95973411D02*
X87714287Y-95973411D01*
X88314287Y-95973411D02*
X88314287Y-95373411D01*
X88314287Y-95373411D02*
X88457144Y-95373411D01*
X88457144Y-95373411D02*
X88542858Y-95401982D01*
X88542858Y-95401982D02*
X88600001Y-95459125D01*
X88600001Y-95459125D02*
X88628572Y-95516268D01*
X88628572Y-95516268D02*
X88657144Y-95630554D01*
X88657144Y-95630554D02*
X88657144Y-95716268D01*
X88657144Y-95716268D02*
X88628572Y-95830554D01*
X88628572Y-95830554D02*
X88600001Y-95887697D01*
X88600001Y-95887697D02*
X88542858Y-95944840D01*
X88542858Y-95944840D02*
X88457144Y-95973411D01*
X88457144Y-95973411D02*
X88314287Y-95973411D01*
X81900000Y-89459125D02*
X82100000Y-89459125D01*
X82185714Y-89773411D02*
X81900000Y-89773411D01*
X81900000Y-89773411D02*
X81900000Y-89173411D01*
X81900000Y-89173411D02*
X82185714Y-89173411D01*
X82785714Y-89716268D02*
X82757142Y-89744840D01*
X82757142Y-89744840D02*
X82671428Y-89773411D01*
X82671428Y-89773411D02*
X82614285Y-89773411D01*
X82614285Y-89773411D02*
X82528571Y-89744840D01*
X82528571Y-89744840D02*
X82471428Y-89687697D01*
X82471428Y-89687697D02*
X82442857Y-89630554D01*
X82442857Y-89630554D02*
X82414285Y-89516268D01*
X82414285Y-89516268D02*
X82414285Y-89430554D01*
X82414285Y-89430554D02*
X82442857Y-89316268D01*
X82442857Y-89316268D02*
X82471428Y-89259125D01*
X82471428Y-89259125D02*
X82528571Y-89201982D01*
X82528571Y-89201982D02*
X82614285Y-89173411D01*
X82614285Y-89173411D02*
X82671428Y-89173411D01*
X82671428Y-89173411D02*
X82757142Y-89201982D01*
X82757142Y-89201982D02*
X82785714Y-89230554D01*
X83357142Y-89201982D02*
X83300000Y-89173411D01*
X83300000Y-89173411D02*
X83214285Y-89173411D01*
X83214285Y-89173411D02*
X83128571Y-89201982D01*
X83128571Y-89201982D02*
X83071428Y-89259125D01*
X83071428Y-89259125D02*
X83042857Y-89316268D01*
X83042857Y-89316268D02*
X83014285Y-89430554D01*
X83014285Y-89430554D02*
X83014285Y-89516268D01*
X83014285Y-89516268D02*
X83042857Y-89630554D01*
X83042857Y-89630554D02*
X83071428Y-89687697D01*
X83071428Y-89687697D02*
X83128571Y-89744840D01*
X83128571Y-89744840D02*
X83214285Y-89773411D01*
X83214285Y-89773411D02*
X83271428Y-89773411D01*
X83271428Y-89773411D02*
X83357142Y-89744840D01*
X83357142Y-89744840D02*
X83385714Y-89716268D01*
X83385714Y-89716268D02*
X83385714Y-89516268D01*
X83385714Y-89516268D02*
X83271428Y-89516268D01*
X83642857Y-89544840D02*
X84100000Y-89544840D01*
X71857143Y-117459125D02*
X72057143Y-117459125D01*
X72142857Y-117773411D02*
X71857143Y-117773411D01*
X71857143Y-117773411D02*
X71857143Y-117173411D01*
X71857143Y-117173411D02*
X72142857Y-117173411D01*
X72400000Y-117773411D02*
X72400000Y-117173411D01*
X72400000Y-117173411D02*
X72600000Y-117601982D01*
X72600000Y-117601982D02*
X72800000Y-117173411D01*
X72800000Y-117173411D02*
X72800000Y-117773411D01*
X73399999Y-117201982D02*
X73342857Y-117173411D01*
X73342857Y-117173411D02*
X73257142Y-117173411D01*
X73257142Y-117173411D02*
X73171428Y-117201982D01*
X73171428Y-117201982D02*
X73114285Y-117259125D01*
X73114285Y-117259125D02*
X73085714Y-117316268D01*
X73085714Y-117316268D02*
X73057142Y-117430554D01*
X73057142Y-117430554D02*
X73057142Y-117516268D01*
X73057142Y-117516268D02*
X73085714Y-117630554D01*
X73085714Y-117630554D02*
X73114285Y-117687697D01*
X73114285Y-117687697D02*
X73171428Y-117744840D01*
X73171428Y-117744840D02*
X73257142Y-117773411D01*
X73257142Y-117773411D02*
X73314285Y-117773411D01*
X73314285Y-117773411D02*
X73399999Y-117744840D01*
X73399999Y-117744840D02*
X73428571Y-117716268D01*
X73428571Y-117716268D02*
X73428571Y-117516268D01*
X73428571Y-117516268D02*
X73314285Y-117516268D01*
X73685714Y-117544840D02*
X74142857Y-117544840D01*
X73914285Y-117773411D02*
X73914285Y-117316268D01*
X81857143Y-117459125D02*
X82057143Y-117459125D01*
X82142857Y-117773411D02*
X81857143Y-117773411D01*
X81857143Y-117773411D02*
X81857143Y-117173411D01*
X81857143Y-117173411D02*
X82142857Y-117173411D01*
X82400000Y-117773411D02*
X82400000Y-117173411D01*
X82400000Y-117173411D02*
X82600000Y-117601982D01*
X82600000Y-117601982D02*
X82800000Y-117173411D01*
X82800000Y-117173411D02*
X82800000Y-117773411D01*
X83399999Y-117201982D02*
X83342857Y-117173411D01*
X83342857Y-117173411D02*
X83257142Y-117173411D01*
X83257142Y-117173411D02*
X83171428Y-117201982D01*
X83171428Y-117201982D02*
X83114285Y-117259125D01*
X83114285Y-117259125D02*
X83085714Y-117316268D01*
X83085714Y-117316268D02*
X83057142Y-117430554D01*
X83057142Y-117430554D02*
X83057142Y-117516268D01*
X83057142Y-117516268D02*
X83085714Y-117630554D01*
X83085714Y-117630554D02*
X83114285Y-117687697D01*
X83114285Y-117687697D02*
X83171428Y-117744840D01*
X83171428Y-117744840D02*
X83257142Y-117773411D01*
X83257142Y-117773411D02*
X83314285Y-117773411D01*
X83314285Y-117773411D02*
X83399999Y-117744840D01*
X83399999Y-117744840D02*
X83428571Y-117716268D01*
X83428571Y-117716268D02*
X83428571Y-117516268D01*
X83428571Y-117516268D02*
X83314285Y-117516268D01*
X83685714Y-117544840D02*
X84142857Y-117544840D01*
X114128571Y-87773411D02*
X113928571Y-87487697D01*
X113785714Y-87773411D02*
X113785714Y-87173411D01*
X113785714Y-87173411D02*
X114014285Y-87173411D01*
X114014285Y-87173411D02*
X114071428Y-87201982D01*
X114071428Y-87201982D02*
X114099999Y-87230554D01*
X114099999Y-87230554D02*
X114128571Y-87287697D01*
X114128571Y-87287697D02*
X114128571Y-87373411D01*
X114128571Y-87373411D02*
X114099999Y-87430554D01*
X114099999Y-87430554D02*
X114071428Y-87459125D01*
X114071428Y-87459125D02*
X114014285Y-87487697D01*
X114014285Y-87487697D02*
X113785714Y-87487697D01*
X114385714Y-87459125D02*
X114585714Y-87459125D01*
X114671428Y-87773411D02*
X114385714Y-87773411D01*
X114385714Y-87773411D02*
X114385714Y-87173411D01*
X114385714Y-87173411D02*
X114671428Y-87173411D01*
X114899999Y-87744840D02*
X114985714Y-87773411D01*
X114985714Y-87773411D02*
X115128571Y-87773411D01*
X115128571Y-87773411D02*
X115185714Y-87744840D01*
X115185714Y-87744840D02*
X115214285Y-87716268D01*
X115214285Y-87716268D02*
X115242856Y-87659125D01*
X115242856Y-87659125D02*
X115242856Y-87601982D01*
X115242856Y-87601982D02*
X115214285Y-87544840D01*
X115214285Y-87544840D02*
X115185714Y-87516268D01*
X115185714Y-87516268D02*
X115128571Y-87487697D01*
X115128571Y-87487697D02*
X115014285Y-87459125D01*
X115014285Y-87459125D02*
X114957142Y-87430554D01*
X114957142Y-87430554D02*
X114928571Y-87401982D01*
X114928571Y-87401982D02*
X114899999Y-87344840D01*
X114899999Y-87344840D02*
X114899999Y-87287697D01*
X114899999Y-87287697D02*
X114928571Y-87230554D01*
X114928571Y-87230554D02*
X114957142Y-87201982D01*
X114957142Y-87201982D02*
X115014285Y-87173411D01*
X115014285Y-87173411D02*
X115157142Y-87173411D01*
X115157142Y-87173411D02*
X115242856Y-87201982D01*
X115500000Y-87459125D02*
X115700000Y-87459125D01*
X115785714Y-87773411D02*
X115500000Y-87773411D01*
X115500000Y-87773411D02*
X115500000Y-87173411D01*
X115500000Y-87173411D02*
X115785714Y-87173411D01*
X115957142Y-87173411D02*
X116300000Y-87173411D01*
X116128571Y-87773411D02*
X116128571Y-87173411D01*
X132714286Y-99673411D02*
X132714286Y-100159125D01*
X132714286Y-100159125D02*
X132742857Y-100216268D01*
X132742857Y-100216268D02*
X132771429Y-100244840D01*
X132771429Y-100244840D02*
X132828571Y-100273411D01*
X132828571Y-100273411D02*
X132942857Y-100273411D01*
X132942857Y-100273411D02*
X133000000Y-100244840D01*
X133000000Y-100244840D02*
X133028571Y-100216268D01*
X133028571Y-100216268D02*
X133057143Y-100159125D01*
X133057143Y-100159125D02*
X133057143Y-99673411D01*
X133314285Y-100244840D02*
X133400000Y-100273411D01*
X133400000Y-100273411D02*
X133542857Y-100273411D01*
X133542857Y-100273411D02*
X133600000Y-100244840D01*
X133600000Y-100244840D02*
X133628571Y-100216268D01*
X133628571Y-100216268D02*
X133657142Y-100159125D01*
X133657142Y-100159125D02*
X133657142Y-100101982D01*
X133657142Y-100101982D02*
X133628571Y-100044840D01*
X133628571Y-100044840D02*
X133600000Y-100016268D01*
X133600000Y-100016268D02*
X133542857Y-99987697D01*
X133542857Y-99987697D02*
X133428571Y-99959125D01*
X133428571Y-99959125D02*
X133371428Y-99930554D01*
X133371428Y-99930554D02*
X133342857Y-99901982D01*
X133342857Y-99901982D02*
X133314285Y-99844840D01*
X133314285Y-99844840D02*
X133314285Y-99787697D01*
X133314285Y-99787697D02*
X133342857Y-99730554D01*
X133342857Y-99730554D02*
X133371428Y-99701982D01*
X133371428Y-99701982D02*
X133428571Y-99673411D01*
X133428571Y-99673411D02*
X133571428Y-99673411D01*
X133571428Y-99673411D02*
X133657142Y-99701982D01*
X134114286Y-99959125D02*
X134200000Y-99987697D01*
X134200000Y-99987697D02*
X134228571Y-100016268D01*
X134228571Y-100016268D02*
X134257143Y-100073411D01*
X134257143Y-100073411D02*
X134257143Y-100159125D01*
X134257143Y-100159125D02*
X134228571Y-100216268D01*
X134228571Y-100216268D02*
X134200000Y-100244840D01*
X134200000Y-100244840D02*
X134142857Y-100273411D01*
X134142857Y-100273411D02*
X133914286Y-100273411D01*
X133914286Y-100273411D02*
X133914286Y-99673411D01*
X133914286Y-99673411D02*
X134114286Y-99673411D01*
X134114286Y-99673411D02*
X134171429Y-99701982D01*
X134171429Y-99701982D02*
X134200000Y-99730554D01*
X134200000Y-99730554D02*
X134228571Y-99787697D01*
X134228571Y-99787697D02*
X134228571Y-99844840D01*
X134228571Y-99844840D02*
X134200000Y-99901982D01*
X134200000Y-99901982D02*
X134171429Y-99930554D01*
X134171429Y-99930554D02*
X134114286Y-99959125D01*
X134114286Y-99959125D02*
X133914286Y-99959125D01*
X134371429Y-100330554D02*
X134828571Y-100330554D01*
X135314286Y-100216268D02*
X135285714Y-100244840D01*
X135285714Y-100244840D02*
X135200000Y-100273411D01*
X135200000Y-100273411D02*
X135142857Y-100273411D01*
X135142857Y-100273411D02*
X135057143Y-100244840D01*
X135057143Y-100244840D02*
X135000000Y-100187697D01*
X135000000Y-100187697D02*
X134971429Y-100130554D01*
X134971429Y-100130554D02*
X134942857Y-100016268D01*
X134942857Y-100016268D02*
X134942857Y-99930554D01*
X134942857Y-99930554D02*
X134971429Y-99816268D01*
X134971429Y-99816268D02*
X135000000Y-99759125D01*
X135000000Y-99759125D02*
X135057143Y-99701982D01*
X135057143Y-99701982D02*
X135142857Y-99673411D01*
X135142857Y-99673411D02*
X135200000Y-99673411D01*
X135200000Y-99673411D02*
X135285714Y-99701982D01*
X135285714Y-99701982D02*
X135314286Y-99730554D01*
X95528570Y-118259125D02*
X95614284Y-118287697D01*
X95614284Y-118287697D02*
X95642855Y-118316268D01*
X95642855Y-118316268D02*
X95671427Y-118373411D01*
X95671427Y-118373411D02*
X95671427Y-118459125D01*
X95671427Y-118459125D02*
X95642855Y-118516268D01*
X95642855Y-118516268D02*
X95614284Y-118544840D01*
X95614284Y-118544840D02*
X95557141Y-118573411D01*
X95557141Y-118573411D02*
X95328570Y-118573411D01*
X95328570Y-118573411D02*
X95328570Y-117973411D01*
X95328570Y-117973411D02*
X95528570Y-117973411D01*
X95528570Y-117973411D02*
X95585713Y-118001982D01*
X95585713Y-118001982D02*
X95614284Y-118030554D01*
X95614284Y-118030554D02*
X95642855Y-118087697D01*
X95642855Y-118087697D02*
X95642855Y-118144840D01*
X95642855Y-118144840D02*
X95614284Y-118201982D01*
X95614284Y-118201982D02*
X95585713Y-118230554D01*
X95585713Y-118230554D02*
X95528570Y-118259125D01*
X95528570Y-118259125D02*
X95328570Y-118259125D01*
X96042855Y-117973411D02*
X96099998Y-117973411D01*
X96099998Y-117973411D02*
X96157141Y-118001982D01*
X96157141Y-118001982D02*
X96185713Y-118030554D01*
X96185713Y-118030554D02*
X96214284Y-118087697D01*
X96214284Y-118087697D02*
X96242855Y-118201982D01*
X96242855Y-118201982D02*
X96242855Y-118344840D01*
X96242855Y-118344840D02*
X96214284Y-118459125D01*
X96214284Y-118459125D02*
X96185713Y-118516268D01*
X96185713Y-118516268D02*
X96157141Y-118544840D01*
X96157141Y-118544840D02*
X96099998Y-118573411D01*
X96099998Y-118573411D02*
X96042855Y-118573411D01*
X96042855Y-118573411D02*
X95985713Y-118544840D01*
X95985713Y-118544840D02*
X95957141Y-118516268D01*
X95957141Y-118516268D02*
X95928570Y-118459125D01*
X95928570Y-118459125D02*
X95899998Y-118344840D01*
X95899998Y-118344840D02*
X95899998Y-118201982D01*
X95899998Y-118201982D02*
X95928570Y-118087697D01*
X95928570Y-118087697D02*
X95957141Y-118030554D01*
X95957141Y-118030554D02*
X95985713Y-118001982D01*
X95985713Y-118001982D02*
X96042855Y-117973411D01*
X96785713Y-117973411D02*
X96499999Y-117973411D01*
X96499999Y-117973411D02*
X96471427Y-118259125D01*
X96471427Y-118259125D02*
X96499999Y-118230554D01*
X96499999Y-118230554D02*
X96557142Y-118201982D01*
X96557142Y-118201982D02*
X96699999Y-118201982D01*
X96699999Y-118201982D02*
X96757142Y-118230554D01*
X96757142Y-118230554D02*
X96785713Y-118259125D01*
X96785713Y-118259125D02*
X96814284Y-118316268D01*
X96814284Y-118316268D02*
X96814284Y-118459125D01*
X96814284Y-118459125D02*
X96785713Y-118516268D01*
X96785713Y-118516268D02*
X96757142Y-118544840D01*
X96757142Y-118544840D02*
X96699999Y-118573411D01*
X96699999Y-118573411D02*
X96557142Y-118573411D01*
X96557142Y-118573411D02*
X96499999Y-118544840D01*
X96499999Y-118544840D02*
X96471427Y-118516268D01*
X97185713Y-117973411D02*
X97242856Y-117973411D01*
X97242856Y-117973411D02*
X97299999Y-118001982D01*
X97299999Y-118001982D02*
X97328571Y-118030554D01*
X97328571Y-118030554D02*
X97357142Y-118087697D01*
X97357142Y-118087697D02*
X97385713Y-118201982D01*
X97385713Y-118201982D02*
X97385713Y-118344840D01*
X97385713Y-118344840D02*
X97357142Y-118459125D01*
X97357142Y-118459125D02*
X97328571Y-118516268D01*
X97328571Y-118516268D02*
X97299999Y-118544840D01*
X97299999Y-118544840D02*
X97242856Y-118573411D01*
X97242856Y-118573411D02*
X97185713Y-118573411D01*
X97185713Y-118573411D02*
X97128571Y-118544840D01*
X97128571Y-118544840D02*
X97099999Y-118516268D01*
X97099999Y-118516268D02*
X97071428Y-118459125D01*
X97071428Y-118459125D02*
X97042856Y-118344840D01*
X97042856Y-118344840D02*
X97042856Y-118201982D01*
X97042856Y-118201982D02*
X97071428Y-118087697D01*
X97071428Y-118087697D02*
X97099999Y-118030554D01*
X97099999Y-118030554D02*
X97128571Y-118001982D01*
X97128571Y-118001982D02*
X97185713Y-117973411D01*
X97585714Y-117973411D02*
X97957142Y-117973411D01*
X97957142Y-117973411D02*
X97757142Y-118201982D01*
X97757142Y-118201982D02*
X97842857Y-118201982D01*
X97842857Y-118201982D02*
X97900000Y-118230554D01*
X97900000Y-118230554D02*
X97928571Y-118259125D01*
X97928571Y-118259125D02*
X97957142Y-118316268D01*
X97957142Y-118316268D02*
X97957142Y-118459125D01*
X97957142Y-118459125D02*
X97928571Y-118516268D01*
X97928571Y-118516268D02*
X97900000Y-118544840D01*
X97900000Y-118544840D02*
X97842857Y-118573411D01*
X97842857Y-118573411D02*
X97671428Y-118573411D01*
X97671428Y-118573411D02*
X97614285Y-118544840D01*
X97614285Y-118544840D02*
X97585714Y-118516268D01*
X98185714Y-118544840D02*
X98271429Y-118573411D01*
X98271429Y-118573411D02*
X98414286Y-118573411D01*
X98414286Y-118573411D02*
X98471429Y-118544840D01*
X98471429Y-118544840D02*
X98500000Y-118516268D01*
X98500000Y-118516268D02*
X98528571Y-118459125D01*
X98528571Y-118459125D02*
X98528571Y-118401982D01*
X98528571Y-118401982D02*
X98500000Y-118344840D01*
X98500000Y-118344840D02*
X98471429Y-118316268D01*
X98471429Y-118316268D02*
X98414286Y-118287697D01*
X98414286Y-118287697D02*
X98300000Y-118259125D01*
X98300000Y-118259125D02*
X98242857Y-118230554D01*
X98242857Y-118230554D02*
X98214286Y-118201982D01*
X98214286Y-118201982D02*
X98185714Y-118144840D01*
X98185714Y-118144840D02*
X98185714Y-118087697D01*
X98185714Y-118087697D02*
X98214286Y-118030554D01*
X98214286Y-118030554D02*
X98242857Y-118001982D01*
X98242857Y-118001982D02*
X98300000Y-117973411D01*
X98300000Y-117973411D02*
X98442857Y-117973411D01*
X98442857Y-117973411D02*
X98528571Y-118001982D01*
X98785715Y-118344840D02*
X99242858Y-118344840D01*
X99842857Y-118573411D02*
X99500000Y-118573411D01*
X99671429Y-118573411D02*
X99671429Y-117973411D01*
X99671429Y-117973411D02*
X99614286Y-118059125D01*
X99614286Y-118059125D02*
X99557143Y-118116268D01*
X99557143Y-118116268D02*
X99500000Y-118144840D01*
X100042858Y-117973411D02*
X100185715Y-118573411D01*
X100185715Y-118573411D02*
X100300001Y-118144840D01*
X100300001Y-118144840D02*
X100414286Y-118573411D01*
X100414286Y-118573411D02*
X100557144Y-117973411D01*
X101128572Y-118573411D02*
X100928572Y-118287697D01*
X100785715Y-118573411D02*
X100785715Y-117973411D01*
X100785715Y-117973411D02*
X101014286Y-117973411D01*
X101014286Y-117973411D02*
X101071429Y-118001982D01*
X101071429Y-118001982D02*
X101100000Y-118030554D01*
X101100000Y-118030554D02*
X101128572Y-118087697D01*
X101128572Y-118087697D02*
X101128572Y-118173411D01*
X101128572Y-118173411D02*
X101100000Y-118230554D01*
X101100000Y-118230554D02*
X101071429Y-118259125D01*
X101071429Y-118259125D02*
X101014286Y-118287697D01*
X101014286Y-118287697D02*
X100785715Y-118287697D01*
X101328572Y-117973411D02*
X101700000Y-117973411D01*
X101700000Y-117973411D02*
X101500000Y-118201982D01*
X101500000Y-118201982D02*
X101585715Y-118201982D01*
X101585715Y-118201982D02*
X101642858Y-118230554D01*
X101642858Y-118230554D02*
X101671429Y-118259125D01*
X101671429Y-118259125D02*
X101700000Y-118316268D01*
X101700000Y-118316268D02*
X101700000Y-118459125D01*
X101700000Y-118459125D02*
X101671429Y-118516268D01*
X101671429Y-118516268D02*
X101642858Y-118544840D01*
X101642858Y-118544840D02*
X101585715Y-118573411D01*
X101585715Y-118573411D02*
X101414286Y-118573411D01*
X101414286Y-118573411D02*
X101357143Y-118544840D01*
X101357143Y-118544840D02*
X101328572Y-118516268D01*
X105814284Y-89973411D02*
X105471427Y-89973411D01*
X105642856Y-89973411D02*
X105642856Y-89373411D01*
X105642856Y-89373411D02*
X105585713Y-89459125D01*
X105585713Y-89459125D02*
X105528570Y-89516268D01*
X105528570Y-89516268D02*
X105471427Y-89544840D01*
X106185713Y-89373411D02*
X106242856Y-89373411D01*
X106242856Y-89373411D02*
X106299999Y-89401982D01*
X106299999Y-89401982D02*
X106328571Y-89430554D01*
X106328571Y-89430554D02*
X106357142Y-89487697D01*
X106357142Y-89487697D02*
X106385713Y-89601982D01*
X106385713Y-89601982D02*
X106385713Y-89744840D01*
X106385713Y-89744840D02*
X106357142Y-89859125D01*
X106357142Y-89859125D02*
X106328571Y-89916268D01*
X106328571Y-89916268D02*
X106299999Y-89944840D01*
X106299999Y-89944840D02*
X106242856Y-89973411D01*
X106242856Y-89973411D02*
X106185713Y-89973411D01*
X106185713Y-89973411D02*
X106128571Y-89944840D01*
X106128571Y-89944840D02*
X106099999Y-89916268D01*
X106099999Y-89916268D02*
X106071428Y-89859125D01*
X106071428Y-89859125D02*
X106042856Y-89744840D01*
X106042856Y-89744840D02*
X106042856Y-89601982D01*
X106042856Y-89601982D02*
X106071428Y-89487697D01*
X106071428Y-89487697D02*
X106099999Y-89430554D01*
X106099999Y-89430554D02*
X106128571Y-89401982D01*
X106128571Y-89401982D02*
X106185713Y-89373411D01*
X106757142Y-89373411D02*
X106814285Y-89373411D01*
X106814285Y-89373411D02*
X106871428Y-89401982D01*
X106871428Y-89401982D02*
X106900000Y-89430554D01*
X106900000Y-89430554D02*
X106928571Y-89487697D01*
X106928571Y-89487697D02*
X106957142Y-89601982D01*
X106957142Y-89601982D02*
X106957142Y-89744840D01*
X106957142Y-89744840D02*
X106928571Y-89859125D01*
X106928571Y-89859125D02*
X106900000Y-89916268D01*
X106900000Y-89916268D02*
X106871428Y-89944840D01*
X106871428Y-89944840D02*
X106814285Y-89973411D01*
X106814285Y-89973411D02*
X106757142Y-89973411D01*
X106757142Y-89973411D02*
X106700000Y-89944840D01*
X106700000Y-89944840D02*
X106671428Y-89916268D01*
X106671428Y-89916268D02*
X106642857Y-89859125D01*
X106642857Y-89859125D02*
X106614285Y-89744840D01*
X106614285Y-89744840D02*
X106614285Y-89601982D01*
X106614285Y-89601982D02*
X106642857Y-89487697D01*
X106642857Y-89487697D02*
X106671428Y-89430554D01*
X106671428Y-89430554D02*
X106700000Y-89401982D01*
X106700000Y-89401982D02*
X106757142Y-89373411D01*
X107214286Y-89573411D02*
X107214286Y-89973411D01*
X107214286Y-89630554D02*
X107242857Y-89601982D01*
X107242857Y-89601982D02*
X107300000Y-89573411D01*
X107300000Y-89573411D02*
X107385714Y-89573411D01*
X107385714Y-89573411D02*
X107442857Y-89601982D01*
X107442857Y-89601982D02*
X107471429Y-89659125D01*
X107471429Y-89659125D02*
X107471429Y-89973411D01*
X107957143Y-89659125D02*
X107757143Y-89659125D01*
X107757143Y-89973411D02*
X107757143Y-89373411D01*
X107757143Y-89373411D02*
X108042857Y-89373411D01*
X108128572Y-90030554D02*
X108585714Y-90030554D01*
X108728572Y-89973411D02*
X108728572Y-89373411D01*
X108985714Y-89944840D02*
X109071429Y-89973411D01*
X109071429Y-89973411D02*
X109214286Y-89973411D01*
X109214286Y-89973411D02*
X109271429Y-89944840D01*
X109271429Y-89944840D02*
X109300000Y-89916268D01*
X109300000Y-89916268D02*
X109328571Y-89859125D01*
X109328571Y-89859125D02*
X109328571Y-89801982D01*
X109328571Y-89801982D02*
X109300000Y-89744840D01*
X109300000Y-89744840D02*
X109271429Y-89716268D01*
X109271429Y-89716268D02*
X109214286Y-89687697D01*
X109214286Y-89687697D02*
X109100000Y-89659125D01*
X109100000Y-89659125D02*
X109042857Y-89630554D01*
X109042857Y-89630554D02*
X109014286Y-89601982D01*
X109014286Y-89601982D02*
X108985714Y-89544840D01*
X108985714Y-89544840D02*
X108985714Y-89487697D01*
X108985714Y-89487697D02*
X109014286Y-89430554D01*
X109014286Y-89430554D02*
X109042857Y-89401982D01*
X109042857Y-89401982D02*
X109100000Y-89373411D01*
X109100000Y-89373411D02*
X109242857Y-89373411D01*
X109242857Y-89373411D02*
X109328571Y-89401982D01*
X109700000Y-89373411D02*
X109814286Y-89373411D01*
X109814286Y-89373411D02*
X109871429Y-89401982D01*
X109871429Y-89401982D02*
X109928572Y-89459125D01*
X109928572Y-89459125D02*
X109957143Y-89573411D01*
X109957143Y-89573411D02*
X109957143Y-89773411D01*
X109957143Y-89773411D02*
X109928572Y-89887697D01*
X109928572Y-89887697D02*
X109871429Y-89944840D01*
X109871429Y-89944840D02*
X109814286Y-89973411D01*
X109814286Y-89973411D02*
X109700000Y-89973411D01*
X109700000Y-89973411D02*
X109642858Y-89944840D01*
X109642858Y-89944840D02*
X109585715Y-89887697D01*
X109585715Y-89887697D02*
X109557143Y-89773411D01*
X109557143Y-89773411D02*
X109557143Y-89573411D01*
X109557143Y-89573411D02*
X109585715Y-89459125D01*
X109585715Y-89459125D02*
X109642858Y-89401982D01*
X109642858Y-89401982D02*
X109700000Y-89373411D01*
X110185714Y-89430554D02*
X110214286Y-89401982D01*
X110214286Y-89401982D02*
X110271429Y-89373411D01*
X110271429Y-89373411D02*
X110414286Y-89373411D01*
X110414286Y-89373411D02*
X110471429Y-89401982D01*
X110471429Y-89401982D02*
X110500000Y-89430554D01*
X110500000Y-89430554D02*
X110528571Y-89487697D01*
X110528571Y-89487697D02*
X110528571Y-89544840D01*
X110528571Y-89544840D02*
X110500000Y-89630554D01*
X110500000Y-89630554D02*
X110157143Y-89973411D01*
X110157143Y-89973411D02*
X110528571Y-89973411D01*
X119185715Y-87459125D02*
X119271429Y-87487697D01*
X119271429Y-87487697D02*
X119300000Y-87516268D01*
X119300000Y-87516268D02*
X119328572Y-87573411D01*
X119328572Y-87573411D02*
X119328572Y-87659125D01*
X119328572Y-87659125D02*
X119300000Y-87716268D01*
X119300000Y-87716268D02*
X119271429Y-87744840D01*
X119271429Y-87744840D02*
X119214286Y-87773411D01*
X119214286Y-87773411D02*
X118985715Y-87773411D01*
X118985715Y-87773411D02*
X118985715Y-87173411D01*
X118985715Y-87173411D02*
X119185715Y-87173411D01*
X119185715Y-87173411D02*
X119242858Y-87201982D01*
X119242858Y-87201982D02*
X119271429Y-87230554D01*
X119271429Y-87230554D02*
X119300000Y-87287697D01*
X119300000Y-87287697D02*
X119300000Y-87344840D01*
X119300000Y-87344840D02*
X119271429Y-87401982D01*
X119271429Y-87401982D02*
X119242858Y-87430554D01*
X119242858Y-87430554D02*
X119185715Y-87459125D01*
X119185715Y-87459125D02*
X118985715Y-87459125D01*
X119700000Y-87173411D02*
X119814286Y-87173411D01*
X119814286Y-87173411D02*
X119871429Y-87201982D01*
X119871429Y-87201982D02*
X119928572Y-87259125D01*
X119928572Y-87259125D02*
X119957143Y-87373411D01*
X119957143Y-87373411D02*
X119957143Y-87573411D01*
X119957143Y-87573411D02*
X119928572Y-87687697D01*
X119928572Y-87687697D02*
X119871429Y-87744840D01*
X119871429Y-87744840D02*
X119814286Y-87773411D01*
X119814286Y-87773411D02*
X119700000Y-87773411D01*
X119700000Y-87773411D02*
X119642858Y-87744840D01*
X119642858Y-87744840D02*
X119585715Y-87687697D01*
X119585715Y-87687697D02*
X119557143Y-87573411D01*
X119557143Y-87573411D02*
X119557143Y-87373411D01*
X119557143Y-87373411D02*
X119585715Y-87259125D01*
X119585715Y-87259125D02*
X119642858Y-87201982D01*
X119642858Y-87201982D02*
X119700000Y-87173411D01*
X120328571Y-87173411D02*
X120442857Y-87173411D01*
X120442857Y-87173411D02*
X120500000Y-87201982D01*
X120500000Y-87201982D02*
X120557143Y-87259125D01*
X120557143Y-87259125D02*
X120585714Y-87373411D01*
X120585714Y-87373411D02*
X120585714Y-87573411D01*
X120585714Y-87573411D02*
X120557143Y-87687697D01*
X120557143Y-87687697D02*
X120500000Y-87744840D01*
X120500000Y-87744840D02*
X120442857Y-87773411D01*
X120442857Y-87773411D02*
X120328571Y-87773411D01*
X120328571Y-87773411D02*
X120271429Y-87744840D01*
X120271429Y-87744840D02*
X120214286Y-87687697D01*
X120214286Y-87687697D02*
X120185714Y-87573411D01*
X120185714Y-87573411D02*
X120185714Y-87373411D01*
X120185714Y-87373411D02*
X120214286Y-87259125D01*
X120214286Y-87259125D02*
X120271429Y-87201982D01*
X120271429Y-87201982D02*
X120328571Y-87173411D01*
X120757142Y-87173411D02*
X121100000Y-87173411D01*
X120928571Y-87773411D02*
X120928571Y-87173411D01*
M02*
